<?xml version="1.0" standalone="no"?>
<!DOCTYPE svg PUBLIC "-//W3C//DTD SVG 20010904//EN"
 "http://www.w3.org/TR/2001/REC-SVG-20010904/DTD/svg10.dtd">
<svg version="1.0" xmlns="http://www.w3.org/2000/svg"
 width="640.000000pt" height="640.000000pt" viewBox="0 0 640.000000 640.000000"
 preserveAspectRatio="xMidYMid meet">
<metadata>
Created by potrace 1.14, written by Peter Selinger 2001-2017
</metadata>
<g transform="translate(0.000000,640.000000) scale(0.100000,-0.100000)"
fill="#000000" stroke="none">
<path d="M3015 6389 c-22 -4 -49 -10 -60 -13 -21 -4 -85 -30 -120 -49 -60 -31
-137 -75 -194 -109 -34 -21 -64 -38 -66 -38 -1 0 -54 -30 -116 -66 -63 -37
-220 -128 -349 -202 -129 -74 -247 -143 -262 -154 -16 -11 -28 -16 -28 -12 0
4 -8 0 -17 -8 -17 -14 -45 -31 -147 -88 -21 -12 -107 -61 -190 -109 -83 -48
-171 -99 -196 -112 -25 -13 -47 -27 -50 -30 -3 -4 -23 -16 -45 -28 -22 -12
-47 -25 -55 -30 -56 -35 -171 -101 -175 -101 -4 0 -120 -68 -155 -90 -8 -6
-22 -13 -30 -17 -8 -3 -27 -15 -43 -25 -15 -11 -27 -17 -27 -13 0 3 -6 1 -13
-5 -6 -6 -34 -25 -61 -42 -54 -35 -126 -103 -168 -158 -22 -29 -80 -133 -83
-150 -2 -9 -28 -95 -34 -110 -9 -26 -11 -2696 -2 -2726 5 -16 17 -56 27 -89
10 -33 25 -71 34 -85 8 -14 22 -37 29 -52 46 -91 156 -186 323 -279 40 -22
134 -76 208 -120 74 -44 142 -82 150 -86 8 -4 31 -16 50 -28 19 -12 55 -33 80
-47 25 -14 131 -75 235 -135 105 -60 213 -122 240 -138 102 -58 150 -86 165
-95 21 -14 354 -205 371 -214 8 -4 23 -12 34 -19 11 -7 67 -39 125 -72 58 -33
107 -63 108 -67 2 -4 8 -8 12 -8 5 0 37 -17 72 -37 35 -21 65 -38 68 -38 3 0
19 -9 35 -19 191 -120 283 -150 450 -149 145 1 261 45 485 183 70 44 191 110
199 110 6 0 11 5 11 10 0 6 4 10 8 10 8 0 534 299 558 317 12 9 32 21 100 58
27 14 63 35 79 46 17 10 37 22 45 26 8 4 43 24 78 45 34 21 66 38 71 38 5 0
14 7 21 15 7 9 15 13 18 10 3 -3 12 1 21 8 9 8 129 78 266 157 138 79 282 162
320 185 39 22 77 44 85 48 8 4 33 18 55 32 22 14 47 28 55 32 23 10 101 73
144 117 49 50 100 130 127 198 22 55 23 59 40 143 6 32 10 521 9 1355 0 1334
1 1311 -33 1447 -2 6 -21 47 -42 90 -30 57 -62 100 -122 160 -45 46 -89 83
-98 83 -8 0 -15 5 -15 10 0 6 -4 10 -9 10 -5 0 -55 27 -111 60 -56 33 -104 60
-107 60 -3 0 -25 14 -50 30 -24 17 -47 30 -50 30 -3 0 -33 17 -67 38 -34 21
-72 43 -86 50 -14 6 -32 16 -40 22 -14 9 -191 112 -283 164 -23 13 -130 74
-237 136 -208 120 -242 140 -293 169 -18 10 -88 50 -155 90 -68 39 -127 71
-132 71 -6 0 -10 5 -10 10 0 6 -4 10 -10 10 -5 0 -64 32 -132 72 -418 243
-461 266 -548 293 -62 18 -234 27 -295 14z m392 -2083 c4 -4 22 -48 39 -99 18
-51 55 -157 84 -237 28 -80 56 -156 60 -170 5 -14 27 -77 50 -140 23 -63 48
-133 55 -155 7 -22 30 -85 50 -140 20 -55 45 -125 55 -155 28 -83 89 -250 95
-259 2 -5 15 -8 29 -8 21 0 27 9 50 81 15 44 31 90 36 101 5 11 34 92 65 180
31 88 58 167 62 175 3 8 7 20 9 25 1 6 20 60 42 120 74 205 154 430 156 440 2
6 6 17 9 25 9 21 77 211 77 216 0 2 135 3 300 3 210 0 300 -3 300 -10 0 -11
-30 -100 -168 -494 -39 -110 -105 -299 -147 -420 -42 -121 -94 -269 -116 -330
-22 -60 -41 -118 -44 -128 -2 -9 -7 -22 -10 -27 -3 -5 -8 -18 -10 -27 -2 -10
-18 -56 -35 -103 -17 -47 -53 -148 -79 -225 -27 -77 -72 -207 -101 -290 -29
-82 -53 -154 -54 -160 -2 -5 -10 -28 -20 -50 -9 -21 -18 -46 -20 -55 -2 -8 -6
-22 -9 -30 -4 -8 -15 -40 -25 -70 l-19 -55 -248 -3 c-192 -2 -250 1 -257 10
-6 10 -57 153 -63 178 -1 3 -5 12 -8 20 -8 19 -29 78 -112 315 -37 105 -75
213 -85 240 -11 28 -44 122 -75 210 -30 88 -59 169 -64 180 -5 11 -12 29 -14
40 -11 45 -60 171 -71 183 -15 15 -42 7 -51 -16 -9 -24 -146 -407 -212 -592
-30 -85 -58 -164 -63 -175 -9 -19 -68 -187 -74 -210 -4 -13 -15 -43 -28 -75
-5 -14 -18 -50 -28 -80 -10 -30 -32 -93 -49 -140 -17 -47 -31 -86 -31 -88 0
-1 -113 -1 -252 0 l-251 3 -47 136 c-26 74 -49 139 -52 145 -3 5 -10 25 -16
44 -5 19 -33 100 -62 180 -28 80 -57 163 -65 185 -7 22 -41 119 -75 215 -34
96 -68 195 -76 220 -8 25 -19 54 -24 65 -4 11 -22 63 -40 115 -18 52 -36 104
-40 115 -14 34 -44 119 -46 130 -2 6 -28 82 -59 170 -31 88 -63 180 -71 205
-8 25 -19 54 -24 65 -8 20 -79 223 -126 365 -14 41 -30 83 -35 92 -5 9 -5 19
-1 22 4 2 138 4 299 4 210 0 295 -3 301 -11 5 -7 19 -41 31 -77 12 -36 26 -74
30 -85 10 -25 30 -81 91 -256 26 -75 49 -140 52 -145 4 -7 29 -76 33 -94 1 -3
4 -12 8 -20 3 -8 20 -55 37 -105 17 -49 40 -112 50 -140 10 -27 33 -90 50
-140 17 -49 37 -103 43 -120 7 -16 12 -32 13 -35 0 -3 3 -12 7 -20 3 -8 13
-37 23 -65 21 -61 17 -55 42 -60 15 -2 23 4 31 23 17 46 103 285 117 327 7 22
27 78 44 125 17 47 40 110 50 140 10 30 35 100 55 155 20 55 46 127 56 160 11
33 24 69 29 80 9 23 71 195 74 210 2 6 8 21 14 35 6 14 17 45 25 70 9 32 20
46 36 50 34 8 480 5 488 -4z"/>
</g>
</svg>
