<?xml version="1.0" encoding="UTF-8"?>
<svg width="50px" height="50px" viewBox="0 0 50 50" version="1.1" xmlns="http://www.w3.org/2000/svg" xmlns:xlink="http://www.w3.org/1999/xlink">
    <!-- Generator: Sketch 50.2 (55047) - http://www.bohemiancoding.com/sketch -->
    <title>Icon</title>
    <desc>Created with Sketch.</desc>
    <defs></defs>
    <g id="Home-v1" stroke="none" stroke-width="1" fill="none" fill-rule="evenodd">
        <g id="Main-page" transform="translate(-650.000000, -3549.000000)">
            <g id="Made-for-devs" transform="translate(72.000000, 2829.000000)">
                <g id="Features" transform="translate(205.000000, 383.000000)">
                    <g id="Documented" transform="translate(352.000000, 310.000000)">
                        <g id="Icon" transform="translate(21.000000, 27.000000)">
                            <circle id="Oval-2" fill-opacity="0.384312726" fill="#F8E71C" cx="25" cy="25" r="25"></circle>
                            <g id="Book-04" transform="translate(9.000000, 16.000000)" fill="#DA8F50" fill-opacity="0.721439085" fill-rule="nonzero">
                                <path d="M3.44086022,0 L3.44086022,16.516129 C11.109063,16.516129 12.5345622,17.4500768 15.2380952,18.8264209 L15.2380952,2.26113671 C13.8617512,0.884792627 11.8463902,0 3.44086022,0 Z M28.5099846,0 C20.1044547,0 18.0399386,0.933947773 16.7127496,2.31029186 L16.7127496,18.8264209 C19.4162826,17.4500768 20.8417819,16.516129 28.5099846,16.516129 L28.5099846,0 Z M0,1.72043011 L0,19.4162826 L14.0092166,19.4162826 C11.7480799,18.3348694 10.1259601,17.6958525 3.44086022,17.6958525 L2.31029186,17.6958525 L2.31029186,16.5652842 L2.31029186,1.72043011 L0,1.72043011 Z M29.6897081,1.72043011 L29.6897081,16.516129 L29.6897081,17.6466974 L28.5591398,17.6466974 C21.8740399,17.6466974 20.2519201,18.2857143 17.9907834,19.3671275 L32,19.3671275 L32,1.67127496 L29.6897081,1.67127496 L29.6897081,1.72043011 Z" id="XMLID_8_"></path>
                            </g>
                        </g>
                    </g>
                </g>
            </g>
        </g>
    </g>
</svg>