<svg xmlns="http://www.w3.org/2000/svg" xmlns:xlink="http://www.w3.org/1999/xlink" version="1.1" x="0px" y="0px" viewBox="0 0 64 64" style="enable-background:new 0 0 64 64;" xml:space="preserve">
<linearGradient id="SVGID_1__48277" gradientUnits="userSpaceOnUse" x1="14" y1="14.4167" x2="14" y2="19.5007" spreadMethod="reflect">
	<stop offset="0" style="stop-color:#6DC7FF"></stop>
	<stop offset="1" style="stop-color:#E6ABFF"></stop>
</linearGradient>
<circle style="fill:url(#SVGID_1__48277);" cx="14" cy="17" r="2"></circle>
<linearGradient id="SVGID_2__48277" gradientUnits="userSpaceOnUse" x1="22" y1="14.4167" x2="22" y2="19.5007" spreadMethod="reflect">
	<stop offset="0" style="stop-color:#6DC7FF"></stop>
	<stop offset="1" style="stop-color:#E6ABFF"></stop>
</linearGradient>
<circle style="fill:url(#SVGID_2__48277);" cx="22" cy="17" r="2"></circle>
<linearGradient id="SVGID_3__48277" gradientUnits="userSpaceOnUse" x1="18" y1="20.6667" x2="18" y2="24.5081" spreadMethod="reflect">
	<stop offset="0" style="stop-color:#6DC7FF"></stop>
	<stop offset="1" style="stop-color:#E6ABFF"></stop>
</linearGradient>
<path style="fill:url(#SVGID_3__48277);" d="M15,21c0,2,1.343,3,3,3s3-1,3-3H15z"></path>
<linearGradient id="SVGID_4__48277" gradientUnits="userSpaceOnUse" x1="32" y1="5.1667" x2="32" y2="58.2057" spreadMethod="reflect">
	<stop offset="0" style="stop-color:#f75b34"></stop>
	<stop offset="1" style="stop-color:#9013fe"></stop>
</linearGradient>
<path style="fill:url(#SVGID_4__48277);" d="M53,16H29.819C28.863,10.333,23.934,6,18,6C11.383,6,6,11.383,6,18  c0,5.935,4.334,10.863,10,11.819V45c0,2.757,2.243,5,5,5h7v4.272c0,1.532,0.865,2.85,2.259,3.438  c0.465,0.197,0.947,0.293,1.424,0.293c0.918,0,1.813-0.357,2.513-1.04L41.404,50H53c2.757,0,5-2.243,5-5V21  C58,18.243,55.757,16,53,16z M8,18c0-5.514,4.486-10,10-10s10,4.486,10,10s-4.486,10-10,10S8,23.514,8,18z M56,45  c0,1.654-1.346,3-3,3H40.596l-7.792,7.527c-0.487,0.475-1.146,0.601-1.767,0.341C30.535,55.656,30,55.126,30,54.272V48h-9  c-1.654,0-3-1.346-3-3V30c6.617,0,12-5.383,12-12h23c1.654,0,3,1.346,3,3V45z"></path>
<linearGradient id="SVGID_5__48277" gradientUnits="userSpaceOnUse" x1="44.5" y1="5.1667" x2="44.5" y2="58.2057" spreadMethod="reflect">
	<stop offset="0" style="stop-color:#f75b34"></stop>
	<stop offset="1" style="stop-color:#9013fe"></stop>
</linearGradient>
<path style="fill:url(#SVGID_5__48277);" d="M47,24h-5c-1.654,0-3,1.346-3,3v3h2v-3c0-0.552,0.448-1,1-1h5c0.552,0,1,0.448,1,1v4  c0,0.552-0.448,1-1,1h-1c-1.654,0-3,1.346-3,3v1h2v-1c0-0.552,0.448-1,1-1h1c1.654,0,3-1.346,3-3v-4C50,25.346,48.654,24,47,24z"></path>
<linearGradient id="SVGID_6__48277" gradientUnits="userSpaceOnUse" x1="44" y1="5.1667" x2="44" y2="58.2057" spreadMethod="reflect">
	<stop offset="0" style="stop-color:#f75b34"></stop>
	<stop offset="1" style="stop-color:#9013fe"></stop>
</linearGradient>
<circle style="fill:url(#SVGID_6__48277);" cx="44" cy="40" r="2"></circle>
<linearGradient id="SVGID_7__48277" gradientUnits="userSpaceOnUse" x1="28" y1="5.1667" x2="28" y2="58.2057" spreadMethod="reflect">
	<stop offset="0" style="stop-color:#f75b34"></stop>
	<stop offset="1" style="stop-color:#9013fe"></stop>
</linearGradient>
<rect x="24" y="34" style="fill:url(#SVGID_7__48277);" width="8" height="2"></rect>
<linearGradient id="SVGID_8__48277" gradientUnits="userSpaceOnUse" x1="30" y1="5.1667" x2="30" y2="58.2057" spreadMethod="reflect">
	<stop offset="0" style="stop-color:#f75b34"></stop>
	<stop offset="1" style="stop-color:#9013fe"></stop>
</linearGradient>
<rect x="24" y="30" style="fill:url(#SVGID_8__48277);" width="12" height="2"></rect>
<linearGradient id="SVGID_9__48277" gradientUnits="userSpaceOnUse" x1="32.5" y1="5.1667" x2="32.5" y2="58.2057" spreadMethod="reflect">
	<stop offset="0" style="stop-color:#f75b34"></stop>
	<stop offset="1" style="stop-color:#9013fe"></stop>
</linearGradient>
<rect x="29" y="26" style="fill:url(#SVGID_9__48277);" width="7" height="2"></rect>
<linearGradient id="SVGID_10__48277" gradientUnits="userSpaceOnUse" x1="28" y1="5.1667" x2="28" y2="58.2057" spreadMethod="reflect">
	<stop offset="0" style="stop-color:#f75b34"></stop>
	<stop offset="1" style="stop-color:#9013fe"></stop>
</linearGradient>
<rect x="24" y="38" style="fill:url(#SVGID_10__48277);" width="8" height="2"></rect>
</svg>