<svg xmlns="http://www.w3.org/2000/svg" xmlns:xlink="http://www.w3.org/1999/xlink" version="1.1" x="0px" y="0px" viewBox="0 0 64 64" style="enable-background:new 0 0 64 64;" xml:space="preserve">
<linearGradient id="SVGID_1__52964" gradientUnits="userSpaceOnUse" x1="32" y1="9.1667" x2="32" y2="54.1883" spreadMethod="reflect">
	<stop offset="0" style="stop-color:#f75b34"></stop>
	<stop offset="1" style="stop-color:#9013fe"></stop>
</linearGradient>
<path style="fill:url(#SVGID_1__52964);" d="M61,38c0-4.357-3.502-7.912-7.838-7.998C53.714,28.746,54,27.392,54,26  c0-5.514-4.486-10-10-10c-2.836,0-5.471,1.185-7.335,3.206C35.397,13.938,30.632,10,25,10c-6.617,0-12,5.383-12,12  c0,1.373,0.238,2.737,0.697,4.025C7.921,25.616,3,30.256,3,36c0,5.208,4.005,9.495,9.097,9.954C12.544,48.256,14.57,50,17,50h7v-2  h-7c-1.302,0-2.401-0.838-2.815-2H22v-2h-9c-4.411,0-8-3.589-8-8s3.589-8,8-8c0.695,0,1.406,0.099,2.114,0.293l2.292,0.628  l-1.153-2.078C15.434,25.365,15,23.69,15,22c0-5.514,4.486-10,10-10c5.462,0,9.945,4.445,9.995,9.908l0.037,4.057l1.853-3.608  C38.265,19.669,40.991,18,44,18c4.411,0,8,3.589,8,8c0,1.664-0.513,3.265-1.483,4.629l-1.562,2.195l2.615-0.645  C55.512,31.215,59,34.229,59,38c0,3.309-2.691,6-6,6H42v2h9.816c-0.415,1.162-1.514,2-2.816,2h-9v2h9  c2.433,0,4.46-1.749,4.904-4.055C57.891,45.494,61,42.105,61,38z"></path>
<linearGradient id="SVGID_2__52964" gradientUnits="userSpaceOnUse" x1="32" y1="9.1667" x2="32" y2="54.1883" spreadMethod="reflect">
	<stop offset="0" style="stop-color:#f75b34"></stop>
	<stop offset="1" style="stop-color:#9013fe"></stop>
</linearGradient>
<path style="fill:url(#SVGID_2__52964);" d="M30.251,44.483l-2.294-2.294l-1.414,1.414l2.294,2.294c0.39,0.39,0.901,0.585,1.413,0.585  s1.023-0.195,1.413-0.585l5.794-5.794l-1.414-1.414L30.251,44.483z"></path>
<linearGradient id="SVGID_3__52964" gradientUnits="userSpaceOnUse" x1="21" y1="9.1667" x2="21" y2="54.1883" spreadMethod="reflect">
	<stop offset="0" style="stop-color:#f75b34"></stop>
	<stop offset="1" style="stop-color:#9013fe"></stop>
</linearGradient>
<path style="fill:url(#SVGID_3__52964);" d="M17,22h2c0-3.309,2.691-6,6-6v-2C20.589,14,17,17.589,17,22z"></path>
<linearGradient id="SVGID_4__52964" gradientUnits="userSpaceOnUse" x1="32" y1="31.75" x2="32" y2="54.7054" spreadMethod="reflect">
	<stop offset="0" style="stop-color:#6DC7FF"></stop>
	<stop offset="1" style="stop-color:#E6ABFF"></stop>
</linearGradient>
<path style="fill:url(#SVGID_4__52964);" d="M32,54c-6.065,0-11-4.935-11-11s4.935-11,11-11s11,4.935,11,11S38.065,54,32,54z M32,34  c-4.963,0-9,4.037-9,9s4.037,9,9,9s9-4.037,9-9S36.963,34,32,34z"></path>
</svg>