<?xml version="1.0" encoding="UTF-8"?>
<svg width="590px" height="590px" viewBox="0 0 590 590" version="1.1" xmlns="http://www.w3.org/2000/svg"
     xmlns:xlink="http://www.w3.org/1999/xlink">
    <!-- Generator: Sketch 55.2 (78181) - https://sketchapp.com -->
    <title>Favicon</title>
    <desc>Created with Sketch.</desc>
    <defs>
        <path d="M362.298682,336.389783 L214.9525,420.728659 C201.007545,428.70869 183.827955,428.70869 169.883318,420.728659 L22.5342727,336.389783 C8.58963636,328.407228 -7.28825758e-15,313.659092 -6.31083113e-15,297.696506 L4.01770238e-15,129.018753 C4.99512883e-15,113.056168 8.58963636,98.3058232 22.5342727,90.3257923 L169.883318,5.98691581 C183.827955,-1.9956386 201.007545,-1.9956386 214.9525,5.98691581 L362.298682,90.3257923 C376.243636,98.3058232 384.833273,113.056168 384.833273,129.018753 L384.833273,297.696506 C384.833273,313.659092 376.243636,328.407228 362.298682,336.389783 Z M281.476045,142.211292 C270.425273,173.122004 259.295591,204.110945 248.168773,235.133638 L244.637273,235.133638 C233.547364,204.035554 222.420227,172.971223 211.330318,141.948529 L176.732182,141.948529 C165.489864,173.311899 154.363045,204.373392 143.236227,235.474315 L140.006364,235.474315 C128.727455,204.07183 117.448545,172.671869 106.547,142.362073 L65.2272727,142.362073 C85.3191818,199.402985 104.915364,255.013372 124.511227,310.623759 L158.615864,310.623759 L192.379727,216.533334 L195.798273,216.533334 C207.077182,248.086599 218.3195,279.676456 229.370273,310.548053 L263.551273,310.548053 C283.223182,254.711495 302.819364,199.064832 322.835227,142.211292 L281.476045,142.211292 Z"
              id="path-1"></path>
    </defs>
    <g id="Square-Logo-White" stroke="none" stroke-width="1" fill="none" fill-rule="evenodd">
        <g id="Webiny-Logo-Icon" transform="translate(-3.000000, -3.000000)">
            <g id="Favicon" transform="translate(3.000000, 3.000000)">
                <rect id="Rectangle" fill="#FA5723" x="0" y="0" width="590" height="590" rx="5"></rect>
                <g id="Webiny-Icon-White" transform="translate(105.000000, 83.000000)">
                    <mask id="mask-2" fill="white">
                        <use xlink:href="#path-1"></use>
                    </mask>
                    <use id="Mask" fill="#FFFFFF" fill-rule="evenodd" xlink:href="#path-1"></use>
                    <g id="White" mask="url(#mask-2)"></g>
                </g>
            </g>
        </g>
    </g>
</svg>
