<svg width="32" height="32" viewBox="0 0 32 32" fill="none" xmlns="http://www.w3.org/2000/svg">
<path d="M3.18799 28.9569V24.5527L16.0294 28.9569L28.8709 24.5527V28.9569H16.0294H3.18799Z" fill="#FDD0C2"/>
<path d="M10.9287 5.64308C9.7188 5.03149 6.84318 3.8757 4.12725 3.62838C3.57724 3.5783 3.12891 4.02724 3.12891 4.57953C3.12891 7.8846 3.12891 17.4202 3.12891 24.56M21.0149 5.64308C23.1831 4.35385 26.0177 3.81475 27.7973 3.64435C28.3549 3.59096 28.8147 4.04114 28.8147 4.60126V24.56M3.12891 24.56C3.12891 25.7744 3.12891 26.9196 3.12891 27.953C3.12891 28.5053 3.57662 28.953 4.12891 28.953H15.9718M3.12891 24.56L15.9718 28.953M15.9718 28.953H27.8147C28.367 28.953 28.8147 28.5053 28.8147 27.953V24.56M15.9718 28.953L28.8147 24.56M15.9718 28.953V21.2428" stroke="#FC8C69"/>
<path d="M13.4839 21.2422H18.5942" stroke="#FA5A28"/>
<path d="M13.4839 19.5391H18.5942" stroke="#FA5A28"/>
<path d="M9.71875 9.09457C9.71875 4.50432 13.865 3.04297 15.9941 3.04297C18.0226 3.04297 22.1356 4.50432 22.1356 9.09457C22.1356 10.021 21.7014 12.099 20.477 13.4876C19.2143 14.9195 18.9529 16.7997 18.9529 17.7461H13.3047C13.3047 16.9851 13.3047 15.1185 11.8259 14.0456C9.99693 12.7187 9.71869 10.1555 9.71875 9.09457Z" fill="#FDD0C2" stroke="#FA5A28"/>
<path d="M15.0527 11.6494V17.8355" stroke="#FA5A28"/>
<path d="M17.0249 11.6494V17.8355" stroke="#FA5A28"/>
</svg>
