<svg width="32" height="32" viewBox="0 0 32 32" fill="none" xmlns="http://www.w3.org/2000/svg">
<path d="M7.48461 25.043H25.7956L24.7186 27.5562L25.7956 30.5183H7.48461C6.67666 30.5183 4.97144 29.3514 4.97144 27.5562C4.97144 26.1201 6.64688 25.2823 7.48461 25.043Z" fill="#FED1C3"/>
<path d="M6.49911 4.79659C7.4004 3.7567 9.2433 3.61227 10.0521 3.67005V25.161H6.49911L5.02588 27.4141V7.74293C5.14142 7.1941 5.59783 5.83647 6.49911 4.79659Z" fill="#FCA489"/>
<path d="M25.8425 5.22656H27.9451C28.4974 5.22656 28.9451 5.67428 28.9451 6.22656V26.7857C28.9451 27.3379 28.4974 27.7857 27.9451 27.7857H24.7908" stroke="#FCA489"/>
<path d="M14.0632 18.4248H22.3718" stroke="#FCA489" stroke-linecap="round"/>
<path d="M14.0632 21.2119H22.3718" stroke="#FCA489" stroke-linecap="round"/>
<path d="M25.95 25.0476L25.0072 26.9329C24.7174 27.5125 24.7264 28.1967 25.0314 28.7686L25.95 30.4908H7.68875C6.23413 30.4908 5.05493 29.3116 5.05493 27.857V27.857M25.95 25.0476V4.50879C25.95 3.9565 25.5022 3.50879 24.95 3.50879H9.91285M25.95 25.0476H9.91285M5.05493 27.857V8.3667C5.05493 5.68375 7.22989 3.50879 9.91285 3.50879V3.50879M5.05493 27.857C5.29889 26.4223 5.79271 25.5161 6.91373 25.1234C7.0763 25.0664 7.24919 25.0476 7.42145 25.0476H9.91285M9.91285 25.0476V3.50879" stroke="#FA5A28"/>
<path d="M22.1614 15.8486H14.0632C14.2561 14.5866 15.3254 12.0625 18.0598 12.0625C20.7943 12.0625 21.9335 14.5866 22.1614 15.8486Z" fill="#FCA489"/>
<circle cx="18.1124" cy="8.64417" r="2.15588" fill="#FCA489"/>
</svg>
