<svg width="32" height="32" viewBox="0 0 32 32" fill="none" xmlns="http://www.w3.org/2000/svg">
<path opacity="0.4" d="M30.9999 27.0207V24.5717C30.9999 22.2894 29.439 20.3718 27.3265 19.828M23.0408 5.33594C24.8358 6.06253 26.102 7.82232 26.102 9.87785C26.102 11.9334 24.8358 13.6932 23.0408 14.4198" stroke="#FA5A28" stroke-width="1.5" stroke-linecap="round" stroke-linejoin="round"/>
<path opacity="0.4" d="M1.00007 27.0207V24.5717C1.00007 22.2894 2.56101 20.3718 4.67353 19.828M8.95923 5.33594C7.16424 6.06253 5.89801 7.82232 5.89801 9.87785C5.89801 11.9334 7.16424 13.6932 8.95923 14.4198" stroke="#FA5A28" stroke-width="1.5" stroke-linecap="round" stroke-linejoin="round"/>
<path d="M24.8775 27.0202C24.8775 24.7381 24.8775 23.597 24.5047 22.6969C24.0076 21.4968 23.0541 20.5433 21.854 20.0462C20.9539 19.6733 19.8128 19.6733 17.5306 19.6733H13.8572C11.575 19.6733 10.4339 19.6733 9.53384 20.0462C8.3337 20.5433 7.3802 21.4968 6.88309 22.6969C6.51025 23.597 6.51025 24.7381 6.51025 27.0202M20.5918 9.87744C20.5918 12.5825 18.399 14.7754 15.6939 14.7754C12.9888 14.7754 10.796 12.5825 10.796 9.87744C10.796 7.17238 12.9888 4.97949 15.6939 4.97949C18.399 4.97949 20.5918 7.17238 20.5918 9.87744Z" stroke="#FA5A28" stroke-width="1.5" stroke-linecap="round" stroke-linejoin="round"/>
<circle cx="15.6938" cy="9.93262" r="4.59668" fill="#FDD0C2"/>
</svg>
