<svg width="1920" height="1080" viewBox="0 0 1920 1080" fill="none" xmlns="http://www.w3.org/2000/svg">
<g clip-path="url(#clip0_1302_2038)">
<rect width="1920" height="1080" fill="white"/>
<g opacity="0.8">
<path opacity="0.7" fill-rule="evenodd" clip-rule="evenodd" d="M2004.71 667.225L1843.29 759.634C1828.02 768.377 1809.2 768.377 1793.92 759.634L1632.5 667.225C1617.23 658.479 1607.82 642.319 1607.82 624.829V440.012C1607.82 422.522 1617.23 406.36 1632.5 397.616L1793.92 305.207C1809.2 296.461 1828.02 296.461 1843.29 305.207L2004.71 397.616C2019.99 406.36 2029.4 422.522 2029.4 440.012V624.829C2029.4 642.319 2019.99 658.479 2004.71 667.225V667.225Z" fill="#FA5A28" fill-opacity="0.06"/>
<path fill-rule="evenodd" clip-rule="evenodd" d="M1980.74 922.428L1664.36 918.992C1634.42 918.663 1606.57 901.713 1591.32 874.524L1430.1 587.203C1414.85 560.01 1414.5 526.715 1429.18 499.85L1584.36 215.967C1599.04 189.102 1626.53 172.752 1656.47 173.081L1972.86 176.519C2002.8 176.843 2030.64 193.793 2045.9 220.986L2207.11 508.305C2222.37 535.494 2222.72 568.793 2208.03 595.658L2052.86 879.541C2038.17 906.406 2010.68 922.752 1980.74 922.428V922.428Z" fill="#FA5A28" fill-opacity="0.05"/>
<path fill-rule="evenodd" clip-rule="evenodd" d="M2338.31 730.383L2014.11 1058.16C1983.42 1089.17 1939.11 1101.68 1897.86 1090.97L1461.91 977.723C1420.65 967.004 1388.73 934.697 1378.15 892.961L1266.41 451.942C1255.84 410.207 1268.22 365.388 1298.91 334.372L1623.11 6.59626C1653.79 -24.4263 1698.11 -36.9326 1739.37 -26.2131L2175.31 87.0323C2216.56 97.7448 2248.49 130.058 2259.06 171.793L2370.8 612.813C2381.38 654.548 2368.99 699.361 2338.31 730.383V730.383Z" fill="#FA5A28" fill-opacity="0.05"/>
<path fill-rule="evenodd" clip-rule="evenodd" d="M2171.43 1137.16L1623.64 1199.13C1571.8 1204.99 1520.12 1181.87 1488.06 1138.48L1149.32 679.933C1117.26 636.534 1109.7 579.464 1129.48 530.206L1338.53 9.68767C1358.32 -39.5708 1402.44 -73.5293 1454.28 -79.3888L2002.08 -141.358C2053.92 -147.225 2105.6 -124.106 2137.66 -80.7076L2476.39 377.838C2508.45 421.229 2516.01 478.306 2496.23 527.564L2287.18 1048.08C2267.39 1097.34 2223.28 1131.29 2171.43 1137.16V1137.16Z" fill="#FA5A28" fill-opacity="0.04"/>
<g opacity="0.2" filter="url(#filter0_f_1302_2038)">
<path fill-rule="evenodd" clip-rule="evenodd" d="M1996.55 530.019L1949.09 630.138C1944.59 639.612 1935.39 646.005 1924.95 646.909L1814.56 656.452C1804.11 657.355 1794.01 652.632 1788.05 644.06L1725.13 553.484C1719.17 544.912 1718.27 533.795 1722.77 524.321L1770.23 424.202C1774.72 414.726 1783.93 408.333 1794.37 407.431L1904.76 397.888C1915.21 396.984 1925.31 401.709 1931.27 410.28L1994.19 500.856C2000.15 509.428 2001.05 520.544 1996.55 530.019V530.019Z" fill="white"/>
</g>
</g>
<path d="M1541.5 608H1746V622.072H1541.5V608Z" fill="#FA6400" fill-opacity="0.2"/>
<path d="M109 258L397.5 258V279.072H109V258Z" fill="#FA6400" fill-opacity="0.2"/>
<path d="M116.5 565.193H408.173V585.072L116.5 589.458V565.193Z" fill="#FA6400" fill-opacity="0.2"/>
<path fill-rule="evenodd" clip-rule="evenodd" d="M1856.49 1005.49L1833.51 1018.65C1831.34 1019.89 1828.66 1019.89 1826.49 1018.65L1803.51 1005.49C1801.34 1004.24 1800 1001.94 1800 999.449V973.131C1800 970.64 1801.34 968.339 1803.51 967.093L1826.49 953.934C1828.66 952.689 1831.34 952.689 1833.51 953.934L1856.49 967.093C1858.66 968.339 1860 970.64 1860 973.131V999.449C1860 1001.94 1858.66 1004.24 1856.49 1005.49V1005.49ZM1843.89 975.189C1842.16 980.012 1840.43 984.847 1838.69 989.688H1838.14C1836.41 984.836 1834.68 979.989 1832.95 975.148H1827.55C1825.8 980.042 1824.07 984.888 1822.33 989.741H1821.83C1820.07 984.841 1818.31 979.942 1816.61 975.213H1810.17C1813.3 984.113 1816.36 992.79 1819.41 1001.47H1824.73L1829.99 986.786H1830.53C1832.29 991.709 1834.04 996.638 1835.76 1001.45H1841.09C1844.16 992.742 1847.21 984.06 1850.33 975.189H1843.89V975.189Z" fill="#FA5A28"/>
<g filter="url(#filter1_d_1302_2038)">
<path d="M1389.78 918.25H727.065C721.956 918.25 717.815 914.109 717.815 909V208C717.815 202.891 721.956 198.75 727.065 198.75H920.39H946.682H1122.4H1188.57H1389.78C1394.89 198.75 1399.03 202.891 1399.03 208V909C1399.03 914.109 1394.89 918.25 1389.78 918.25Z" fill="white" stroke="#FA5A28" stroke-width="1.5"/>
<path d="M995.274 277.664V254.192H1003.34C1005.07 254.192 1006.63 254.432 1008.02 254.912C1009.43 255.368 1010.56 256.148 1011.4 257.252C1012.24 258.356 1012.66 259.856 1012.66 261.752C1012.66 263.576 1012.24 265.076 1011.4 266.252C1010.56 267.428 1009.45 268.304 1008.05 268.88C1006.66 269.432 1005.14 269.708 1003.48 269.708H1000.57V277.664H995.274ZM1000.57 265.496H1003.16C1006.04 265.496 1007.48 264.248 1007.48 261.752C1007.48 260.528 1007.09 259.664 1006.33 259.16C1005.56 258.656 1004.45 258.404 1003.01 258.404H1000.57V265.496ZM1016.29 277.664V259.808H1020.61L1020.97 262.94H1021.11C1021.76 261.74 1022.54 260.852 1023.45 260.276C1024.36 259.676 1025.27 259.376 1026.19 259.376C1026.69 259.376 1027.11 259.412 1027.45 259.484C1027.78 259.532 1028.07 259.616 1028.31 259.736L1027.45 264.308C1027.13 264.212 1026.82 264.14 1026.51 264.092C1026.22 264.044 1025.89 264.02 1025.5 264.02C1024.83 264.02 1024.12 264.272 1023.38 264.776C1022.66 265.256 1022.06 266.096 1021.58 267.296V277.664H1016.29ZM1037.95 278.096C1036.44 278.096 1035.01 277.736 1033.66 277.016C1032.34 276.272 1031.28 275.204 1030.46 273.812C1029.64 272.396 1029.24 270.704 1029.24 268.736C1029.24 266.744 1029.64 265.052 1030.46 263.66C1031.28 262.268 1032.34 261.212 1033.66 260.492C1035.01 259.748 1036.44 259.376 1037.95 259.376C1039.46 259.376 1040.88 259.748 1042.2 260.492C1043.52 261.212 1044.58 262.268 1045.4 263.66C1046.22 265.052 1046.62 266.744 1046.62 268.736C1046.62 270.704 1046.22 272.396 1045.4 273.812C1044.58 275.204 1043.52 276.272 1042.2 277.016C1040.88 277.736 1039.46 278.096 1037.95 278.096ZM1037.95 273.812C1039.03 273.812 1039.84 273.356 1040.4 272.444C1040.95 271.508 1041.22 270.272 1041.22 268.736C1041.22 267.176 1040.95 265.94 1040.4 265.028C1039.84 264.116 1039.03 263.66 1037.95 263.66C1036.84 263.66 1036.02 264.116 1035.46 265.028C1034.94 265.94 1034.67 267.176 1034.67 268.736C1034.67 270.272 1034.94 271.508 1035.46 272.444C1036.02 273.356 1036.84 273.812 1037.95 273.812ZM1056.62 278.096C1054.41 278.096 1052.64 277.268 1051.29 275.612C1049.97 273.932 1049.31 271.64 1049.31 268.736C1049.31 266.792 1049.66 265.124 1050.36 263.732C1051.08 262.316 1052 261.236 1053.13 260.492C1054.28 259.748 1055.48 259.376 1056.73 259.376C1057.71 259.376 1058.54 259.544 1059.21 259.88C1059.88 260.216 1060.52 260.672 1061.12 261.248L1060.9 258.512V252.428H1066.2V277.664H1061.88L1061.52 275.9H1061.37C1060.75 276.524 1060.02 277.052 1059.18 277.484C1058.34 277.892 1057.48 278.096 1056.62 278.096ZM1057.99 273.776C1058.56 273.776 1059.08 273.656 1059.54 273.416C1060.02 273.176 1060.47 272.756 1060.9 272.156V264.848C1060.45 264.416 1059.96 264.116 1059.43 263.948C1058.92 263.78 1058.43 263.696 1057.95 263.696C1057.11 263.696 1056.37 264.104 1055.72 264.92C1055.07 265.712 1054.75 266.96 1054.75 268.664C1054.75 270.416 1055.02 271.712 1055.58 272.552C1056.15 273.368 1056.96 273.776 1057.99 273.776ZM1076.25 278.096C1074.3 278.096 1072.89 277.46 1072 276.188C1071.14 274.892 1070.7 273.128 1070.7 270.896V259.808H1076V270.212C1076 271.484 1076.18 272.372 1076.54 272.876C1076.9 273.356 1077.46 273.596 1078.23 273.596C1078.9 273.596 1079.46 273.44 1079.92 273.128C1080.38 272.816 1080.87 272.312 1081.4 271.616V259.808H1086.69V277.664H1082.37L1081.97 275.18H1081.86C1081.12 276.068 1080.3 276.776 1079.42 277.304C1078.53 277.832 1077.47 278.096 1076.25 278.096ZM1099.12 278.096C1097.47 278.096 1095.97 277.736 1094.62 277.016C1093.3 276.272 1092.25 275.204 1091.45 273.812C1090.69 272.396 1090.3 270.704 1090.3 268.736C1090.3 266.744 1090.73 265.052 1091.6 263.66C1092.46 262.268 1093.6 261.212 1095.02 260.492C1096.43 259.748 1097.96 259.376 1099.59 259.376C1100.69 259.376 1101.67 259.556 1102.51 259.916C1103.37 260.276 1104.14 260.732 1104.81 261.284L1102.33 264.704C1101.49 264.008 1100.68 263.66 1099.91 263.66C1098.64 263.66 1097.62 264.116 1096.85 265.028C1096.11 265.94 1095.74 267.176 1095.74 268.736C1095.74 270.272 1096.11 271.508 1096.85 272.444C1097.62 273.356 1098.58 273.812 1099.73 273.812C1100.31 273.812 1100.87 273.692 1101.43 273.452C1101.98 273.188 1102.48 272.876 1102.94 272.516L1105.03 275.972C1104.14 276.74 1103.18 277.292 1102.15 277.628C1101.11 277.94 1100.11 278.096 1099.12 278.096ZM1114.67 278.096C1112.47 278.096 1110.88 277.46 1109.92 276.188C1108.99 274.916 1108.52 273.248 1108.52 271.184V263.948H1106.07V260.024L1108.81 259.808L1109.42 255.056H1113.81V259.808H1118.09V263.948H1113.81V271.112C1113.81 272.12 1114.01 272.852 1114.42 273.308C1114.85 273.74 1115.42 273.956 1116.11 273.956C1116.4 273.956 1116.69 273.92 1116.98 273.848C1117.29 273.776 1117.57 273.692 1117.81 273.596L1118.63 277.448C1118.18 277.592 1117.61 277.736 1116.94 277.88C1116.29 278.024 1115.54 278.096 1114.67 278.096Z" fill="#FA5A28"/>
</g>
<g filter="url(#filter2_d_1302_2038)">
<rect x="856.16" y="518.303" width="385.384" height="105.917" rx="10" fill="white" stroke="#7B39D9" stroke-width="1.5"/>
<path d="M886.189 581V559.484H892.261C894.461 559.484 896.364 559.858 897.97 560.606C899.576 561.354 900.819 562.52 901.699 564.104C902.601 565.666 903.052 567.679 903.052 570.143C903.052 572.607 902.612 574.642 901.732 576.248C900.852 577.854 899.62 579.053 898.036 579.845C896.474 580.615 894.637 581 892.525 581H886.189ZM891.04 577.073H891.964C893.196 577.073 894.263 576.853 895.165 576.413C896.089 575.973 896.804 575.247 897.31 574.235C897.816 573.223 898.069 571.859 898.069 570.143C898.069 568.427 897.816 567.085 897.31 566.117C896.804 565.127 896.089 564.434 895.165 564.038C894.263 563.62 893.196 563.411 891.964 563.411H891.04V577.073ZM914.066 581.396C912.504 581.396 911.096 581.055 909.842 580.373C908.588 579.691 907.598 578.712 906.872 577.436C906.146 576.16 905.783 574.62 905.783 572.816C905.783 571.034 906.146 569.505 906.872 568.229C907.62 566.953 908.588 565.974 909.776 565.292C910.964 564.588 912.207 564.236 913.505 564.236C915.067 564.236 916.354 564.588 917.366 565.292C918.4 565.974 919.17 566.909 919.676 568.097C920.204 569.263 920.468 570.594 920.468 572.09C920.468 572.508 920.446 572.926 920.402 573.344C920.358 573.74 920.314 574.037 920.27 574.235H910.469C910.689 575.423 911.184 576.303 911.954 576.875C912.724 577.425 913.648 577.7 914.726 577.7C915.892 577.7 917.069 577.337 918.257 576.611L919.874 579.548C919.038 580.12 918.103 580.571 917.069 580.901C916.035 581.231 915.034 581.396 914.066 581.396ZM910.436 571.034H916.343C916.343 570.132 916.123 569.395 915.683 568.823C915.265 568.229 914.572 567.932 913.604 567.932C912.856 567.932 912.185 568.196 911.591 568.724C910.997 569.23 910.612 570 910.436 571.034ZM928.638 581.396C927.56 581.396 926.449 581.187 925.305 580.769C924.183 580.351 923.204 579.801 922.368 579.119L924.546 576.083C925.294 576.633 926.009 577.062 926.691 577.37C927.395 577.656 928.088 577.799 928.77 577.799C929.496 577.799 930.024 577.678 930.354 577.436C930.684 577.172 930.849 576.831 930.849 576.413C930.849 576.039 930.684 575.731 930.354 575.489C930.046 575.247 929.639 575.027 929.133 574.829C928.627 574.609 928.088 574.389 927.516 574.169C926.856 573.905 926.196 573.575 925.536 573.179C924.898 572.783 924.359 572.277 923.919 571.661C923.479 571.023 923.259 570.253 923.259 569.351C923.259 567.833 923.831 566.601 924.975 565.655C926.141 564.709 927.659 564.236 929.529 564.236C930.783 564.236 931.883 564.456 932.829 564.896C933.797 565.314 934.622 565.787 935.304 566.315L933.126 569.219C932.554 568.779 931.982 568.438 931.41 568.196C930.838 567.954 930.266 567.833 929.694 567.833C928.44 567.833 927.813 568.262 927.813 569.12C927.813 569.648 928.121 570.055 928.737 570.341C929.375 570.605 930.112 570.891 930.948 571.199C931.652 571.441 932.334 571.76 932.994 572.156C933.676 572.53 934.237 573.036 934.677 573.674C935.139 574.29 935.37 575.104 935.37 576.116C935.37 577.59 934.798 578.844 933.654 579.878C932.51 580.89 930.838 581.396 928.638 581.396ZM945.579 581.396C944.061 581.396 942.686 581.066 941.454 580.406C940.244 579.724 939.276 578.745 938.55 577.469C937.846 576.171 937.494 574.62 937.494 572.816C937.494 570.99 937.89 569.439 938.682 568.163C939.474 566.887 940.519 565.919 941.817 565.259C943.115 564.577 944.512 564.236 946.008 564.236C947.02 564.236 947.911 564.401 948.681 564.731C949.473 565.061 950.177 565.479 950.793 565.985L948.516 569.12C947.746 568.482 947.009 568.163 946.305 568.163C945.139 568.163 944.204 568.581 943.5 569.417C942.818 570.253 942.477 571.386 942.477 572.816C942.477 574.224 942.818 575.357 943.5 576.215C944.204 577.051 945.084 577.469 946.14 577.469C946.668 577.469 947.185 577.359 947.691 577.139C948.197 576.897 948.659 576.611 949.077 576.281L950.991 579.449C950.177 580.153 949.297 580.659 948.351 580.967C947.405 581.253 946.481 581.396 945.579 581.396ZM953.855 581V564.632H957.815L958.145 567.503H958.277C958.871 566.403 959.586 565.589 960.422 565.061C961.258 564.511 962.094 564.236 962.93 564.236C963.392 564.236 963.777 564.269 964.085 564.335C964.393 564.379 964.657 564.456 964.877 564.566L964.085 568.757C963.799 568.669 963.513 568.603 963.227 568.559C962.963 568.515 962.655 568.493 962.303 568.493C961.687 568.493 961.038 568.724 960.356 569.186C959.696 569.626 959.146 570.396 958.706 571.496V581H953.855ZM967.004 581V564.632H971.855V581H967.004ZM969.413 562.223C968.599 562.223 967.939 561.992 967.433 561.53C966.927 561.068 966.674 560.452 966.674 559.682C966.674 558.912 966.927 558.296 967.433 557.834C967.939 557.372 968.599 557.141 969.413 557.141C970.227 557.141 970.887 557.372 971.393 557.834C971.899 558.296 972.152 558.912 972.152 559.682C972.152 560.452 971.899 561.068 971.393 561.53C970.887 561.992 970.227 562.223 969.413 562.223ZM976.124 587.072V564.632H980.084L980.414 566.249H980.546C981.184 565.677 981.899 565.204 982.691 564.83C983.505 564.434 984.341 564.236 985.199 564.236C987.179 564.236 988.741 564.995 989.885 566.513C991.029 568.009 991.601 570.022 991.601 572.552C991.601 574.422 991.271 576.017 990.611 577.337C989.951 578.657 989.093 579.669 988.037 580.373C987.003 581.055 985.892 581.396 984.704 581.396C984 581.396 983.318 581.253 982.658 580.967C981.998 580.659 981.382 580.23 980.81 579.68L980.975 582.287V587.072H976.124ZM983.582 577.436C984.418 577.436 985.133 577.051 985.727 576.281C986.321 575.511 986.618 574.29 986.618 572.618C986.618 569.67 985.672 568.196 983.78 568.196C982.834 568.196 981.899 568.691 980.975 569.681V576.38C981.415 576.776 981.855 577.051 982.295 577.205C982.735 577.359 983.164 577.436 983.582 577.436ZM1000.47 581.396C998.45 581.396 996.998 580.813 996.118 579.647C995.26 578.481 994.831 576.952 994.831 575.06V568.427H992.587V564.83L995.095 564.632L995.656 560.276H999.682V564.632H1003.61V568.427H999.682V574.994C999.682 575.918 999.869 576.589 1000.24 577.007C1000.64 577.403 1001.16 577.601 1001.79 577.601C1002.06 577.601 1002.32 577.568 1002.59 577.502C1002.87 577.436 1003.12 577.359 1003.34 577.271L1004.1 580.802C1003.69 580.934 1003.17 581.066 1002.55 581.198C1001.96 581.33 1001.27 581.396 1000.47 581.396ZM1006.8 581V564.632H1011.65V581H1006.8ZM1009.21 562.223C1008.4 562.223 1007.74 561.992 1007.23 561.53C1006.73 561.068 1006.47 560.452 1006.47 559.682C1006.47 558.912 1006.73 558.296 1007.23 557.834C1007.74 557.372 1008.4 557.141 1009.21 557.141C1010.03 557.141 1010.69 557.372 1011.19 557.834C1011.7 558.296 1011.95 558.912 1011.95 559.682C1011.95 560.452 1011.7 561.068 1011.19 561.53C1010.69 561.992 1010.03 562.223 1009.21 562.223ZM1022.95 581.396C1021.57 581.396 1020.26 581.066 1019.03 580.406C1017.82 579.724 1016.84 578.745 1016.09 577.469C1015.34 576.171 1014.97 574.62 1014.97 572.816C1014.97 570.99 1015.34 569.439 1016.09 568.163C1016.84 566.887 1017.82 565.919 1019.03 565.259C1020.26 564.577 1021.57 564.236 1022.95 564.236C1024.34 564.236 1025.64 564.577 1026.85 565.259C1028.06 565.919 1029.04 566.887 1029.78 568.163C1030.53 569.439 1030.91 570.99 1030.91 572.816C1030.91 574.62 1030.53 576.171 1029.78 577.469C1029.04 578.745 1028.06 579.724 1026.85 580.406C1025.64 581.066 1024.34 581.396 1022.95 581.396ZM1022.95 577.469C1023.94 577.469 1024.69 577.051 1025.2 576.215C1025.7 575.357 1025.96 574.224 1025.96 572.816C1025.96 571.386 1025.7 570.253 1025.2 569.417C1024.69 568.581 1023.94 568.163 1022.95 568.163C1021.94 568.163 1021.18 568.581 1020.68 569.417C1020.19 570.253 1019.95 571.386 1019.95 572.816C1019.95 574.224 1020.19 575.357 1020.68 576.215C1021.18 577.051 1021.94 577.469 1022.95 577.469ZM1034.23 581V564.632H1038.19L1038.52 566.711H1038.65C1039.35 566.051 1040.12 565.479 1040.96 564.995C1041.82 564.489 1042.8 564.236 1043.9 564.236C1045.68 564.236 1046.97 564.83 1047.76 566.018C1048.57 567.184 1048.98 568.79 1048.98 570.836V581H1044.13V571.463C1044.13 570.275 1043.96 569.461 1043.63 569.021C1043.33 568.581 1042.82 568.361 1042.12 568.361C1041.5 568.361 1040.97 568.504 1040.53 568.79C1040.09 569.054 1039.61 569.439 1039.08 569.945V581H1034.23Z" fill="#7B39D9"/>
<path d="M1064.31 586.907C1062.92 584.641 1061.84 582.287 1061.07 579.845C1060.32 577.403 1059.95 574.73 1059.95 571.826C1059.95 568.922 1060.32 566.249 1061.07 563.807C1061.84 561.365 1062.92 559.011 1064.31 556.745L1067.34 557.999C1066.13 560.133 1065.25 562.388 1064.7 564.764C1064.15 567.118 1063.88 569.472 1063.88 571.826C1063.88 574.158 1064.15 576.512 1064.7 578.888C1065.25 581.242 1066.13 583.497 1067.34 585.653L1064.31 586.907ZM1071.46 581V559.484H1076.31V576.908H1084.82V581H1071.46ZM1094.72 581.396C1093.34 581.396 1092.03 581.066 1090.79 580.406C1089.58 579.724 1088.61 578.745 1087.86 577.469C1087.11 576.171 1086.74 574.62 1086.74 572.816C1086.74 570.99 1087.11 569.439 1087.86 568.163C1088.61 566.887 1089.58 565.919 1090.79 565.259C1092.03 564.577 1093.34 564.236 1094.72 564.236C1096.11 564.236 1097.41 564.577 1098.62 565.259C1099.83 565.919 1100.8 566.887 1101.55 568.163C1102.3 569.439 1102.67 570.99 1102.67 572.816C1102.67 574.62 1102.3 576.171 1101.55 577.469C1100.8 578.745 1099.83 579.724 1098.62 580.406C1097.41 581.066 1096.11 581.396 1094.72 581.396ZM1094.72 577.469C1095.71 577.469 1096.46 577.051 1096.97 576.215C1097.47 575.357 1097.72 574.224 1097.72 572.816C1097.72 571.386 1097.47 570.253 1096.97 569.417C1096.46 568.581 1095.71 568.163 1094.72 568.163C1093.71 568.163 1092.95 568.581 1092.44 569.417C1091.96 570.253 1091.72 571.386 1091.72 572.816C1091.72 574.224 1091.96 575.357 1092.44 576.215C1092.95 577.051 1093.71 577.469 1094.72 577.469ZM1106 581V564.632H1109.96L1110.29 566.711H1110.42C1111.12 566.051 1111.89 565.479 1112.73 564.995C1113.59 564.489 1114.57 564.236 1115.67 564.236C1117.45 564.236 1118.74 564.83 1119.53 566.018C1120.34 567.184 1120.75 568.79 1120.75 570.836V581H1115.9V571.463C1115.9 570.275 1115.73 569.461 1115.4 569.021C1115.09 568.581 1114.59 568.361 1113.88 568.361C1113.27 568.361 1112.74 568.504 1112.3 568.79C1111.86 569.054 1111.38 569.439 1110.85 569.945V581H1106ZM1130.72 587.963C1129.45 587.963 1128.29 587.82 1127.26 587.534C1126.22 587.248 1125.4 586.797 1124.78 586.181C1124.17 585.565 1123.86 584.773 1123.86 583.805C1123.86 582.485 1124.64 581.385 1126.2 580.505V580.373C1125.78 580.087 1125.42 579.724 1125.11 579.284C1124.83 578.844 1124.68 578.283 1124.68 577.601C1124.68 577.007 1124.86 576.435 1125.21 575.885C1125.56 575.335 1126 574.884 1126.53 574.532V574.4C1125.96 574.004 1125.44 573.432 1124.98 572.684C1124.54 571.936 1124.32 571.089 1124.32 570.143C1124.32 568.823 1124.64 567.734 1125.28 566.876C1125.92 565.996 1126.75 565.336 1127.79 564.896C1128.82 564.456 1129.92 564.236 1131.09 564.236C1132.05 564.236 1132.9 564.368 1133.63 564.632H1139.6V568.163H1136.99C1137.15 568.405 1137.27 568.713 1137.36 569.087C1137.47 569.461 1137.52 569.868 1137.52 570.308C1137.52 571.562 1137.23 572.596 1136.66 573.41C1136.09 574.224 1135.32 574.829 1134.35 575.225C1133.38 575.621 1132.3 575.819 1131.09 575.819C1130.45 575.819 1129.79 575.709 1129.11 575.489C1128.71 575.819 1128.51 576.226 1128.51 576.71C1128.51 577.128 1128.7 577.436 1129.07 577.634C1129.45 577.832 1130.08 577.931 1130.99 577.931H1133.63C1135.65 577.931 1137.19 578.261 1138.25 578.921C1139.32 579.559 1139.86 580.615 1139.86 582.089C1139.86 583.211 1139.49 584.212 1138.74 585.092C1137.99 585.994 1136.94 586.698 1135.57 587.204C1134.21 587.71 1132.59 587.963 1130.72 587.963ZM1131.09 572.882C1131.72 572.882 1132.25 572.651 1132.67 572.189C1133.11 571.727 1133.33 571.045 1133.33 570.143C1133.33 569.285 1133.11 568.636 1132.67 568.196C1132.25 567.734 1131.72 567.503 1131.09 567.503C1130.45 567.503 1129.91 567.723 1129.47 568.163C1129.05 568.603 1128.84 569.263 1128.84 570.143C1128.84 571.045 1129.05 571.727 1129.47 572.189C1129.91 572.651 1130.45 572.882 1131.09 572.882ZM1131.48 584.927C1132.58 584.927 1133.48 584.729 1134.19 584.333C1134.89 583.937 1135.24 583.464 1135.24 582.914C1135.24 582.408 1135.02 582.067 1134.58 581.891C1134.17 581.715 1133.55 581.627 1132.74 581.627H1131.05C1130.5 581.627 1130.04 581.605 1129.67 581.561C1129.31 581.539 1129.01 581.495 1128.74 581.429C1128.15 581.957 1127.85 582.496 1127.85 583.046C1127.85 583.662 1128.18 584.124 1128.84 584.432C1129.52 584.762 1130.4 584.927 1131.48 584.927ZM1153.7 581V563.576H1147.8V559.484H1164.49V563.576H1158.59V581H1153.7ZM1172.27 581.396C1170.7 581.396 1169.3 581.055 1168.04 580.373C1166.79 579.691 1165.8 578.712 1165.07 577.436C1164.35 576.16 1163.98 574.62 1163.98 572.816C1163.98 571.034 1164.35 569.505 1165.07 568.229C1165.82 566.953 1166.79 565.974 1167.98 565.292C1169.16 564.588 1170.41 564.236 1171.7 564.236C1173.27 564.236 1174.55 564.588 1175.57 565.292C1176.6 565.974 1177.37 566.909 1177.88 568.097C1178.4 569.263 1178.67 570.594 1178.67 572.09C1178.67 572.508 1178.65 572.926 1178.6 573.344C1178.56 573.74 1178.51 574.037 1178.47 574.235H1168.67C1168.89 575.423 1169.38 576.303 1170.15 576.875C1170.92 577.425 1171.85 577.7 1172.93 577.7C1174.09 577.7 1175.27 577.337 1176.46 576.611L1178.07 579.548C1177.24 580.12 1176.3 580.571 1175.27 580.901C1174.23 581.231 1173.23 581.396 1172.27 581.396ZM1168.64 571.034H1174.54C1174.54 570.132 1174.32 569.395 1173.88 568.823C1173.46 568.229 1172.77 567.932 1171.8 567.932C1171.06 567.932 1170.38 568.196 1169.79 568.724C1169.2 569.23 1168.81 570 1168.64 571.034ZM1179.82 581L1184.84 572.486L1180.12 564.632H1185.33L1186.78 567.272C1187 567.734 1187.23 568.207 1187.48 568.691C1187.72 569.153 1187.95 569.615 1188.17 570.077H1188.3C1188.48 569.615 1188.66 569.153 1188.86 568.691C1189.06 568.207 1189.25 567.734 1189.42 567.272L1190.55 564.632H1195.56L1190.81 573.047L1195.86 581H1190.64L1189.06 578.294C1188.8 577.832 1188.53 577.359 1188.27 576.875C1188.03 576.391 1187.77 575.918 1187.51 575.456H1187.38C1187.18 575.918 1186.97 576.391 1186.75 576.875C1186.53 577.337 1186.32 577.81 1186.12 578.294L1184.84 581H1179.82ZM1203.82 581.396C1201.8 581.396 1200.35 580.813 1199.47 579.647C1198.61 578.481 1198.18 576.952 1198.18 575.06V568.427H1195.94V564.83L1198.44 564.632L1199.01 560.276H1203.03V564.632H1206.96V568.427H1203.03V574.994C1203.03 575.918 1203.22 576.589 1203.59 577.007C1203.99 577.403 1204.51 577.601 1205.14 577.601C1205.41 577.601 1205.67 577.568 1205.94 577.502C1206.22 577.436 1206.47 577.359 1206.69 577.271L1207.45 580.802C1207.04 580.934 1206.52 581.066 1205.9 581.198C1205.31 581.33 1204.62 581.396 1203.82 581.396ZM1212.63 586.907L1209.59 585.653C1210.82 583.497 1211.72 581.242 1212.27 578.888C1212.82 576.512 1213.09 574.158 1213.09 571.826C1213.09 569.472 1212.82 567.118 1212.27 564.764C1211.72 562.388 1210.82 560.133 1209.59 557.999L1212.63 556.745C1214.01 559.011 1215.08 561.365 1215.83 563.807C1216.6 566.249 1216.98 568.922 1216.98 571.826C1216.98 574.73 1216.6 577.403 1215.83 579.845C1215.08 582.287 1214.01 584.641 1212.63 586.907Z" fill="#00CCB0"/>
</g>
<g filter="url(#filter3_d_1302_2038)">
<rect x="862.541" y="340.924" width="385.384" height="105.917" rx="10" fill="white" stroke="#7B39D9" stroke-width="1.5"/>
<path d="M971.514 406V384.484H976.497L982.107 395.176L984.219 399.928H984.351C984.263 398.784 984.142 397.508 983.988 396.1C983.834 394.692 983.757 393.35 983.757 392.074V384.484H988.377V406H983.394L977.784 395.275L975.672 390.589H975.54C975.65 391.777 975.771 393.053 975.903 394.417C976.057 395.781 976.134 397.101 976.134 398.377V406H971.514ZM997.189 406.396C995.693 406.396 994.505 405.923 993.625 404.977C992.745 404.009 992.305 402.832 992.305 401.446C992.305 399.73 993.031 398.388 994.483 397.42C995.935 396.452 998.278 395.803 1001.51 395.473C1001.47 394.747 1001.25 394.175 1000.85 393.757C1000.48 393.317 999.84 393.097 998.938 393.097C998.256 393.097 997.563 393.229 996.859 393.493C996.155 393.757 995.407 394.12 994.615 394.582L992.866 391.381C993.9 390.743 995 390.226 996.166 389.83C997.354 389.434 998.586 389.236 999.862 389.236C1001.95 389.236 1003.56 389.841 1004.68 391.051C1005.8 392.261 1006.36 394.12 1006.36 396.628V406H1002.4L1002.07 404.317H1001.94C1001.26 404.933 1000.52 405.439 999.73 405.835C998.96 406.209 998.113 406.396 997.189 406.396ZM998.839 402.634C999.389 402.634 999.862 402.513 1000.26 402.271C1000.68 402.007 1001.09 401.666 1001.51 401.248V398.377C999.796 398.597 998.608 398.949 997.948 399.433C997.288 399.895 996.958 400.445 996.958 401.083C996.958 401.611 997.123 402.007 997.453 402.271C997.805 402.513 998.267 402.634 998.839 402.634ZM1010.47 406V389.632H1014.43L1014.76 391.744H1014.89C1015.57 391.062 1016.3 390.479 1017.07 389.995C1017.84 389.489 1018.76 389.236 1019.84 389.236C1021 389.236 1021.94 389.478 1022.64 389.962C1023.37 390.424 1023.94 391.095 1024.36 391.975C1025.09 391.227 1025.86 390.589 1026.67 390.061C1027.48 389.511 1028.43 389.236 1029.51 389.236C1031.27 389.236 1032.55 389.83 1033.37 391.018C1034.2 392.184 1034.62 393.79 1034.62 395.836V406H1029.77V396.463C1029.77 395.275 1029.61 394.461 1029.28 394.021C1028.97 393.581 1028.46 393.361 1027.76 393.361C1026.94 393.361 1026.01 393.889 1024.95 394.945V406H1020.1V396.463C1020.1 395.275 1019.94 394.461 1019.61 394.021C1019.3 393.581 1018.79 393.361 1018.09 393.361C1017.28 393.361 1016.35 393.889 1015.32 394.945V406H1010.47ZM1046.09 406.396C1044.53 406.396 1043.12 406.055 1041.86 405.373C1040.61 404.691 1039.62 403.712 1038.89 402.436C1038.17 401.16 1037.8 399.62 1037.8 397.816C1037.8 396.034 1038.17 394.505 1038.89 393.229C1039.64 391.953 1040.61 390.974 1041.8 390.292C1042.99 389.588 1044.23 389.236 1045.53 389.236C1047.09 389.236 1048.38 389.588 1049.39 390.292C1050.42 390.974 1051.19 391.909 1051.7 393.097C1052.23 394.263 1052.49 395.594 1052.49 397.09C1052.49 397.508 1052.47 397.926 1052.42 398.344C1052.38 398.74 1052.34 399.037 1052.29 399.235H1042.49C1042.71 400.423 1043.21 401.303 1043.98 401.875C1044.75 402.425 1045.67 402.7 1046.75 402.7C1047.91 402.7 1049.09 402.337 1050.28 401.611L1051.9 404.548C1051.06 405.12 1050.12 405.571 1049.09 405.901C1048.06 406.231 1047.06 406.396 1046.09 406.396ZM1042.46 396.034H1048.36C1048.36 395.132 1048.14 394.395 1047.7 393.823C1047.29 393.229 1046.59 392.932 1045.63 392.932C1044.88 392.932 1044.21 393.196 1043.61 393.724C1043.02 394.23 1042.63 395 1042.46 396.034Z" fill="#7B39D9"/>
<path d="M1067.03 411.907C1065.65 409.641 1064.57 407.287 1063.8 404.845C1063.05 402.403 1062.68 399.73 1062.68 396.826C1062.68 393.922 1063.05 391.249 1063.8 388.807C1064.57 386.365 1065.65 384.011 1067.03 381.745L1070.07 382.999C1068.86 385.133 1067.98 387.388 1067.43 389.764C1066.88 392.118 1066.61 394.472 1066.61 396.826C1066.61 399.158 1066.88 401.512 1067.43 403.888C1067.98 406.242 1068.86 408.497 1070.07 410.653L1067.03 411.907ZM1078.38 406V388.576H1072.47V384.484H1089.17V388.576H1083.26V406H1078.38ZM1096.94 406.396C1095.38 406.396 1093.97 406.055 1092.72 405.373C1091.46 404.691 1090.47 403.712 1089.75 402.436C1089.02 401.16 1088.66 399.62 1088.66 397.816C1088.66 396.034 1089.02 394.505 1089.75 393.229C1090.49 391.953 1091.46 390.974 1092.65 390.292C1093.84 389.588 1095.08 389.236 1096.38 389.236C1097.94 389.236 1099.23 389.588 1100.24 390.292C1101.27 390.974 1102.04 391.909 1102.55 393.097C1103.08 394.263 1103.34 395.594 1103.34 397.09C1103.34 397.508 1103.32 397.926 1103.28 398.344C1103.23 398.74 1103.19 399.037 1103.14 399.235H1093.34C1093.56 400.423 1094.06 401.303 1094.83 401.875C1095.6 402.425 1096.52 402.7 1097.6 402.7C1098.77 402.7 1099.94 402.337 1101.13 401.611L1102.75 404.548C1101.91 405.12 1100.98 405.571 1099.94 405.901C1098.91 406.231 1097.91 406.396 1096.94 406.396ZM1093.31 396.034H1099.22C1099.22 395.132 1099 394.395 1098.56 393.823C1098.14 393.229 1097.45 392.932 1096.48 392.932C1095.73 392.932 1095.06 393.196 1094.47 393.724C1093.87 394.23 1093.49 395 1093.31 396.034ZM1104.5 406L1109.51 397.486L1104.79 389.632H1110.01L1111.46 392.272C1111.68 392.734 1111.91 393.207 1112.15 393.691C1112.39 394.153 1112.63 394.615 1112.85 395.077H1112.98C1113.15 394.615 1113.34 394.153 1113.54 393.691C1113.74 393.207 1113.92 392.734 1114.1 392.272L1115.22 389.632H1120.24L1115.49 398.047L1120.53 406H1115.32L1113.74 403.294C1113.47 402.832 1113.21 402.359 1112.94 401.875C1112.7 401.391 1112.45 400.918 1112.19 400.456H1112.05C1111.86 400.918 1111.65 401.391 1111.43 401.875C1111.21 402.337 1111 402.81 1110.8 403.294L1109.51 406H1104.5ZM1128.5 406.396C1126.47 406.396 1125.02 405.813 1124.14 404.647C1123.28 403.481 1122.86 401.952 1122.86 400.06V393.427H1120.61V389.83L1123.12 389.632L1123.68 385.276H1127.71V389.632H1131.63V393.427H1127.71V399.994C1127.71 400.918 1127.89 401.589 1128.27 402.007C1128.66 402.403 1129.18 402.601 1129.82 402.601C1130.08 402.601 1130.35 402.568 1130.61 402.502C1130.9 402.436 1131.15 402.359 1131.37 402.271L1132.13 405.802C1131.71 405.934 1131.19 406.066 1130.58 406.198C1129.98 406.33 1129.29 406.396 1128.5 406.396ZM1137.3 411.907L1134.27 410.653C1135.5 408.497 1136.39 406.242 1136.94 403.888C1137.49 401.512 1137.77 399.158 1137.77 396.826C1137.77 394.472 1137.49 392.118 1136.94 389.764C1136.39 387.388 1135.5 385.133 1134.27 382.999L1137.3 381.745C1138.69 384.011 1139.76 386.365 1140.5 388.807C1141.27 391.249 1141.66 393.922 1141.66 396.826C1141.66 399.73 1141.27 402.403 1140.5 404.845C1139.76 407.287 1138.69 409.641 1137.3 411.907Z" fill="#00CCB0"/>
</g>
<g filter="url(#filter4_d_1302_2038)">
<rect x="857.436" y="723.756" width="385.384" height="105.917" rx="10" fill="white" stroke="#7B39D9" stroke-width="1.5"/>
<path d="M931.084 786V764.484H938.476C940.06 764.484 941.49 764.704 942.766 765.144C944.064 765.562 945.098 766.277 945.868 767.289C946.638 768.301 947.023 769.676 947.023 771.414C947.023 773.086 946.638 774.461 945.868 775.539C945.098 776.617 944.075 777.42 942.799 777.948C941.523 778.454 940.126 778.707 938.608 778.707H935.935V786H931.084ZM935.935 774.846H938.311C940.951 774.846 942.271 773.702 942.271 771.414C942.271 770.292 941.919 769.5 941.215 769.038C940.511 768.576 939.499 768.345 938.179 768.345H935.935V774.846ZM950.347 786V769.632H954.307L954.637 772.503H954.769C955.363 771.403 956.078 770.589 956.914 770.061C957.75 769.511 958.586 769.236 959.422 769.236C959.884 769.236 960.269 769.269 960.577 769.335C960.885 769.379 961.149 769.456 961.369 769.566L960.577 773.757C960.291 773.669 960.005 773.603 959.719 773.559C959.455 773.515 959.147 773.493 958.795 773.493C958.179 773.493 957.53 773.724 956.848 774.186C956.188 774.626 955.638 775.396 955.198 776.496V786H950.347ZM963.495 786V769.632H968.346V786H963.495ZM965.904 767.223C965.09 767.223 964.43 766.992 963.924 766.53C963.418 766.068 963.165 765.452 963.165 764.682C963.165 763.912 963.418 763.296 963.924 762.834C964.43 762.372 965.09 762.141 965.904 762.141C966.718 762.141 967.378 762.372 967.884 762.834C968.39 763.296 968.643 763.912 968.643 764.682C968.643 765.452 968.39 766.068 967.884 766.53C967.378 766.992 966.718 767.223 965.904 767.223ZM979.743 786.396C978.225 786.396 976.85 786.066 975.618 785.406C974.408 784.724 973.44 783.745 972.714 782.469C972.01 781.171 971.658 779.62 971.658 777.816C971.658 775.99 972.054 774.439 972.846 773.163C973.638 771.887 974.683 770.919 975.981 770.259C977.279 769.577 978.676 769.236 980.172 769.236C981.184 769.236 982.075 769.401 982.845 769.731C983.637 770.061 984.341 770.479 984.957 770.985L982.68 774.12C981.91 773.482 981.173 773.163 980.469 773.163C979.303 773.163 978.368 773.581 977.664 774.417C976.982 775.253 976.641 776.386 976.641 777.816C976.641 779.224 976.982 780.357 977.664 781.215C978.368 782.051 979.248 782.469 980.304 782.469C980.832 782.469 981.349 782.359 981.855 782.139C982.361 781.897 982.823 781.611 983.241 781.281L985.155 784.449C984.341 785.153 983.461 785.659 982.515 785.967C981.569 786.253 980.645 786.396 979.743 786.396ZM994.411 786.396C992.849 786.396 991.441 786.055 990.187 785.373C988.933 784.691 987.943 783.712 987.217 782.436C986.491 781.16 986.128 779.62 986.128 777.816C986.128 776.034 986.491 774.505 987.217 773.229C987.965 771.953 988.933 770.974 990.121 770.292C991.309 769.588 992.552 769.236 993.85 769.236C995.412 769.236 996.699 769.588 997.711 770.292C998.745 770.974 999.515 771.909 1000.02 773.097C1000.55 774.263 1000.81 775.594 1000.81 777.09C1000.81 777.508 1000.79 777.926 1000.75 778.344C1000.7 778.74 1000.66 779.037 1000.61 779.235H990.814C991.034 780.423 991.529 781.303 992.299 781.875C993.069 782.425 993.993 782.7 995.071 782.7C996.237 782.7 997.414 782.337 998.602 781.611L1000.22 784.548C999.383 785.12 998.448 785.571 997.414 785.901C996.38 786.231 995.379 786.396 994.411 786.396ZM990.781 776.034H996.688C996.688 775.132 996.468 774.395 996.028 773.823C995.61 773.229 994.917 772.932 993.949 772.932C993.201 772.932 992.53 773.196 991.936 773.724C991.342 774.23 990.957 775 990.781 776.034Z" fill="#7B39D9"/>
<path d="M1015.36 791.907C1013.97 789.641 1012.89 787.287 1012.12 784.845C1011.38 782.403 1011 779.73 1011 776.826C1011 773.922 1011.38 771.249 1012.12 768.807C1012.89 766.365 1013.97 764.011 1015.36 761.745L1018.39 762.999C1017.18 765.133 1016.3 767.388 1015.75 769.764C1015.2 772.118 1014.93 774.472 1014.93 776.826C1014.93 779.158 1015.2 781.512 1015.75 783.888C1016.3 786.242 1017.18 788.497 1018.39 790.653L1015.36 791.907ZM1022.51 786V764.484H1027.49L1033.1 775.176L1035.22 779.928H1035.35C1035.26 778.784 1035.14 777.508 1034.99 776.1C1034.83 774.692 1034.75 773.35 1034.75 772.074V764.484H1039.37V786H1034.39L1028.78 775.275L1026.67 770.589H1026.54C1026.65 771.777 1026.77 773.053 1026.9 774.417C1027.05 775.781 1027.13 777.101 1027.13 778.377V786H1022.51ZM1048.98 786.396C1047.2 786.396 1045.9 785.813 1045.08 784.647C1044.29 783.459 1043.9 781.842 1043.9 779.796V769.632H1048.75V779.169C1048.75 780.335 1048.91 781.149 1049.24 781.611C1049.57 782.051 1050.09 782.271 1050.79 782.271C1051.41 782.271 1051.93 782.128 1052.34 781.842C1052.76 781.556 1053.21 781.094 1053.7 780.456V769.632H1058.55V786H1054.59L1054.23 783.723H1054.13C1053.44 784.537 1052.7 785.186 1051.88 785.67C1051.07 786.154 1050.1 786.396 1048.98 786.396ZM1062.82 786V769.632H1066.78L1067.11 771.744H1067.24C1067.92 771.062 1068.65 770.479 1069.42 769.995C1070.19 769.489 1071.11 769.236 1072.19 769.236C1073.36 769.236 1074.29 769.478 1074.99 769.962C1075.72 770.424 1076.29 771.095 1076.71 771.975C1077.44 771.227 1078.21 770.589 1079.02 770.061C1079.83 769.511 1080.78 769.236 1081.86 769.236C1083.62 769.236 1084.91 769.83 1085.72 771.018C1086.56 772.184 1086.97 773.79 1086.97 775.836V786H1082.12V776.463C1082.12 775.275 1081.96 774.461 1081.63 774.021C1081.32 773.581 1080.81 773.361 1080.11 773.361C1079.3 773.361 1078.36 773.889 1077.3 774.945V786H1072.45V776.463C1072.45 775.275 1072.29 774.461 1071.96 774.021C1071.65 773.581 1071.14 773.361 1070.44 773.361C1069.63 773.361 1068.7 773.889 1067.67 774.945V786H1062.82ZM1099.69 786.396C1098.97 786.396 1098.23 786.22 1097.48 785.868C1096.76 785.494 1096.07 784.955 1095.44 784.251H1095.3L1094.91 786H1091.11V762.867H1095.96V768.543L1095.83 771.051C1096.47 770.479 1097.16 770.039 1097.91 769.731C1098.66 769.401 1099.41 769.236 1100.15 769.236C1101.47 769.236 1102.62 769.577 1103.59 770.259C1104.55 770.941 1105.29 771.909 1105.8 773.163C1106.33 774.395 1106.59 775.847 1106.59 777.519C1106.59 779.389 1106.26 780.995 1105.6 782.337C1104.94 783.657 1104.08 784.669 1103.03 785.373C1101.99 786.055 1100.88 786.396 1099.69 786.396ZM1098.57 782.436C1099.41 782.436 1100.12 782.051 1100.72 781.281C1101.31 780.511 1101.61 779.29 1101.61 777.618C1101.61 774.67 1100.66 773.196 1098.77 773.196C1097.8 773.196 1096.87 773.691 1095.96 774.681V781.38C1096.4 781.776 1096.84 782.051 1097.28 782.205C1097.72 782.359 1098.15 782.436 1098.57 782.436ZM1117.36 786.396C1115.79 786.396 1114.39 786.055 1113.13 785.373C1111.88 784.691 1110.89 783.712 1110.16 782.436C1109.44 781.16 1109.07 779.62 1109.07 777.816C1109.07 776.034 1109.44 774.505 1110.16 773.229C1110.91 771.953 1111.88 770.974 1113.07 770.292C1114.25 769.588 1115.5 769.236 1116.79 769.236C1118.36 769.236 1119.64 769.588 1120.66 770.292C1121.69 770.974 1122.46 771.909 1122.97 773.097C1123.49 774.263 1123.76 775.594 1123.76 777.09C1123.76 777.508 1123.74 777.926 1123.69 778.344C1123.65 778.74 1123.6 779.037 1123.56 779.235H1113.76C1113.98 780.423 1114.47 781.303 1115.24 781.875C1116.01 782.425 1116.94 782.7 1118.02 782.7C1119.18 782.7 1120.36 782.337 1121.55 781.611L1123.16 784.548C1122.33 785.12 1121.39 785.571 1120.36 785.901C1119.32 786.231 1118.32 786.396 1117.36 786.396ZM1113.73 776.034H1119.63C1119.63 775.132 1119.41 774.395 1118.97 773.823C1118.55 773.229 1117.86 772.932 1116.89 772.932C1116.15 772.932 1115.47 773.196 1114.88 773.724C1114.29 774.23 1113.9 775 1113.73 776.034ZM1127.11 786V769.632H1131.07L1131.4 772.503H1131.53C1132.13 771.403 1132.84 770.589 1133.68 770.061C1134.51 769.511 1135.35 769.236 1136.18 769.236C1136.65 769.236 1137.03 769.269 1137.34 769.335C1137.65 769.379 1137.91 769.456 1138.13 769.566L1137.34 773.757C1137.05 773.669 1136.77 773.603 1136.48 773.559C1136.22 773.515 1135.91 773.493 1135.56 773.493C1134.94 773.493 1134.29 773.724 1133.61 774.186C1132.95 774.626 1132.4 775.396 1131.96 776.496V786H1127.11ZM1142.73 791.907L1139.7 790.653C1140.93 788.497 1141.82 786.242 1142.37 783.888C1142.92 781.512 1143.19 779.158 1143.19 776.826C1143.19 774.472 1142.92 772.118 1142.37 769.764C1141.82 767.388 1140.93 765.133 1139.7 762.999L1142.73 761.745C1144.12 764.011 1145.19 766.365 1145.93 768.807C1146.7 771.249 1147.09 773.922 1147.09 776.826C1147.09 779.73 1146.7 782.403 1145.93 784.845C1145.19 787.287 1144.12 789.641 1142.73 791.907Z" fill="#00CCB0"/>
</g>
<path d="M409.523 531.064L863.817 385.588" stroke="#7B39D9" stroke-width="2" stroke-dasharray="5 5"/>
<path d="M409.523 630.6L853.608 773.524" stroke="#7B39D9" stroke-width="2" stroke-dasharray="5 5"/>
<path d="M459.929 580.832H856.16" stroke="#7B39D9" stroke-width="2" stroke-dasharray="5 5"/>
<path d="M1565.5 539.5L1112.66 412.386" stroke="#00CCB0" stroke-width="2" stroke-dasharray="5 5"/>
<path d="M1574 660L1093 762" stroke="#00CCB0" stroke-width="2" stroke-dasharray="5 5"/>
<path d="M1540.73 595H1126" stroke="#00CCB0" stroke-width="2" stroke-dasharray="5 5"/>
<path d="M272.979 302.641C446.405 303.139 717.064 303.917 717.064 303.917" stroke="#FA5A28" stroke-width="2" stroke-dasharray="5 5"/>
<path d="M138.96 274.48C136.773 274.48 134.76 273.973 132.92 272.96C131.08 271.947 129.6 270.453 128.48 268.48C127.387 266.48 126.84 264.027 126.84 261.12C126.84 258.24 127.4 255.787 128.52 253.76C129.667 251.707 131.173 250.147 133.04 249.08C134.933 247.987 136.973 247.44 139.16 247.44C140.84 247.44 142.347 247.787 143.68 248.48C145.013 249.147 146.12 249.933 147 250.84L143.88 254.6C143.213 253.987 142.507 253.493 141.76 253.12C141.04 252.72 140.213 252.52 139.28 252.52C138.107 252.52 137.027 252.853 136.04 253.52C135.08 254.187 134.307 255.147 133.72 256.4C133.16 257.653 132.88 259.16 132.88 260.92C132.88 263.587 133.453 265.667 134.6 267.16C135.747 268.653 137.28 269.4 139.2 269.4C140.267 269.4 141.213 269.16 142.04 268.68C142.893 268.2 143.64 267.627 144.28 266.96L147.4 270.64C145.213 273.2 142.4 274.48 138.96 274.48ZM159.401 274.48C157.721 274.48 156.135 274.08 154.641 273.28C153.175 272.453 151.988 271.267 151.081 269.72C150.175 268.147 149.721 266.267 149.721 264.08C149.721 261.867 150.175 259.987 151.081 258.44C151.988 256.893 153.175 255.72 154.641 254.92C156.135 254.093 157.721 253.68 159.401 253.68C161.081 253.68 162.655 254.093 164.121 254.92C165.588 255.72 166.775 256.893 167.681 258.44C168.588 259.987 169.041 261.867 169.041 264.08C169.041 266.267 168.588 268.147 167.681 269.72C166.775 271.267 165.588 272.453 164.121 273.28C162.655 274.08 161.081 274.48 159.401 274.48ZM159.401 269.72C160.601 269.72 161.508 269.213 162.121 268.2C162.735 267.16 163.041 265.787 163.041 264.08C163.041 262.347 162.735 260.973 162.121 259.96C161.508 258.947 160.601 258.44 159.401 258.44C158.175 258.44 157.255 258.947 156.641 259.96C156.055 260.973 155.761 262.347 155.761 264.08C155.761 265.787 156.055 267.16 156.641 268.2C157.255 269.213 158.175 269.72 159.401 269.72ZM173.069 274V254.16H177.869L178.269 256.68H178.429C179.282 255.88 180.215 255.187 181.229 254.6C182.269 253.987 183.455 253.68 184.789 253.68C186.949 253.68 188.509 254.4 189.469 255.84C190.455 257.253 190.949 259.2 190.949 261.68V274H185.069V262.44C185.069 261 184.869 260.013 184.469 259.48C184.095 258.947 183.482 258.68 182.629 258.68C181.882 258.68 181.242 258.853 180.709 259.2C180.175 259.52 179.589 259.987 178.949 260.6V274H173.069ZM203.599 274.48C201.146 274.48 199.386 273.773 198.319 272.36C197.279 270.947 196.759 269.093 196.759 266.8V258.76H194.039V254.4L197.079 254.16L197.759 248.88H202.639V254.16H207.399V258.76H202.639V266.72C202.639 267.84 202.866 268.653 203.319 269.16C203.799 269.64 204.426 269.88 205.199 269.88C205.519 269.88 205.839 269.84 206.159 269.76C206.506 269.68 206.813 269.587 207.079 269.48L207.999 273.76C207.493 273.92 206.866 274.08 206.119 274.24C205.399 274.4 204.559 274.48 203.599 274.48ZM219.449 274.48C217.555 274.48 215.849 274.067 214.329 273.24C212.809 272.413 211.609 271.227 210.729 269.68C209.849 268.133 209.409 266.267 209.409 264.08C209.409 261.92 209.849 260.067 210.729 258.52C211.635 256.973 212.809 255.787 214.249 254.96C215.689 254.107 217.195 253.68 218.769 253.68C220.662 253.68 222.222 254.107 223.449 254.96C224.702 255.787 225.635 256.92 226.249 258.36C226.889 259.773 227.209 261.387 227.209 263.2C227.209 263.707 227.182 264.213 227.129 264.72C227.075 265.2 227.022 265.56 226.969 265.8H215.089C215.355 267.24 215.955 268.307 216.889 269C217.822 269.667 218.942 270 220.249 270C221.662 270 223.089 269.56 224.529 268.68L226.489 272.24C225.475 272.933 224.342 273.48 223.089 273.88C221.835 274.28 220.622 274.48 219.449 274.48ZM215.049 261.92H222.209C222.209 260.827 221.942 259.933 221.409 259.24C220.902 258.52 220.062 258.16 218.889 258.16C217.982 258.16 217.169 258.48 216.449 259.12C215.729 259.733 215.262 260.667 215.049 261.92ZM231.272 274V254.16H236.072L236.472 256.68H236.632C237.485 255.88 238.419 255.187 239.432 254.6C240.472 253.987 241.659 253.68 242.992 253.68C245.152 253.68 246.712 254.4 247.672 255.84C248.659 257.253 249.152 259.2 249.152 261.68V274H243.272V262.44C243.272 261 243.072 260.013 242.672 259.48C242.299 258.947 241.685 258.68 240.832 258.68C240.085 258.68 239.445 258.853 238.912 259.2C238.379 259.52 237.792 259.987 237.152 260.6V274H231.272ZM261.803 274.48C259.349 274.48 257.589 273.773 256.523 272.36C255.483 270.947 254.963 269.093 254.963 266.8V258.76H252.243V254.4L255.283 254.16L255.963 248.88H260.843V254.16H265.603V258.76H260.843V266.72C260.843 267.84 261.069 268.653 261.523 269.16C262.003 269.64 262.629 269.88 263.403 269.88C263.723 269.88 264.043 269.84 264.363 269.76C264.709 269.68 265.016 269.587 265.283 269.48L266.203 273.76C265.696 273.92 265.069 274.08 264.323 274.24C263.603 274.4 262.763 274.48 261.803 274.48ZM277.963 274V247.92H284.403L288.603 259.52C288.869 260.267 289.123 261.053 289.363 261.88C289.603 262.707 289.856 263.52 290.123 264.32H290.283C290.549 263.52 290.789 262.707 291.003 261.88C291.243 261.053 291.496 260.267 291.763 259.52L295.883 247.92H302.283V274H296.923V264.44C296.923 263.587 296.963 262.64 297.043 261.6C297.149 260.533 297.256 259.467 297.363 258.4C297.496 257.333 297.603 256.387 297.683 255.56H297.523L295.403 261.76L291.683 271.72H288.443L284.723 261.76L282.643 255.56H282.483C282.589 256.387 282.696 257.333 282.803 258.4C282.909 259.467 283.003 260.533 283.083 261.6C283.189 262.64 283.243 263.587 283.243 264.44V274H277.963ZM316.472 274.48C314.792 274.48 313.205 274.08 311.712 273.28C310.245 272.453 309.058 271.267 308.152 269.72C307.245 268.147 306.792 266.267 306.792 264.08C306.792 261.867 307.245 259.987 308.152 258.44C309.058 256.893 310.245 255.72 311.712 254.92C313.205 254.093 314.792 253.68 316.472 253.68C318.152 253.68 319.725 254.093 321.192 254.92C322.658 255.72 323.845 256.893 324.752 258.44C325.658 259.987 326.112 261.867 326.112 264.08C326.112 266.267 325.658 268.147 324.752 269.72C323.845 271.267 322.658 272.453 321.192 273.28C319.725 274.08 318.152 274.48 316.472 274.48ZM316.472 269.72C317.672 269.72 318.578 269.213 319.192 268.2C319.805 267.16 320.112 265.787 320.112 264.08C320.112 262.347 319.805 260.973 319.192 259.96C318.578 258.947 317.672 258.44 316.472 258.44C315.245 258.44 314.325 258.947 313.712 259.96C313.125 260.973 312.832 262.347 312.832 264.08C312.832 265.787 313.125 267.16 313.712 268.2C314.325 269.213 315.245 269.72 316.472 269.72ZM337.219 274.48C334.766 274.48 332.792 273.56 331.299 271.72C329.832 269.853 329.099 267.307 329.099 264.08C329.099 261.92 329.486 260.067 330.259 258.52C331.059 256.947 332.086 255.747 333.339 254.92C334.619 254.093 335.952 253.68 337.339 253.68C338.432 253.68 339.352 253.867 340.099 254.24C340.846 254.613 341.552 255.12 342.219 255.76L341.979 252.72V245.96H347.859V274H343.059L342.659 272.04H342.499C341.806 272.733 340.992 273.32 340.059 273.8C339.126 274.253 338.179 274.48 337.219 274.48ZM338.739 269.68C339.379 269.68 339.952 269.547 340.459 269.28C340.992 269.013 341.499 268.547 341.979 267.88V259.76C341.472 259.28 340.926 258.947 340.339 258.76C339.779 258.573 339.232 258.48 338.699 258.48C337.766 258.48 336.939 258.933 336.219 259.84C335.499 260.72 335.139 262.107 335.139 264C335.139 265.947 335.446 267.387 336.059 268.32C336.699 269.227 337.592 269.68 338.739 269.68ZM361.949 274.48C360.055 274.48 358.349 274.067 356.829 273.24C355.309 272.413 354.109 271.227 353.229 269.68C352.349 268.133 351.909 266.267 351.909 264.08C351.909 261.92 352.349 260.067 353.229 258.52C354.135 256.973 355.309 255.787 356.749 254.96C358.189 254.107 359.695 253.68 361.269 253.68C363.162 253.68 364.722 254.107 365.949 254.96C367.202 255.787 368.135 256.92 368.749 258.36C369.389 259.773 369.709 261.387 369.709 263.2C369.709 263.707 369.682 264.213 369.629 264.72C369.575 265.2 369.522 265.56 369.469 265.8H357.589C357.855 267.24 358.455 268.307 359.389 269C360.322 269.667 361.442 270 362.749 270C364.162 270 365.589 269.56 367.029 268.68L368.989 272.24C367.975 272.933 366.842 273.48 365.589 273.88C364.335 274.28 363.122 274.48 361.949 274.48ZM357.549 261.92H364.709C364.709 260.827 364.442 259.933 363.909 259.24C363.402 258.52 362.562 258.16 361.389 258.16C360.482 258.16 359.669 258.48 358.949 259.12C358.229 259.733 357.762 260.667 357.549 261.92ZM379.172 274.48C377.145 274.48 375.732 273.88 374.932 272.68C374.159 271.453 373.772 269.84 373.772 267.84V245.96H379.652V268.08C379.652 268.693 379.759 269.12 379.972 269.36C380.212 269.6 380.452 269.72 380.692 269.72C380.825 269.72 380.932 269.72 381.012 269.72C381.119 269.693 381.252 269.667 381.412 269.64L382.132 274C381.812 274.133 381.399 274.24 380.892 274.32C380.412 274.427 379.839 274.48 379.172 274.48Z" fill="#FA5A28"/>
<path d="M146.96 584.48C144.773 584.48 142.76 583.973 140.92 582.96C139.08 581.947 137.6 580.453 136.48 578.48C135.387 576.48 134.84 574.027 134.84 571.12C134.84 568.24 135.4 565.787 136.52 563.76C137.667 561.707 139.173 560.147 141.04 559.08C142.933 557.987 144.973 557.44 147.16 557.44C148.84 557.44 150.347 557.787 151.68 558.48C153.013 559.147 154.12 559.933 155 560.84L151.88 564.6C151.213 563.987 150.507 563.493 149.76 563.12C149.04 562.72 148.213 562.52 147.28 562.52C146.107 562.52 145.027 562.853 144.04 563.52C143.08 564.187 142.307 565.147 141.72 566.4C141.16 567.653 140.88 569.16 140.88 570.92C140.88 573.587 141.453 575.667 142.6 577.16C143.747 578.653 145.28 579.4 147.2 579.4C148.267 579.4 149.213 579.16 150.04 578.68C150.893 578.2 151.64 577.627 152.28 576.96L155.4 580.64C153.213 583.2 150.4 584.48 146.96 584.48ZM167.401 584.48C165.721 584.48 164.135 584.08 162.641 583.28C161.175 582.453 159.988 581.267 159.081 579.72C158.175 578.147 157.721 576.267 157.721 574.08C157.721 571.867 158.175 569.987 159.081 568.44C159.988 566.893 161.175 565.72 162.641 564.92C164.135 564.093 165.721 563.68 167.401 563.68C169.081 563.68 170.655 564.093 172.121 564.92C173.588 565.72 174.775 566.893 175.681 568.44C176.588 569.987 177.041 571.867 177.041 574.08C177.041 576.267 176.588 578.147 175.681 579.72C174.775 581.267 173.588 582.453 172.121 583.28C170.655 584.08 169.081 584.48 167.401 584.48ZM167.401 579.72C168.601 579.72 169.508 579.213 170.121 578.2C170.735 577.16 171.041 575.787 171.041 574.08C171.041 572.347 170.735 570.973 170.121 569.96C169.508 568.947 168.601 568.44 167.401 568.44C166.175 568.44 165.255 568.947 164.641 569.96C164.055 570.973 163.761 572.347 163.761 574.08C163.761 575.787 164.055 577.16 164.641 578.2C165.255 579.213 166.175 579.72 167.401 579.72ZM181.069 584V564.16H185.869L186.269 566.68H186.429C187.282 565.88 188.215 565.187 189.229 564.6C190.269 563.987 191.455 563.68 192.789 563.68C194.949 563.68 196.509 564.4 197.469 565.84C198.455 567.253 198.949 569.2 198.949 571.68V584H193.069V572.44C193.069 571 192.869 570.013 192.469 569.48C192.095 568.947 191.482 568.68 190.629 568.68C189.882 568.68 189.242 568.853 188.709 569.2C188.175 569.52 187.589 569.987 186.949 570.6V584H181.069ZM211.599 584.48C209.146 584.48 207.386 583.773 206.319 582.36C205.279 580.947 204.759 579.093 204.759 576.8V568.76H202.039V564.4L205.079 564.16L205.759 558.88H210.639V564.16H215.399V568.76H210.639V576.72C210.639 577.84 210.866 578.653 211.319 579.16C211.799 579.64 212.426 579.88 213.199 579.88C213.519 579.88 213.839 579.84 214.159 579.76C214.506 579.68 214.813 579.587 215.079 579.48L215.999 583.76C215.493 583.92 214.866 584.08 214.119 584.24C213.399 584.4 212.559 584.48 211.599 584.48ZM227.449 584.48C225.555 584.48 223.849 584.067 222.329 583.24C220.809 582.413 219.609 581.227 218.729 579.68C217.849 578.133 217.409 576.267 217.409 574.08C217.409 571.92 217.849 570.067 218.729 568.52C219.635 566.973 220.809 565.787 222.249 564.96C223.689 564.107 225.195 563.68 226.769 563.68C228.662 563.68 230.222 564.107 231.449 564.96C232.702 565.787 233.635 566.92 234.249 568.36C234.889 569.773 235.209 571.387 235.209 573.2C235.209 573.707 235.182 574.213 235.129 574.72C235.075 575.2 235.022 575.56 234.969 575.8H223.089C223.355 577.24 223.955 578.307 224.889 579C225.822 579.667 226.942 580 228.249 580C229.662 580 231.089 579.56 232.529 578.68L234.489 582.24C233.475 582.933 232.342 583.48 231.089 583.88C229.835 584.28 228.622 584.48 227.449 584.48ZM223.049 571.92H230.209C230.209 570.827 229.942 569.933 229.409 569.24C228.902 568.52 228.062 568.16 226.889 568.16C225.982 568.16 225.169 568.48 224.449 569.12C223.729 569.733 223.262 570.667 223.049 571.92ZM239.272 584V564.16H244.072L244.472 566.68H244.632C245.485 565.88 246.419 565.187 247.432 564.6C248.472 563.987 249.659 563.68 250.992 563.68C253.152 563.68 254.712 564.4 255.672 565.84C256.659 567.253 257.152 569.2 257.152 571.68V584H251.272V572.44C251.272 571 251.072 570.013 250.672 569.48C250.299 568.947 249.685 568.68 248.832 568.68C248.085 568.68 247.445 568.853 246.912 569.2C246.379 569.52 245.792 569.987 245.152 570.6V584H239.272ZM269.803 584.48C267.349 584.48 265.589 583.773 264.523 582.36C263.483 580.947 262.963 579.093 262.963 576.8V568.76H260.243V564.4L263.283 564.16L263.963 558.88H268.843V564.16H273.603V568.76H268.843V576.72C268.843 577.84 269.069 578.653 269.523 579.16C270.003 579.64 270.629 579.88 271.403 579.88C271.723 579.88 272.043 579.84 272.363 579.76C272.709 579.68 273.016 579.587 273.283 579.48L274.203 583.76C273.696 583.92 273.069 584.08 272.323 584.24C271.603 584.4 270.763 584.48 269.803 584.48ZM285.963 584V557.92H302.403V562.88H291.843V568.92H300.883V573.88H291.843V584H285.963ZM306.459 584V564.16H312.339V584H306.459ZM309.379 561.24C308.393 561.24 307.593 560.96 306.979 560.4C306.366 559.84 306.059 559.093 306.059 558.16C306.059 557.227 306.366 556.48 306.979 555.92C307.593 555.36 308.393 555.08 309.379 555.08C310.366 555.08 311.166 555.36 311.779 555.92C312.393 556.48 312.699 557.227 312.699 558.16C312.699 559.093 312.393 559.84 311.779 560.4C311.166 560.96 310.366 561.24 309.379 561.24ZM326.394 584.48C324.501 584.48 322.794 584.067 321.274 583.24C319.754 582.413 318.554 581.227 317.674 579.68C316.794 578.133 316.354 576.267 316.354 574.08C316.354 571.92 316.794 570.067 317.674 568.52C318.581 566.973 319.754 565.787 321.194 564.96C322.634 564.107 324.141 563.68 325.714 563.68C327.607 563.68 329.167 564.107 330.394 564.96C331.647 565.787 332.581 566.92 333.194 568.36C333.834 569.773 334.154 571.387 334.154 573.2C334.154 573.707 334.127 574.213 334.074 574.72C334.021 575.2 333.967 575.56 333.914 575.8H322.034C322.301 577.24 322.901 578.307 323.834 579C324.767 579.667 325.887 580 327.194 580C328.607 580 330.034 579.56 331.474 578.68L333.434 582.24C332.421 582.933 331.287 583.48 330.034 583.88C328.781 584.28 327.567 584.48 326.394 584.48ZM321.994 571.92H329.154C329.154 570.827 328.887 569.933 328.354 569.24C327.847 568.52 327.007 568.16 325.834 568.16C324.927 568.16 324.114 568.48 323.394 569.12C322.674 569.733 322.207 570.667 321.994 571.92ZM343.617 584.48C341.591 584.48 340.177 583.88 339.377 582.68C338.604 581.453 338.217 579.84 338.217 577.84V555.96H344.097V578.08C344.097 578.693 344.204 579.12 344.417 579.36C344.657 579.6 344.897 579.72 345.137 579.72C345.271 579.72 345.377 579.72 345.457 579.72C345.564 579.693 345.697 579.667 345.857 579.64L346.577 584C346.257 584.133 345.844 584.24 345.337 584.32C344.857 584.427 344.284 584.48 343.617 584.48ZM356.743 584.48C354.289 584.48 352.316 583.56 350.823 581.72C349.356 579.853 348.623 577.307 348.623 574.08C348.623 571.92 349.009 570.067 349.783 568.52C350.583 566.947 351.609 565.747 352.863 564.92C354.143 564.093 355.476 563.68 356.863 563.68C357.956 563.68 358.876 563.867 359.623 564.24C360.369 564.613 361.076 565.12 361.743 565.76L361.503 562.72V555.96H367.383V584H362.583L362.183 582.04H362.023C361.329 582.733 360.516 583.32 359.583 583.8C358.649 584.253 357.703 584.48 356.743 584.48ZM358.263 579.68C358.903 579.68 359.476 579.547 359.983 579.28C360.516 579.013 361.023 578.547 361.503 577.88V569.76C360.996 569.28 360.449 568.947 359.863 568.76C359.303 568.573 358.756 568.48 358.223 568.48C357.289 568.48 356.463 568.933 355.743 569.84C355.023 570.72 354.663 572.107 354.663 574C354.663 575.947 354.969 577.387 355.583 578.32C356.223 579.227 357.116 579.68 358.263 579.68ZM378.432 584.48C377.126 584.48 375.779 584.227 374.392 583.72C373.032 583.213 371.846 582.547 370.832 581.72L373.472 578.04C374.379 578.707 375.246 579.227 376.072 579.6C376.926 579.947 377.766 580.12 378.592 580.12C379.472 580.12 380.112 579.973 380.512 579.68C380.912 579.36 381.112 578.947 381.112 578.44C381.112 577.987 380.912 577.613 380.512 577.32C380.139 577.027 379.646 576.76 379.032 576.52C378.419 576.253 377.766 575.987 377.072 575.72C376.272 575.4 375.472 575 374.672 574.52C373.899 574.04 373.246 573.427 372.712 572.68C372.179 571.907 371.912 570.973 371.912 569.88C371.912 568.04 372.606 566.547 373.992 565.4C375.406 564.253 377.246 563.68 379.512 563.68C381.032 563.68 382.366 563.947 383.512 564.48C384.686 564.987 385.686 565.56 386.512 566.2L383.872 569.72C383.179 569.187 382.486 568.773 381.792 568.48C381.099 568.187 380.406 568.04 379.712 568.04C378.192 568.04 377.432 568.56 377.432 569.6C377.432 570.24 377.806 570.733 378.552 571.08C379.326 571.4 380.219 571.747 381.232 572.12C382.086 572.413 382.912 572.8 383.712 573.28C384.539 573.733 385.219 574.347 385.752 575.12C386.312 575.867 386.592 576.853 386.592 578.08C386.592 579.867 385.899 581.387 384.512 582.64C383.126 583.867 381.099 584.48 378.432 584.48Z" fill="#7B39D9"/>
<path d="M1557.08 614V587.92H1573.52V592.88H1562.96V598.92H1572V603.88H1562.96V614H1557.08ZM1577.58 614V594.16H1583.46V614H1577.58ZM1580.5 591.24C1579.51 591.24 1578.71 590.96 1578.1 590.4C1577.48 589.84 1577.18 589.093 1577.18 588.16C1577.18 587.227 1577.48 586.48 1578.1 585.92C1578.71 585.36 1579.51 585.08 1580.5 585.08C1581.48 585.08 1582.28 585.36 1582.9 585.92C1583.51 586.48 1583.82 587.227 1583.82 588.16C1583.82 589.093 1583.51 589.84 1582.9 590.4C1582.28 590.96 1581.48 591.24 1580.5 591.24ZM1597.51 614.48C1595.62 614.48 1593.91 614.067 1592.39 613.24C1590.87 612.413 1589.67 611.227 1588.79 609.68C1587.91 608.133 1587.47 606.267 1587.47 604.08C1587.47 601.92 1587.91 600.067 1588.79 598.52C1589.7 596.973 1590.87 595.787 1592.31 594.96C1593.75 594.107 1595.26 593.68 1596.83 593.68C1598.72 593.68 1600.28 594.107 1601.51 594.96C1602.76 595.787 1603.7 596.92 1604.31 598.36C1604.95 599.773 1605.27 601.387 1605.27 603.2C1605.27 603.707 1605.24 604.213 1605.19 604.72C1605.14 605.2 1605.08 605.56 1605.03 605.8H1593.15C1593.42 607.24 1594.02 608.307 1594.95 609C1595.88 609.667 1597 610 1598.31 610C1599.72 610 1601.15 609.56 1602.59 608.68L1604.55 612.24C1603.54 612.933 1602.4 613.48 1601.15 613.88C1599.9 614.28 1598.68 614.48 1597.51 614.48ZM1593.11 601.92H1600.27C1600.27 600.827 1600 599.933 1599.47 599.24C1598.96 598.52 1598.12 598.16 1596.95 598.16C1596.04 598.16 1595.23 598.48 1594.51 599.12C1593.79 599.733 1593.32 600.667 1593.11 601.92ZM1614.73 614.48C1612.71 614.48 1611.29 613.88 1610.49 612.68C1609.72 611.453 1609.33 609.84 1609.33 607.84V585.96H1615.21V608.08C1615.21 608.693 1615.32 609.12 1615.53 609.36C1615.77 609.6 1616.01 609.72 1616.25 609.72C1616.39 609.72 1616.49 609.72 1616.57 609.72C1616.68 609.693 1616.81 609.667 1616.97 609.64L1617.69 614C1617.37 614.133 1616.96 614.24 1616.45 614.32C1615.97 614.427 1615.4 614.48 1614.73 614.48ZM1627.86 614.48C1625.41 614.48 1623.43 613.56 1621.94 611.72C1620.47 609.853 1619.74 607.307 1619.74 604.08C1619.74 601.92 1620.13 600.067 1620.9 598.52C1621.7 596.947 1622.73 595.747 1623.98 594.92C1625.26 594.093 1626.59 593.68 1627.98 593.68C1629.07 593.68 1629.99 593.867 1630.74 594.24C1631.49 594.613 1632.19 595.12 1632.86 595.76L1632.62 592.72V585.96H1638.5V614H1633.7L1633.3 612.04H1633.14C1632.45 612.733 1631.63 613.32 1630.7 613.8C1629.77 614.253 1628.82 614.48 1627.86 614.48ZM1629.38 609.68C1630.02 609.68 1630.59 609.547 1631.1 609.28C1631.63 609.013 1632.14 608.547 1632.62 607.88V599.76C1632.11 599.28 1631.57 598.947 1630.98 598.76C1630.42 598.573 1629.87 598.48 1629.34 598.48C1628.41 598.48 1627.58 598.933 1626.86 599.84C1626.14 600.72 1625.78 602.107 1625.78 604C1625.78 605.947 1626.09 607.387 1626.7 608.32C1627.34 609.227 1628.23 609.68 1629.38 609.68ZM1657.28 614V592.88H1650.12V587.92H1670.36V592.88H1663.2V614H1657.28ZM1675.17 621.76C1674.58 621.76 1674.06 621.72 1673.61 621.64C1673.18 621.56 1672.77 621.467 1672.37 621.36L1673.41 616.88C1673.59 616.907 1673.81 616.947 1674.05 617C1674.29 617.08 1674.51 617.12 1674.73 617.12C1675.71 617.12 1676.47 616.88 1677.01 616.4C1677.54 615.92 1677.94 615.293 1678.21 614.52L1678.49 613.48L1670.85 594.16H1676.77L1679.61 602.68C1679.9 603.587 1680.17 604.507 1680.41 605.44C1680.65 606.373 1680.9 607.333 1681.17 608.32H1681.33C1681.54 607.387 1681.75 606.453 1681.97 605.52C1682.21 604.56 1682.45 603.613 1682.69 602.68L1685.09 594.16H1690.73L1683.85 614.2C1683.23 615.853 1682.55 617.24 1681.81 618.36C1681.06 619.507 1680.15 620.36 1679.09 620.92C1678.05 621.48 1676.74 621.76 1675.17 621.76ZM1693.83 621.36V594.16H1698.63L1699.03 596.12H1699.19C1699.96 595.427 1700.83 594.853 1701.79 594.4C1702.77 593.92 1703.79 593.68 1704.83 593.68C1707.23 593.68 1709.12 594.6 1710.51 596.44C1711.89 598.253 1712.59 600.693 1712.59 603.76C1712.59 606.027 1712.19 607.96 1711.39 609.56C1710.59 611.16 1709.55 612.387 1708.27 613.24C1707.01 614.067 1705.67 614.48 1704.23 614.48C1703.37 614.48 1702.55 614.307 1701.75 613.96C1700.95 613.587 1700.2 613.067 1699.51 612.4L1699.71 615.56V621.36H1693.83ZM1702.87 609.68C1703.88 609.68 1704.75 609.213 1705.47 608.28C1706.19 607.347 1706.55 605.867 1706.55 603.84C1706.55 600.267 1705.4 598.48 1703.11 598.48C1701.96 598.48 1700.83 599.08 1699.71 600.28V608.4C1700.24 608.88 1700.77 609.213 1701.31 609.4C1701.84 609.587 1702.36 609.68 1702.87 609.68ZM1725.64 614.48C1723.74 614.48 1722.04 614.067 1720.52 613.24C1719 612.413 1717.8 611.227 1716.92 609.68C1716.04 608.133 1715.6 606.267 1715.6 604.08C1715.6 601.92 1716.04 600.067 1716.92 598.52C1717.82 596.973 1719 595.787 1720.44 594.96C1721.88 594.107 1723.38 593.68 1724.96 593.68C1726.85 593.68 1728.41 594.107 1729.64 594.96C1730.89 595.787 1731.82 596.92 1732.44 598.36C1733.08 599.773 1733.4 601.387 1733.4 603.2C1733.4 603.707 1733.37 604.213 1733.32 604.72C1733.26 605.2 1733.21 605.56 1733.16 605.8H1721.28C1721.54 607.24 1722.14 608.307 1723.08 609C1724.01 609.667 1725.13 610 1726.44 610C1727.85 610 1729.28 609.56 1730.72 608.68L1732.68 612.24C1731.66 612.933 1730.53 613.48 1729.28 613.88C1728.02 614.28 1726.81 614.48 1725.64 614.48ZM1721.24 601.92H1728.4C1728.4 600.827 1728.13 599.933 1727.6 599.24C1727.09 598.52 1726.25 598.16 1725.08 598.16C1724.17 598.16 1723.36 598.48 1722.64 599.12C1721.92 599.733 1721.45 600.667 1721.24 601.92Z" fill="#00CCB0"/>
</g>
<defs>
<filter id="filter0_f_1302_2038" x="1699.93" y="377.779" width="319.452" height="298.783" filterUnits="userSpaceOnUse" color-interpolation-filters="sRGB">
<feFlood flood-opacity="0" result="BackgroundImageFix"/>
<feBlend mode="normal" in="SourceGraphic" in2="BackgroundImageFix" result="shape"/>
<feGaussianBlur stdDeviation="10" result="effect1_foregroundBlur_1302_2038"/>
</filter>
<filter id="filter1_d_1302_2038" x="691.065" y="172" width="734.717" height="773" filterUnits="userSpaceOnUse" color-interpolation-filters="sRGB">
<feFlood flood-opacity="0" result="BackgroundImageFix"/>
<feColorMatrix in="SourceAlpha" type="matrix" values="0 0 0 0 0 0 0 0 0 0 0 0 0 0 0 0 0 0 127 0" result="hardAlpha"/>
<feOffset/>
<feGaussianBlur stdDeviation="13"/>
<feComposite in2="hardAlpha" operator="out"/>
<feColorMatrix type="matrix" values="0 0 0 0 0 0 0 0 0 0 0 0 0 0 0 0 0 0 0.1 0"/>
<feBlend mode="normal" in2="BackgroundImageFix" result="effect1_dropShadow_1302_2038"/>
<feBlend mode="normal" in="SourceGraphic" in2="effect1_dropShadow_1302_2038" result="shape"/>
</filter>
<filter id="filter2_d_1302_2038" x="853.41" y="515.553" width="394.884" height="115.417" filterUnits="userSpaceOnUse" color-interpolation-filters="sRGB">
<feFlood flood-opacity="0" result="BackgroundImageFix"/>
<feColorMatrix in="SourceAlpha" type="matrix" values="0 0 0 0 0 0 0 0 0 0 0 0 0 0 0 0 0 0 127 0" result="hardAlpha"/>
<feOffset dx="2" dy="2"/>
<feGaussianBlur stdDeviation="2"/>
<feComposite in2="hardAlpha" operator="out"/>
<feColorMatrix type="matrix" values="0 0 0 0 0 0 0 0 0 0 0 0 0 0 0 0 0 0 0.25 0"/>
<feBlend mode="normal" in2="BackgroundImageFix" result="effect1_dropShadow_1302_2038"/>
<feBlend mode="normal" in="SourceGraphic" in2="effect1_dropShadow_1302_2038" result="shape"/>
</filter>
<filter id="filter3_d_1302_2038" x="859.791" y="338.174" width="394.884" height="115.417" filterUnits="userSpaceOnUse" color-interpolation-filters="sRGB">
<feFlood flood-opacity="0" result="BackgroundImageFix"/>
<feColorMatrix in="SourceAlpha" type="matrix" values="0 0 0 0 0 0 0 0 0 0 0 0 0 0 0 0 0 0 127 0" result="hardAlpha"/>
<feOffset dx="2" dy="2"/>
<feGaussianBlur stdDeviation="2"/>
<feComposite in2="hardAlpha" operator="out"/>
<feColorMatrix type="matrix" values="0 0 0 0 0 0 0 0 0 0 0 0 0 0 0 0 0 0 0.25 0"/>
<feBlend mode="normal" in2="BackgroundImageFix" result="effect1_dropShadow_1302_2038"/>
<feBlend mode="normal" in="SourceGraphic" in2="effect1_dropShadow_1302_2038" result="shape"/>
</filter>
<filter id="filter4_d_1302_2038" x="854.686" y="721.006" width="394.884" height="115.417" filterUnits="userSpaceOnUse" color-interpolation-filters="sRGB">
<feFlood flood-opacity="0" result="BackgroundImageFix"/>
<feColorMatrix in="SourceAlpha" type="matrix" values="0 0 0 0 0 0 0 0 0 0 0 0 0 0 0 0 0 0 127 0" result="hardAlpha"/>
<feOffset dx="2" dy="2"/>
<feGaussianBlur stdDeviation="2"/>
<feComposite in2="hardAlpha" operator="out"/>
<feColorMatrix type="matrix" values="0 0 0 0 0 0 0 0 0 0 0 0 0 0 0 0 0 0 0.25 0"/>
<feBlend mode="normal" in2="BackgroundImageFix" result="effect1_dropShadow_1302_2038"/>
<feBlend mode="normal" in="SourceGraphic" in2="effect1_dropShadow_1302_2038" result="shape"/>
</filter>
<clipPath id="clip0_1302_2038">
<rect width="1920" height="1080" fill="white"/>
</clipPath>
</defs>
</svg>
