<svg width="737" height="200" viewBox="0 0 737 200" fill="none" xmlns="http://www.w3.org/2000/svg">
<path fill-rule="evenodd" clip-rule="evenodd" d="M216.598 147.893V57.2844H228.248L283.62 130.203V57.2844H294.695V147.893H283.045L227.673 74.2556V147.893H216.598ZM384.872 144.298C377.537 147.03 369.627 148.469 361.285 148.469C328.493 148.469 312.097 132.792 312.097 101.294C312.097 71.5229 327.918 56.5653 359.559 56.5653C368.62 56.5653 377.106 57.8597 384.872 60.3047V70.3723C377.106 67.352 369.051 65.9138 360.853 65.9138C336.116 65.9138 323.747 77.7073 323.747 101.007C323.747 126.176 335.972 138.689 360.278 138.689C364.161 138.689 368.476 138.113 373.222 137.107V106.76H384.872V144.298V144.298ZM403.569 112.944V57.2844H415.219V112.944C415.219 130.347 423.848 139.12 441.251 139.12C458.51 139.12 467.283 130.347 467.283 112.944V57.2844H478.933V112.944C478.933 136.675 466.42 148.612 441.251 148.612C416.082 148.612 403.569 136.675 403.569 112.944V112.944ZM511.437 57.2844V138.401H558.899V147.893H499.787V57.2844H511.437V57.2844ZM575.726 147.893H563.501L608.518 45.347L653.535 147.893H640.59L628.941 119.416H599.025L602.19 109.924H625.058L608.086 68.9341L575.726 147.893V147.893ZM666.047 147.893V57.2844H704.736C721.995 57.2844 730.624 64.4756 730.624 79.0018C730.624 90.7953 722.138 99.5685 705.311 105.178L736.377 147.893H720.988L692.223 107.191V99.5685C709.482 96.8359 718.255 90.22 718.255 79.577C718.255 71.2353 713.509 67.0644 703.873 67.0644H677.985V147.893H666.047V147.893Z" fill="#DD0031"/>
<path fill-rule="evenodd" clip-rule="evenodd" d="M0 33.122L92.7662 0.042572L187.977 32.5467L172.588 155.228L92.7662 199.382L14.2385 155.804L0 33.122Z" fill="#DD0031"/>
<path fill-rule="evenodd" clip-rule="evenodd" d="M187.978 32.5467L92.7664 0.042572V199.382L172.588 155.228L187.978 32.5467V32.5467Z" fill="#C3002F"/>
<path fill-rule="evenodd" clip-rule="evenodd" d="M92.9101 23.342L35.093 151.92L56.6666 151.489L68.3163 122.436H119.949L132.605 151.777L153.172 152.208L92.9101 23.342V23.342ZM93.0539 64.6194L112.614 105.465H75.9389L93.0539 64.6194V64.6194Z" fill="white"/>
</svg>
