<svg width="607" height="200" viewBox="0 0 607 200" fill="none" xmlns="http://www.w3.org/2000/svg">
<path fill-rule="evenodd" clip-rule="evenodd" d="M104.177 140.638C98.1773 145.769 86.2015 149.268 72.4072 149.268C55.4763 149.268 41.2858 143.997 37.5202 136.908C36.1741 140.971 35.8722 145.62 35.8722 148.591C35.8722 148.591 34.9852 163.176 45.1294 173.32C45.1294 168.052 49.3996 163.782 54.6669 163.782C63.6953 163.782 63.6852 171.659 63.6769 178.05C63.6767 178.241 63.6764 178.431 63.6764 178.62C63.6764 188.319 69.6046 196.634 78.0353 200.139C76.7761 197.549 76.0697 194.641 76.0697 191.567C76.0697 182.316 81.5008 178.872 87.8128 174.868C92.8349 171.683 98.4151 168.145 102.261 161.045C104.267 157.342 105.406 153.099 105.406 148.591C105.406 145.818 104.976 143.146 104.177 140.638Z" fill="#FF5D01"/>
<path fill-rule="evenodd" clip-rule="evenodd" d="M99.8219 5.15031C101.455 7.17824 102.288 9.9147 103.954 15.3876L140.35 134.948C126.894 127.967 112.265 122.933 96.8373 120.216L73.14 40.1361C72.7523 38.8257 71.5486 37.9269 70.1823 37.9269C68.8124 37.9269 67.6067 38.8304 67.2219 40.1452L43.8116 120.176C28.3123 122.88 13.6169 127.924 0.102783 134.93L36.6771 15.3599C38.3482 9.89643 39.1839 7.16466 40.8176 5.14047C42.2597 3.35344 44.1357 1.96559 46.2664 1.10915C48.68 0.139038 51.5366 0.139038 57.2501 0.139038H83.3731C89.094 0.139038 91.9544 0.139038 94.3702 1.11117C96.5028 1.96938 98.3798 3.36005 99.8219 5.15031Z" fill="black"/>
<path d="M223.91 133.078C239.134 133.078 250.552 127.662 255.235 118.441C255.235 122.832 255.527 127.37 256.26 130.883H281.289C280.12 125.759 279.535 118.733 279.535 109.511V86.9691C279.535 65.5979 266.945 55.4979 238.988 55.4979C214.542 55.4979 198.147 65.5979 196.245 82.1389H222.3C223.178 74.9663 229.179 71.014 238.988 71.014C248.647 71.014 254.063 74.9663 254.063 83.1637V85.359L227.57 87.7011C214.688 89.0188 207.369 91.2141 202.246 94.7273C196.83 98.3864 194.049 103.949 194.049 110.829C194.049 124.588 205.466 133.078 223.91 133.078ZM233.572 117.855C225.08 117.855 219.958 114.489 219.958 109.072C219.958 103.51 224.202 100.582 234.889 99.2651L254.503 97.2159V101.607C254.503 111.415 246.014 117.855 233.572 117.855Z" fill="black"/>
<path d="M334.083 133.078C359.555 133.078 372.582 123.564 372.582 108.194C372.582 95.4592 365.262 88.433 347.552 86.0909L325.446 83.6027C319.154 82.724 316.518 81.1138 316.518 77.6008C316.518 73.3561 320.763 71.453 330.424 71.453C343.744 71.453 352.966 74.527 360.433 80.5287L372.288 68.6719C364.09 60.1821 349.894 55.4979 332.329 55.4979C307.59 55.4979 293.83 64.2805 293.83 79.0646C293.83 91.946 302.319 99.1186 319.884 101.46L339.793 103.803C347.697 104.827 350.039 106.291 350.039 110.097C350.039 114.489 345.647 116.831 335.401 116.831C320.178 116.831 309.932 112.732 303.052 105.12L289.586 116.245C298.514 127.37 313.737 133.078 334.083 133.078Z" fill="black"/>
<path d="M393.248 74.2345V105.12C393.248 123.271 403.494 132.493 425.452 132.493C432.186 132.493 437.454 131.761 442.432 130.297V111.268C439.796 111.854 436.576 112.439 432.332 112.439C423.11 112.439 418.572 108.341 418.572 99.7042V74.2345H442.577V57.6935H418.572V30.9065L393.248 40.2746V57.6935H376.853V74.2345H393.248Z" fill="black"/>
<path d="M478.933 57.6936H455.806V130.883H481.13V103.51C481.13 95.6055 482.887 88.4331 487.718 83.8953C491.523 80.3821 496.94 78.4797 504.55 78.4797C507.331 78.4797 509.528 78.7719 512.015 79.0648V56.0834C510.406 55.7908 509.234 55.7908 507.186 55.7908C492.693 55.7908 482.887 64.1343 478.933 77.7478V57.6936Z" fill="black"/>
<path d="M562.057 133.078C588.846 133.078 607.729 118.88 607.729 94.142C607.729 69.5502 588.846 55.4979 562.057 55.4979C535.125 55.4979 516.242 69.5502 516.242 94.142C516.242 118.88 535.125 133.078 562.057 133.078ZM562.057 116.245C549.763 116.245 542.005 108.341 542.005 94.142C542.005 79.9429 549.763 72.3313 562.057 72.3313C574.208 72.3313 581.966 79.9429 581.966 94.142C581.966 108.341 574.208 116.245 562.057 116.245Z" fill="black"/>
</svg>
