<svg width="214" height="264" viewBox="0 0 214 264" fill="none" xmlns="http://www.w3.org/2000/svg">
<path d="M132.28 0.0900002L213.95 0L76.93 136.95L41.22 172.46L0.589996 131.78L132.28 0.0900002ZM131.52 122.37C132.58 120.97 134.53 121.66 136.01 121.48L213.88 121.5L142.91 192.4L102.07 151.81L131.52 122.37Z" fill="#44D1FD"/>
<path d="M61.36 192.47L102.07 151.81L142.91 192.4L143.08 192.58L102.08 233.2L61.36 192.47V192.47Z" fill="#1FBCFD"/>
<path d="M102.08 233.2L143.08 192.58L213.91 263.48C187.23 263.54 160.56 263.46 133.89 263.52C132.37 263.86 131.43 262.47 130.46 261.61L102.08 233.2V233.2Z" fill="#08589C"/>
</svg>
