<svg width="200" height="200" viewBox="0 0 200 200" fill="none" xmlns="http://www.w3.org/2000/svg">
<g clip-path="url(#clip0_21_75)">
<path d="M100 200C155.228 200 200 155.228 200 100C200 44.7715 155.228 0 100 0C44.7715 0 0 44.7715 0 100C0 155.228 44.7715 200 100 200Z" fill="#663399"/>
<path d="M44.2856 155.714C29.2856 140.714 21.4285 120.714 21.4285 101.429L99.2856 178.571C79.2856 177.857 59.2856 170.714 44.2856 155.714Z" fill="white"/>
<path d="M117.143 176.429L23.5713 82.8572C31.4284 47.8572 62.857 21.4286 99.9999 21.4286C126.428 21.4286 149.286 34.2857 163.571 53.5714L152.857 62.8572C140.714 46.4286 121.428 35.7143 99.9999 35.7143C72.1427 35.7143 48.5713 53.5714 39.2856 78.5714L121.428 160.714C142.143 153.571 157.857 135.714 162.857 114.286H128.571V100H178.571C178.571 137.143 152.143 168.571 117.143 176.429Z" fill="white"/>
</g>
<defs>
<clipPath id="clip0_21_75">
<rect width="200" height="200" fill="white"/>
</clipPath>
</defs>
</svg>
