<svg width="536" height="200" viewBox="0 0 536 200" fill="none" xmlns="http://www.w3.org/2000/svg">
<path d="M40.3995 60.5578C39.3569 60.5578 39.0963 60.0366 39.6176 59.2546L45.091 52.2174C45.6123 51.4355 46.9155 50.9142 47.958 50.9142H141.006C142.049 50.9142 142.31 51.6961 141.788 52.478L137.357 59.2546C136.836 60.0366 135.533 60.8185 134.751 60.8185L40.3995 60.5578Z" fill="#00ACD7"/>
<path d="M1.04256 84.5367C2.17495e-06 84.5367 -0.26064 84.0154 0.260639 83.2335L5.73407 76.1962C6.25535 75.4143 7.55855 74.893 8.60111 74.893H127.453C128.495 74.893 129.017 75.6749 128.756 76.4568L126.671 82.7122C126.41 83.7547 125.368 84.276 124.325 84.276L1.04256 84.5367Z" fill="#00ACD7"/>
<path d="M64.1173 108.515C63.0747 108.515 62.8141 107.734 63.3353 106.952L66.9843 100.436C67.5056 99.6537 68.5481 98.8718 69.5907 98.8718H121.719C122.761 98.8718 123.282 99.6537 123.282 100.696L122.761 106.952C122.761 107.994 121.719 108.776 120.937 108.776L64.1173 108.515Z" fill="#00ACD7"/>
<path d="M334.661 55.8663C318.241 60.0366 307.033 63.1642 290.874 67.3345C286.964 68.377 286.703 68.6377 283.315 64.7281C279.405 60.2972 276.538 57.4302 271.065 54.8238C254.645 46.744 238.746 49.0897 223.889 58.7334C206.166 70.2015 197.043 87.1431 197.304 108.255C197.565 129.106 211.9 146.308 232.49 149.175C250.214 151.521 265.07 145.266 276.799 131.973C279.145 129.106 281.23 125.978 283.836 122.329C274.453 122.329 262.725 122.329 233.533 122.329C228.06 122.329 226.756 118.941 228.581 114.51C231.969 106.43 238.224 92.8771 241.873 86.1005C242.655 84.5367 244.48 81.9303 248.389 81.9303C261.682 81.9303 310.682 81.9303 343.262 81.9303C342.741 88.9676 342.741 96.0048 341.698 103.042C338.831 121.808 331.794 139.01 320.326 154.127C301.56 178.888 277.06 194.266 246.044 198.436C220.501 201.824 196.783 196.872 175.932 181.234C156.644 166.638 145.697 147.351 142.83 123.372C139.442 94.9622 147.783 69.4196 164.985 47.0046C183.49 22.7651 207.99 7.38737 237.964 1.91395C262.464 -2.51693 285.921 0.350112 307.033 14.6853C320.847 23.8077 330.752 36.3184 337.267 51.4355C338.831 53.7812 337.789 55.0844 334.661 55.8663Z" fill="#00ACD7"/>
<path d="M420.933 200C397.215 199.479 375.581 192.702 357.337 177.064C341.959 163.771 332.315 146.83 329.188 126.76C324.496 97.308 332.576 71.2441 350.299 48.0472C369.326 23.0258 392.262 9.99378 423.279 4.52035C449.864 -0.171166 474.885 2.43522 497.561 17.813C518.151 31.8875 530.923 50.9142 534.311 75.9356C538.742 111.122 528.577 139.792 504.337 164.292C487.135 181.755 466.023 192.702 441.784 197.654C434.747 198.957 427.709 199.218 420.933 200ZM482.965 94.7016C482.704 91.3133 482.704 88.7069 482.183 86.1005C477.492 60.2972 453.773 45.7014 429.013 51.4355C404.773 56.9089 389.135 72.2866 383.401 96.7867C378.709 117.117 388.613 137.707 407.379 146.048C421.715 152.303 436.05 151.521 449.864 144.484C470.454 133.798 481.662 117.117 482.965 94.7016Z" fill="#00ACD7"/>
</svg>
