<svg width="993" height="200" viewBox="0 0 993 200" fill="none" xmlns="http://www.w3.org/2000/svg">
<path d="M659.474 0.083313H832.27V31.9768H763.724V199.764H729.448V31.9768H659.474V0.083313Z" fill="black"/>
<path d="M375.292 0.083313V31.9768H236.784V83.2837H348.172V115.177H236.784V167.871H375.292V199.764H202.511V31.9768H202.497V0.083313H375.292Z" fill="black"/>
<path d="M461.574 0.166565H416.721L577.375 199.848H622.359L542.022 100.076L622.231 0.318909L577.375 0.388225L519.565 72.1862L461.574 0.166565Z" fill="black"/>
<path d="M507.6 142.8L485.138 114.872L416.592 200H461.574L507.6 142.8Z" fill="black"/>
<path fill-rule="evenodd" clip-rule="evenodd" d="M203.712 199.764L42.8416 0H0V199.681H34.2733V42.6817L160.656 199.764H203.712Z" fill="black"/>
<path d="M839.974 198.545C837.464 198.545 835.329 197.675 833.541 195.936C831.754 194.197 830.87 192.092 830.893 189.597C830.87 187.172 831.754 185.089 833.541 183.35C835.329 181.611 837.464 180.741 839.974 180.741C842.389 180.741 844.502 181.611 846.289 183.35C848.102 185.089 849.006 187.172 849.031 189.597C849.006 191.245 848.588 192.755 847.752 194.105C846.894 195.478 845.803 196.554 844.431 197.332C843.084 198.133 841.598 198.545 839.974 198.545Z" fill="black"/>
<path d="M898.472 114.425H913.66V172.938C913.637 178.316 912.474 182.915 910.2 186.783C907.901 190.65 904.719 193.602 900.632 195.684C896.568 197.743 891.807 198.796 886.396 198.796C881.449 198.796 877.015 197.904 873.067 196.165C869.119 194.426 865.984 191.817 863.685 188.384C861.361 184.952 860.223 180.673 860.223 175.547H875.436C875.459 177.789 875.97 179.734 876.944 181.359C877.919 182.984 879.266 184.219 880.985 185.089C882.725 185.959 884.724 186.393 886.975 186.393C889.415 186.393 891.505 185.89 893.2 184.86C894.894 183.853 896.196 182.343 897.102 180.329C897.983 178.339 898.449 175.867 898.472 172.938V114.425Z" fill="black"/>
<path d="M976.151 137.308C975.781 133.761 974.154 130.993 971.321 129.025C968.464 127.034 964.772 126.05 960.243 126.05C957.063 126.05 954.323 126.53 952.047 127.469C949.771 128.43 948.006 129.711 946.798 131.336C945.591 132.961 944.987 134.814 944.939 136.897C944.939 138.636 945.357 140.146 946.171 141.405C946.984 142.686 948.074 143.762 949.492 144.631C950.884 145.524 952.44 146.256 954.137 146.851C955.854 147.446 957.574 147.949 959.291 148.361L967.21 150.306C970.392 151.038 973.482 152.023 976.43 153.281C979.379 154.517 982.05 156.096 984.394 157.995C986.741 159.895 988.599 162.183 989.969 164.86C991.338 167.537 992.036 170.672 992.036 174.288C992.036 179.162 990.782 183.442 988.249 187.149C985.719 190.833 982.073 193.716 977.289 195.799C972.528 197.858 966.769 198.911 959.989 198.911C953.44 198.911 947.727 197.904 942.92 195.89C938.091 193.899 934.327 190.97 931.61 187.126C928.893 183.281 927.43 178.59 927.221 173.075H942.27C942.479 175.958 943.408 178.361 944.987 180.307C946.589 182.229 948.678 183.647 951.234 184.609C953.812 185.547 956.69 186.027 959.873 186.027C963.194 186.027 966.12 185.524 968.65 184.54C971.158 183.556 973.132 182.183 974.549 180.398C975.99 178.636 976.71 176.554 976.732 174.174C976.71 172 976.058 170.192 974.804 168.773C973.527 167.354 971.762 166.164 969.509 165.203C967.235 164.242 964.586 163.373 961.567 162.618L951.954 160.192C945.01 158.43 939.506 155.753 935.487 152.16C931.449 148.567 929.45 143.807 929.45 137.835C929.45 132.938 930.797 128.636 933.516 124.951C936.207 121.267 939.901 118.407 944.569 116.37C949.26 114.311 954.555 113.304 960.452 113.304C966.444 113.304 971.692 114.311 976.221 116.37C980.748 118.407 984.304 121.244 986.879 124.86C989.458 128.475 990.805 132.617 990.875 137.308H976.151Z" fill="black"/>
</svg>
