<svg width="1052" height="201" viewBox="0 0 1052 201" fill="none" xmlns="http://www.w3.org/2000/svg">
<path d="M356.726 45.7914H388.074L454.508 153.943V45.7914H483.445V199.037H452.312L385.663 91.1105V199.037H356.726V45.7914Z" fill="black"/>
<path d="M612.787 199.036H585.824V181.919C579.684 193.965 567.193 200.748 551.408 200.748C526.416 200.748 510.186 182.796 510.186 156.959V88.6915H537.153V151.31C537.153 166.416 546.366 176.923 560.175 176.923C575.303 176.923 585.824 165.101 585.824 148.903V88.6915H612.787V199.036Z" fill="black"/>
<path d="M706.631 197.291L680.762 160.51L654.887 197.291H626.165L666.07 139.712L629.238 86.9467H658.616L680.762 118.7L702.681 86.9467H732.28L695.223 139.712L735.132 197.291H706.631Z" fill="black"/>
<path d="M789.939 55.418V88.6901H820.63V111.243H789.939V166.019C789.939 167.859 790.666 169.623 791.969 170.925C793.272 172.227 795.037 172.96 796.881 172.962H820.63V198.992H802.866C778.751 198.992 762.972 184.977 762.972 160.477V111.264H741.267V88.6901H754.881C761.237 88.6901 764.931 84.9136 764.931 78.6655V55.418H789.939Z" fill="black"/>
<path d="M888.61 164.331V45.7914H917.537V155.248C917.537 184.808 903.287 199.037 879.172 199.037H845.498V173.008H879.924C882.224 173.008 884.435 172.094 886.064 170.467C887.698 168.84 888.61 166.633 888.61 164.331Z" fill="black"/>
<path d="M934.875 147.586H962.73C964.269 164.704 975.672 175.605 994.088 175.605C1010.53 175.605 1021.94 169.047 1021.94 155.471C1021.94 122.626 939.447 145.393 939.447 86.7221C939.467 61.5483 961.176 44.0566 992.364 44.0566C1024.81 44.0566 1046.73 62.6611 1048.07 91.3436H1020.37C1019.06 77.9923 1008.58 69.0159 992.309 69.0159C977.181 69.0159 967.752 76.0234 967.752 86.7437C967.752 120.679 1051.32 95.3025 1051.32 155.054C1051.32 183.512 1027.86 200.811 994.098 200.811C959.236 200.811 936.439 179.788 934.906 147.608" fill="black"/>
<path fill-rule="evenodd" clip-rule="evenodd" d="M127.995 11.4387C119.901 -2.73113 99.6658 -2.73113 91.5716 11.4387L3.35899 165.872C-4.7351 180.041 5.38249 197.754 21.5706 197.754H90.4348C83.5175 191.599 80.9556 180.951 86.1902 171.815L152.999 55.212L127.995 11.4387Z" fill="#80EEC0"/>
<path d="M183.89 45.3137C190.589 33.7198 207.335 33.7198 214.034 45.3137L287.038 171.668C293.736 183.261 285.363 197.754 271.966 197.754H125.958C112.561 197.754 104.188 183.261 110.886 171.668L183.89 45.3137Z" fill="#00DC82"/>
</svg>
