<svg width="225" height="200" viewBox="0 0 225 200" fill="none" xmlns="http://www.w3.org/2000/svg">
<g clip-path="url(#clip0_11_45)">
<path d="M112.395 120.036C123.461 120.036 132.431 111.065 132.431 100C132.431 88.9346 123.461 79.9643 112.395 79.9643C101.33 79.9643 92.3596 88.9346 92.3596 100C92.3596 111.065 101.33 120.036 112.395 120.036Z" fill="#61DAFB"/>
<path fill-rule="evenodd" clip-rule="evenodd" d="M16.6098 87.6494C11.7737 92.015 9.77351 96.1968 9.77351 100C9.77351 103.803 11.7737 107.985 16.6098 112.351C21.4454 116.716 28.717 120.871 38.1184 124.461C56.8876 131.627 83.1471 136.162 112.395 136.162C141.644 136.162 167.903 131.627 186.672 124.461C196.074 120.871 203.345 116.716 208.181 112.351C213.017 107.985 215.017 103.803 215.017 100C215.017 96.1968 213.017 92.015 208.181 87.6494C203.345 83.2842 196.074 79.1291 186.672 75.5395C167.903 68.373 141.644 63.838 112.395 63.838C83.1471 63.838 56.8876 68.373 38.1184 75.5395C28.717 79.1291 21.4454 83.2842 16.6098 87.6494ZM34.6322 66.4089C54.7734 58.7186 82.2682 54.0645 112.395 54.0645C142.522 54.0645 170.017 58.7186 190.159 66.4089C200.212 70.2476 208.685 74.9378 214.73 80.3946C220.774 85.851 224.791 92.4679 224.791 100C224.791 107.532 220.774 114.149 214.73 119.605C208.685 125.062 200.212 129.752 190.159 133.591C170.017 141.281 142.522 145.935 112.395 145.935C82.2682 145.935 54.7734 141.281 34.6322 133.591C24.5784 129.752 16.1057 125.062 10.0608 119.605C4.01644 114.149 0 107.532 0 100C0 92.4679 4.01644 85.851 10.0608 80.3946C16.1057 74.9378 24.5784 70.2476 34.6322 66.4089Z" fill="#61DAFB"/>
<path fill-rule="evenodd" clip-rule="evenodd" d="M75.1986 10.872C68.9998 8.8666 64.3781 9.22528 61.0845 11.1269C57.7908 13.0284 55.1694 16.8516 53.8066 23.2226C52.4441 29.5929 52.4815 37.9679 54.0734 47.9045C57.2517 67.7424 66.4541 92.7513 81.0782 118.081C95.7023 143.411 112.759 163.885 128.35 176.556C136.16 182.903 143.394 187.123 149.592 189.128C155.791 191.133 160.413 190.775 163.706 188.873C167 186.972 169.621 183.148 170.984 176.777C172.347 170.407 172.309 162.032 170.717 152.095C167.539 132.258 158.337 107.249 143.713 81.919C129.088 56.5893 112.031 36.1154 96.4404 23.444C88.6309 17.0969 81.3967 12.8771 75.1986 10.872ZM102.605 15.8595C119.335 29.4572 137.113 50.9414 152.177 77.0322C167.24 103.123 176.957 129.261 180.368 150.549C182.07 161.176 182.245 170.858 180.541 178.822C178.838 186.784 175.116 193.571 168.593 197.337C162.07 201.103 154.331 200.933 146.584 198.427C138.836 195.92 130.538 190.928 122.186 184.14C105.456 170.543 87.6776 149.059 72.6141 122.968C57.5505 96.8769 47.8336 70.7386 44.423 49.4507C42.7205 38.8244 42.546 29.1418 44.2493 21.1784C45.9525 13.2156 49.6747 6.42882 56.1977 2.66275C62.7207 -1.10331 70.4594 -0.933428 78.2069 1.57296C85.9551 4.07956 94.2532 9.07204 102.605 15.8595Z" fill="#61DAFB"/>
<path fill-rule="evenodd" clip-rule="evenodd" d="M170.984 23.2226C169.621 16.8516 167 13.0284 163.706 11.1269C160.413 9.22527 155.791 8.86659 149.592 10.872C143.394 12.8771 136.16 17.0969 128.35 23.444C112.759 36.1154 95.7022 56.5893 81.0781 81.919C66.454 107.249 57.2517 132.258 54.0734 152.095C52.4814 162.032 52.444 170.407 53.8066 176.777C55.1693 183.148 57.7907 186.972 61.0844 188.873C64.378 190.775 68.9997 191.133 75.1985 189.128C81.3966 187.123 88.6308 182.903 96.4403 176.556C112.031 163.885 129.088 143.411 143.712 118.081C158.337 92.7513 167.539 67.7424 170.717 47.9045C172.309 37.9679 172.347 29.5929 170.984 23.2226ZM180.368 49.4507C176.957 70.7386 167.24 96.8769 152.177 122.968C137.113 149.059 119.335 170.543 102.604 184.14C94.2531 190.928 85.955 195.92 78.2068 198.427C70.4593 200.933 62.7206 201.103 56.1976 197.337C49.6746 193.571 45.9524 186.784 44.2492 178.822C42.5459 170.858 42.7204 161.176 44.4229 150.549C47.8335 129.261 57.5504 103.123 72.614 77.0322C87.6775 50.9414 105.455 29.4572 122.186 15.8595C130.537 9.07203 138.836 4.07955 146.584 1.57295C154.331 -0.933438 162.07 -1.10332 168.593 2.66275C175.116 6.42881 178.838 13.2156 180.541 21.1784C182.245 29.1418 182.07 38.8244 180.368 49.4507Z" fill="#61DAFB"/>
</g>
<defs>
<clipPath id="clip0_11_45">
<rect width="224.791" height="200" fill="white"/>
</clipPath>
</defs>
</svg>
