<svg width="703" height="200" viewBox="0 0 703 200" fill="none" xmlns="http://www.w3.org/2000/svg">
<g clip-path="url(#clip0_11_79)">
<path d="M112.395 120.036C123.461 120.036 132.431 111.065 132.431 100C132.431 88.9346 123.461 79.9643 112.395 79.9643C101.33 79.9643 92.3596 88.9346 92.3596 100C92.3596 111.065 101.33 120.036 112.395 120.036Z" fill="#61DAFB"/>
<path fill-rule="evenodd" clip-rule="evenodd" d="M16.6098 87.6494C11.7737 92.015 9.77351 96.1968 9.77351 100C9.77351 103.803 11.7737 107.985 16.6098 112.351C21.4454 116.716 28.717 120.871 38.1184 124.461C56.8876 131.627 83.1471 136.162 112.395 136.162C141.644 136.162 167.903 131.627 186.672 124.461C196.074 120.871 203.345 116.716 208.181 112.351C213.017 107.985 215.017 103.803 215.017 100C215.017 96.1968 213.017 92.015 208.181 87.6494C203.345 83.2842 196.074 79.1291 186.672 75.5395C167.903 68.373 141.644 63.838 112.395 63.838C83.1471 63.838 56.8876 68.373 38.1184 75.5395C28.717 79.1291 21.4454 83.2842 16.6098 87.6494ZM34.6322 66.4089C54.7734 58.7186 82.2682 54.0645 112.395 54.0645C142.522 54.0645 170.017 58.7186 190.159 66.4089C200.212 70.2476 208.685 74.9378 214.73 80.3946C220.774 85.851 224.791 92.4679 224.791 100C224.791 107.532 220.774 114.149 214.73 119.605C208.685 125.062 200.212 129.752 190.159 133.591C170.017 141.281 142.522 145.935 112.395 145.935C82.2682 145.935 54.7734 141.281 34.6322 133.591C24.5784 129.752 16.1057 125.062 10.0608 119.605C4.01644 114.149 0 107.532 0 100C0 92.4679 4.01644 85.851 10.0608 80.3946C16.1057 74.9378 24.5784 70.2476 34.6322 66.4089Z" fill="#61DAFB"/>
<path fill-rule="evenodd" clip-rule="evenodd" d="M75.1986 10.872C68.9998 8.86662 64.3781 9.2253 61.0845 11.1269C57.7908 13.0285 55.1694 16.8516 53.8066 23.2226C52.4441 29.5929 52.4815 37.9679 54.0734 47.9046C57.2517 67.7424 66.4541 92.7513 81.0782 118.081C95.7023 143.411 112.759 163.885 128.35 176.556C136.16 182.903 143.394 187.123 149.592 189.128C155.791 191.133 160.413 190.775 163.706 188.873C167 186.972 169.621 183.148 170.984 176.777C172.347 170.407 172.309 162.032 170.717 152.095C167.539 132.258 158.337 107.249 143.713 81.919C129.088 56.5893 112.031 36.1154 96.4404 23.444C88.6309 17.097 81.3967 12.8771 75.1986 10.872ZM102.605 15.8595C119.335 29.4572 137.113 50.9414 152.177 77.0323C167.24 103.123 176.957 129.261 180.368 150.549C182.07 161.176 182.245 170.858 180.541 178.822C178.838 186.784 175.116 193.571 168.593 197.337C162.07 201.103 154.331 200.933 146.584 198.427C138.836 195.92 130.538 190.928 122.186 184.14C105.456 170.543 87.6776 149.059 72.6141 122.968C57.5505 96.8769 47.8336 70.7387 44.423 49.4507C42.7205 38.8245 42.546 29.1418 44.2493 21.1784C45.9525 13.2156 49.6747 6.42884 56.1977 2.66277C62.7207 -1.1033 70.4594 -0.933413 78.2069 1.57297C85.9551 4.07958 94.2532 9.07205 102.605 15.8595Z" fill="#61DAFB"/>
<path fill-rule="evenodd" clip-rule="evenodd" d="M170.984 23.2226C169.621 16.8516 167 13.0284 163.706 11.1269C160.413 9.22529 155.791 8.86661 149.592 10.872C143.394 12.8771 136.16 17.0969 128.35 23.444C112.759 36.1154 95.7022 56.5893 81.0781 81.919C66.454 107.249 57.2517 132.258 54.0734 152.095C52.4814 162.032 52.444 170.407 53.8066 176.777C55.1693 183.148 57.7907 186.972 61.0844 188.873C64.378 190.775 68.9997 191.133 75.1985 189.128C81.3966 187.123 88.6308 182.903 96.4403 176.556C112.031 163.885 129.088 143.411 143.712 118.081C158.337 92.7513 167.539 67.7424 170.717 47.9045C172.309 37.9679 172.347 29.5929 170.984 23.2226ZM180.368 49.4507C176.957 70.7386 167.24 96.8769 152.177 122.968C137.113 149.059 119.335 170.543 102.604 184.14C94.2531 190.928 85.955 195.92 78.2068 198.427C70.4593 200.933 62.7206 201.103 56.1976 197.337C49.6746 193.571 45.9524 186.784 44.2492 178.822C42.5459 170.858 42.7205 161.176 44.4229 150.549C47.8335 129.261 57.5504 103.123 72.614 77.0322C87.6775 50.9414 105.455 29.4572 122.186 15.8595C130.537 9.07204 138.836 4.07957 146.584 1.57296C154.331 -0.933423 162.07 -1.10331 168.593 2.66276C175.116 6.42883 178.838 13.2156 180.541 21.1784C182.245 29.1418 182.07 38.8244 180.368 49.4507Z" fill="#61DAFB"/>
</g>
<path d="M291.091 169V52.6364H330.409C339.5 52.6364 346.962 54.1894 352.795 57.2954C358.629 60.3636 362.947 64.5871 365.75 69.9659C368.553 75.3447 369.954 81.4621 369.954 88.3182C369.954 95.1742 368.553 101.254 365.75 106.557C362.947 111.86 358.648 116.027 352.852 119.057C347.057 122.049 339.651 123.545 330.636 123.545H298.818V110.818H330.182C336.394 110.818 341.394 109.909 345.182 108.091C349.007 106.273 351.773 103.697 353.477 100.364C355.22 96.9924 356.091 92.9773 356.091 88.3182C356.091 83.6591 355.22 79.5871 353.477 76.1023C351.735 72.6174 348.951 69.928 345.125 68.0341C341.299 66.1023 336.242 65.1364 329.954 65.1364H305.182V169H291.091ZM345.864 116.727L374.5 169H358.136L329.954 116.727H345.864Z" fill="#61DAFB"/>
<path d="M427.27 170.818C418.861 170.818 411.607 168.962 405.508 165.25C399.448 161.5 394.77 156.273 391.474 149.568C388.217 142.826 386.588 134.985 386.588 126.045C386.588 117.106 388.217 109.227 391.474 102.409C394.77 95.553 399.353 90.2121 405.224 86.3864C411.133 82.5227 418.027 80.5909 425.906 80.5909C430.452 80.5909 434.94 81.3485 439.372 82.8636C443.804 84.3788 447.838 86.8409 451.474 90.25C455.111 93.6212 458.008 98.0909 460.168 103.659C462.327 109.227 463.406 116.083 463.406 124.227V129.909H396.133V118.318H449.77C449.77 113.394 448.785 109 446.815 105.136C444.883 101.273 442.118 98.2235 438.52 95.9886C434.959 93.7538 430.755 92.6364 425.906 92.6364C420.565 92.6364 415.944 93.9621 412.043 96.6136C408.179 99.2273 405.205 102.636 403.122 106.841C401.039 111.045 399.997 115.553 399.997 120.364V128.091C399.997 134.682 401.133 140.269 403.406 144.852C405.717 149.398 408.918 152.864 413.008 155.25C417.099 157.598 421.853 158.773 427.27 158.773C430.793 158.773 433.974 158.28 436.815 157.295C439.694 156.273 442.175 154.758 444.258 152.75C446.342 150.705 447.952 148.167 449.088 145.136L462.043 148.773C460.679 153.167 458.387 157.03 455.168 160.364C451.948 163.659 447.971 166.235 443.236 168.091C438.501 169.909 433.179 170.818 427.27 170.818Z" fill="#61DAFB"/>
<path d="M509.486 171.045C503.955 171.045 498.936 170.004 494.429 167.92C489.921 165.799 486.342 162.75 483.69 158.773C481.039 154.758 479.713 149.909 479.713 144.227C479.713 139.227 480.698 135.174 482.668 132.068C484.637 128.924 487.27 126.462 490.565 124.682C493.861 122.902 497.497 121.576 501.474 120.705C505.489 119.795 509.524 119.076 513.577 118.545C518.88 117.864 523.179 117.352 526.474 117.011C529.808 116.633 532.232 116.008 533.747 115.136C535.3 114.265 536.077 112.75 536.077 110.591V110.136C536.077 104.53 534.543 100.174 531.474 97.0682C528.444 93.9621 523.842 92.4091 517.668 92.4091C511.266 92.4091 506.247 93.8106 502.611 96.6136C498.974 99.4167 496.418 102.409 494.94 105.591L482.213 101.045C484.486 95.7424 487.516 91.6136 491.304 88.6591C495.13 85.6667 499.296 83.5833 503.804 82.4091C508.349 81.197 512.819 80.5909 517.213 80.5909C520.016 80.5909 523.236 80.9318 526.872 81.6136C530.546 82.2576 534.088 83.6023 537.497 85.6477C540.944 87.6932 543.804 90.7803 546.077 94.9091C548.349 99.0379 549.486 104.568 549.486 111.5V169H536.077V157.182H535.395C534.486 159.076 532.971 161.102 530.849 163.261C528.728 165.42 525.906 167.258 522.383 168.773C518.861 170.288 514.561 171.045 509.486 171.045ZM511.531 159C516.834 159 521.304 157.958 524.94 155.875C528.614 153.792 531.38 151.102 533.236 147.807C535.13 144.511 536.077 141.045 536.077 137.409V125.136C535.508 125.818 534.258 126.443 532.327 127.011C530.433 127.542 528.236 128.015 525.736 128.432C523.274 128.811 520.868 129.152 518.52 129.455C516.209 129.72 514.334 129.947 512.895 130.136C509.41 130.591 506.152 131.33 503.122 132.352C500.13 133.337 497.705 134.833 495.849 136.841C494.031 138.811 493.122 141.5 493.122 144.909C493.122 149.568 494.846 153.091 498.293 155.477C501.777 157.826 506.19 159 511.531 159Z" fill="#61DAFB"/>
<path d="M609.415 170.818C601.233 170.818 594.187 168.886 588.278 165.023C582.369 161.159 577.824 155.837 574.642 149.057C571.46 142.277 569.869 134.53 569.869 125.818C569.869 116.955 571.498 109.133 574.756 102.352C578.051 95.5341 582.634 90.2121 588.506 86.3864C594.415 82.5227 601.309 80.5909 609.187 80.5909C615.324 80.5909 620.854 81.7273 625.778 84C630.703 86.2727 634.737 89.4545 637.881 93.5454C641.025 97.6364 642.975 102.409 643.733 107.864H630.324C629.301 103.886 627.028 100.364 623.506 97.2954C620.021 94.1894 615.324 92.6364 609.415 92.6364C604.187 92.6364 599.604 94 595.665 96.7273C591.763 99.4167 588.714 103.223 586.517 108.148C584.358 113.034 583.278 118.773 583.278 125.364C583.278 132.106 584.339 137.977 586.46 142.977C588.619 147.977 591.65 151.86 595.551 154.625C599.49 157.39 604.112 158.773 609.415 158.773C612.9 158.773 616.062 158.167 618.903 156.955C621.744 155.742 624.15 154 626.119 151.727C628.089 149.455 629.49 146.727 630.324 143.545H643.733C642.975 148.697 641.1 153.337 638.108 157.466C635.153 161.557 631.233 164.814 626.346 167.239C621.498 169.625 615.854 170.818 609.415 170.818Z" fill="#61DAFB"/>
<path d="M701.29 81.7273V93.0909H656.062V81.7273H701.29ZM669.244 60.8182H682.653V144C682.653 147.788 683.203 150.629 684.301 152.523C685.437 154.379 686.877 155.629 688.619 156.273C690.4 156.879 692.275 157.182 694.244 157.182C695.722 157.182 696.934 157.106 697.881 156.955C698.828 156.765 699.585 156.614 700.153 156.5L702.881 168.545C701.971 168.886 700.703 169.227 699.074 169.568C697.445 169.947 695.381 170.136 692.881 170.136C689.093 170.136 685.381 169.322 681.744 167.693C678.146 166.064 675.153 163.583 672.767 160.25C670.418 156.917 669.244 152.712 669.244 147.636V60.8182Z" fill="#61DAFB"/>
<defs>
<clipPath id="clip0_11_79">
<rect width="224.791" height="200" fill="white"/>
</clipPath>
</defs>
</svg>
