<svg width="802" height="200" viewBox="0 0 802 200" fill="none" xmlns="http://www.w3.org/2000/svg">
<path fill-rule="evenodd" clip-rule="evenodd" d="M163.166 152.631C164.932 175.499 164.932 186.218 164.932 197.919H112.428C112.428 195.37 112.473 193.039 112.518 190.674C112.66 183.325 112.809 175.661 111.627 160.184C110.066 137.526 100.383 132.49 82.5785 132.49H66.8043H0V91.2645H85.0774C107.567 91.2645 118.811 84.3699 118.811 66.1172C118.811 50.0677 107.567 40.3409 85.0774 40.3409H0V0H94.4473C145.361 0 170.662 24.2323 170.662 62.9409C170.662 91.8935 152.858 110.775 128.806 113.923C149.11 118.014 160.978 129.658 163.166 152.631Z" fill="#121212"/>
<path d="M0 197.919V167.186H55.5161C64.7892 167.186 66.8021 174.117 66.8021 178.249V197.919H0Z" fill="#121212"/>
<path d="M796.713 59.7031H744.675L720.992 92.9827L697.934 59.7031H642.157L692.325 128.459L637.793 199.726H689.832L717.565 161.738L745.298 199.726H801.075L746.232 126.261L796.713 59.7031Z" fill="#121212"/>
<path d="M468.937 82.9086C463.015 66.5828 450.24 55.2806 425.623 55.2806C404.745 55.2806 389.788 64.7 382.31 80.0828V59.0484H331.83V199.07H382.31V130.315C382.31 109.281 388.23 95.4666 404.745 95.4666C420.014 95.4666 423.754 105.513 423.754 124.664V199.07H474.233V130.315C474.233 109.281 479.842 95.4666 496.669 95.4666C511.938 95.4666 515.366 105.513 515.366 124.664V199.07H565.845V111.164C565.845 81.9666 554.628 55.2806 516.3 55.2806C492.93 55.2806 476.415 67.2107 468.937 82.9086Z" fill="#121212"/>
<path d="M279.265 144.73C274.591 155.718 265.866 160.427 252.155 160.427C236.886 160.427 224.422 152.264 223.175 134.997H320.708V120.87C320.708 82.8817 296.092 50.858 249.661 50.858C206.349 50.858 173.942 82.5677 173.942 126.834C173.942 171.415 205.726 198.415 250.285 198.415C287.055 198.415 312.607 180.52 319.773 148.497L279.265 144.73ZM223.799 110.509C225.668 97.3225 232.836 87.2763 249.039 87.2763C263.996 87.2763 272.097 97.9505 272.721 110.509H223.799Z" fill="#121212"/>
<path d="M582.357 59.9785V200H632.836V59.9785H582.357ZM582.045 46.7925H633.148V2.21082H582.045V46.7925Z" fill="#121212"/>
</svg>
