<svg width="666" height="200" viewBox="0 0 666 200" fill="none" xmlns="http://www.w3.org/2000/svg">
<path d="M134.899 0L109.591 43.8356L84.2817 0H0L109.591 189.819L219.181 0H134.899Z" fill="#41B883"/>
<path d="M134.899 0L109.591 43.8356L84.2816 0H43.8364L109.591 113.889L175.345 0H134.899Z" fill="#34495E"/>
<path d="M254.021 58.4987L286.808 151.467H288.102L320.889 58.4987H334.909L294.357 168.939H280.552L240 58.4987H254.021Z" fill="black"/>
<path d="M402.586 135.073V86.1087H415.313V168.939H402.586V154.918H401.723C399.782 159.124 396.762 162.701 392.664 165.649C388.566 168.561 383.389 170.017 377.133 170.017C371.956 170.017 367.355 168.885 363.328 166.62C359.302 164.319 356.138 160.868 353.837 156.266C351.537 151.629 350.386 145.787 350.386 138.74V86.1087H363.113V137.877C363.113 143.917 364.802 148.735 368.182 152.33C371.597 155.925 375.947 157.722 381.232 157.722C384.395 157.722 387.613 156.913 390.884 155.296C394.192 153.678 396.96 151.197 399.189 147.854C401.454 144.51 402.586 140.25 402.586 135.073Z" fill="black"/>
<path d="M473.35 170.664C465.369 170.664 458.485 168.903 452.697 165.38C446.945 161.821 442.505 156.859 439.377 150.496C436.285 144.097 434.74 136.655 434.74 128.171C434.74 119.687 436.285 112.209 439.377 105.738C442.505 99.2307 446.855 94.1616 452.427 90.5306C458.035 86.8637 464.578 85.0302 472.056 85.0302C476.37 85.0302 480.63 85.7492 484.837 87.1872C489.043 88.6252 492.872 90.962 496.323 94.1976C499.774 97.3972 502.524 101.639 504.573 106.924C506.623 112.209 507.647 118.716 507.647 126.445V131.838H443.799V120.837H494.705C494.705 116.163 493.77 111.993 491.901 108.326C490.067 104.659 487.443 101.765 484.028 99.6441C480.648 97.523 476.658 96.4625 472.056 96.4625C466.987 96.4625 462.601 97.7207 458.898 100.237C455.231 102.718 452.409 105.953 450.432 109.944C448.455 113.934 447.466 118.213 447.466 122.778V130.112C447.466 136.368 448.545 141.67 450.702 146.02C452.895 150.334 455.932 153.624 459.815 155.889C463.698 158.118 468.209 159.232 473.35 159.232C476.694 159.232 479.714 158.765 482.41 157.83C485.142 156.859 487.497 155.421 489.474 153.516C491.451 151.575 492.979 149.166 494.058 146.29L506.353 149.741C505.059 153.911 502.884 157.578 499.828 160.742C496.772 163.87 492.997 166.314 488.504 168.076C484.01 169.802 478.959 170.664 473.35 170.664Z" fill="black"/>
<path d="M536.282 169.802C533.621 169.802 531.339 168.849 529.433 166.943C527.528 165.038 526.575 162.755 526.575 160.095C526.575 157.435 527.528 155.152 529.433 153.246C531.339 151.341 533.621 150.388 536.282 150.388C538.942 150.388 541.225 151.341 543.13 153.246C545.036 155.152 545.988 157.435 545.988 160.095C545.988 161.856 545.539 163.474 544.64 164.948C543.777 166.422 542.609 167.609 541.135 168.507C539.697 169.37 538.079 169.802 536.282 169.802Z" fill="black"/>
<path d="M568.826 86.1087H581.553V174.978C581.553 180.083 580.672 184.505 578.91 188.244C577.185 191.983 574.56 194.877 571.037 196.926C567.55 198.975 563.146 200 557.825 200C557.394 200 556.962 200 556.531 200C556.1 200 555.668 200 555.237 200V188.136C555.668 188.136 556.064 188.136 556.423 188.136C556.783 188.136 557.178 188.136 557.609 188.136C561.492 188.136 564.332 186.986 566.13 184.685C567.927 182.42 568.826 179.185 568.826 174.978V86.1087ZM575.081 72.3037C572.601 72.3037 570.462 71.4589 568.664 69.7692C566.903 68.0795 566.022 66.0483 566.022 63.6756C566.022 61.3028 566.903 59.2716 568.664 57.582C570.462 55.8923 572.601 55.0475 575.081 55.0475C577.562 55.0475 579.683 55.8923 581.445 57.582C583.242 59.2716 584.141 61.3028 584.141 63.6756C584.141 66.0483 583.242 68.0795 581.445 69.7692C579.683 71.4589 577.562 72.3037 575.081 72.3037Z" fill="black"/>
<path d="M663.533 104.659L652.101 107.895C651.382 105.989 650.321 104.138 648.919 102.34C647.553 100.507 645.684 98.997 643.311 97.8106C640.938 96.6242 637.9 96.0311 634.198 96.0311C629.129 96.0311 624.904 97.1994 621.525 99.5362C618.182 101.837 616.51 104.767 616.51 108.326C616.51 111.49 617.66 113.988 619.961 115.822C622.262 117.655 625.857 119.183 630.746 120.406L643.041 123.425C650.447 125.223 655.966 127.973 659.597 131.676C663.228 135.343 665.043 140.07 665.043 145.858C665.043 150.604 663.677 154.846 660.945 158.585C658.248 162.324 654.474 165.272 649.62 167.429C644.767 169.586 639.123 170.664 632.688 170.664C624.239 170.664 617.247 168.831 611.711 165.164C606.174 161.497 602.669 156.14 601.195 149.094L613.274 146.074C614.425 150.532 616.6 153.875 619.799 156.104C623.035 158.333 627.259 159.448 632.472 159.448C638.404 159.448 643.113 158.19 646.6 155.673C650.124 153.12 651.885 150.065 651.885 146.506C651.885 143.63 650.879 141.221 648.865 139.28C646.852 137.302 643.76 135.828 639.59 134.858L625.785 131.622C618.2 129.825 612.627 127.038 609.068 123.264C605.545 119.453 603.783 114.689 603.783 108.973C603.783 104.3 605.096 100.165 607.72 96.5703C610.38 92.9753 613.993 90.1531 618.559 88.104C623.161 86.0548 628.374 85.0302 634.198 85.0302C642.394 85.0302 648.829 86.8277 653.503 90.4228C658.213 94.0178 661.556 98.7633 663.533 104.659Z" fill="black"/>
</svg>
