<svg width="32" height="32" viewBox="0 0 32 32" fill="none" xmlns="http://www.w3.org/2000/svg">
<rect x="1" y="1" width="17.5862" height="22.9412" rx="0.875" fill="#FA5A28" fill-opacity="0.2"/>
<rect x="4.10352" y="7.17676" width="11.3793" height="1.76471" rx="0.4375" fill="#FFEFEA"/>
<rect x="4.10352" y="10.707" width="11.3793" height="1.76471" rx="0.4375" fill="#FFEFEA"/>
<rect x="4.10352" y="14.2344" width="11.3793" height="1.76471" rx="0.4375" fill="#FFEFEA"/>
<rect x="4.10352" y="17.7656" width="11.3793" height="1.76471" rx="0.4375" fill="#FFEFEA"/>
<rect x="7.20679" y="4.53027" width="17.5862" height="22.9412" rx="0.875" fill="#FA5A28" fill-opacity="0.5"/>
<rect x="11.345" y="10.707" width="11.3793" height="1.76471" rx="0.4375" fill="#FED1C3"/>
<rect x="11.345" y="14.2344" width="11.3793" height="1.76471" rx="0.4375" fill="#FED1C3"/>
<rect x="11.345" y="17.7656" width="11.3793" height="1.76471" rx="0.4375" fill="#FED1C3"/>
<rect x="11.345" y="21.293" width="11.3793" height="1.76471" rx="0.4375" fill="#FED1C3"/>
<rect x="13.4141" y="8.05859" width="17.5862" height="22.9412" rx="0.875" fill="#FA5A28"/>
<rect x="16.5176" y="13.3525" width="11.3793" height="1.76471" rx="0.4375" fill="#FED1C3"/>
<rect x="16.5176" y="16.8828" width="11.3793" height="1.76471" rx="0.4375" fill="#FED1C3"/>
<rect x="16.5176" y="20.4121" width="11.3793" height="1.76471" rx="0.4375" fill="#FED1C3"/>
<rect x="16.5176" y="23.9414" width="11.3793" height="1.76471" rx="0.4375" fill="#FED1C3"/>
</svg>
