<svg width="33" height="32" viewBox="0 0 33 32" fill="none" xmlns="http://www.w3.org/2000/svg">
<path fill-rule="evenodd" clip-rule="evenodd" d="M6.78807 6.92093C5.85722 6.92093 5.33332 5.82039 5.90434 5.0645L8.6388 1.44472C9.04972 0.900761 9.83023 0.847395 10.3076 1.33061L13.8834 4.95039C14.5968 5.67259 14.0995 6.92093 13.0984 6.92093L12.3779 6.92093L12.3779 9.71827C12.3779 9.8617 12.4337 10.0486 12.5506 10.2314C12.6676 10.4145 12.8141 10.5435 12.9362 10.6018L19.4036 13.6934C19.9561 13.9575 20.7559 14.4949 21.4248 15.2751C22.0968 16.0588 22.667 17.1254 22.667 18.4309L22.667 22.6467C22.667 22.9644 22.4165 23.222 22.1075 23.222C21.7985 23.222 21.548 22.9644 21.548 22.6467L21.548 18.4309C21.548 17.488 21.1383 16.6809 20.5854 16.036C20.0294 15.3874 19.3594 14.9411 18.9319 14.7368L12.4645 11.6452C12.1163 11.4788 11.8218 11.1861 11.6155 10.8634C11.4089 10.5402 11.2589 10.1369 11.2589 9.71827L11.2589 6.92093C11.2589 6.28547 11.7599 5.77032 12.3779 5.77032L13.0984 5.77032L9.52253 2.15054L6.78807 5.77032L7.73126 5.77032C8.34834 5.77032 8.85027 6.28377 8.85027 6.92019L8.85027 10.2804C8.85027 11.3511 9.27255 12.2324 9.82318 12.9125C10.379 13.5991 11.0458 14.0545 11.4664 14.2555L17.3458 17.0661C18.5706 17.6516 18.8453 18.9815 18.8453 19.5551L18.8453 26.4999C18.8453 26.8177 18.5948 27.0752 18.2858 27.0752C17.9768 27.0752 17.7263 26.8177 17.7263 26.4999L17.7263 19.5551C17.7263 19.1919 17.5307 18.4233 16.8741 18.1094L10.9946 15.2989C10.4352 15.0315 9.63225 14.4752 8.96315 13.6487C8.28889 12.8158 7.73126 11.6829 7.73126 10.2804L7.73126 6.92093L6.78807 6.92093Z" fill="#FA5A28"/>
<circle cx="11.167" cy="30.5" r="1.5" fill="#FA5A28"/>
<circle cx="16.167" cy="30.5" r="1.5" fill="#FCA489"/>
<circle cx="21.167" cy="30.5" r="1.5" fill="#FED1C3"/>
<path fill-rule="evenodd" clip-rule="evenodd" d="M26.48 5.92101C27.4656 5.92101 28.0203 4.82047 27.4157 4.06458L24.5204 0.444805C24.0853 -0.0991572 23.2589 -0.152523 22.7534 0.330693L18.9673 3.95047C18.2119 4.67267 18.7384 5.92101 19.7985 5.92101L20.5613 5.92101L20.5613 8.71835C20.5613 8.86178 20.5022 9.0487 20.3785 9.23147C20.2546 9.41459 20.0995 9.54353 19.9702 9.60193L17.48 10.7261C17.1833 10.8601 17.0546 11.2022 17.1926 11.4904C17.3305 11.7785 17.6828 11.9035 17.9795 11.7695L20.4696 10.6453C20.8383 10.4788 21.1502 10.1862 21.3686 9.86343C21.5873 9.54031 21.7461 9.13702 21.7461 8.71835L21.7461 5.92101C21.7461 5.28555 21.2156 4.77041 20.5613 4.77041L19.7985 4.77041L23.5847 1.15063L26.48 4.7704L25.4813 4.7704C24.8279 4.7704 24.2965 5.28386 24.2965 5.92028L24.2965 9.28045C24.2965 10.3512 23.8493 11.2325 23.2663 11.9126C22.6778 12.5992 21.9717 13.0546 21.5265 13.2556C21.2298 13.3896 21.1011 13.7317 21.239 14.0198C21.377 14.308 21.7293 14.4329 22.026 14.299C22.6183 14.0316 23.4685 13.4752 24.1769 12.6488C24.8909 11.8159 25.4813 10.6829 25.4813 9.28045L25.4813 5.92101L26.48 5.92101ZM14.3059 27C14.633 27 14.8983 26.7424 14.8983 26.4247L14.8983 18.5552C14.8983 18.2375 14.633 17.9799 14.3059 17.9799C13.9787 17.9799 13.7134 18.2375 13.7134 18.5552L13.7134 26.4247C13.7134 26.7424 13.9787 27 14.3059 27ZM10.2594 22.2221C10.5866 22.2221 10.8518 21.9645 10.8518 21.6468L10.8518 17.431C10.8518 17.1133 10.5866 16.8557 10.2594 16.8557C9.93223 16.8557 9.66699 17.1133 9.66699 17.431L9.66699 21.6468C9.66699 21.9645 9.93223 22.2221 10.2594 22.2221Z" fill="#FCA489"/>
</svg>
