<svg width="33" height="32" viewBox="0 0 33 32" fill="none" xmlns="http://www.w3.org/2000/svg">
<path fill-rule="evenodd" clip-rule="evenodd" d="M13.4898 3.10622H4.02956C3.40918 3.10622 2.90626 3.60149 2.90626 4.21244V9.19043C2.90626 9.80137 3.40918 10.2966 4.02956 10.2966H13.4898C14.1102 10.2966 14.6131 9.80137 14.6131 9.19043V4.21244C14.6131 3.60149 14.1102 3.10622 13.4898 3.10622ZM4.02956 2C2.7888 2 1.78296 2.99054 1.78296 4.21244V9.19043C1.78296 10.4123 2.7888 11.4029 4.02956 11.4029H13.4898C14.7306 11.4029 15.7364 10.4123 15.7364 9.19043V4.21244C15.7364 2.99054 14.7306 2 13.4898 2H4.02956Z" fill="#FCA489"/>
<path fill-rule="evenodd" clip-rule="evenodd" d="M29.3036 3.10622H19.8433C19.2229 3.10622 18.72 3.60149 18.72 4.21244V9.19043C18.72 9.80137 19.2229 10.2966 19.8433 10.2966H29.3036C29.9239 10.2966 30.4269 9.80137 30.4269 9.19043V4.21244C30.4269 3.60149 29.9239 3.10622 29.3036 3.10622ZM19.8433 2C18.6025 2 17.5967 2.99054 17.5967 4.21244V9.19043C17.5967 10.4123 18.6025 11.4029 19.8433 11.4029H29.3036C30.5443 11.4029 31.5502 10.4123 31.5502 9.19043V4.21244C31.5502 2.99054 30.5443 2 29.3036 2H19.8433Z" fill="#FCA489"/>
<path fill-rule="evenodd" clip-rule="evenodd" d="M29.3038 14.2693H4.02956C3.40918 14.2693 2.90626 14.7646 2.90626 15.3755V20.3535C2.90626 20.9645 3.40918 21.4597 4.02956 21.4597H29.3038C29.9242 21.4597 30.4271 20.9645 30.4271 20.3535V15.3755C30.4271 14.7646 29.9242 14.2693 29.3038 14.2693ZM4.02956 13.1631C2.7888 13.1631 1.78296 14.1536 1.78296 15.3755V20.3535C1.78296 21.5754 2.7888 22.566 4.02956 22.566H29.3038C30.5446 22.566 31.5504 21.5754 31.5504 20.3535V15.3755C31.5504 14.1536 30.5446 13.1631 29.3038 13.1631H4.02956Z" fill="#FCA489"/>
<path d="M24.8103 19.2974C24.8103 23.7268 21.1641 27.3175 16.6664 27.3175C12.1686 27.3175 8.52246 23.7268 8.52246 19.2974C8.52246 14.8681 12.1686 11.2773 16.6664 11.2773C21.1641 11.2773 24.8103 14.8681 24.8103 19.2974Z" fill="#FED1C3"/>
<path fill-rule="evenodd" clip-rule="evenodd" d="M19.1019 17.5497C18.9834 17.0706 18.5288 16.7862 18.0865 16.9146C17.6442 17.043 17.3817 17.5355 17.5002 18.0147L17.7148 18.8822C17.8333 19.3614 18.2879 19.6457 18.7302 19.5173C19.1725 19.3889 19.435 18.8964 19.3165 18.4173L19.1019 17.5497ZM15.5844 20.0902C15.1421 19.9618 14.6875 20.2461 14.569 20.7253C14.4505 21.2044 14.7129 21.6969 15.1552 21.8253L15.9561 22.0578C16.3984 22.1862 16.853 21.9018 16.9715 21.4227C17.09 20.9435 16.8275 20.451 16.3852 20.3226L15.5844 20.0902ZM22.8915 19.5796C23.2153 19.2289 23.2153 18.6602 22.8915 18.3094C22.5677 17.9587 22.0428 17.9587 21.719 18.3094L21.1327 18.9445C20.809 19.2953 20.809 19.864 21.1327 20.2147C21.4565 20.5655 21.9815 20.5655 22.3053 20.2147L22.8915 19.5796ZM17.029 25.9307L17.6152 25.2956C17.939 24.9448 17.939 24.3761 17.6152 24.0254C17.2915 23.6746 16.7665 23.6746 16.4427 24.0254L15.8565 24.6605C15.5327 25.0113 15.5327 25.5799 15.8565 25.9307C16.1803 26.2815 16.7052 26.2815 17.029 25.9307ZM19.682 21.2862C19.374 21.1527 19.0223 21.2309 18.7878 21.485C18.5533 21.7391 18.4811 22.1201 18.6043 22.4537L21.9206 31.4355C22.0419 31.7639 22.3297 31.9846 22.656 31.9993C22.9821 32.014 23.286 31.8199 23.432 31.5036L24.5757 29.0255L27.0786 31.737C27.4025 32.0878 27.9274 32.0878 28.2512 31.737C28.575 31.3863 28.575 30.8175 28.2512 30.4668L25.7482 27.7552L28.0357 26.5162C28.3277 26.358 28.5069 26.0289 28.4933 25.6755C28.4797 25.3221 28.276 25.0103 27.9728 24.8789L19.682 21.2862Z" fill="#FA5A28"/>
</svg>
