<svg width="32" height="34" viewBox="0 0 32 34" fill="none" xmlns="http://www.w3.org/2000/svg">
<rect x="0.915322" y="2.22831" width="24.822" height="19.9607" rx="0.68493" stroke="#FCA489" stroke-width="0.45662" stroke-dasharray="1.83 1.83"/>
<rect x="6.03418" y="7.83398" width="25.2786" height="20.4174" rx="0.91324" fill="#FED1C3"/>
<mask id="mask0_1375_52485" style="mask-type:alpha" maskUnits="userSpaceOnUse" x="6" y="7" width="26" height="22">
<rect x="6.03418" y="7.83398" width="25.2786" height="20.4174" rx="0.91324" fill="white"/>
</mask>
<g mask="url(#mask0_1375_52485)">
<path d="M7.62427 31.8971L24.05 17.1396L58.8263 31.8971H7.62427Z" fill="#FCA489"/>
<mask id="mask1_1375_52485" style="mask-type:alpha" maskUnits="userSpaceOnUse" x="7" y="17" width="52" height="15">
<path d="M7.62427 31.8971L24.05 17.1396L58.8263 31.8971H7.62427Z" fill="#FF9979"/>
</mask>
<g mask="url(#mask1_1375_52485)">
<path d="M30.4841 31.3619L20.6554 18.2568L15.2395 23.1378L30.4841 31.3619Z" fill="#FA5A28"/>
</g>
<path d="M12.6289 15.7285L-1.74365 29.3311H28.9263L12.6289 15.7285Z" fill="#FCA489"/>
<ellipse cx="20.3284" cy="13.5472" rx="2.30987" ry="2.30987" fill="#FA5A28"/>
</g>
<path d="M10.1024 23.1444L2.86003 28.0124L6.27893 28.6735L4.08838 32.4159C3.96117 32.6332 4.03392 32.9125 4.25098 33.0401L4.70327 33.3061C4.9235 33.4357 5.20713 33.3593 5.33256 33.1367L7.47173 29.3405L9.66619 31.9176L10.1024 23.1444Z" fill="#FA5A28"/>
</svg>
