<svg width="24" height="24" viewBox="0 0 24 24" fill="none" xmlns="http://www.w3.org/2000/svg">
<g clip-path="url(#clip0_1371_43922)">
<path fill-rule="evenodd" clip-rule="evenodd" d="M13.0862 5.76893C12.5509 5.7778 12.0175 5.79681 11.4844 5.81083C11.2631 5.81796 11.191 5.89155 11.1703 6.11622C11.1475 6.50642 11.0995 6.89765 11.0691 7.28991C11.0726 7.40785 10.9883 7.51022 10.8718 7.52936C10.6921 7.57126 10.5192 7.63802 10.3581 7.72771C10.0307 7.91688 9.71459 8.12679 9.39852 8.33671C9.33867 8.38971 9.2528 8.40152 9.18085 8.36665C8.9805 8.27211 8.77456 8.18729 8.57112 8.10262C8.36769 8.01794 8.10994 7.91754 7.87927 7.82625C7.65362 7.77792 7.55362 7.9854 7.39873 8.22984C7.16486 8.62275 6.92628 9.01038 6.70227 9.40638C6.60417 9.58134 6.63585 9.6836 6.79692 9.80594C7.13367 10.0582 7.47292 10.3106 7.81467 10.5632C7.87457 10.5951 7.90153 10.6664 7.87773 10.73C7.70582 11.3937 7.68756 12.0879 7.82435 12.7598C7.82745 12.8171 7.80487 12.8728 7.76274 12.9118C7.40946 13.1998 7.04913 13.48 6.69114 13.7627C6.51237 13.9003 6.49636 14.0023 6.61772 14.2027C6.89533 14.6506 7.17529 15.1011 7.4476 15.5538C7.56896 15.7541 7.68422 15.801 7.89833 15.7031C8.27505 15.5293 8.64926 15.3555 9.02127 15.1764C9.08377 15.1412 9.16238 15.1541 9.21026 15.2075C9.42562 15.3965 9.65469 15.5693 9.89559 15.7245C10.1839 15.8856 10.4815 16.0296 10.7868 16.1556C10.86 16.1778 10.912 16.2426 10.9178 16.3188C10.9728 16.7537 11.0328 17.1864 11.0929 17.6191C11.1299 17.8873 11.1799 17.9354 11.4588 17.9316C11.9863 17.9273 12.5142 17.9155 13.0417 17.9112C13.2703 17.9095 13.3547 17.8392 13.378 17.6121C13.4172 17.2003 13.4638 16.7889 13.498 16.3768C13.4964 16.294 13.5582 16.2237 13.6405 16.2145C14.2869 16.0157 14.8823 15.6789 15.3854 15.2272C15.4379 15.1954 15.5019 15.189 15.5597 15.2098C15.9823 15.3675 16.402 15.5326 16.8218 15.6952C16.8949 15.736 16.9824 15.7424 17.0607 15.7126C17.139 15.6828 17.2001 15.6198 17.2275 15.5407C17.4844 15.0538 17.7439 14.567 17.9908 14.0795C18.0239 14.003 18.0168 13.9151 17.9719 13.8449C17.8638 13.7122 17.7401 13.5929 17.6035 13.4896C17.3632 13.3049 17.0868 13.1381 16.8346 12.9427C16.7894 12.9077 16.7644 12.8527 16.7678 12.7957C16.8932 12.1819 16.8918 11.549 16.7636 10.9357C16.7548 10.8776 16.773 10.8186 16.8131 10.7755C17.1532 10.4992 17.4978 10.2307 17.8449 9.9624C18.0762 9.78518 18.112 9.68688 17.9605 9.44461C17.6843 8.98674 17.4029 8.53274 17.1162 8.08263C17.0841 8.0108 17.0224 7.95646 16.9471 7.93374C16.8718 7.91103 16.7903 7.9222 16.7239 7.96433C16.3294 8.14205 15.9494 8.32815 15.5449 8.50528C15.4976 8.5239 15.4445 8.5208 15.3998 8.4968C14.9298 8.06654 14.3751 7.73919 13.7713 7.53572C13.6929 7.51383 13.638 7.44344 13.6358 7.36216C13.5781 6.93212 13.5202 6.50458 13.4599 6.07689C13.4225 5.8137 13.3655 5.75766 13.0862 5.76893Z" fill="#FA5723"/>
<path fill-rule="evenodd" clip-rule="evenodd" d="M14.9024 11.8521C14.9024 13.2759 13.7482 14.4302 12.3244 14.4302C10.9006 14.4302 9.74634 13.2759 9.74634 11.8521C9.74634 10.4283 10.9006 9.2741 12.3244 9.2741C13.7482 9.2741 14.9024 10.4283 14.9024 11.8521Z" fill="white"/>
<path d="M3.52319 19.0119L6.86591 19.0119L9.13034 16.7476" stroke="#FCAC93" stroke-width="1.2" stroke-linecap="round"/>
<path d="M21.6418 19.0119L18.2991 19.0119L16.0347 16.7476" stroke="#FCAC93" stroke-width="1.2" stroke-linecap="round"/>
<path d="M12.3672 19.3989L12.3672 22.2871" stroke="#FCAC93" stroke-width="1.2" stroke-linecap="round"/>
<path d="M3.69984 18.6002C3.69984 19.0788 3.31192 19.4667 2.83339 19.4667C2.35487 19.4667 1.96694 19.0788 1.96694 18.6002C1.96694 18.1217 2.35487 17.7338 2.83339 17.7338C3.31192 17.7338 3.69984 18.1217 3.69984 18.6002Z" fill="#FCAC93" stroke="#FA5A28" stroke-width="1.2"/>
<path d="M13.2335 21.5338C13.2335 22.0124 12.8456 22.4003 12.3671 22.4003C11.8886 22.4003 11.5006 22.0124 11.5006 21.5338C11.5006 21.0553 11.8886 20.6674 12.3671 20.6674C12.8456 20.6674 13.2335 21.0553 13.2335 21.5338Z" fill="#FCAC93" stroke="#FA5A28" stroke-width="1.2"/>
<path d="M22.0333 18.6002C22.0333 19.0788 21.6454 19.4667 21.1669 19.4667C20.6884 19.4667 20.3004 19.0788 20.3004 18.6002C20.3004 18.1217 20.6884 17.7338 21.1669 17.7338C21.6454 17.7338 22.0333 18.1217 22.0333 18.6002Z" fill="#FCAC93" stroke="#FA5A28" stroke-width="1.2"/>
<path d="M3.52319 4.98855L6.86591 4.98855L9.13034 7.25293" stroke="#FCAC93" stroke-width="1.2" stroke-linecap="round"/>
<path d="M21.6418 4.98855L18.2991 4.98855L16.0347 7.25293" stroke="#FCAC93" stroke-width="1.2" stroke-linecap="round"/>
<path d="M12.3672 4.60156L12.3672 1.71342" stroke="#FCAC93" stroke-width="1.2" stroke-linecap="round"/>
<path d="M3.69984 5.40025C3.69984 4.92173 3.31192 4.5338 2.83339 4.5338C2.35487 4.5338 1.96694 4.92173 1.96694 5.40025C1.96694 5.87878 2.35487 6.2667 2.83339 6.2667C3.31192 6.2667 3.69984 5.87878 3.69984 5.40025Z" fill="#FCAC93" stroke="#FA5A28" stroke-width="1.2"/>
<path d="M13.2335 2.46666C13.2335 1.98813 12.8456 1.60021 12.3671 1.60021C11.8886 1.60021 11.5006 1.98813 11.5006 2.46666C11.5006 2.94518 11.8886 3.33311 12.3671 3.33311C12.8456 3.33311 13.2335 2.94518 13.2335 2.46666Z" fill="#FCAC93" stroke="#FA5A28" stroke-width="1.2"/>
<path d="M22.0333 5.40025C22.0333 4.92173 21.6454 4.5338 21.1669 4.5338C20.6884 4.5338 20.3004 4.92173 20.3004 5.40025C20.3004 5.87878 20.6884 6.2667 21.1669 6.2667C21.6454 6.2667 22.0333 5.87878 22.0333 5.40025Z" fill="#FCAC93" stroke="#FA5A28" stroke-width="1.2"/>
</g>
<defs>
<clipPath id="clip0_1371_43922">
<rect width="24" height="24" fill="white"/>
</clipPath>
</defs>
</svg>
