<svg width="24" height="24" viewBox="0 0 24 24" fill="none" xmlns="http://www.w3.org/2000/svg">
<g clip-path="url(#clip0_1371_44024)">
<path d="M7.05 3.75C7.05 2.23122 8.28122 1 9.8 1C11.3188 1 12.55 2.23122 12.55 3.75V5.4H13.65C15.1876 5.4 15.9564 5.4 16.5629 5.6512C17.3714 5.98613 18.0139 6.62855 18.3488 7.43714C18.6 8.04359 18.6 8.81239 18.6 10.35H20.25C21.7688 10.35 23 11.5812 23 13.1C23 14.6188 21.7688 15.85 20.25 15.85H18.6V17.72C18.6 19.5682 18.6 20.4923 18.2403 21.1982C17.9239 21.8191 17.4191 22.3239 16.7982 22.6403C16.0923 23 15.1682 23 13.32 23H12.55V21.075C12.55 19.7081 11.4419 18.6 10.075 18.6C8.7081 18.6 7.6 19.7081 7.6 21.075V23H6.28C4.43183 23 3.50774 23 2.80183 22.6403C2.1809 22.3239 1.67606 21.8191 1.35968 21.1982C1 20.4923 1 19.5682 1 17.72V15.85H2.65C4.16878 15.85 5.4 14.6188 5.4 13.1C5.4 11.5812 4.16878 10.35 2.65 10.35H1C1 8.81239 1 8.04359 1.2512 7.43714C1.58613 6.62855 2.22855 5.98613 3.03714 5.6512C3.64359 5.4 4.41239 5.4 5.95 5.4H7.05V3.75Z" fill="#FFF2EE" stroke="#FA5A28" stroke-linecap="round" stroke-linejoin="round"/>
</g>
<defs>
<clipPath id="clip0_1371_44024">
<rect width="24" height="24" fill="white"/>
</clipPath>
</defs>
</svg>
