<svg width="24" height="24" viewBox="0 0 24 24" fill="none" xmlns="http://www.w3.org/2000/svg">
<g clip-path="url(#clip0_1371_43973)">
<rect x="1" y="18.4165" width="22" height="1.1" rx="0.55" fill="#FC8C69"/>
<path d="M7.60059 4.4834H16.4006V18.4167H7.60059V4.4834Z" fill="#FA5A28"/>
<path d="M3.2002 10.7161L7.60019 8.51611V18.4161H3.2002V10.7161Z" fill="#FCAC93"/>
<path d="M20.8 10.7161L16.4 8.51611V18.4161H20.8V10.7161Z" fill="#FCAC93"/>
<rect x="10.8997" y="14.0161" width="2.2" height="4.4" fill="#FEDED4"/>
<rect x="4.2998" y="16.2163" width="2.2" height="2.2" fill="#FEDED4"/>
<rect x="17.4998" y="16.2163" width="2.2" height="2.2" fill="#FEDED4"/>
<rect width="2.2" height="1.1" transform="matrix(1 0 0 -1 4.2998 15.1162)" fill="#FEDED4"/>
<rect width="2.2" height="1.1" transform="matrix(1 0 0 -1 17.4998 15.1162)" fill="#FEDED4"/>
<rect width="2.2" height="1.1" transform="matrix(1 0 0 -1 4.2998 12.9165)" fill="#FEDED4"/>
<rect width="2.2" height="1.1" transform="matrix(1 0 0 -1 17.4998 12.9165)" fill="#FEDED4"/>
<rect x="14.2" y="10.7168" width="1.1" height="4.4" transform="rotate(90 14.2 10.7168)" fill="#FEDED4"/>
<rect x="14.2" y="8.51611" width="1.1" height="4.4" transform="rotate(90 14.2 8.51611)" fill="#FEDED4"/>
</g>
<defs>
<clipPath id="clip0_1371_43973">
<rect width="24" height="24" fill="white"/>
</clipPath>
</defs>
</svg>
