<svg width="24" height="24" viewBox="0 0 24 24" fill="none" xmlns="http://www.w3.org/2000/svg">
<g clip-path="url(#clip0_1367_27705)">
<path fill-rule="evenodd" clip-rule="evenodd" d="M9.36551 1.88498H1.79728C1.30097 1.88498 0.89864 2.28119 0.89864 2.76995V6.75234C0.89864 7.2411 1.30097 7.63732 1.79728 7.63732H9.36551C9.86182 7.63732 10.2642 7.2411 10.2642 6.75234V2.76995C10.2642 2.28119 9.86182 1.88498 9.36551 1.88498ZM1.79728 1C0.80467 1 0 1.79243 0 2.76995V6.75234C0 7.72986 0.80467 8.52229 1.79728 8.52229H9.36551C10.3581 8.52229 11.1628 7.72986 11.1628 6.75234V2.76995C11.1628 1.79243 10.3581 1 9.36551 1H1.79728Z" fill="#FCA489"/>
<path fill-rule="evenodd" clip-rule="evenodd" d="M22.0166 1.88498H14.4484C13.9521 1.88498 13.5498 2.28119 13.5498 2.76995V6.75234C13.5498 7.2411 13.9521 7.63732 14.4484 7.63732H22.0166C22.5129 7.63732 22.9153 7.2411 22.9153 6.75234V2.76995C22.9153 2.28119 22.5129 1.88498 22.0166 1.88498ZM14.4484 1C13.4558 1 12.6511 1.79243 12.6511 2.76995V6.75234C12.6511 7.72986 13.4558 8.52229 14.4484 8.52229H22.0166C23.0092 8.52229 23.8139 7.72986 23.8139 6.75234V2.76995C23.8139 1.79243 23.0092 1 22.0166 1H14.4484Z" fill="#FCA489"/>
<path fill-rule="evenodd" clip-rule="evenodd" d="M22.0167 10.8152H1.79728C1.30097 10.8152 0.89864 11.2114 0.89864 11.7001V15.6825C0.89864 16.1713 1.30097 16.5675 1.79728 16.5675H22.0167C22.513 16.5675 22.9153 16.1713 22.9153 15.6825V11.7001C22.9153 11.2114 22.513 10.8152 22.0167 10.8152ZM1.79728 9.93018C0.80467 9.93018 0 10.7226 0 11.7001V15.6825C0 16.66 0.80467 17.4525 1.79728 17.4525H22.0167C23.0093 17.4525 23.814 16.66 23.814 15.6825V11.7001C23.814 10.7226 23.0093 9.93018 22.0167 9.93018H1.79728Z" fill="#FCA489"/>
<path d="M18.4219 14.8379C18.4219 18.3814 15.505 21.254 11.9067 21.254C8.30853 21.254 5.3916 18.3814 5.3916 14.8379C5.3916 11.2944 8.30853 8.42188 11.9067 8.42188C15.505 8.42188 18.4219 11.2944 18.4219 14.8379Z" fill="#FED1C3"/>
<path fill-rule="evenodd" clip-rule="evenodd" d="M13.0082 12.4846C12.922 12.1359 12.5912 11.929 12.2693 12.0224C11.9475 12.1159 11.7565 12.4742 11.8427 12.8229L11.9989 13.4542C12.0851 13.8029 12.4159 14.0098 12.7378 13.9164C13.0596 13.823 13.2506 13.4646 13.1644 13.1159L13.0082 12.4846ZM10.4486 14.3332C10.1267 14.2398 9.79591 14.4467 9.70967 14.7954C9.62343 15.1441 9.81443 15.5024 10.1363 15.5959L10.719 15.765C11.0409 15.8585 11.3717 15.6515 11.4579 15.3029C11.5442 14.9542 11.3532 14.5958 11.0313 14.5024L10.4486 14.3332ZM15.7659 13.9617C16.0014 13.7065 16.0014 13.2926 15.7659 13.0374C15.5303 12.7822 15.1482 12.7822 14.9126 13.0374L14.486 13.4996C14.2504 13.7548 14.2504 14.1686 14.486 14.4239C14.7216 14.6791 15.1037 14.6791 15.3393 14.4239L15.7659 13.9617ZM11.4998 18.5833L11.9264 18.1212C12.162 17.8659 12.162 17.4521 11.9264 17.1968C11.6908 16.9416 11.3088 16.9416 11.0732 17.1968L10.6466 17.659C10.411 17.9143 10.411 18.328 10.6466 18.5833C10.8822 18.8386 11.2642 18.8386 11.4998 18.5833ZM13.4303 15.2036C13.2063 15.1065 12.9503 15.1634 12.7797 15.3483C12.609 15.5331 12.5565 15.8104 12.6461 16.0531L15.0594 22.5891C15.1476 22.828 15.3571 22.9887 15.5945 22.9993C15.8318 23.0101 16.0529 22.8688 16.1592 22.6386L16.9914 20.8354L18.8128 22.8085C19.0484 23.0637 19.4304 23.0637 19.666 22.8085C19.9016 22.5533 19.9016 22.1394 19.666 21.8842L17.8446 19.911L19.5092 19.0094C19.7217 18.8943 19.8521 18.6548 19.8422 18.3976C19.8323 18.1405 19.6841 17.9135 19.4634 17.8179L13.4303 15.2036Z" fill="#FA5A28"/>
</g>
<defs>
<clipPath id="clip0_1367_27705">
<rect width="24" height="24" fill="white"/>
</clipPath>
</defs>
</svg>
