<svg width="24" height="24" viewBox="0 0 24 24" fill="none" xmlns="http://www.w3.org/2000/svg">
<path d="M4 8L10.08 3.44C10.7685 2.92361 11.1128 2.66542 11.4909 2.56589C11.8246 2.47804 12.1754 2.47804 12.5091 2.56589C12.8872 2.66542 13.2315 2.92361 13.92 3.44L20 8V17.8C20 18.9201 20 19.4802 19.782 19.908C19.5903 20.2843 19.2843 20.5903 18.908 20.782C18.4802 21 17.9201 21 16.8 21H7.2C6.0799 21 5.51985 21 5.09202 20.782C4.7157 20.5903 4.40974 20.2843 4.21799 19.908C4 19.4802 4 18.9201 4 17.8V8Z" fill="#FFF2EE"/>
<path d="M2 9.5L11.04 2.72C11.3843 2.46181 11.5564 2.33271 11.7454 2.28294C11.9123 2.23902 12.0877 2.23902 12.2546 2.28295C12.4436 2.33271 12.6157 2.46181 12.96 2.72L22 9.5M4 8V17.8C4 18.9201 4 19.4802 4.21799 19.908C4.40974 20.2843 4.7157 20.5903 5.09202 20.782C5.51985 21 6.0799 21 7.2 21H16.8C17.9201 21 18.4802 21 18.908 20.782C19.2843 20.5903 19.5903 20.2843 19.782 19.908C20 19.4802 20 18.9201 20 17.8V8L13.92 3.44C13.2315 2.92361 12.8872 2.66542 12.5091 2.56589C12.1754 2.47804 11.8246 2.47804 11.4909 2.56589C11.1128 2.66542 10.7685 2.92361 10.08 3.44L4 8Z" stroke="#FA5A28" stroke-linecap="round" stroke-linejoin="round"/>
<path d="M9 20.4937V13.0937C9 12.5336 9 12.2536 9.10899 12.0397C9.20487 11.8515 9.35785 11.6985 9.54601 11.6026C9.75992 11.4937 10.0399 11.4937 10.6 11.4937H13.4C13.9601 11.4937 14.2401 11.4937 14.454 11.6026C14.6422 11.6985 14.7951 11.8515 14.891 12.0397C15 12.2536 15 12.5336 15 13.0937V20.4937" fill="#FDAC93"/>
</svg>
