<svg version="1.1" viewBox="0.0 0.0 600.0 371.0" fill="none" stroke="none" stroke-linecap="square" stroke-miterlimit="10" width="600" height="371" xmlns:xlink="http://www.w3.org/1999/xlink" xmlns="http://www.w3.org/2000/svg"><path fill="#ffffff" d="M0 0L600.0 0L600.0 371.0L0 371.0L0 0Z" fill-rule="nonzero"/><path stroke="#333333" stroke-width="1.0" stroke-linecap="butt" d="M52.5 300.5L581.5 300.5" fill-rule="nonzero"/><path stroke="#cccccc" stroke-width="1.0" stroke-linecap="butt" d="M52.5 247.5L581.5 247.5" fill-rule="nonzero"/><path stroke="#cccccc" stroke-width="1.0" stroke-linecap="butt" d="M52.5 194.5L581.5 194.5" fill-rule="nonzero"/><path stroke="#cccccc" stroke-width="1.0" stroke-linecap="butt" d="M52.5 141.5L581.5 141.5" fill-rule="nonzero"/><path stroke="#cccccc" stroke-width="1.0" stroke-linecap="butt" d="M52.5 88.5L581.5 88.5" fill-rule="nonzero"/><clipPath id="id_0"><path d="M52.55 88.28333L581.45 88.28333L581.45 300.45L52.55 300.45L52.55 88.28333Z" clip-rule="nonzero"/></clipPath><path stroke="#000000" stroke-width="2.0" stroke-linecap="butt" stroke-opacity="0.0" clip-path="url(#id_0)" d="M108.0 300.0L89.0 300.0L89.0 281.0C89.0 279.89542 89.89543 279.0 91.0 279.0L106.0 279.0C107.10457 279.0 108.0 279.89542 108.0 281.0Z" fill-rule="nonzero"/><path fill="#4285f4" clip-path="url(#id_0)" d="M108.0 300.0L89.0 300.0L89.0 281.0C89.0 279.89542 89.89543 279.0 91.0 279.0L106.0 279.0C107.10457 279.0 108.0 279.89542 108.0 281.0Z" fill-rule="nonzero"/><path stroke="#000000" stroke-width="2.0" stroke-linecap="butt" stroke-opacity="0.0" clip-path="url(#id_0)" d="M207.0 300.0L188.0 300.0L188.0 280.0C188.0 278.89542 188.89543 278.0 190.0 278.0L205.0 278.0C206.10457 278.0 207.0 278.89542 207.0 280.0Z" fill-rule="nonzero"/><path fill="#4285f4" clip-path="url(#id_0)" d="M207.0 300.0L188.0 300.0L188.0 280.0C188.0 278.89542 188.89543 278.0 190.0 278.0L205.0 278.0C206.10457 278.0 207.0 278.89542 207.0 280.0Z" fill-rule="nonzero"/><path stroke="#000000" stroke-width="2.0" stroke-linecap="butt" stroke-opacity="0.0" clip-path="url(#id_0)" d="M306.0 300.0L287.0 300.0L287.0 280.0C287.0 278.89542 287.89542 278.0 289.0 278.0L304.0 278.0C305.10458 278.0 306.0 278.89542 306.0 280.0Z" fill-rule="nonzero"/><path fill="#4285f4" clip-path="url(#id_0)" d="M306.0 300.0L287.0 300.0L287.0 280.0C287.0 278.89542 287.89542 278.0 289.0 278.0L304.0 278.0C305.10458 278.0 306.0 278.89542 306.0 280.0Z" fill-rule="nonzero"/><path stroke="#000000" stroke-width="2.0" stroke-linecap="butt" stroke-opacity="0.0" clip-path="url(#id_0)" d="M405.0 300.0L386.0 300.0L386.0 280.0C386.0 278.89542 386.89542 278.0 388.0 278.0L403.0 278.0C404.10458 278.0 405.0 278.89542 405.0 280.0Z" fill-rule="nonzero"/><path fill="#4285f4" clip-path="url(#id_0)" d="M405.0 300.0L386.0 300.0L386.0 280.0C386.0 278.89542 386.89542 278.0 388.0 278.0L403.0 278.0C404.10458 278.0 405.0 278.89542 405.0 280.0Z" fill-rule="nonzero"/><path stroke="#000000" stroke-width="2.0" stroke-linecap="butt" stroke-opacity="0.0" clip-path="url(#id_0)" d="M504.0 300.0L485.0 300.0L485.0 280.0C485.0 278.89542 485.89542 278.0 487.0 278.0L502.0 278.0C503.10458 278.0 504.0 278.89542 504.0 280.0Z" fill-rule="nonzero"/><path fill="#4285f4" clip-path="url(#id_0)" d="M504.0 300.0L485.0 300.0L485.0 280.0C485.0 278.89542 485.89542 278.0 487.0 278.0L502.0 278.0C503.10458 278.0 504.0 278.89542 504.0 280.0Z" fill-rule="nonzero"/><path stroke="#000000" stroke-width="2.0" stroke-linecap="butt" stroke-opacity="0.0" clip-path="url(#id_0)" d="M129.0 300.0L110.0 300.0L110.0 270.0C110.0 268.89542 110.89543 268.0 112.0 268.0L127.0 268.0C128.10457 268.0 129.0 268.89542 129.0 270.0Z" fill-rule="nonzero"/><path fill="#ea4335" clip-path="url(#id_0)" d="M129.0 300.0L110.0 300.0L110.0 270.0C110.0 268.89542 110.89543 268.0 112.0 268.0L127.0 268.0C128.10457 268.0 129.0 268.89542 129.0 270.0Z" fill-rule="nonzero"/><path stroke="#000000" stroke-width="2.0" stroke-linecap="butt" stroke-opacity="0.0" clip-path="url(#id_0)" d="M228.0 300.0L209.0 300.0L209.0 267.0C209.0 265.89542 209.89543 265.0 211.0 265.0L226.0 265.0C227.10457 265.0 228.0 265.89542 228.0 267.0Z" fill-rule="nonzero"/><path fill="#ea4335" clip-path="url(#id_0)" d="M228.0 300.0L209.0 300.0L209.0 267.0C209.0 265.89542 209.89543 265.0 211.0 265.0L226.0 265.0C227.10457 265.0 228.0 265.89542 228.0 267.0Z" fill-rule="nonzero"/><path stroke="#000000" stroke-width="2.0" stroke-linecap="butt" stroke-opacity="0.0" clip-path="url(#id_0)" d="M327.0 300.0L308.0 300.0L308.0 268.0C308.0 266.89542 308.89542 266.0 310.0 266.0L325.0 266.0C326.10458 266.0 327.0 266.89542 327.0 268.0Z" fill-rule="nonzero"/><path fill="#ea4335" clip-path="url(#id_0)" d="M327.0 300.0L308.0 300.0L308.0 268.0C308.0 266.89542 308.89542 266.0 310.0 266.0L325.0 266.0C326.10458 266.0 327.0 266.89542 327.0 268.0Z" fill-rule="nonzero"/><path stroke="#000000" stroke-width="2.0" stroke-linecap="butt" stroke-opacity="0.0" clip-path="url(#id_0)" d="M426.0 300.0L407.0 300.0L407.0 268.0C407.0 266.89542 407.89542 266.0 409.0 266.0L424.0 266.0C425.10458 266.0 426.0 266.89542 426.0 268.0Z" fill-rule="nonzero"/><path fill="#ea4335" clip-path="url(#id_0)" d="M426.0 300.0L407.0 300.0L407.0 268.0C407.0 266.89542 407.89542 266.0 409.0 266.0L424.0 266.0C425.10458 266.0 426.0 266.89542 426.0 268.0Z" fill-rule="nonzero"/><path stroke="#000000" stroke-width="2.0" stroke-linecap="butt" stroke-opacity="0.0" clip-path="url(#id_0)" d="M525.0 300.0L506.0 300.0L506.0 267.0C506.0 265.89542 506.89542 265.0 508.0 265.0L523.0 265.0C524.10455 265.0 525.0 265.89542 525.0 267.0Z" fill-rule="nonzero"/><path fill="#ea4335" clip-path="url(#id_0)" d="M525.0 300.0L506.0 300.0L506.0 267.0C506.0 265.89542 506.89542 265.0 508.0 265.0L523.0 265.0C524.10455 265.0 525.0 265.89542 525.0 267.0Z" fill-rule="nonzero"/><path stroke="#000000" stroke-width="2.0" stroke-linecap="butt" stroke-opacity="0.0" clip-path="url(#id_0)" d="M150.0 300.0L131.0 300.0L131.0 296.0C131.0 294.89542 131.89543 294.0 133.0 294.0L148.0 294.0C149.10457 294.0 150.0 294.89542 150.0 296.0Z" fill-rule="nonzero"/><path fill="#fbbc04" clip-path="url(#id_0)" d="M150.0 300.0L131.0 300.0L131.0 296.0C131.0 294.89542 131.89543 294.0 133.0 294.0L148.0 294.0C149.10457 294.0 150.0 294.89542 150.0 296.0Z" fill-rule="nonzero"/><path stroke="#000000" stroke-width="2.0" stroke-linecap="butt" stroke-opacity="0.0" clip-path="url(#id_0)" d="M249.0 300.0L230.0 300.0L230.0 241.0C230.0 239.89543 230.89543 239.0 232.0 239.0L247.0 239.0C248.10457 239.0 249.0 239.89543 249.0 241.0Z" fill-rule="nonzero"/><path fill="#fbbc04" clip-path="url(#id_0)" d="M249.0 300.0L230.0 300.0L230.0 241.0C230.0 239.89543 230.89543 239.0 232.0 239.0L247.0 239.0C248.10457 239.0 249.0 239.89543 249.0 241.0Z" fill-rule="nonzero"/><path stroke="#000000" stroke-width="2.0" stroke-linecap="butt" stroke-opacity="0.0" clip-path="url(#id_0)" d="M348.0 300.0L329.0 300.0L329.0 182.0C329.0 180.89543 329.89542 180.0 331.0 180.0L346.0 180.0C347.10458 180.0 348.0 180.89543 348.0 182.0Z" fill-rule="nonzero"/><path fill="#fbbc04" clip-path="url(#id_0)" d="M348.0 300.0L329.0 300.0L329.0 182.0C329.0 180.89543 329.89542 180.0 331.0 180.0L346.0 180.0C347.10458 180.0 348.0 180.89543 348.0 182.0Z" fill-rule="nonzero"/><path stroke="#000000" stroke-width="2.0" stroke-linecap="butt" stroke-opacity="0.0" clip-path="url(#id_0)" d="M447.0 300.0L428.0 300.0L428.0 93.0C428.0 91.89543 428.89542 91.0 430.0 91.0L445.0 91.0C446.10458 91.0 447.0 91.89543 447.0 93.0Z" fill-rule="nonzero"/><path fill="#fbbc04" clip-path="url(#id_0)" d="M447.0 300.0L428.0 300.0L428.0 93.0C428.0 91.89543 428.89542 91.0 430.0 91.0L445.0 91.0C446.10458 91.0 447.0 91.89543 447.0 93.0Z" fill-rule="nonzero"/><path stroke="#000000" stroke-width="2.0" stroke-linecap="butt" stroke-opacity="0.0" clip-path="url(#id_0)" d="M546.0 300.0L527.0 300.0L527.0 91.0C527.0 89.89543 527.89545 89.0 529.0 89.0L544.0 89.0C545.10455 89.0 546.0 89.89543 546.0 91.0Z" fill-rule="nonzero"/><path fill="#fbbc04" clip-path="url(#id_0)" d="M546.0 300.0L527.0 300.0L527.0 91.0C527.0 89.89543 527.89545 89.0 529.0 89.0L544.0 89.0C545.10455 89.0 546.0 89.89543 546.0 91.0Z" fill-rule="nonzero"/><path fill="#000000" d="M308.10938 349.45L308.10938 341.8719L305.28125 341.8719L305.28125 340.85626L312.09375 340.85626L312.09375 341.8719L309.25 341.8719L309.25 349.45L308.10938 349.45ZM317.04688 347.45L318.14062 347.575Q317.89062 348.52814 317.1875 349.0594Q316.48438 349.59064 315.40625 349.59064Q314.04688 349.59064 313.23438 348.7469Q312.4375 347.90314 312.4375 346.3875Q312.4375 344.825 313.25 343.96564Q314.0625 343.09064 315.34375 343.09064Q316.59375 343.09064 317.375 343.9344Q318.17188 344.77814 318.17188 346.325Q318.17188 346.41876 318.17188 346.60626L313.53125 346.60626Q313.59375 347.6375 314.10938 348.1844Q314.625 348.71564 315.40625 348.71564Q315.98438 348.71564 316.39062 348.41876Q316.8125 348.10626 317.04688 347.45ZM313.59375 345.7469L317.0625 345.7469Q317.0 344.95 316.67188 344.5594Q316.15625 343.95 315.35938 343.95Q314.625 343.95 314.125 344.4344Q313.64062 344.91876 313.59375 345.7469ZM319.375 347.59064L320.40625 347.4344Q320.5 348.0594 320.89062 348.3875Q321.29688 348.71564 322.03125 348.71564Q322.75 348.71564 323.09375 348.4344Q323.45312 348.1375 323.45312 347.73126Q323.45312 347.3719 323.14062 347.16876Q322.92188 347.02814 322.0625 346.8094Q320.90625 346.5125 320.45312 346.3094Q320.01562 346.09064 319.78125 345.71564Q319.54688 345.34064 319.54688 344.8719Q319.54688 344.46564 319.73438 344.10626Q319.92188 343.7469 320.25 343.5125Q320.5 343.34064 320.92188 343.21564Q321.34375 343.09064 321.84375 343.09064Q322.5625 343.09064 323.10938 343.3094Q323.67188 343.5125 323.9375 343.8719Q324.20312 344.23126 324.29688 344.825L323.26562 344.96564Q323.20312 344.4969 322.85938 344.23126Q322.53125 343.95 321.90625 343.95Q321.1875 343.95 320.875 344.2Q320.5625 344.4344 320.5625 344.7625Q320.5625 344.96564 320.6875 345.1219Q320.82812 345.29376 321.09375 345.40314Q321.25 345.46564 322.03125 345.66876Q323.15625 345.98126 323.59375 346.16876Q324.03125 346.35626 324.28125 346.71564Q324.53125 347.075 324.53125 347.6219Q324.53125 348.15314 324.21875 348.6219Q323.92188 349.075 323.34375 349.34064Q322.76562 349.59064 322.03125 349.59064Q320.8125 349.59064 320.17188 349.09064Q319.54688 348.575 319.375 347.59064ZM329.09375 348.5125L329.25 349.4344Q328.79688 349.52814 328.45312 349.52814Q327.875 349.52814 327.5625 349.35626Q327.25 349.16876 327.10938 348.8719Q326.98438 348.575 326.98438 347.6219L326.98438 344.04376L326.21875 344.04376L326.21875 343.23126L326.98438 343.23126L326.98438 341.6844L328.03125 341.0594L328.03125 343.23126L329.09375 343.23126L329.09375 344.04376L328.03125 344.04376L328.03125 347.6844Q328.03125 348.1375 328.07812 348.2625Q328.14062 348.3875 328.26562 348.46564Q328.39062 348.54376 328.625 348.54376Q328.8125 348.54376 329.09375 348.5125Z" fill-rule="nonzero"/><path fill="#000000" d="M40.05 300.21564Q40.05 298.6844 40.3625 297.7625Q40.675 296.825 41.284374 296.325Q41.909374 295.825 42.846874 295.825Q43.534374 295.825 44.05 296.10626Q44.58125 296.3875 44.925 296.91876Q45.26875 297.4344 45.45625 298.1844Q45.64375 298.9344 45.64375 300.21564Q45.64375 301.73126 45.33125 302.65314Q45.034374 303.575 44.409374 304.09064Q43.8 304.59064 42.846874 304.59064Q41.6125 304.59064 40.89375 303.7Q40.05 302.6375 40.05 300.21564ZM41.128124 300.21564Q41.128124 302.325 41.628124 303.02814Q42.128124 303.73126 42.846874 303.73126Q43.58125 303.73126 44.065624 303.02814Q44.565624 302.325 44.565624 300.21564Q44.565624 298.09064 44.065624 297.40314Q43.58125 296.7 42.83125 296.7Q42.1125 296.7 41.675 297.3094Q41.128124 298.09064 41.128124 300.21564Z" fill-rule="nonzero"/><path fill="#000000" d="M23.01875 251.40834L21.971874 251.40834L21.971874 244.68959Q21.58125 245.04897 20.95625 245.42397Q20.346874 245.78334 19.8625 245.95522L19.8625 244.93959Q20.7375 244.51772 21.39375 243.93959Q22.065624 243.34584 22.346874 242.78334L23.01875 242.78334L23.01875 251.40834ZM26.05 247.17397Q26.05 245.64272 26.3625 244.72084Q26.675 243.78334 27.284374 243.28334Q27.909374 242.78334 28.846874 242.78334Q29.534374 242.78334 30.05 243.06459Q30.58125 243.34584 30.925 243.87709Q31.26875 244.39272 31.45625 245.14272Q31.64375 245.89272 31.64375 247.17397Q31.64375 248.68959 31.33125 249.61147Q31.034374 250.53334 30.409374 251.04897Q29.8 251.54897 28.846874 251.54897Q27.6125 251.54897 26.89375 250.65834Q26.05 249.59584 26.05 247.17397ZM27.128124 247.17397Q27.128124 249.28334 27.628124 249.98647Q28.128124 250.68959 28.846874 250.68959Q29.58125 250.68959 30.065624 249.98647Q30.565624 249.28334 30.565624 247.17397Q30.565624 245.04897 30.065624 244.36147Q29.58125 243.65834 28.83125 243.65834Q28.1125 243.65834 27.675 244.26772Q27.128124 245.04897 27.128124 247.17397ZM33.05 247.17397Q33.05 245.64272 33.3625 244.72084Q33.675 243.78334 34.284374 243.28334Q34.909374 242.78334 35.846874 242.78334Q36.534374 242.78334 37.05 243.06459Q37.58125 243.34584 37.925 243.87709Q38.26875 244.39272 38.45625 245.14272Q38.64375 245.89272 38.64375 247.17397Q38.64375 248.68959 38.33125 249.61147Q38.034374 250.53334 37.409374 251.04897Q36.8 251.54897 35.846874 251.54897Q34.6125 251.54897 33.89375 250.65834Q33.05 249.59584 33.05 247.17397ZM34.128124 247.17397Q34.128124 249.28334 34.628124 249.98647Q35.128124 250.68959 35.846874 250.68959Q36.58125 250.68959 37.065624 249.98647Q37.565624 249.28334 37.565624 247.17397Q37.565624 245.04897 37.065624 244.36147Q36.58125 243.65834 35.83125 243.65834Q35.1125 243.65834 34.675 244.26772Q34.128124 245.04897 34.128124 247.17397ZM40.05 247.17397Q40.05 245.64272 40.3625 244.72084Q40.675 243.78334 41.284374 243.28334Q41.909374 242.78334 42.846874 242.78334Q43.534374 242.78334 44.05 243.06459Q44.58125 243.34584 44.925 243.87709Q45.26875 244.39272 45.45625 245.14272Q45.64375 245.89272 45.64375 247.17397Q45.64375 248.68959 45.33125 249.61147Q45.034374 250.53334 44.409374 251.04897Q43.8 251.54897 42.846874 251.54897Q41.6125 251.54897 40.89375 250.65834Q40.05 249.59584 40.05 247.17397ZM41.128124 247.17397Q41.128124 249.28334 41.628124 249.98647Q42.128124 250.68959 42.846874 250.68959Q43.58125 250.68959 44.065624 249.98647Q44.565624 249.28334 44.565624 247.17397Q44.565624 245.04897 44.065624 244.36147Q43.58125 243.65834 42.83125 243.65834Q42.1125 243.65834 41.675 244.26772Q41.128124 245.04897 41.128124 247.17397Z" fill-rule="nonzero"/><path fill="#000000" d="M24.596874 197.35104L24.596874 198.36667L18.909374 198.36667Q18.909374 197.99167 19.034374 197.6323Q19.253124 197.05417 19.721874 196.49167Q20.20625 195.92917 21.1125 195.1948Q22.51875 194.03854 23.003124 193.36667Q23.503124 192.6948 23.503124 192.10104Q23.503124 191.47604 23.05 191.05417Q22.596874 190.61667 21.878124 190.61667Q21.1125 190.61667 20.659374 191.0698Q20.20625 191.52292 20.190624 192.33542L19.1125 192.22604Q19.221874 191.0073 19.940624 190.3823Q20.675 189.74167 21.909374 189.74167Q23.14375 189.74167 23.8625 190.42917Q24.58125 191.11667 24.58125 192.1323Q24.58125 192.64792 24.3625 193.14792Q24.159374 193.6323 23.659374 194.1948Q23.175 194.74167 22.05 195.6948Q21.096874 196.49167 20.815624 196.78854Q20.55 197.0698 20.378124 197.35104L24.596874 197.35104ZM26.05 194.1323Q26.05 192.60104 26.3625 191.67917Q26.675 190.74167 27.284374 190.24167Q27.909374 189.74167 28.846874 189.74167Q29.534374 189.74167 30.05 190.02292Q30.58125 190.30417 30.925 190.83542Q31.26875 191.35104 31.45625 192.10104Q31.64375 192.85104 31.64375 194.1323Q31.64375 195.64792 31.33125 196.5698Q31.034374 197.49167 30.409374 198.0073Q29.8 198.5073 28.846874 198.5073Q27.6125 198.5073 26.89375 197.61667Q26.05 196.55417 26.05 194.1323ZM27.128124 194.1323Q27.128124 196.24167 27.628124 196.9448Q28.128124 197.64792 28.846874 197.64792Q29.58125 197.64792 30.065624 196.9448Q30.565624 196.24167 30.565624 194.1323Q30.565624 192.0073 30.065624 191.3198Q29.58125 190.61667 28.83125 190.61667Q28.1125 190.61667 27.675 191.22604Q27.128124 192.0073 27.128124 194.1323ZM33.05 194.1323Q33.05 192.60104 33.3625 191.67917Q33.675 190.74167 34.284374 190.24167Q34.909374 189.74167 35.846874 189.74167Q36.534374 189.74167 37.05 190.02292Q37.58125 190.30417 37.925 190.83542Q38.26875 191.35104 38.45625 192.10104Q38.64375 192.85104 38.64375 194.1323Q38.64375 195.64792 38.33125 196.5698Q38.034374 197.49167 37.409374 198.0073Q36.8 198.5073 35.846874 198.5073Q34.6125 198.5073 33.89375 197.61667Q33.05 196.55417 33.05 194.1323ZM34.128124 194.1323Q34.128124 196.24167 34.628124 196.9448Q35.128124 197.64792 35.846874 197.64792Q36.58125 197.64792 37.065624 196.9448Q37.565624 196.24167 37.565624 194.1323Q37.565624 192.0073 37.065624 191.3198Q36.58125 190.61667 35.83125 190.61667Q35.1125 190.61667 34.675 191.22604Q34.128124 192.0073 34.128124 194.1323ZM40.05 194.1323Q40.05 192.60104 40.3625 191.67917Q40.675 190.74167 41.284374 190.24167Q41.909374 189.74167 42.846874 189.74167Q43.534374 189.74167 44.05 190.02292Q44.58125 190.30417 44.925 190.83542Q45.26875 191.35104 45.45625 192.10104Q45.64375 192.85104 45.64375 194.1323Q45.64375 195.64792 45.33125 196.5698Q45.034374 197.49167 44.409374 198.0073Q43.8 198.5073 42.846874 198.5073Q41.6125 198.5073 40.89375 197.61667Q40.05 196.55417 40.05 194.1323ZM41.128124 194.1323Q41.128124 196.24167 41.628124 196.9448Q42.128124 197.64792 42.846874 197.64792Q43.58125 197.64792 44.065624 196.9448Q44.565624 196.24167 44.565624 194.1323Q44.565624 192.0073 44.065624 191.3198Q43.58125 190.61667 42.83125 190.61667Q42.1125 190.61667 41.675 191.22604Q41.128124 192.0073 41.128124 194.1323Z" fill-rule="nonzero"/><path fill="#000000" d="M19.05 143.05937L20.1125 142.91875Q20.284374 143.80937 20.721874 144.21562Q21.159374 144.60625 21.784374 144.60625Q22.534374 144.60625 23.05 144.09062Q23.565624 143.575 23.565624 142.80937Q23.565624 142.09062 23.08125 141.62187Q22.6125 141.1375 21.878124 141.1375Q21.58125 141.1375 21.128124 141.2625L21.253124 140.325Q21.3625 140.34062 21.425 140.34062Q22.096874 140.34062 22.628124 139.99687Q23.175 139.6375 23.175 138.90312Q23.175 138.325 22.784374 137.95Q22.39375 137.55937 21.76875 137.55937Q21.159374 137.55937 20.7375 137.95Q20.33125 138.34062 20.221874 139.10625L19.159374 138.91875Q19.346874 137.87187 20.034374 137.29375Q20.721874 136.7 21.7375 136.7Q22.440624 136.7 23.034374 137.0125Q23.628124 137.30937 23.940624 137.825Q24.253124 138.34062 24.253124 138.93437Q24.253124 139.48125 23.95625 139.95Q23.659374 140.40312 23.08125 140.66875Q23.83125 140.84062 24.253124 141.40312Q24.675 141.95 24.675 142.79375Q24.675 143.91875 23.846874 144.7Q23.034374 145.48125 21.784374 145.48125Q20.659374 145.48125 19.909374 144.80937Q19.159374 144.12187 19.05 143.05937ZM26.05 141.09062Q26.05 139.55937 26.3625 138.6375Q26.675 137.7 27.284374 137.2Q27.909374 136.7 28.846874 136.7Q29.534374 136.7 30.05 136.98125Q30.58125 137.2625 30.925 137.79375Q31.26875 138.30937 31.45625 139.05937Q31.64375 139.80937 31.64375 141.09062Q31.64375 142.60625 31.33125 143.52812Q31.034374 144.45 30.409374 144.96562Q29.8 145.46562 28.846874 145.46562Q27.6125 145.46562 26.89375 144.575Q26.05 143.5125 26.05 141.09062ZM27.128124 141.09062Q27.128124 143.2 27.628124 143.90312Q28.128124 144.60625 28.846874 144.60625Q29.58125 144.60625 30.065624 143.90312Q30.565624 143.2 30.565624 141.09062Q30.565624 138.96562 30.065624 138.27812Q29.58125 137.575 28.83125 137.575Q28.1125 137.575 27.675 138.18437Q27.128124 138.96562 27.128124 141.09062ZM33.05 141.09062Q33.05 139.55937 33.3625 138.6375Q33.675 137.7 34.284374 137.2Q34.909374 136.7 35.846874 136.7Q36.534374 136.7 37.05 136.98125Q37.58125 137.2625 37.925 137.79375Q38.26875 138.30937 38.45625 139.05937Q38.64375 139.80937 38.64375 141.09062Q38.64375 142.60625 38.33125 143.52812Q38.034374 144.45 37.409374 144.96562Q36.8 145.46562 35.846874 145.46562Q34.6125 145.46562 33.89375 144.575Q33.05 143.5125 33.05 141.09062ZM34.128124 141.09062Q34.128124 143.2 34.628124 143.90312Q35.128124 144.60625 35.846874 144.60625Q36.58125 144.60625 37.065624 143.90312Q37.565624 143.2 37.565624 141.09062Q37.565624 138.96562 37.065624 138.27812Q36.58125 137.575 35.83125 137.575Q35.1125 137.575 34.675 138.18437Q34.128124 138.96562 34.128124 141.09062ZM40.05 141.09062Q40.05 139.55937 40.3625 138.6375Q40.675 137.7 41.284374 137.2Q41.909374 136.7 42.846874 136.7Q43.534374 136.7 44.05 136.98125Q44.58125 137.2625 44.925 137.79375Q45.26875 138.30937 45.45625 139.05937Q45.64375 139.80937 45.64375 141.09062Q45.64375 142.60625 45.33125 143.52812Q45.034374 144.45 44.409374 144.96562Q43.8 145.46562 42.846874 145.46562Q41.6125 145.46562 40.89375 144.575Q40.05 143.5125 40.05 141.09062ZM41.128124 141.09062Q41.128124 143.2 41.628124 143.90312Q42.128124 144.60625 42.846874 144.60625Q43.58125 144.60625 44.065624 143.90312Q44.565624 143.2 44.565624 141.09062Q44.565624 138.96562 44.065624 138.27812Q43.58125 137.575 42.83125 137.575Q42.1125 137.575 41.675 138.18437Q41.128124 138.96562 41.128124 141.09062Z" fill-rule="nonzero"/><path fill="#000000" d="M22.425 92.28333L22.425 90.22083L18.70625 90.22083L18.70625 89.25208L22.628124 83.68958L23.4875 83.68958L23.4875 89.25208L24.64375 89.25208L24.64375 90.22083L23.4875 90.22083L23.4875 92.28333L22.425 92.28333ZM22.425 89.25208L22.425 85.39271L19.7375 89.25208L22.425 89.25208ZM26.05 88.04896Q26.05 86.51771 26.3625 85.59583Q26.675 84.65833 27.284374 84.15833Q27.909374 83.65833 28.846874 83.65833Q29.534374 83.65833 30.05 83.93958Q30.58125 84.22083 30.925 84.75208Q31.26875 85.26771 31.45625 86.01771Q31.64375 86.76771 31.64375 88.04896Q31.64375 89.56458 31.33125 90.48646Q31.034374 91.40833 30.409374 91.92396Q29.8 92.42396 28.846874 92.42396Q27.6125 92.42396 26.89375 91.53333Q26.05 90.47083 26.05 88.04896ZM27.128124 88.04896Q27.128124 90.15833 27.628124 90.86146Q28.128124 91.56458 28.846874 91.56458Q29.58125 91.56458 30.065624 90.86146Q30.565624 90.15833 30.565624 88.04896Q30.565624 85.92396 30.065624 85.23646Q29.58125 84.53333 28.83125 84.53333Q28.1125 84.53333 27.675 85.14271Q27.128124 85.92396 27.128124 88.04896ZM33.05 88.04896Q33.05 86.51771 33.3625 85.59583Q33.675 84.65833 34.284374 84.15833Q34.909374 83.65833 35.846874 83.65833Q36.534374 83.65833 37.05 83.93958Q37.58125 84.22083 37.925 84.75208Q38.26875 85.26771 38.45625 86.01771Q38.64375 86.76771 38.64375 88.04896Q38.64375 89.56458 38.33125 90.48646Q38.034374 91.40833 37.409374 91.92396Q36.8 92.42396 35.846874 92.42396Q34.6125 92.42396 33.89375 91.53333Q33.05 90.47083 33.05 88.04896ZM34.128124 88.04896Q34.128124 90.15833 34.628124 90.86146Q35.128124 91.56458 35.846874 91.56458Q36.58125 91.56458 37.065624 90.86146Q37.565624 90.15833 37.565624 88.04896Q37.565624 85.92396 37.065624 85.23646Q36.58125 84.53333 35.83125 84.53333Q35.1125 84.53333 34.675 85.14271Q34.128124 85.92396 34.128124 88.04896ZM40.05 88.04896Q40.05 86.51771 40.3625 85.59583Q40.675 84.65833 41.284374 84.15833Q41.909374 83.65833 42.846874 83.65833Q43.534374 83.65833 44.05 83.93958Q44.58125 84.22083 44.925 84.75208Q45.26875 85.26771 45.45625 86.01771Q45.64375 86.76771 45.64375 88.04896Q45.64375 89.56458 45.33125 90.48646Q45.034374 91.40833 44.409374 91.92396Q43.8 92.42396 42.846874 92.42396Q41.6125 92.42396 40.89375 91.53333Q40.05 90.47083 40.05 88.04896ZM41.128124 88.04896Q41.128124 90.15833 41.628124 90.86146Q42.128124 91.56458 42.846874 91.56458Q43.58125 91.56458 44.065624 90.86146Q44.565624 90.15833 44.565624 88.04896Q44.565624 85.92396 44.065624 85.23646Q43.58125 84.53333 42.83125 84.53333Q42.1125 84.53333 41.675 85.14271Q41.128124 85.92396 41.128124 88.04896Z" fill-rule="nonzero"/><path fill="#000000" d="M105.38975 317.45L105.38975 309.8719L102.56162 309.8719L102.56162 308.85626L109.37412 308.85626L109.37412 309.8719L106.53037 309.8719L106.53037 317.45L105.38975 317.45ZM114.32725 315.45L115.421 315.575Q115.171 316.52814 114.46787 317.0594Q113.76475 317.59064 112.68662 317.59064Q111.32725 317.59064 110.51475 316.7469Q109.71787 315.90314 109.71787 314.3875Q109.71787 312.825 110.53037 311.96564Q111.34287 311.09064 112.62412 311.09064Q113.87412 311.09064 114.65537 311.9344Q115.45225 312.77814 115.45225 314.325Q115.45225 314.41876 115.45225 314.60626L110.81162 314.60626Q110.87412 315.6375 111.38975 316.1844Q111.90537 316.71564 112.68662 316.71564Q113.26475 316.71564 113.671 316.41876Q114.09287 316.10626 114.32725 315.45ZM110.87412 313.7469L114.34287 313.7469Q114.28037 312.95 113.95225 312.5594Q113.43662 311.95 112.63975 311.95Q111.90537 311.95 111.40537 312.4344Q110.921 312.91876 110.87412 313.7469ZM116.65537 315.59064L117.68662 315.4344Q117.78037 316.0594 118.171 316.3875Q118.57725 316.71564 119.31162 316.71564Q120.03037 316.71564 120.37412 316.4344Q120.7335 316.1375 120.7335 315.73126Q120.7335 315.3719 120.421 315.16876Q120.20225 315.02814 119.34287 314.8094Q118.18662 314.5125 117.7335 314.3094Q117.296 314.09064 117.06162 313.71564Q116.82725 313.34064 116.82725 312.8719Q116.82725 312.46564 117.01475 312.10626Q117.20225 311.7469 117.53037 311.5125Q117.78037 311.34064 118.20225 311.21564Q118.62412 311.09064 119.12412 311.09064Q119.84287 311.09064 120.38975 311.3094Q120.95225 311.5125 121.21787 311.8719Q121.4835 312.23126 121.57725 312.825L120.546 312.96564Q120.4835 312.4969 120.13975 312.23126Q119.81162 311.95 119.18662 311.95Q118.46787 311.95 118.15537 312.2Q117.84287 312.4344 117.84287 312.7625Q117.84287 312.96564 117.96787 313.1219Q118.1085 313.29376 118.37412 313.40314Q118.53037 313.46564 119.31162 313.66876Q120.43662 313.98126 120.87412 314.16876Q121.31162 314.35626 121.56162 314.71564Q121.81162 315.075 121.81162 315.6219Q121.81162 316.15314 121.49912 316.6219Q121.20225 317.075 120.62412 317.34064Q120.046 317.59064 119.31162 317.59064Q118.09287 317.59064 117.45225 317.09064Q116.82725 316.575 116.65537 315.59064ZM126.37412 316.5125L126.53037 317.4344Q126.07725 317.52814 125.7335 317.52814Q125.15537 317.52814 124.84287 317.35626Q124.53037 317.16876 124.38975 316.8719Q124.26475 316.575 124.26475 315.6219L124.26475 312.04376L123.49912 312.04376L123.49912 311.23126L124.26475 311.23126L124.26475 309.6844L125.31162 309.0594L125.31162 311.23126L126.37412 311.23126L126.37412 312.04376L125.31162 312.04376L125.31162 315.6844Q125.31162 316.1375 125.3585 316.2625Q125.421 316.3875 125.546 316.46564Q125.671 316.54376 125.90537 316.54376Q126.09287 316.54376 126.37412 316.5125ZM129.26474 317.45L132.56161 308.85626L133.78036 308.85626L137.29599 317.45L136.01474 317.45L134.99911 314.84064L131.42099 314.84064L130.46786 317.45L129.26474 317.45ZM131.74911 313.91876L134.65536 313.91876L133.76474 311.54376Q133.34286 310.46564 133.15536 309.7625Q132.98349 310.59064 132.68661 311.40314L131.74911 313.91876Z" fill-rule="nonzero"/><path fill="#000000" d="M203.74956 317.45L203.74956 309.8719L200.92143 309.8719L200.92143 308.85626L207.73393 308.85626L207.73393 309.8719L204.89018 309.8719L204.89018 317.45L203.74956 317.45ZM212.68706 315.45L213.7808 315.575Q213.5308 316.52814 212.82768 317.0594Q212.12456 317.59064 211.04643 317.59064Q209.68706 317.59064 208.87456 316.7469Q208.07768 315.90314 208.07768 314.3875Q208.07768 312.825 208.89018 311.96564Q209.70268 311.09064 210.98393 311.09064Q212.23393 311.09064 213.01518 311.9344Q213.81206 312.77814 213.81206 314.325Q213.81206 314.41876 213.81206 314.60626L209.17143 314.60626Q209.23393 315.6375 209.74956 316.1844Q210.26518 316.71564 211.04643 316.71564Q211.62456 316.71564 212.0308 316.41876Q212.45268 316.10626 212.68706 315.45ZM209.23393 313.7469L212.70268 313.7469Q212.64018 312.95 212.31206 312.5594Q211.79643 311.95 210.99956 311.95Q210.26518 311.95 209.76518 312.4344Q209.2808 312.91876 209.23393 313.7469ZM215.01518 315.59064L216.04643 315.4344Q216.14018 316.0594 216.5308 316.3875Q216.93706 316.71564 217.67143 316.71564Q218.39018 316.71564 218.73393 316.4344Q219.0933 316.1375 219.0933 315.73126Q219.0933 315.3719 218.7808 315.16876Q218.56206 315.02814 217.70268 314.8094Q216.54643 314.5125 216.0933 314.3094Q215.6558 314.09064 215.42143 313.71564Q215.18706 313.34064 215.18706 312.8719Q215.18706 312.46564 215.37456 312.10626Q215.56206 311.7469 215.89018 311.5125Q216.14018 311.34064 216.56206 311.21564Q216.98393 311.09064 217.48393 311.09064Q218.20268 311.09064 218.74956 311.3094Q219.31206 311.5125 219.57768 311.8719Q219.8433 312.23126 219.93706 312.825L218.9058 312.96564Q218.8433 312.4969 218.49956 312.23126Q218.17143 311.95 217.54643 311.95Q216.82768 311.95 216.51518 312.2Q216.20268 312.4344 216.20268 312.7625Q216.20268 312.96564 216.32768 313.1219Q216.4683 313.29376 216.73393 313.40314Q216.89018 313.46564 217.67143 313.66876Q218.79643 313.98126 219.23393 314.16876Q219.67143 314.35626 219.92143 314.71564Q220.17143 315.075 220.17143 315.6219Q220.17143 316.15314 219.85893 316.6219Q219.56206 317.075 218.98393 317.34064Q218.4058 317.59064 217.67143 317.59064Q216.45268 317.59064 215.81206 317.09064Q215.18706 316.575 215.01518 315.59064ZM224.73393 316.5125L224.89018 317.4344Q224.43706 317.52814 224.0933 317.52814Q223.51518 317.52814 223.20268 317.35626Q222.89018 317.16876 222.74956 316.8719Q222.62456 316.575 222.62456 315.6219L222.62456 312.04376L221.85893 312.04376L221.85893 311.23126L222.62456 311.23126L222.62456 309.6844L223.67143 309.0594L223.67143 311.23126L224.73393 311.23126L224.73393 312.04376L223.67143 312.04376L223.67143 315.6844Q223.67143 316.1375 223.7183 316.2625Q223.7808 316.3875 223.9058 316.46564Q224.0308 316.54376 224.26518 316.54376Q224.45268 316.54376 224.73393 316.5125ZM228.51518 317.45L228.51518 308.85626L231.74956 308.85626Q232.73393 308.85626 233.32768 309.1219Q233.92143 309.3875 234.24956 309.9344Q234.5933 310.46564 234.5933 311.0594Q234.5933 311.60626 234.29643 312.09064Q233.99956 312.575 233.39018 312.8719Q234.17143 313.10626 234.57768 313.66876Q234.99956 314.21564 234.99956 314.96564Q234.99956 315.5594 234.74956 316.09064Q234.49956 316.60626 234.12456 316.8875Q233.74956 317.16876 233.17143 317.3094Q232.60893 317.45 231.79643 317.45L228.51518 317.45ZM229.6558 312.46564L231.51518 312.46564Q232.26518 312.46564 232.5933 312.3719Q233.0308 312.2469 233.24956 311.95Q233.4683 311.6375 233.4683 311.1844Q233.4683 310.7625 233.26518 310.4344Q233.06206 310.10626 232.67143 309.9969Q232.29643 309.8719 231.37456 309.8719L229.6558 309.8719L229.6558 312.46564ZM229.6558 316.4344L231.79643 316.4344Q232.3433 316.4344 232.56206 316.3875Q232.9683 316.325 233.2183 316.16876Q233.48393 315.9969 233.6558 315.6844Q233.82768 315.3719 233.82768 314.96564Q233.82768 314.48126 233.57768 314.1219Q233.3433 313.7625 232.9058 313.6219Q232.4683 313.48126 231.64018 313.48126L229.6558 313.48126L229.6558 316.4344Z" fill-rule="nonzero"/><path fill="#000000" d="M302.10938 317.45L302.10938 309.8719L299.28125 309.8719L299.28125 308.85626L306.09375 308.85626L306.09375 309.8719L303.25 309.8719L303.25 317.45L302.10938 317.45ZM311.04688 315.45L312.14062 315.575Q311.89062 316.52814 311.1875 317.0594Q310.48438 317.59064 309.40625 317.59064Q308.04688 317.59064 307.23438 316.7469Q306.4375 315.90314 306.4375 314.3875Q306.4375 312.825 307.25 311.96564Q308.0625 311.09064 309.34375 311.09064Q310.59375 311.09064 311.375 311.9344Q312.17188 312.77814 312.17188 314.325Q312.17188 314.41876 312.17188 314.60626L307.53125 314.60626Q307.59375 315.6375 308.10938 316.1844Q308.625 316.71564 309.40625 316.71564Q309.98438 316.71564 310.39062 316.41876Q310.8125 316.10626 311.04688 315.45ZM307.59375 313.7469L311.0625 313.7469Q311.0 312.95 310.67188 312.5594Q310.15625 311.95 309.35938 311.95Q308.625 311.95 308.125 312.4344Q307.64062 312.91876 307.59375 313.7469ZM313.375 315.59064L314.40625 315.4344Q314.5 316.0594 314.89062 316.3875Q315.29688 316.71564 316.03125 316.71564Q316.75 316.71564 317.09375 316.4344Q317.45312 316.1375 317.45312 315.73126Q317.45312 315.3719 317.14062 315.16876Q316.92188 315.02814 316.0625 314.8094Q314.90625 314.5125 314.45312 314.3094Q314.01562 314.09064 313.78125 313.71564Q313.54688 313.34064 313.54688 312.8719Q313.54688 312.46564 313.73438 312.10626Q313.92188 311.7469 314.25 311.5125Q314.5 311.34064 314.92188 311.21564Q315.34375 311.09064 315.84375 311.09064Q316.5625 311.09064 317.10938 311.3094Q317.67188 311.5125 317.9375 311.8719Q318.20312 312.23126 318.29688 312.825L317.26562 312.96564Q317.20312 312.4969 316.85938 312.23126Q316.53125 311.95 315.90625 311.95Q315.1875 311.95 314.875 312.2Q314.5625 312.4344 314.5625 312.7625Q314.5625 312.96564 314.6875 313.1219Q314.82812 313.29376 315.09375 313.40314Q315.25 313.46564 316.03125 313.66876Q317.15625 313.98126 317.59375 314.16876Q318.03125 314.35626 318.28125 314.71564Q318.53125 315.075 318.53125 315.6219Q318.53125 316.15314 318.21875 316.6219Q317.92188 317.075 317.34375 317.34064Q316.76562 317.59064 316.03125 317.59064Q314.8125 317.59064 314.17188 317.09064Q313.54688 316.575 313.375 315.59064ZM323.09375 316.5125L323.25 317.4344Q322.79688 317.52814 322.45312 317.52814Q321.875 317.52814 321.5625 317.35626Q321.25 317.16876 321.10938 316.8719Q320.98438 316.575 320.98438 315.6219L320.98438 312.04376L320.21875 312.04376L320.21875 311.23126L320.98438 311.23126L320.98438 309.6844L322.03125 309.0594L322.03125 311.23126L323.09375 311.23126L323.09375 312.04376L322.03125 312.04376L322.03125 315.6844Q322.03125 316.1375 322.07812 316.2625Q322.14062 316.3875 322.26562 316.46564Q322.39062 316.54376 322.625 316.54376Q322.8125 316.54376 323.09375 316.5125ZM333.0625 314.4344L334.1875 314.73126Q333.82812 316.1219 332.90625 316.85626Q331.98438 317.59064 330.64062 317.59064Q329.25 317.59064 328.375 317.02814Q327.5 316.46564 327.04688 315.40314Q326.59375 314.325 326.59375 313.09064Q326.59375 311.7469 327.10938 310.7469Q327.625 309.7469 328.5625 309.23126Q329.51562 308.71564 330.65625 308.71564Q331.9375 308.71564 332.8125 309.3719Q333.70312 310.02814 334.04688 311.21564L332.92188 311.48126Q332.625 310.54376 332.04688 310.1219Q331.48438 309.6844 330.625 309.6844Q329.64062 309.6844 328.96875 310.16876Q328.3125 310.6375 328.03125 311.4344Q327.76562 312.23126 327.76562 313.09064Q327.76562 314.1844 328.07812 314.9969Q328.40625 315.8094 329.07812 316.21564Q329.75 316.6219 330.54688 316.6219Q331.5 316.6219 332.15625 316.075Q332.82812 315.52814 333.0625 314.4344Z" fill-rule="nonzero"/><path fill="#000000" d="M400.96918 317.45L400.96918 309.8719L398.14105 309.8719L398.14105 308.85626L404.95355 308.85626L404.95355 309.8719L402.1098 309.8719L402.1098 317.45L400.96918 317.45ZM409.90668 315.45L411.00043 315.575Q410.75043 316.52814 410.0473 317.0594Q409.34418 317.59064 408.26605 317.59064Q406.90668 317.59064 406.09418 316.7469Q405.2973 315.90314 405.2973 314.3875Q405.2973 312.825 406.1098 311.96564Q406.9223 311.09064 408.20355 311.09064Q409.45355 311.09064 410.2348 311.9344Q411.03168 312.77814 411.03168 314.325Q411.03168 314.41876 411.03168 314.60626L406.39105 314.60626Q406.45355 315.6375 406.96918 316.1844Q407.4848 316.71564 408.26605 316.71564Q408.84418 316.71564 409.25043 316.41876Q409.6723 316.10626 409.90668 315.45ZM406.45355 313.7469L409.9223 313.7469Q409.8598 312.95 409.53168 312.5594Q409.01605 311.95 408.21918 311.95Q407.4848 311.95 406.9848 312.4344Q406.50043 312.91876 406.45355 313.7469ZM412.2348 315.59064L413.26605 315.4344Q413.3598 316.0594 413.75043 316.3875Q414.15668 316.71564 414.89105 316.71564Q415.6098 316.71564 415.95355 316.4344Q416.31293 316.1375 416.31293 315.73126Q416.31293 315.3719 416.00043 315.16876Q415.78168 315.02814 414.9223 314.8094Q413.76605 314.5125 413.31293 314.3094Q412.87543 314.09064 412.64105 313.71564Q412.40668 313.34064 412.40668 312.8719Q412.40668 312.46564 412.59418 312.10626Q412.78168 311.7469 413.1098 311.5125Q413.3598 311.34064 413.78168 311.21564Q414.20355 311.09064 414.70355 311.09064Q415.4223 311.09064 415.96918 311.3094Q416.53168 311.5125 416.7973 311.8719Q417.06293 312.23126 417.15668 312.825L416.12543 312.96564Q416.06293 312.4969 415.71918 312.23126Q415.39105 311.95 414.76605 311.95Q414.0473 311.95 413.7348 312.2Q413.4223 312.4344 413.4223 312.7625Q413.4223 312.96564 413.5473 313.1219Q413.68793 313.29376 413.95355 313.40314Q414.1098 313.46564 414.89105 313.66876Q416.01605 313.98126 416.45355 314.16876Q416.89105 314.35626 417.14105 314.71564Q417.39105 315.075 417.39105 315.6219Q417.39105 316.15314 417.07855 316.6219Q416.78168 317.075 416.20355 317.34064Q415.62543 317.59064 414.89105 317.59064Q413.6723 317.59064 413.03168 317.09064Q412.40668 316.575 412.2348 315.59064ZM421.95355 316.5125L422.1098 317.4344Q421.65668 317.52814 421.31293 317.52814Q420.7348 317.52814 420.4223 317.35626Q420.1098 317.16876 419.96918 316.8719Q419.84418 316.575 419.84418 315.6219L419.84418 312.04376L419.07855 312.04376L419.07855 311.23126L419.84418 311.23126L419.84418 309.6844L420.89105 309.0594L420.89105 311.23126L421.95355 311.23126L421.95355 312.04376L420.89105 312.04376L420.89105 315.6844Q420.89105 316.1375 420.93793 316.2625Q421.00043 316.3875 421.12543 316.46564Q421.25043 316.54376 421.4848 316.54376Q421.6723 316.54376 421.95355 316.5125ZM425.78168 317.45L425.78168 308.85626L428.75043 308.85626Q429.75043 308.85626 430.28168 308.98126Q431.01605 309.15314 431.53168 309.59064Q432.21918 310.16876 432.5473 311.075Q432.89105 311.96564 432.89105 313.10626Q432.89105 314.09064 432.65668 314.84064Q432.43793 315.59064 432.07855 316.09064Q431.71918 316.59064 431.28168 316.8719Q430.8598 317.15314 430.26605 317.3094Q429.6723 317.45 428.89105 317.45L425.78168 317.45ZM426.9223 316.4344L428.75043 316.4344Q429.6098 316.4344 430.09418 316.27814Q430.57855 316.1219 430.8598 315.825Q431.26605 315.4344 431.4848 314.7469Q431.71918 314.0594 431.71918 313.09064Q431.71918 311.7469 431.26605 311.02814Q430.82855 310.29376 430.20355 310.04376Q429.7348 309.8719 428.7348 309.8719L426.9223 309.8719L426.9223 316.4344Z" fill-rule="nonzero"/><path fill="#000000" d="M500.329 317.45L500.329 309.8719L497.5009 309.8719L497.5009 308.85626L504.3134 308.85626L504.3134 309.8719L501.46964 309.8719L501.46964 317.45L500.329 317.45ZM509.2665 315.45L510.36026 315.575Q510.11026 316.52814 509.40714 317.0594Q508.704 317.59064 507.6259 317.59064Q506.2665 317.59064 505.454 316.7469Q504.65714 315.90314 504.65714 314.3875Q504.65714 312.825 505.46964 311.96564Q506.28214 311.09064 507.5634 311.09064Q508.8134 311.09064 509.59464 311.9344Q510.3915 312.77814 510.3915 314.325Q510.3915 314.41876 510.3915 314.60626L505.7509 314.60626Q505.8134 315.6375 506.329 316.1844Q506.84464 316.71564 507.6259 316.71564Q508.204 316.71564 508.61026 316.41876Q509.03214 316.10626 509.2665 315.45ZM505.8134 313.7469L509.28214 313.7469Q509.21964 312.95 508.8915 312.5594Q508.3759 311.95 507.579 311.95Q506.84464 311.95 506.34464 312.4344Q505.86026 312.91876 505.8134 313.7469ZM511.59464 315.59064L512.62585 315.4344Q512.7196 316.0594 513.1102 316.3875Q513.5165 316.71564 514.25085 316.71564Q514.9696 316.71564 515.31335 316.4344Q515.6727 316.1375 515.6727 315.73126Q515.6727 315.3719 515.3602 315.16876Q515.1415 315.02814 514.2821 314.8094Q513.12585 314.5125 512.6727 314.3094Q512.2352 314.09064 512.00085 313.71564Q511.7665 313.34064 511.7665 312.8719Q511.7665 312.46564 511.954 312.10626Q512.1415 311.7469 512.4696 311.5125Q512.7196 311.34064 513.1415 311.21564Q513.56335 311.09064 514.06335 311.09064Q514.7821 311.09064 515.329 311.3094Q515.8915 311.5125 516.1571 311.8719Q516.4227 312.23126 516.5165 312.825L515.4852 312.96564Q515.4227 312.4969 515.079 312.23126Q514.75085 311.95 514.12585 311.95Q513.4071 311.95 513.0946 312.2Q512.7821 312.4344 512.7821 312.7625Q512.7821 312.96564 512.9071 313.1219Q513.0477 313.29376 513.31335 313.40314Q513.4696 313.46564 514.25085 313.66876Q515.37585 313.98126 515.81335 314.16876Q516.25085 314.35626 516.50085 314.71564Q516.75085 315.075 516.75085 315.6219Q516.75085 316.15314 516.43835 316.6219Q516.1415 317.075 515.56335 317.34064Q514.9852 317.59064 514.25085 317.59064Q513.0321 317.59064 512.3915 317.09064Q511.7665 316.575 511.59464 315.59064ZM521.31335 316.5125L521.4696 317.4344Q521.0165 317.52814 520.6727 317.52814Q520.0946 317.52814 519.7821 317.35626Q519.4696 317.16876 519.329 316.8719Q519.204 316.575 519.204 315.6219L519.204 312.04376L518.43835 312.04376L518.43835 311.23126L519.204 311.23126L519.204 309.6844L520.25085 309.0594L520.25085 311.23126L521.31335 311.23126L521.31335 312.04376L520.25085 312.04376L520.25085 315.6844Q520.25085 316.1375 520.2977 316.2625Q520.3602 316.3875 520.4852 316.46564Q520.6102 316.54376 520.8446 316.54376Q521.0321 316.54376 521.31335 316.5125ZM525.1727 317.45L525.1727 308.85626L531.37585 308.85626L531.37585 309.8719L526.31335 309.8719L526.31335 312.4969L531.06335 312.4969L531.06335 313.5125L526.31335 313.5125L526.31335 316.4344L531.579 316.4344L531.579 317.45L525.1727 317.45Z" fill-rule="nonzero"/><path fill="#4285f4" d="M63.0 56.916668C63.0 56.364384 63.447716 55.916668 64.0 55.916668L74.0 55.916668C74.552284 55.916668 75.0 56.364384 75.0 56.916668L75.0 66.916664C75.0 67.46895 74.552284 67.916664 74.0 67.916664L64.0 67.916664C63.447716 67.916664 63.0 67.46895 63.0 66.916664Z" fill-rule="nonzero"/><path fill="#1a1a1a" d="M82.984375 65.916664L86.28125 57.322914L87.5 57.322914L91.015625 65.916664L89.734375 65.916664L88.71875 63.30729L85.140625 63.30729L84.1875 65.916664L82.984375 65.916664ZM85.46875 62.385414L88.375 62.385414L87.484375 60.010414Q87.0625 58.93229 86.875 58.229164Q86.703125 59.05729 86.40625 59.86979L85.46875 62.385414ZM92.515625 65.916664L90.15625 59.697914L91.265625 59.697914L92.609375 63.416664Q92.8125 64.02604 93.0 64.666664Q93.140625 64.18229 93.390625 63.49479L94.78125 59.697914L95.859375 59.697914L93.5 65.916664L92.515625 65.916664ZM95.59375 66.43229L96.625 66.58854Q96.6875 67.05729 96.984375 67.27604Q97.375 67.572914 98.046875 67.572914Q98.78125 67.572914 99.171875 67.27604Q99.578125 66.979164 99.71875 66.46354Q99.8125 66.135414 99.796875 65.104164Q99.109375 65.916664 98.078125 65.916664Q96.796875 65.916664 96.09375 64.99479Q95.390625 64.05729 95.390625 62.77604Q95.390625 61.885414 95.703125 61.135414Q96.03125 60.36979 96.640625 59.96354Q97.25 59.55729 98.078125 59.55729Q99.1875 59.55729 99.90625 60.447914L99.90625 59.697914L100.875 59.697914L100.875 65.072914Q100.875 66.52604 100.578125 67.135414Q100.28125 67.74479 99.640625 68.08854Q99.0 68.447914 98.0625 68.447914Q96.953125 68.447914 96.265625 67.947914Q95.578125 67.447914 95.59375 66.43229ZM96.46875 62.697914Q96.46875 63.916664 96.953125 64.479164Q97.4375 65.041664 98.171875 65.041664Q98.90625 65.041664 99.390625 64.479164Q99.890625 63.916664 99.890625 62.729164Q99.890625 61.58854 99.375 61.010414Q98.875 60.43229 98.15625 60.43229Q97.453125 60.43229 96.953125 61.010414Q96.46875 61.572914 96.46875 62.697914ZM103.09375 65.916664L103.09375 64.71354L104.296875 64.71354L104.296875 65.916664L103.09375 65.916664ZM108.78125 65.916664L108.78125 59.697914L109.734375 59.697914L109.734375 60.635414Q110.09375 59.979164 110.390625 59.77604Q110.703125 59.55729 111.078125 59.55729Q111.609375 59.55729 112.15625 59.885414L111.796875 60.86979Q111.40625 60.635414 111.03125 60.635414Q110.671875 60.635414 110.390625 60.854164Q110.125 61.05729 110.015625 61.43229Q109.828125 61.99479 109.828125 62.65104L109.828125 65.916664L108.78125 65.916664ZM117.046875 63.916664L118.140625 64.041664Q117.890625 64.99479 117.1875 65.52604Q116.484375 66.05729 115.40625 66.05729Q114.046875 66.05729 113.234375 65.21354Q112.4375 64.36979 112.4375 62.854164Q112.4375 61.291664 113.25 60.43229Q114.0625 59.55729 115.34375 59.55729Q116.59375 59.55729 117.375 60.40104Q118.171875 61.24479 118.171875 62.791664Q118.171875 62.885414 118.171875 63.072914L113.53125 63.072914Q113.59375 64.104164 114.109375 64.65104Q114.625 65.18229 115.40625 65.18229Q115.984375 65.18229 116.390625 64.885414Q116.8125 64.572914 117.046875 63.916664ZM113.59375 62.21354L117.0625 62.21354Q117.0 61.416664 116.671875 61.02604Q116.15625 60.416664 115.359375 60.416664Q114.625 60.416664 114.125 60.90104Q113.640625 61.385414 113.59375 62.21354ZM119.375 64.05729L120.40625 63.90104Q120.5 64.52604 120.890625 64.854164Q121.296875 65.18229 122.03125 65.18229Q122.75 65.18229 123.09375 64.90104Q123.453125 64.604164 123.453125 64.197914Q123.453125 63.83854 123.140625 63.635414Q122.921875 63.49479 122.0625 63.27604Q120.90625 62.979164 120.453125 62.77604Q120.015625 62.55729 119.78125 62.18229Q119.546875 61.80729 119.546875 61.33854Q119.546875 60.93229 119.734375 60.572914Q119.921875 60.21354 120.25 59.979164Q120.5 59.80729 120.921875 59.68229Q121.34375 59.55729 121.84375 59.55729Q122.5625 59.55729 123.109375 59.77604Q123.671875 59.979164 123.9375 60.33854Q124.203125 60.697914 124.296875 61.291664L123.265625 61.43229Q123.203125 60.96354 122.859375 60.697914Q122.53125 60.416664 121.90625 60.416664Q121.1875 60.416664 120.875 60.666664Q120.5625 60.90104 120.5625 61.229164Q120.5625 61.43229 120.6875 61.58854Q120.828125 61.760414 121.09375 61.86979Q121.25 61.93229 122.03125 62.135414Q123.15625 62.447914 123.59375 62.635414Q124.03125 62.822914 124.28125 63.18229Q124.53125 63.541664 124.53125 64.08854Q124.53125 64.61979 124.21875 65.08854Q123.921875 65.541664 123.34375 65.80729Q122.765625 66.05729 122.03125 66.05729Q120.8125 66.05729 120.171875 65.55729Q119.546875 65.041664 119.375 64.05729ZM126.796875 68.30729L126.796875 59.697914L127.75 59.697914L127.75 60.49479Q128.09375 60.02604 128.51562 59.791664Q128.95312 59.55729 129.5625 59.55729Q130.35938 59.55729 130.96875 59.96354Q131.57812 60.36979 131.875 61.11979Q132.1875 61.86979 132.1875 62.760414Q132.1875 63.71354 131.84375 64.479164Q131.51562 65.24479 130.85938 65.65104Q130.20312 66.05729 129.48438 66.05729Q128.95312 66.05729 128.53125 65.83854Q128.10938 65.604164 127.84375 65.27604L127.84375 68.30729L126.796875 68.30729ZM127.75 62.83854Q127.75 64.041664 128.23438 64.61979Q128.71875 65.18229 129.40625 65.18229Q130.10938 65.18229 130.60938 64.58854Q131.10938 63.99479 131.10938 62.74479Q131.10938 61.55729 130.625 60.979164Q130.14062 60.385414 129.45312 60.385414Q128.78125 60.385414 128.26562 61.010414Q127.75 61.635414 127.75 62.83854ZM133.40625 62.80729Q133.40625 61.072914 134.35938 60.24479Q135.15625 59.55729 136.3125 59.55729Q137.59375 59.55729 138.40625 60.40104Q139.23438 61.229164 139.23438 62.71354Q139.23438 63.916664 138.875 64.604164Q138.51562 65.291664 137.8125 65.68229Q137.125 66.05729 136.3125 66.05729Q135.01562 66.05729 134.20312 65.229164Q133.40625 64.385414 133.40625 62.80729ZM134.48438 62.80729Q134.48438 63.99479 135.0 64.58854Q135.53125 65.18229 136.3125 65.18229Q137.10938 65.18229 137.625 64.58854Q138.14062 63.99479 138.14062 62.77604Q138.14062 61.61979 137.60938 61.02604Q137.09375 60.43229 136.3125 60.43229Q135.53125 60.43229 135.0 61.02604Q134.48438 61.604164 134.48438 62.80729ZM140.79688 65.916664L140.79688 59.697914L141.73438 59.697914L141.73438 60.572914Q142.42188 59.55729 143.71875 59.55729Q144.28125 59.55729 144.75 59.760414Q145.23438 59.96354 145.46875 60.291664Q145.70312 60.61979 145.79688 61.05729Q145.84375 61.354164 145.84375 62.08854L145.84375 65.916664L144.79688 65.916664L144.79688 62.135414Q144.79688 61.479164 144.67188 61.166664Q144.54688 60.854164 144.23438 60.666664Q143.92188 60.46354 143.5 60.46354Q142.82812 60.46354 142.32812 60.90104Q141.84375 61.322914 141.84375 62.510414L141.84375 65.916664L140.79688 65.916664ZM147.375 64.05729L148.40625 63.90104Q148.5 64.52604 148.89062 64.854164Q149.29688 65.18229 150.03125 65.18229Q150.75 65.18229 151.09375 64.90104Q151.45312 64.604164 151.45312 64.197914Q151.45312 63.83854 151.14062 63.635414Q150.92188 63.49479 150.0625 63.27604Q148.90625 62.979164 148.45312 62.77604Q148.01562 62.55729 147.78125 62.18229Q147.54688 61.80729 147.54688 61.33854Q147.54688 60.93229 147.73438 60.572914Q147.92188 60.21354 148.25 59.979164Q148.5 59.80729 148.92188 59.68229Q149.34375 59.55729 149.84375 59.55729Q150.5625 59.55729 151.10938 59.77604Q151.67188 59.979164 151.9375 60.33854Q152.20312 60.697914 152.29688 61.291664L151.26562 61.43229Q151.20312 60.96354 150.85938 60.697914Q150.53125 60.416664 149.90625 60.416664Q149.1875 60.416664 148.875 60.666664Q148.5625 60.90104 148.5625 61.229164Q148.5625 61.43229 148.6875 61.58854Q148.82812 61.760414 149.09375 61.86979Q149.25 61.93229 150.03125 62.135414Q151.15625 62.447914 151.59375 62.635414Q152.03125 62.822914 152.28125 63.18229Q152.53125 63.541664 152.53125 64.08854Q152.53125 64.61979 152.21875 65.08854Q151.92188 65.541664 151.34375 65.80729Q150.76562 66.05729 150.03125 66.05729Q148.8125 66.05729 148.17188 65.55729Q147.54688 65.041664 147.375 64.05729ZM159.04688 63.916664L160.14062 64.041664Q159.89062 64.99479 159.1875 65.52604Q158.48438 66.05729 157.40625 66.05729Q156.04688 66.05729 155.23438 65.21354Q154.4375 64.36979 154.4375 62.854164Q154.4375 61.291664 155.25 60.43229Q156.0625 59.55729 157.34375 59.55729Q158.59375 59.55729 159.375 60.40104Q160.17188 61.24479 160.17188 62.791664Q160.17188 62.885414 160.17188 63.072914L155.53125 63.072914Q155.59375 64.104164 156.10938 64.65104Q156.625 65.18229 157.40625 65.18229Q157.98438 65.18229 158.39062 64.885414Q158.8125 64.572914 159.04688 63.916664ZM155.59375 62.21354L159.0625 62.21354Q159.0 61.416664 158.67188 61.02604Q158.15625 60.416664 157.35938 60.416664Q156.625 60.416664 156.125 60.90104Q155.64062 61.385414 155.59375 62.21354ZM167.09375 64.979164L167.25 65.90104Q166.79688 65.99479 166.45312 65.99479Q165.875 65.99479 165.5625 65.822914Q165.25 65.635414 165.10938 65.33854Q164.98438 65.041664 164.98438 64.08854L164.98438 60.510414L164.21875 60.510414L164.21875 59.697914L164.98438 59.697914L164.98438 58.15104L166.03125 57.52604L166.03125 59.697914L167.09375 59.697914L167.09375 60.510414L166.03125 60.510414L166.03125 64.15104Q166.03125 64.604164 166.07812 64.729164Q166.14062 64.854164 166.26562 64.93229Q166.39062 65.010414 166.625 65.010414Q166.8125 65.010414 167.09375 64.979164ZM167.79688 58.541664L167.79688 57.322914L168.85938 57.322914L168.85938 58.541664L167.79688 58.541664ZM167.79688 65.916664L167.79688 59.697914L168.85938 59.697914L168.85938 65.916664L167.79688 65.916664ZM170.79688 65.916664L170.79688 59.697914L171.73438 59.697914L171.73438 60.572914Q172.03125 60.104164 172.51562 59.83854Q173.0 59.55729 173.625 59.55729Q174.3125 59.55729 174.75 59.83854Q175.20312 60.11979 175.375 60.635414Q176.125 59.55729 177.29688 59.55729Q178.23438 59.55729 178.71875 60.072914Q179.21875 60.572914 179.21875 61.65104L179.21875 65.916664L178.17188 65.916664L178.17188 61.99479Q178.17188 61.36979 178.0625 61.08854Q177.96875 60.80729 177.70312 60.635414Q177.4375 60.46354 177.0625 60.46354Q176.40625 60.46354 175.96875 60.90104Q175.54688 61.33854 175.54688 62.30729L175.54688 65.916664L174.48438 65.916664L174.48438 61.86979Q174.48438 61.166664 174.21875 60.822914Q173.96875 60.46354 173.39062 60.46354Q172.9375 60.46354 172.5625 60.697914Q172.1875 60.93229 172.01562 61.385414Q171.84375 61.83854 171.84375 62.68229L171.84375 65.916664L170.79688 65.916664ZM186.04688 63.916664L187.14062 64.041664Q186.89062 64.99479 186.1875 65.52604Q185.48438 66.05729 184.40625 66.05729Q183.04688 66.05729 182.23438 65.21354Q181.4375 64.36979 181.4375 62.854164Q181.4375 61.291664 182.25 60.43229Q183.0625 59.55729 184.34375 59.55729Q185.59375 59.55729 186.375 60.40104Q187.17188 61.24479 187.17188 62.791664Q187.17188 62.885414 187.17188 63.072914L182.53125 63.072914Q182.59375 64.104164 183.10938 64.65104Q183.625 65.18229 184.40625 65.18229Q184.98438 65.18229 185.39062 64.885414Q185.8125 64.572914 186.04688 63.916664ZM182.59375 62.21354L186.0625 62.21354Q186.0 61.416664 185.67188 61.02604Q185.15625 60.416664 184.35938 60.416664Q183.625 60.416664 183.125 60.90104Q182.64062 61.385414 182.59375 62.21354ZM193.8125 68.447914Q192.9375 67.33854 192.32812 65.86979Q191.73438 64.385414 191.73438 62.80729Q191.73438 61.416664 192.17188 60.135414Q192.70312 58.65104 193.8125 57.18229L194.5625 57.18229Q193.85938 58.40104 193.625 58.916664Q193.26562 59.729164 193.0625 60.604164Q192.8125 61.697914 192.8125 62.80729Q192.8125 65.635414 194.5625 68.447914L193.8125 68.447914ZM195.79688 65.916664L195.79688 59.697914L196.73438 59.697914L196.73438 60.572914Q197.03125 60.104164 197.51562 59.83854Q198.0 59.55729 198.625 59.55729Q199.3125 59.55729 199.75 59.83854Q200.20312 60.11979 200.375 60.635414Q201.125 59.55729 202.29688 59.55729Q203.23438 59.55729 203.71875 60.072914Q204.21875 60.572914 204.21875 61.65104L204.21875 65.916664L203.17188 65.916664L203.17188 61.99479Q203.17188 61.36979 203.0625 61.08854Q202.96875 60.80729 202.70312 60.635414Q202.4375 60.46354 202.0625 60.46354Q201.40625 60.46354 200.96875 60.90104Q200.54688 61.33854 200.54688 62.30729L200.54688 65.916664L199.48438 65.916664L199.48438 61.86979Q199.48438 61.166664 199.21875 60.822914Q198.96875 60.46354 198.39062 60.46354Q197.9375 60.46354 197.5625 60.697914Q197.1875 60.93229 197.01562 61.385414Q196.84375 61.83854 196.84375 62.68229L196.84375 65.916664L195.79688 65.916664ZM206.375 64.05729L207.40625 63.90104Q207.5 64.52604 207.89062 64.854164Q208.29688 65.18229 209.03125 65.18229Q209.75 65.18229 210.09375 64.90104Q210.45312 64.604164 210.45312 64.197914Q210.45312 63.83854 210.14062 63.635414Q209.92188 63.49479 209.0625 63.27604Q207.90625 62.979164 207.45312 62.77604Q207.01562 62.55729 206.78125 62.18229Q206.54688 61.80729 206.54688 61.33854Q206.54688 60.93229 206.73438 60.572914Q206.92188 60.21354 207.25 59.979164Q207.5 59.80729 207.92188 59.68229Q208.34375 59.55729 208.84375 59.55729Q209.5625 59.55729 210.10938 59.77604Q210.67188 59.979164 210.9375 60.33854Q211.20312 60.697914 211.29688 61.291664L210.26562 61.43229Q210.20312 60.96354 209.85938 60.697914Q209.53125 60.416664 208.90625 60.416664Q208.1875 60.416664 207.875 60.666664Q207.5625 60.90104 207.5625 61.229164Q207.5625 61.43229 207.6875 61.58854Q207.82812 61.760414 208.09375 61.86979Q208.25 61.93229 209.03125 62.135414Q210.15625 62.447914 210.59375 62.635414Q211.03125 62.822914 211.28125 63.18229Q211.53125 63.541664 211.53125 64.08854Q211.53125 64.61979 211.21875 65.08854Q210.92188 65.541664 210.34375 65.80729Q209.76562 66.05729 209.03125 66.05729Q207.8125 66.05729 207.17188 65.55729Q206.54688 65.041664 206.375 64.05729ZM214.48438 68.447914L213.73438 68.447914Q215.48438 65.635414 215.48438 62.80729Q215.48438 61.71354 215.23438 60.61979Q215.03125 59.74479 214.67188 58.93229Q214.4375 58.416664 213.73438 57.18229L214.48438 57.18229Q215.57812 58.65104 216.10938 60.135414Q216.5625 61.416664 216.5625 62.80729Q216.5625 64.385414 215.95312 65.86979Q215.34375 67.33854 214.48438 68.447914Z" fill-rule="nonzero"/><path fill="#ea4335" d="M233.0 56.916668C233.0 56.364384 233.44771 55.916668 234.0 55.916668L244.0 55.916668C244.55229 55.916668 245.0 56.364384 245.0 56.916668L245.0 66.916664C245.0 67.46895 244.55229 67.916664 244.0 67.916664L234.0 67.916664C233.44771 67.916664 233.0 67.46895 233.0 66.916664Z" fill-rule="nonzero"/><path fill="#1a1a1a" d="M253.79688 68.30729L253.79688 59.697914L254.75 59.697914L254.75 60.49479Q255.09375 60.02604 255.51562 59.791664Q255.95312 59.55729 256.5625 59.55729Q257.35938 59.55729 257.96875 59.96354Q258.57812 60.36979 258.875 61.11979Q259.1875 61.86979 259.1875 62.760414Q259.1875 63.71354 258.84375 64.479164Q258.51562 65.24479 257.85938 65.65104Q257.20312 66.05729 256.48438 66.05729Q255.95312 66.05729 255.53125 65.83854Q255.10938 65.604164 254.84375 65.27604L254.84375 68.30729L253.79688 68.30729ZM254.75 62.83854Q254.75 64.041664 255.23438 64.61979Q255.71875 65.18229 256.40625 65.18229Q257.10938 65.18229 257.60938 64.58854Q258.10938 63.99479 258.10938 62.74479Q258.10938 61.55729 257.625 60.979164Q257.14062 60.385414 256.45312 60.385414Q255.78125 60.385414 255.26562 61.010414Q254.75 61.635414 254.75 62.83854ZM260.65625 63.93229L261.67188 63.83854Q261.79688 64.55729 262.15625 64.885414Q262.53125 65.197914 263.09375 65.197914Q263.57812 65.197914 263.9375 64.979164Q264.3125 64.74479 264.54688 64.385414Q264.78125 64.010414 264.9375 63.385414Q265.09375 62.74479 265.09375 62.08854Q265.09375 62.010414 265.09375 61.86979Q264.78125 62.36979 264.23438 62.697914Q263.6875 63.010414 263.04688 63.010414Q261.96875 63.010414 261.23438 62.24479Q260.5 61.46354 260.5 60.197914Q260.5 58.885414 261.26562 58.08854Q262.04688 57.291664 263.20312 57.291664Q264.03125 57.291664 264.71875 57.74479Q265.42188 58.197914 265.78125 59.041664Q266.14062 59.86979 266.14062 61.447914Q266.14062 63.08854 265.78125 64.072914Q265.4375 65.041664 264.71875 65.55729Q264.01562 66.05729 263.07812 66.05729Q262.0625 66.05729 261.42188 65.510414Q260.78125 64.947914 260.65625 63.93229ZM264.96875 60.135414Q264.96875 59.229164 264.48438 58.697914Q264.01562 58.166664 263.32812 58.166664Q262.625 58.166664 262.09375 58.74479Q261.57812 59.30729 261.57812 60.229164Q261.57812 61.041664 262.07812 61.55729Q262.57812 62.072914 263.29688 62.072914Q264.03125 62.072914 264.5 61.55729Q264.96875 61.041664 264.96875 60.135414ZM267.5 63.666664L268.60938 63.572914Q268.73438 64.385414 269.17188 64.791664Q269.625 65.197914 270.26562 65.197914Q271.01562 65.197914 271.54688 64.61979Q272.07812 64.041664 272.07812 63.104164Q272.07812 62.197914 271.5625 61.68229Q271.0625 61.15104 270.23438 61.15104Q269.73438 61.15104 269.3125 61.385414Q268.90625 61.61979 268.67188 61.979164L267.6875 61.854164L268.51562 57.447914L272.79688 57.447914L272.79688 58.447914L269.35938 58.447914L268.90625 60.760414Q269.67188 60.21354 270.51562 60.21354Q271.64062 60.21354 272.40625 60.99479Q273.1875 61.77604 273.1875 63.010414Q273.1875 64.166664 272.51562 65.02604Q271.6875 66.05729 270.26562 66.05729Q269.09375 66.05729 268.34375 65.40104Q267.60938 64.74479 267.5 63.666664ZM277.78125 65.916664L277.78125 59.697914L278.73438 59.697914L278.73438 60.635414Q279.09375 59.979164 279.39062 59.77604Q279.70312 59.55729 280.07812 59.55729Q280.60938 59.55729 281.15625 59.885414L280.79688 60.86979Q280.40625 60.635414 280.03125 60.635414Q279.67188 60.635414 279.39062 60.854164Q279.125 61.05729 279.01562 61.43229Q278.82812 61.99479 278.82812 62.65104L278.82812 65.916664L277.78125 65.916664ZM286.04688 63.916664L287.14062 64.041664Q286.89062 64.99479 286.1875 65.52604Q285.48438 66.05729 284.40625 66.05729Q283.04688 66.05729 282.23438 65.21354Q281.4375 64.36979 281.4375 62.854164Q281.4375 61.291664 282.25 60.43229Q283.0625 59.55729 284.34375 59.55729Q285.59375 59.55729 286.375 60.40104Q287.17188 61.24479 287.17188 62.791664Q287.17188 62.885414 287.17188 63.072914L282.53125 63.072914Q282.59375 64.104164 283.10938 64.65104Q283.625 65.18229 284.40625 65.18229Q284.98438 65.18229 285.39062 64.885414Q285.8125 64.572914 286.04688 63.916664ZM282.59375 62.21354L286.0625 62.21354Q286.0 61.416664 285.67188 61.02604Q285.15625 60.416664 284.35938 60.416664Q283.625 60.416664 283.125 60.90104Q282.64062 61.385414 282.59375 62.21354ZM288.375 64.05729L289.40625 63.90104Q289.5 64.52604 289.89062 64.854164Q290.29688 65.18229 291.03125 65.18229Q291.75 65.18229 292.09375 64.90104Q292.45312 64.604164 292.45312 64.197914Q292.45312 63.83854 292.14062 63.635414Q291.92188 63.49479 291.0625 63.27604Q289.90625 62.979164 289.45312 62.77604Q289.01562 62.55729 288.78125 62.18229Q288.54688 61.80729 288.54688 61.33854Q288.54688 60.93229 288.73438 60.572914Q288.92188 60.21354 289.25 59.979164Q289.5 59.80729 289.92188 59.68229Q290.34375 59.55729 290.84375 59.55729Q291.5625 59.55729 292.10938 59.77604Q292.67188 59.979164 292.9375 60.33854Q293.20312 60.697914 293.29688 61.291664L292.26562 61.43229Q292.20312 60.96354 291.85938 60.697914Q291.53125 60.416664 290.90625 60.416664Q290.1875 60.416664 289.875 60.666664Q289.5625 60.90104 289.5625 61.229164Q289.5625 61.43229 289.6875 61.58854Q289.82812 61.760414 290.09375 61.86979Q290.25 61.93229 291.03125 62.135414Q292.15625 62.447914 292.59375 62.635414Q293.03125 62.822914 293.28125 63.18229Q293.53125 63.541664 293.53125 64.08854Q293.53125 64.61979 293.21875 65.08854Q292.92188 65.541664 292.34375 65.80729Q291.76562 66.05729 291.03125 66.05729Q289.8125 66.05729 289.17188 65.55729Q288.54688 65.041664 288.375 64.05729ZM295.79688 68.30729L295.79688 59.697914L296.75 59.697914L296.75 60.49479Q297.09375 60.02604 297.51562 59.791664Q297.95312 59.55729 298.5625 59.55729Q299.35938 59.55729 299.96875 59.96354Q300.57812 60.36979 300.875 61.11979Q301.1875 61.86979 301.1875 62.760414Q301.1875 63.71354 300.84375 64.479164Q300.51562 65.24479 299.85938 65.65104Q299.20312 66.05729 298.48438 66.05729Q297.95312 66.05729 297.53125 65.83854Q297.10938 65.604164 296.84375 65.27604L296.84375 68.30729L295.79688 68.30729ZM296.75 62.83854Q296.75 64.041664 297.23438 64.61979Q297.71875 65.18229 298.40625 65.18229Q299.10938 65.18229 299.60938 64.58854Q300.10938 63.99479 300.10938 62.74479Q300.10938 61.55729 299.625 60.979164Q299.14062 60.385414 298.45312 60.385414Q297.78125 60.385414 297.26562 61.010414Q296.75 61.635414 296.75 62.83854ZM302.40625 62.80729Q302.40625 61.072914 303.35938 60.24479Q304.15625 59.55729 305.3125 59.55729Q306.59375 59.55729 307.40625 60.40104Q308.23438 61.229164 308.23438 62.71354Q308.23438 63.916664 307.875 64.604164Q307.51562 65.291664 306.8125 65.68229Q306.125 66.05729 305.3125 66.05729Q304.01562 66.05729 303.20312 65.229164Q302.40625 64.385414 302.40625 62.80729ZM303.48438 62.80729Q303.48438 63.99479 304.0 64.58854Q304.53125 65.18229 305.3125 65.18229Q306.10938 65.18229 306.625 64.58854Q307.14062 63.99479 307.14062 62.77604Q307.14062 61.61979 306.60938 61.02604Q306.09375 60.43229 305.3125 60.43229Q304.53125 60.43229 304.0 61.02604Q303.48438 61.604164 303.48438 62.80729ZM309.79688 65.916664L309.79688 59.697914L310.73438 59.697914L310.73438 60.572914Q311.42188 59.55729 312.71875 59.55729Q313.28125 59.55729 313.75 59.760414Q314.23438 59.96354 314.46875 60.291664Q314.70312 60.61979 314.79688 61.05729Q314.84375 61.354164 314.84375 62.08854L314.84375 65.916664L313.79688 65.916664L313.79688 62.135414Q313.79688 61.479164 313.67188 61.166664Q313.54688 60.854164 313.23438 60.666664Q312.92188 60.46354 312.5 60.46354Q311.82812 60.46354 311.32812 60.90104Q310.84375 61.322914 310.84375 62.510414L310.84375 65.916664L309.79688 65.916664ZM316.375 64.05729L317.40625 63.90104Q317.5 64.52604 317.89062 64.854164Q318.29688 65.18229 319.03125 65.18229Q319.75 65.18229 320.09375 64.90104Q320.45312 64.604164 320.45312 64.197914Q320.45312 63.83854 320.14062 63.635414Q319.92188 63.49479 319.0625 63.27604Q317.90625 62.979164 317.45312 62.77604Q317.01562 62.55729 316.78125 62.18229Q316.54688 61.80729 316.54688 61.33854Q316.54688 60.93229 316.73438 60.572914Q316.92188 60.21354 317.25 59.979164Q317.5 59.80729 317.92188 59.68229Q318.34375 59.55729 318.84375 59.55729Q319.5625 59.55729 320.10938 59.77604Q320.67188 59.979164 320.9375 60.33854Q321.20312 60.697914 321.29688 61.291664L320.26562 61.43229Q320.20312 60.96354 319.85938 60.697914Q319.53125 60.416664 318.90625 60.416664Q318.1875 60.416664 317.875 60.666664Q317.5625 60.90104 317.5625 61.229164Q317.5625 61.43229 317.6875 61.58854Q317.82812 61.760414 318.09375 61.86979Q318.25 61.93229 319.03125 62.135414Q320.15625 62.447914 320.59375 62.635414Q321.03125 62.822914 321.28125 63.18229Q321.53125 63.541664 321.53125 64.08854Q321.53125 64.61979 321.21875 65.08854Q320.92188 65.541664 320.34375 65.80729Q319.76562 66.05729 319.03125 66.05729Q317.8125 66.05729 317.17188 65.55729Q316.54688 65.041664 316.375 64.05729ZM328.04688 63.916664L329.14062 64.041664Q328.89062 64.99479 328.1875 65.52604Q327.48438 66.05729 326.40625 66.05729Q325.04688 66.05729 324.23438 65.21354Q323.4375 64.36979 323.4375 62.854164Q323.4375 61.291664 324.25 60.43229Q325.0625 59.55729 326.34375 59.55729Q327.59375 59.55729 328.375 60.40104Q329.17188 61.24479 329.17188 62.791664Q329.17188 62.885414 329.17188 63.072914L324.53125 63.072914Q324.59375 64.104164 325.10938 64.65104Q325.625 65.18229 326.40625 65.18229Q326.98438 65.18229 327.39062 64.885414Q327.8125 64.572914 328.04688 63.916664ZM324.59375 62.21354L328.0625 62.21354Q328.0 61.416664 327.67188 61.02604Q327.15625 60.416664 326.35938 60.416664Q325.625 60.416664 325.125 60.90104Q324.64062 61.385414 324.59375 62.21354ZM336.09375 64.979164L336.25 65.90104Q335.79688 65.99479 335.45312 65.99479Q334.875 65.99479 334.5625 65.822914Q334.25 65.635414 334.10938 65.33854Q333.98438 65.041664 333.98438 64.08854L333.98438 60.510414L333.21875 60.510414L333.21875 59.697914L333.98438 59.697914L333.98438 58.15104L335.03125 57.52604L335.03125 59.697914L336.09375 59.697914L336.09375 60.510414L335.03125 60.510414L335.03125 64.15104Q335.03125 64.604164 335.07812 64.729164Q335.14062 64.854164 335.26562 64.93229Q335.39062 65.010414 335.625 65.010414Q335.8125 65.010414 336.09375 64.979164ZM336.79688 58.541664L336.79688 57.322914L337.85938 57.322914L337.85938 58.541664L336.79688 58.541664ZM336.79688 65.916664L336.79688 59.697914L337.85938 59.697914L337.85938 65.916664L336.79688 65.916664ZM339.79688 65.916664L339.79688 59.697914L340.73438 59.697914L340.73438 60.572914Q341.03125 60.104164 341.51562 59.83854Q342.0 59.55729 342.625 59.55729Q343.3125 59.55729 343.75 59.83854Q344.20312 60.11979 344.375 60.635414Q345.125 59.55729 346.29688 59.55729Q347.23438 59.55729 347.71875 60.072914Q348.21875 60.572914 348.21875 61.65104L348.21875 65.916664L347.17188 65.916664L347.17188 61.99479Q347.17188 61.36979 347.0625 61.08854Q346.96875 60.80729 346.70312 60.635414Q346.4375 60.46354 346.0625 60.46354Q345.40625 60.46354 344.96875 60.90104Q344.54688 61.33854 344.54688 62.30729L344.54688 65.916664L343.48438 65.916664L343.48438 61.86979Q343.48438 61.166664 343.21875 60.822914Q342.96875 60.46354 342.39062 60.46354Q341.9375 60.46354 341.5625 60.697914Q341.1875 60.93229 341.01562 61.385414Q340.84375 61.83854 340.84375 62.68229L340.84375 65.916664L339.79688 65.916664ZM355.04688 63.916664L356.14062 64.041664Q355.89062 64.99479 355.1875 65.52604Q354.48438 66.05729 353.40625 66.05729Q352.04688 66.05729 351.23438 65.21354Q350.4375 64.36979 350.4375 62.854164Q350.4375 61.291664 351.25 60.43229Q352.0625 59.55729 353.34375 59.55729Q354.59375 59.55729 355.375 60.40104Q356.17188 61.24479 356.17188 62.791664Q356.17188 62.885414 356.17188 63.072914L351.53125 63.072914Q351.59375 64.104164 352.10938 64.65104Q352.625 65.18229 353.40625 65.18229Q353.98438 65.18229 354.39062 64.885414Q354.8125 64.572914 355.04688 63.916664ZM351.59375 62.21354L355.0625 62.21354Q355.0 61.416664 354.67188 61.02604Q354.15625 60.416664 353.35938 60.416664Q352.625 60.416664 352.125 60.90104Q351.64062 61.385414 351.59375 62.21354ZM362.8125 68.447914Q361.9375 67.33854 361.32812 65.86979Q360.73438 64.385414 360.73438 62.80729Q360.73438 61.416664 361.17188 60.135414Q361.70312 58.65104 362.8125 57.18229L363.5625 57.18229Q362.85938 58.40104 362.625 58.916664Q362.26562 59.729164 362.0625 60.604164Q361.8125 61.697914 361.8125 62.80729Q361.8125 65.635414 363.5625 68.447914L362.8125 68.447914ZM364.79688 65.916664L364.79688 59.697914L365.73438 59.697914L365.73438 60.572914Q366.03125 60.104164 366.51562 59.83854Q367.0 59.55729 367.625 59.55729Q368.3125 59.55729 368.75 59.83854Q369.20312 60.11979 369.375 60.635414Q370.125 59.55729 371.29688 59.55729Q372.23438 59.55729 372.71875 60.072914Q373.21875 60.572914 373.21875 61.65104L373.21875 65.916664L372.17188 65.916664L372.17188 61.99479Q372.17188 61.36979 372.0625 61.08854Q371.96875 60.80729 371.70312 60.635414Q371.4375 60.46354 371.0625 60.46354Q370.40625 60.46354 369.96875 60.90104Q369.54688 61.33854 369.54688 62.30729L369.54688 65.916664L368.48438 65.916664L368.48438 61.86979Q368.48438 61.166664 368.21875 60.822914Q367.96875 60.46354 367.39062 60.46354Q366.9375 60.46354 366.5625 60.697914Q366.1875 60.93229 366.01562 61.385414Q365.84375 61.83854 365.84375 62.68229L365.84375 65.916664L364.79688 65.916664ZM375.375 64.05729L376.40625 63.90104Q376.5 64.52604 376.89062 64.854164Q377.29688 65.18229 378.03125 65.18229Q378.75 65.18229 379.09375 64.90104Q379.45312 64.604164 379.45312 64.197914Q379.45312 63.83854 379.14062 63.635414Q378.92188 63.49479 378.0625 63.27604Q376.90625 62.979164 376.45312 62.77604Q376.01562 62.55729 375.78125 62.18229Q375.54688 61.80729 375.54688 61.33854Q375.54688 60.93229 375.73438 60.572914Q375.92188 60.21354 376.25 59.979164Q376.5 59.80729 376.92188 59.68229Q377.34375 59.55729 377.84375 59.55729Q378.5625 59.55729 379.10938 59.77604Q379.67188 59.979164 379.9375 60.33854Q380.20312 60.697914 380.29688 61.291664L379.26562 61.43229Q379.20312 60.96354 378.85938 60.697914Q378.53125 60.416664 377.90625 60.416664Q377.1875 60.416664 376.875 60.666664Q376.5625 60.90104 376.5625 61.229164Q376.5625 61.43229 376.6875 61.58854Q376.82812 61.760414 377.09375 61.86979Q377.25 61.93229 378.03125 62.135414Q379.15625 62.447914 379.59375 62.635414Q380.03125 62.822914 380.28125 63.18229Q380.53125 63.541664 380.53125 64.08854Q380.53125 64.61979 380.21875 65.08854Q379.92188 65.541664 379.34375 65.80729Q378.76562 66.05729 378.03125 66.05729Q376.8125 66.05729 376.17188 65.55729Q375.54688 65.041664 375.375 64.05729ZM383.48438 68.447914L382.73438 68.447914Q384.48438 65.635414 384.48438 62.80729Q384.48438 61.71354 384.23438 60.61979Q384.03125 59.74479 383.67188 58.93229Q383.4375 58.416664 382.73438 57.18229L383.48438 57.18229Q384.57812 58.65104 385.10938 60.135414Q385.5625 61.416664 385.5625 62.80729Q385.5625 64.385414 384.95312 65.86979Q384.34375 67.33854 383.48438 68.447914Z" fill-rule="nonzero"/><path fill="#fbbc04" d="M402.0 56.916668C402.0 56.364384 402.44772 55.916668 403.0 55.916668L413.0 55.916668C413.55228 55.916668 414.0 56.364384 414.0 56.916668L414.0 66.916664C414.0 67.46895 413.55228 67.916664 413.0 67.916664L403.0 67.916664C402.44772 67.916664 402.0 67.46895 402.0 66.916664Z" fill-rule="nonzero"/><path fill="#1a1a1a" d="M425.10938 65.916664L425.10938 58.33854L422.28125 58.33854L422.28125 57.322914L429.09375 57.322914L429.09375 58.33854L426.25 58.33854L426.25 65.916664L425.10938 65.916664ZM429.79688 65.916664L429.79688 57.322914L430.84375 57.322914L430.84375 60.40104Q431.57812 59.55729 432.70312 59.55729Q433.40625 59.55729 433.90625 59.83854Q434.42188 60.104164 434.64062 60.58854Q434.85938 61.05729 434.85938 61.979164L434.85938 65.916664L433.8125 65.916664L433.8125 61.979164Q433.8125 61.18229 433.46875 60.822914Q433.125 60.46354 432.5 60.46354Q432.03125 60.46354 431.60938 60.71354Q431.20312 60.947914 431.01562 61.36979Q430.84375 61.77604 430.84375 62.510414L430.84375 65.916664L429.79688 65.916664ZM436.78125 65.916664L436.78125 59.697914L437.73438 59.697914L437.73438 60.635414Q438.09375 59.979164 438.39062 59.77604Q438.70312 59.55729 439.07812 59.55729Q439.60938 59.55729 440.15625 59.885414L439.79688 60.86979Q439.40625 60.635414 439.03125 60.635414Q438.67188 60.635414 438.39062 60.854164Q438.125 61.05729 438.01562 61.43229Q437.82812 61.99479 437.82812 62.65104L437.82812 65.916664L436.78125 65.916664ZM440.40625 62.80729Q440.40625 61.072914 441.35938 60.24479Q442.15625 59.55729 443.3125 59.55729Q444.59375 59.55729 445.40625 60.40104Q446.23438 61.229164 446.23438 62.71354Q446.23438 63.916664 445.875 64.604164Q445.51562 65.291664 444.8125 65.68229Q444.125 66.05729 443.3125 66.05729Q442.01562 66.05729 441.20312 65.229164Q440.40625 64.385414 440.40625 62.80729ZM441.48438 62.80729Q441.48438 63.99479 442.0 64.58854Q442.53125 65.18229 443.3125 65.18229Q444.10938 65.18229 444.625 64.58854Q445.14062 63.99479 445.14062 62.77604Q445.14062 61.61979 444.60938 61.02604Q444.09375 60.43229 443.3125 60.43229Q442.53125 60.43229 442.0 61.02604Q441.48438 61.604164 441.48438 62.80729ZM451.875 65.916664L451.875 64.99479Q451.14062 66.05729 449.89062 66.05729Q449.34375 66.05729 448.85938 65.854164Q448.39062 65.635414 448.15625 65.322914Q447.92188 64.99479 447.82812 64.52604Q447.76562 64.229164 447.76562 63.541664L447.76562 59.697914L448.82812 59.697914L448.82812 63.15104Q448.82812 63.96354 448.89062 64.260414Q448.98438 64.666664 449.29688 64.916664Q449.625 65.15104 450.10938 65.15104Q450.57812 65.15104 450.98438 64.916664Q451.40625 64.666664 451.57812 64.24479Q451.76562 63.822914 451.76562 63.02604L451.76562 59.697914L452.8125 59.697914L452.8125 65.916664L451.875 65.916664ZM454.59375 66.43229L455.625 66.58854Q455.6875 67.05729 455.98438 67.27604Q456.375 67.572914 457.04688 67.572914Q457.78125 67.572914 458.17188 67.27604Q458.57812 66.979164 458.71875 66.46354Q458.8125 66.135414 458.79688 65.104164Q458.10938 65.916664 457.07812 65.916664Q455.79688 65.916664 455.09375 64.99479Q454.39062 64.05729 454.39062 62.77604Q454.39062 61.885414 454.70312 61.135414Q455.03125 60.36979 455.64062 59.96354Q456.25 59.55729 457.07812 59.55729Q458.1875 59.55729 458.90625 60.447914L458.90625 59.697914L459.875 59.697914L459.875 65.072914Q459.875 66.52604 459.57812 67.135414Q459.28125 67.74479 458.64062 68.08854Q458.0 68.447914 457.0625 68.447914Q455.95312 68.447914 455.26562 67.947914Q454.57812 67.447914 454.59375 66.43229ZM455.46875 62.697914Q455.46875 63.916664 455.95312 64.479164Q456.4375 65.041664 457.17188 65.041664Q457.90625 65.041664 458.39062 64.479164Q458.89062 63.916664 458.89062 62.729164Q458.89062 61.58854 458.375 61.010414Q457.875 60.43229 457.15625 60.43229Q456.45312 60.43229 455.95312 61.010414Q455.46875 61.572914 455.46875 62.697914ZM461.79688 65.916664L461.79688 57.322914L462.84375 57.322914L462.84375 60.40104Q463.57812 59.55729 464.70312 59.55729Q465.40625 59.55729 465.90625 59.83854Q466.42188 60.104164 466.64062 60.58854Q466.85938 61.05729 466.85938 61.979164L466.85938 65.916664L465.8125 65.916664L465.8125 61.979164Q465.8125 61.18229 465.46875 60.822914Q465.125 60.46354 464.5 60.46354Q464.03125 60.46354 463.60938 60.71354Q463.20312 60.947914 463.01562 61.36979Q462.84375 61.77604 462.84375 62.510414L462.84375 65.916664L461.79688 65.916664ZM468.79688 68.30729L468.79688 59.697914L469.75 59.697914L469.75 60.49479Q470.09375 60.02604 470.51562 59.791664Q470.95312 59.55729 471.5625 59.55729Q472.35938 59.55729 472.96875 59.96354Q473.57812 60.36979 473.875 61.11979Q474.1875 61.86979 474.1875 62.760414Q474.1875 63.71354 473.84375 64.479164Q473.51562 65.24479 472.85938 65.65104Q472.20312 66.05729 471.48438 66.05729Q470.95312 66.05729 470.53125 65.83854Q470.10938 65.604164 469.84375 65.27604L469.84375 68.30729L468.79688 68.30729ZM469.75 62.83854Q469.75 64.041664 470.23438 64.61979Q470.71875 65.18229 471.40625 65.18229Q472.10938 65.18229 472.60938 64.58854Q473.10938 63.99479 473.10938 62.74479Q473.10938 61.55729 472.625 60.979164Q472.14062 60.385414 471.45312 60.385414Q470.78125 60.385414 470.26562 61.010414Q469.75 61.635414 469.75 62.83854ZM479.875 65.916664L479.875 64.99479Q479.14062 66.05729 477.89062 66.05729Q477.34375 66.05729 476.85938 65.854164Q476.39062 65.635414 476.15625 65.322914Q475.92188 64.99479 475.82812 64.52604Q475.76562 64.229164 475.76562 63.541664L475.76562 59.697914L476.82812 59.697914L476.82812 63.15104Q476.82812 63.96354 476.89062 64.260414Q476.98438 64.666664 477.29688 64.916664Q477.625 65.15104 478.10938 65.15104Q478.57812 65.15104 478.98438 64.916664Q479.40625 64.666664 479.57812 64.24479Q479.76562 63.822914 479.76562 63.02604L479.76562 59.697914L480.8125 59.697914L480.8125 65.916664L479.875 65.916664ZM485.09375 64.979164L485.25 65.90104Q484.79688 65.99479 484.45312 65.99479Q483.875 65.99479 483.5625 65.822914Q483.25 65.635414 483.10938 65.33854Q482.98438 65.041664 482.98438 64.08854L482.98438 60.510414L482.21875 60.510414L482.21875 59.697914L482.98438 59.697914L482.98438 58.15104L484.03125 57.52604L484.03125 59.697914L485.09375 59.697914L485.09375 60.510414L484.03125 60.510414L484.03125 64.15104Q484.03125 64.604164 484.07812 64.729164Q484.14062 64.854164 484.26562 64.93229Q484.39062 65.010414 484.625 65.010414Q484.8125 65.010414 485.09375 64.979164ZM490.8125 68.447914Q489.9375 67.33854 489.32812 65.86979Q488.73438 64.385414 488.73438 62.80729Q488.73438 61.416664 489.17188 60.135414Q489.70312 58.65104 490.8125 57.18229L491.5625 57.18229Q490.85938 58.40104 490.625 58.916664Q490.26562 59.729164 490.0625 60.604164Q489.8125 61.697914 489.8125 62.80729Q489.8125 65.635414 491.5625 68.447914L490.8125 68.447914ZM492.78125 65.916664L492.78125 59.697914L493.73438 59.697914L493.73438 60.635414Q494.09375 59.979164 494.39062 59.77604Q494.70312 59.55729 495.07812 59.55729Q495.60938 59.55729 496.15625 59.885414L495.79688 60.86979Q495.40625 60.635414 495.03125 60.635414Q494.67188 60.635414 494.39062 60.854164Q494.125 61.05729 494.01562 61.43229Q493.82812 61.99479 493.82812 62.65104L493.82812 65.916664L492.78125 65.916664ZM501.04688 63.916664L502.14062 64.041664Q501.89062 64.99479 501.1875 65.52604Q500.48438 66.05729 499.40625 66.05729Q498.04688 66.05729 497.23438 65.21354Q496.4375 64.36979 496.4375 62.854164Q496.4375 61.291664 497.25 60.43229Q498.0625 59.55729 499.34375 59.55729Q500.59375 59.55729 501.375 60.40104Q502.17188 61.24479 502.17188 62.791664Q502.17188 62.885414 502.17188 63.072914L497.53125 63.072914Q497.59375 64.104164 498.10938 64.65104Q498.625 65.18229 499.40625 65.18229Q499.98438 65.18229 500.39062 64.885414Q500.8125 64.572914 501.04688 63.916664ZM497.59375 62.21354L501.0625 62.21354Q501.0 61.416664 500.67188 61.02604Q500.15625 60.416664 499.35938 60.416664Q498.625 60.416664 498.125 60.90104Q497.64062 61.385414 497.59375 62.21354ZM507.76562 68.30729L507.76562 65.260414Q507.51562 65.604164 507.0625 65.83854Q506.625 66.05729 506.125 66.05729Q505.01562 66.05729 504.21875 65.18229Q503.42188 64.291664 503.42188 62.74479Q503.42188 61.80729 503.75 61.072914Q504.07812 60.322914 504.6875 59.947914Q505.3125 59.55729 506.04688 59.55729Q507.20312 59.55729 507.85938 60.52604L507.85938 59.697914L508.8125 59.697914L508.8125 68.30729L507.76562 68.30729ZM504.5 62.791664Q504.5 63.99479 505.0 64.58854Q505.51562 65.18229 506.21875 65.18229Q506.89062 65.18229 507.375 64.61979Q507.85938 64.041664 507.85938 62.885414Q507.85938 61.635414 507.34375 61.010414Q506.84375 60.385414 506.14062 60.385414Q505.46875 60.385414 504.98438 60.979164Q504.5 61.55729 504.5 62.791664ZM510.0 66.05729L512.4844 57.18229L513.3281 57.18229L510.84375 66.05729L510.0 66.05729ZM513.375 64.05729L514.40625 63.90104Q514.5 64.52604 514.8906 64.854164Q515.2969 65.18229 516.03125 65.18229Q516.75 65.18229 517.09375 64.90104Q517.4531 64.604164 517.4531 64.197914Q517.4531 63.83854 517.1406 63.635414Q516.9219 63.49479 516.0625 63.27604Q514.90625 62.979164 514.4531 62.77604Q514.0156 62.55729 513.78125 62.18229Q513.5469 61.80729 513.5469 61.33854Q513.5469 60.93229 513.7344 60.572914Q513.9219 60.21354 514.25 59.979164Q514.5 59.80729 514.9219 59.68229Q515.34375 59.55729 515.84375 59.55729Q516.5625 59.55729 517.1094 59.77604Q517.6719 59.979164 517.9375 60.33854Q518.2031 60.697914 518.2969 61.291664L517.2656 61.43229Q517.2031 60.96354 516.8594 60.697914Q516.53125 60.416664 515.90625 60.416664Q515.1875 60.416664 514.875 60.666664Q514.5625 60.90104 514.5625 61.229164Q514.5625 61.43229 514.6875 61.58854Q514.8281 61.760414 515.09375 61.86979Q515.25 61.93229 516.03125 62.135414Q517.15625 62.447914 517.59375 62.635414Q518.03125 62.822914 518.28125 63.18229Q518.53125 63.541664 518.53125 64.08854Q518.53125 64.61979 518.21875 65.08854Q517.9219 65.541664 517.34375 65.80729Q516.7656 66.05729 516.03125 66.05729Q514.8125 66.05729 514.1719 65.55729Q513.5469 65.041664 513.375 64.05729ZM525.0469 63.916664L526.1406 64.041664Q525.8906 64.99479 525.1875 65.52604Q524.4844 66.05729 523.40625 66.05729Q522.0469 66.05729 521.2344 65.21354Q520.4375 64.36979 520.4375 62.854164Q520.4375 61.291664 521.25 60.43229Q522.0625 59.55729 523.34375 59.55729Q524.59375 59.55729 525.375 60.40104Q526.1719 61.24479 526.1719 62.791664Q526.1719 62.885414 526.1719 63.072914L521.53125 63.072914Q521.59375 64.104164 522.1094 64.65104Q522.625 65.18229 523.40625 65.18229Q523.9844 65.18229 524.3906 64.885414Q524.8125 64.572914 525.0469 63.916664ZM521.59375 62.21354L525.0625 62.21354Q525.0 61.416664 524.6719 61.02604Q524.15625 60.416664 523.3594 60.416664Q522.625 60.416664 522.125 60.90104Q521.6406 61.385414 521.59375 62.21354ZM531.8594 63.635414L532.8906 63.77604Q532.71875 64.83854 532.0156 65.447914Q531.3125 66.05729 530.2969 66.05729Q529.0156 66.05729 528.2344 65.229164Q527.46875 64.385414 527.46875 62.822914Q527.46875 61.822914 527.7969 61.072914Q528.1406 60.30729 528.8125 59.93229Q529.5 59.55729 530.3125 59.55729Q531.3125 59.55729 531.9531 60.072914Q532.6094 60.572914 532.7969 61.52604L531.7656 61.68229Q531.625 61.05729 531.25 60.74479Q530.875 60.416664 530.34375 60.416664Q529.5469 60.416664 529.0469 60.99479Q528.5469 61.55729 528.5469 62.791664Q528.5469 64.05729 529.03125 64.61979Q529.5156 65.18229 530.28125 65.18229Q530.90625 65.18229 531.3125 64.80729Q531.7344 64.43229 531.8594 63.635414ZM534.4844 68.447914L533.7344 68.447914Q535.4844 65.635414 535.4844 62.80729Q535.4844 61.71354 535.2344 60.61979Q535.03125 59.74479 534.6719 58.93229Q534.4375 58.416664 533.7344 57.18229L534.4844 57.18229Q535.5781 58.65104 536.1094 60.135414Q536.5625 61.416664 536.5625 62.80729Q536.5625 64.385414 535.9531 65.86979Q535.34375 67.33854 534.4844 68.447914Z" fill-rule="nonzero"/><path fill="#757575" d="M20.01875 37.55L20.01875 23.2375L25.39375 23.2375Q27.034374 23.2375 28.01875 23.675Q29.003124 24.096874 29.565624 25.003124Q30.128124 25.909374 30.128124 26.89375Q30.128124 27.815624 29.628124 28.628124Q29.14375 29.440624 28.128124 29.925Q29.425 30.315624 30.128124 31.2375Q30.83125 32.14375 30.83125 33.39375Q30.83125 34.409374 30.39375 35.26875Q29.971874 36.128124 29.346874 36.596874Q28.721874 37.065624 27.784374 37.315624Q26.846874 37.55 25.471874 37.55L20.01875 37.55ZM21.909374 29.253124L25.003124 29.253124Q26.26875 29.253124 26.815624 29.08125Q27.534374 28.8625 27.89375 28.378124Q28.26875 27.878124 28.26875 27.1125Q28.26875 26.409374 27.925 25.8625Q27.58125 25.315624 26.940624 25.128124Q26.315624 24.925 24.76875 24.925L21.909374 24.925L21.909374 29.253124ZM21.909374 35.8625L25.471874 35.8625Q26.39375 35.8625 26.76875 35.784374Q27.425 35.675 27.8625 35.409374Q28.3 35.128124 28.58125 34.6125Q28.8625 34.08125 28.8625 33.39375Q28.8625 32.596874 28.45625 32.003124Q28.05 31.409374 27.315624 31.175Q26.58125 30.940624 25.221874 30.940624L21.909374 30.940624L21.909374 35.8625ZM39.971874 34.20625L41.784374 34.440624Q41.3625 36.01875 40.190624 36.909374Q39.034374 37.784374 37.221874 37.784374Q34.95625 37.784374 33.6125 36.39375Q32.284374 34.9875 32.284374 32.45625Q32.284374 29.83125 33.628124 28.39375Q34.971874 26.940624 37.128124 26.940624Q39.20625 26.940624 40.51875 28.3625Q41.846874 29.76875 41.846874 32.346874Q41.846874 32.503124 41.83125 32.815624L34.096874 32.815624Q34.190624 34.51875 35.065624 35.425Q35.940624 36.33125 37.2375 36.33125Q38.20625 36.33125 38.878124 35.83125Q39.565624 35.315624 39.971874 34.20625ZM34.190624 31.3625L39.9875 31.3625Q39.878124 30.065624 39.33125 29.409374Q38.4875 28.39375 37.14375 28.39375Q35.940624 28.39375 35.1125 29.20625Q34.284374 30.003124 34.190624 31.3625ZM43.8625 37.55L43.8625 27.175L45.45625 27.175L45.45625 28.659374Q46.596874 26.940624 48.753124 26.940624Q49.690624 26.940624 50.471874 27.284374Q51.26875 27.6125 51.659374 28.159374Q52.05 28.70625 52.20625 29.45625Q52.3 29.95625 52.3 31.175L52.3 37.55L50.534374 37.55L50.534374 31.2375Q50.534374 30.159374 50.33125 29.628124Q50.128124 29.096874 49.596874 28.784374Q49.08125 28.471874 48.378124 28.471874Q47.253124 28.471874 46.440624 29.190624Q45.628124 29.89375 45.628124 31.878124L45.628124 37.55L43.8625 37.55ZM60.64375 33.753124L62.3625 33.971874Q62.08125 35.76875 60.909374 36.784374Q59.753124 37.784374 58.05 37.784374Q55.925 37.784374 54.628124 36.39375Q53.33125 35.003124 53.33125 32.409374Q53.33125 30.721874 53.878124 29.471874Q54.440624 28.20625 55.58125 27.58125Q56.721874 26.940624 58.065624 26.940624Q59.753124 26.940624 60.815624 27.8Q61.89375 28.659374 62.20625 30.221874L60.4875 30.4875Q60.253124 29.440624 59.628124 28.925Q59.003124 28.39375 58.128124 28.39375Q56.8 28.39375 55.971874 29.346874Q55.14375 30.3 55.14375 32.346874Q55.14375 34.440624 55.940624 35.39375Q56.7375 36.33125 58.034374 36.33125Q59.065624 36.33125 59.753124 35.70625Q60.45625 35.065624 60.64375 33.753124ZM63.8625 37.55L63.8625 23.2375L65.62813 23.2375L65.62813 28.3625Q66.8625 26.940624 68.7375 26.940624Q69.87813 26.940624 70.72188 27.39375Q71.58125 27.846874 71.94063 28.659374Q72.31563 29.45625 72.31563 30.971874L72.31563 37.55L70.56563 37.55L70.56563 30.971874Q70.56563 29.659374 69.9875 29.065624Q69.40938 28.45625 68.37813 28.45625Q67.59688 28.45625 66.89375 28.8625Q66.20625 29.26875 65.90938 29.971874Q65.62813 30.659374 65.62813 31.878124L65.62813 37.55L63.8625 37.55ZM73.8625 37.55L73.8625 27.175L75.44063 27.175L75.44063 28.628124Q75.925 27.878124 76.7375 27.409374Q77.55 26.940624 78.58125 26.940624Q79.7375 26.940624 80.47188 27.425Q81.20625 27.89375 81.51875 28.753124Q82.75313 26.940624 84.72188 26.940624Q86.26875 26.940624 87.09688 27.8Q87.925 28.659374 87.925 30.425L87.925 37.55L86.175 37.55L86.175 31.01875Q86.175 29.95625 86.00313 29.503124Q85.83125 29.034374 85.37813 28.753124Q84.94063 28.471874 84.33125 28.471874Q83.2375 28.471874 82.50313 29.20625Q81.78438 29.925 81.78438 31.51875L81.78438 37.55L80.03438 37.55L80.03438 30.815624Q80.03438 29.64375 79.59688 29.065624Q79.175 28.471874 78.19063 28.471874Q77.45625 28.471874 76.81563 28.8625Q76.19063 29.253124 75.90938 30.003124Q75.62813 30.753124 75.62813 32.175L75.62813 37.55L73.8625 37.55ZM96.64375 36.26875Q95.65938 37.096874 94.75313 37.440624Q93.84688 37.784374 92.81563 37.784374Q91.1125 37.784374 90.19063 36.95625Q89.26875 36.1125 89.26875 34.815624Q89.26875 34.05 89.6125 33.425Q89.97188 32.8 90.53438 32.425Q91.09688 32.034374 91.8 31.83125Q92.31563 31.70625 93.3625 31.565624Q95.4875 31.315624 96.4875 30.971874Q96.50313 30.6125 96.50313 30.503124Q96.50313 29.440624 96.00313 28.9875Q95.33125 28.39375 94.00313 28.39375Q92.75313 28.39375 92.15938 28.83125Q91.58125 29.26875 91.3 30.378124L89.58125 30.14375Q89.81563 29.034374 90.34688 28.3625Q90.87813 27.675 91.89375 27.315624Q92.90938 26.940624 94.25313 26.940624Q95.58125 26.940624 96.40938 27.253124Q97.2375 27.565624 97.62813 28.05Q98.01875 28.51875 98.175 29.2375Q98.26875 29.690624 98.26875 30.8625L98.26875 33.20625Q98.26875 35.659374 98.37813 36.315624Q98.4875 36.95625 98.83125 37.55L96.9875 37.55Q96.72188 37.003124 96.64375 36.26875ZM96.4875 32.346874Q95.53438 32.7375 93.6125 33.003124Q92.53438 33.159374 92.08125 33.3625Q91.64375 33.55 91.39375 33.925Q91.14375 34.3 91.14375 34.76875Q91.14375 35.471874 91.675 35.940624Q92.20625 36.409374 93.2375 36.409374Q94.25313 36.409374 95.03438 35.971874Q95.83125 35.51875 96.20625 34.753124Q96.4875 34.14375 96.4875 32.9875L96.4875 32.346874ZM100.84688 37.55L100.84688 27.175L102.425 27.175L102.425 28.753124Q103.03438 27.64375 103.55 27.3Q104.06563 26.940624 104.675 26.940624Q105.56563 26.940624 106.4875 27.503124L105.87813 29.14375Q105.2375 28.753124 104.59688 28.753124Q104.01875 28.753124 103.55 29.1125Q103.09688 29.45625 102.89375 30.065624Q102.6125 31.003124 102.6125 32.1125L102.6125 37.55L100.84688 37.55ZM107.87813 37.55L107.87813 23.2375L109.64375 23.2375L109.64375 31.39375L113.8 27.175L116.06563 27.175L112.1125 31.01875L116.47188 37.55L114.3 37.55L110.87813 32.253124L109.64375 33.440624L109.64375 37.55L107.87813 37.55ZM123.15938 34.45625L124.90938 34.175Q125.05 35.221874 125.72188 35.784374Q126.39375 36.33125 127.59688 36.33125Q128.8 36.33125 129.37813 35.846874Q129.97188 35.346874 129.97188 34.690624Q129.97188 34.096874 129.45625 33.753124Q129.09688 33.51875 127.65938 33.159374Q125.72188 32.659374 124.97188 32.315624Q124.2375 31.95625 123.84688 31.33125Q123.45625 30.690624 123.45625 29.925Q123.45625 29.2375 123.76875 28.64375Q124.09688 28.05 124.64375 27.659374Q125.05 27.3625 125.75313 27.159374Q126.47188 26.940624 127.28438 26.940624Q128.50313 26.940624 129.425 27.3Q130.34688 27.64375 130.78438 28.253124Q131.22188 28.846874 131.39375 29.846874L129.675 30.08125Q129.55 29.284374 128.9875 28.846874Q128.425 28.39375 127.40938 28.39375Q126.19063 28.39375 125.675 28.8Q125.15938 29.190624 125.15938 29.721874Q125.15938 30.065624 125.37813 30.346874Q125.58125 30.628124 126.05 30.815624Q126.31563 30.909374 127.59688 31.253124Q129.47188 31.753124 130.20625 32.08125Q130.94063 32.39375 131.3625 33.003124Q131.78438 33.596874 131.78438 34.503124Q131.78438 35.378124 131.26875 36.159374Q130.75313 36.940624 129.78438 37.3625Q128.81563 37.784374 127.59688 37.784374Q125.58125 37.784374 124.51875 36.940624Q123.45625 36.096874 123.15938 34.45625ZM140.65938 37.55L140.65938 36.01875Q139.45625 37.784374 137.37813 37.784374Q136.45625 37.784374 135.65938 37.440624Q134.8625 37.08125 134.47188 36.55Q134.09688 36.01875 133.94063 35.2375Q133.83125 34.721874 133.83125 33.596874L133.83125 27.175L135.58125 27.175L135.58125 32.925Q135.58125 34.3 135.69063 34.784374Q135.8625 35.471874 136.39375 35.878124Q136.94063 36.26875 137.72188 36.26875Q138.51875 36.26875 139.20625 35.8625Q139.90938 35.45625 140.19063 34.76875Q140.4875 34.065624 140.4875 32.7375L140.4875 27.175L142.2375 27.175L142.2375 37.55L140.65938 37.55ZM143.8625 37.55L143.8625 27.175L145.44063 27.175L145.44063 28.628124Q145.925 27.878124 146.7375 27.409374Q147.55 26.940624 148.58125 26.940624Q149.7375 26.940624 150.47188 27.425Q151.20625 27.89375 151.51875 28.753124Q152.75313 26.940624 154.72188 26.940624Q156.26875 26.940624 157.09688 27.8Q157.925 28.659374 157.925 30.425L157.925 37.55L156.175 37.55L156.175 31.01875Q156.175 29.95625 156.00313 29.503124Q155.83125 29.034374 155.37813 28.753124Q154.94063 28.471874 154.33125 28.471874Q153.2375 28.471874 152.50313 29.20625Q151.78438 29.925 151.78438 31.51875L151.78438 37.55L150.03438 37.55L150.03438 30.815624Q150.03438 29.64375 149.59688 29.065624Q149.175 28.471874 148.19063 28.471874Q147.45625 28.471874 146.81563 28.8625Q146.19063 29.253124 145.90938 30.003124Q145.62813 30.753124 145.62813 32.175L145.62813 37.55L143.8625 37.55ZM159.8625 37.55L159.8625 27.175L161.44063 27.175L161.44063 28.628124Q161.925 27.878124 162.7375 27.409374Q163.55 26.940624 164.58125 26.940624Q165.7375 26.940624 166.47188 27.425Q167.20625 27.89375 167.51875 28.753124Q168.75313 26.940624 170.72188 26.940624Q172.26875 26.940624 173.09688 27.8Q173.925 28.659374 173.925 30.425L173.925 37.55L172.175 37.55L172.175 31.01875Q172.175 29.95625 172.00313 29.503124Q171.83125 29.034374 171.37813 28.753124Q170.94063 28.471874 170.33125 28.471874Q169.2375 28.471874 168.50313 29.20625Q167.78438 29.925 167.78438 31.51875L167.78438 37.55L166.03438 37.55L166.03438 30.815624Q166.03438 29.64375 165.59688 29.065624Q165.175 28.471874 164.19063 28.471874Q163.45625 28.471874 162.81563 28.8625Q162.19063 29.253124 161.90938 30.003124Q161.62813 30.753124 161.62813 32.175L161.62813 37.55L159.8625 37.55ZM182.64375 36.26875Q181.65938 37.096874 180.75313 37.440624Q179.84688 37.784374 178.81563 37.784374Q177.1125 37.784374 176.19063 36.95625Q175.26875 36.1125 175.26875 34.815624Q175.26875 34.05 175.6125 33.425Q175.97188 32.8 176.53438 32.425Q177.09688 32.034374 177.8 31.83125Q178.31563 31.70625 179.3625 31.565624Q181.4875 31.315624 182.4875 30.971874Q182.50313 30.6125 182.50313 30.503124Q182.50313 29.440624 182.00313 28.9875Q181.33125 28.39375 180.00313 28.39375Q178.75313 28.39375 178.15938 28.83125Q177.58125 29.26875 177.3 30.378124L175.58125 30.14375Q175.81563 29.034374 176.34688 28.3625Q176.87813 27.675 177.89375 27.315624Q178.90938 26.940624 180.25313 26.940624Q181.58125 26.940624 182.40938 27.253124Q183.2375 27.565624 183.62813 28.05Q184.01875 28.51875 184.175 29.2375Q184.26875 29.690624 184.26875 30.8625L184.26875 33.20625Q184.26875 35.659374 184.37813 36.315624Q184.4875 36.95625 184.83125 37.55L182.9875 37.55Q182.72188 37.003124 182.64375 36.26875ZM182.4875 32.346874Q181.53438 32.7375 179.6125 33.003124Q178.53438 33.159374 178.08125 33.3625Q177.64375 33.55 177.39375 33.925Q177.14375 34.3 177.14375 34.76875Q177.14375 35.471874 177.675 35.940624Q178.20625 36.409374 179.2375 36.409374Q180.25313 36.409374 181.03438 35.971874Q181.83125 35.51875 182.20625 34.753124Q182.4875 34.14375 182.4875 32.9875L182.4875 32.346874ZM186.84688 37.55L186.84688 27.175L188.425 27.175L188.425 28.753124Q189.03438 27.64375 189.55 27.3Q190.06563 26.940624 190.675 26.940624Q191.56563 26.940624 192.4875 27.503124L191.87813 29.14375Q191.2375 28.753124 190.59688 28.753124Q190.01875 28.753124 189.55 29.1125Q189.09688 29.45625 188.89375 30.065624Q188.6125 31.003124 188.6125 32.1125L188.6125 37.55L186.84688 37.55ZM193.78438 41.55L193.59688 39.89375Q194.175 40.05 194.59688 40.05Q195.19063 40.05 195.53438 39.846874Q195.89375 39.659374 196.1125 39.315624Q196.28438 39.05 196.65938 38.003124Q196.70625 37.846874 196.81563 37.565624L192.87813 27.175L194.76875 27.175L196.925 33.190624Q197.34688 34.33125 197.675 35.58125Q197.9875 34.378124 198.39375 33.221874L200.6125 27.175L202.37813 27.175L198.425 37.721874Q197.8 39.440624 197.44063 40.08125Q196.97188 40.95625 196.3625 41.346874Q195.76875 41.753124 194.925 41.753124Q194.40938 41.753124 193.78438 41.55Z" fill-rule="nonzero"/></svg>