<svg width="32" height="32" viewBox="0 0 32 32" fill="none" xmlns="http://www.w3.org/2000/svg">
<path d="M22.5 27.7L16 22.5L9.5 27.7" stroke="#FA5A28" stroke-linecap="round" stroke-linejoin="round"/>
<path d="M3 10.5398C3 8.3556 3 7.2635 3.42507 6.42924C3.79898 5.69541 4.3956 5.09879 5.12944 4.72488C5.96369 4.2998 7.0558 4.2998 9.24 4.2998H22.76C24.9442 4.2998 26.0363 4.2998 26.8706 4.72488C27.6044 5.09879 28.201 5.69541 28.5749 6.42924C29 7.2635 29 8.3556 29 10.5398V16.2598C29 18.444 29 19.5361 28.5749 20.3704C28.201 21.1042 27.6044 21.7008 26.8706 22.0747C26.0363 22.4998 24.9442 22.4998 22.76 22.4998H9.24C7.0558 22.4998 5.96369 22.4998 5.12944 22.0747C4.3956 21.7008 3.79898 21.1042 3.42507 20.3704C3 19.5361 3 18.444 3 16.2598V10.5398Z" fill="#FBCEC0" stroke="#FA5A28" stroke-linecap="round" stroke-linejoin="round"/>
<path d="M13.1128 9.56151C13.1128 9.0297 13.1128 8.76379 13.2237 8.61722C13.3203 8.48952 13.4679 8.4105 13.6278 8.40096C13.8112 8.39 14.0325 8.5375 14.475 8.8325L20.2333 12.6714C20.5989 12.9151 20.7817 13.037 20.8454 13.1906C20.9011 13.3249 20.9011 13.4759 20.8454 13.6102C20.7817 13.7638 20.5989 13.8856 20.2333 14.1294L14.475 17.9683C14.0325 18.2633 13.8112 18.4108 13.6278 18.3998C13.4679 18.3903 13.3203 18.3113 13.2237 18.1836C13.1128 18.037 13.1128 17.7711 13.1128 17.2393V9.56151Z" fill="#FBEBE6" stroke="#FA5A28" stroke-linecap="round" stroke-linejoin="round"/>
</svg>
