<svg version="1.1" viewBox="0.0 0.0 709.0 439.0" fill="none" stroke="none" stroke-linecap="square" stroke-miterlimit="10" width="709" height="439" xmlns:xlink="http://www.w3.org/1999/xlink" xmlns="http://www.w3.org/2000/svg"><path fill="#ffffff" d="M0 0L709.0 0L709.0 439.0L0 439.0L0 0Z" fill-rule="nonzero"/><path stroke="#333333" stroke-width="1.0" stroke-linecap="butt" d="M55.5 397.5L687.5 397.5" fill-rule="nonzero"/><path stroke="#cccccc" stroke-width="1.0" stroke-linecap="butt" d="M55.5 321.5L687.5 321.5" fill-rule="nonzero"/><path stroke="#cccccc" stroke-width="1.0" stroke-linecap="butt" d="M55.5 246.5L687.5 246.5" fill-rule="nonzero"/><path stroke="#cccccc" stroke-width="1.0" stroke-linecap="butt" d="M55.5 171.5L687.5 171.5" fill-rule="nonzero"/><path stroke="#cccccc" stroke-width="1.0" stroke-linecap="butt" d="M55.5 96.5L687.5 96.5" fill-rule="nonzero"/><clipPath id="id_0"><path d="M55.95 96.21667L687.05 96.21667L687.05 397.05L55.95 397.05L55.95 96.21667Z" clip-rule="nonzero"/></clipPath><path stroke="#000000" stroke-width="2.0" stroke-linecap="butt" stroke-opacity="0.0" clip-path="url(#id_0)" d="M122.0 397.0L98.0 397.0L98.0 376.0C98.0 374.89542 98.89543 374.0 100.0 374.0L120.0 374.0C121.10457 374.0 122.0 374.89542 122.0 376.0Z" fill-rule="nonzero"/><path fill="#4285f4" clip-path="url(#id_0)" d="M122.0 397.0L98.0 397.0L98.0 376.0C98.0 374.89542 98.89543 374.0 100.0 374.0L120.0 374.0C121.10457 374.0 122.0 374.89542 122.0 376.0Z" fill-rule="nonzero"/><path stroke="#000000" stroke-width="2.0" stroke-linecap="butt" stroke-opacity="0.0" clip-path="url(#id_0)" d="M240.0 397.0L216.0 397.0L216.0 328.0C216.0 326.89542 216.89543 326.0 218.0 326.0L238.0 326.0C239.10457 326.0 240.0 326.89542 240.0 328.0Z" fill-rule="nonzero"/><path fill="#4285f4" clip-path="url(#id_0)" d="M240.0 397.0L216.0 397.0L216.0 328.0C216.0 326.89542 216.89543 326.0 218.0 326.0L238.0 326.0C239.10457 326.0 240.0 326.89542 240.0 328.0Z" fill-rule="nonzero"/><path stroke="#000000" stroke-width="2.0" stroke-linecap="butt" stroke-opacity="0.0" clip-path="url(#id_0)" d="M358.0 397.0L334.0 397.0L334.0 365.0C334.0 363.89542 334.89542 363.0 336.0 363.0L356.0 363.0C357.10458 363.0 358.0 363.89542 358.0 365.0Z" fill-rule="nonzero"/><path fill="#4285f4" clip-path="url(#id_0)" d="M358.0 397.0L334.0 397.0L334.0 365.0C334.0 363.89542 334.89542 363.0 336.0 363.0L356.0 363.0C357.10458 363.0 358.0 363.89542 358.0 365.0Z" fill-rule="nonzero"/><path stroke="#000000" stroke-width="2.0" stroke-linecap="butt" stroke-opacity="0.0" clip-path="url(#id_0)" d="M475.0 397.0L451.0 397.0L451.0 336.0C451.0 334.89542 451.89542 334.0 453.0 334.0L473.0 334.0C474.10458 334.0 475.0 334.89542 475.0 336.0Z" fill-rule="nonzero"/><path fill="#4285f4" clip-path="url(#id_0)" d="M475.0 397.0L451.0 397.0L451.0 336.0C451.0 334.89542 451.89542 334.0 453.0 334.0L473.0 334.0C474.10458 334.0 475.0 334.89542 475.0 336.0Z" fill-rule="nonzero"/><path stroke="#000000" stroke-width="2.0" stroke-linecap="butt" stroke-opacity="0.0" clip-path="url(#id_0)" d="M593.0 397.0L569.0 397.0L569.0 363.0C569.0 361.89542 569.89545 361.0 571.0 361.0L591.0 361.0C592.10455 361.0 593.0 361.89542 593.0 363.0Z" fill-rule="nonzero"/><path fill="#4285f4" clip-path="url(#id_0)" d="M593.0 397.0L569.0 397.0L569.0 363.0C569.0 361.89542 569.89545 361.0 571.0 361.0L591.0 361.0C592.10455 361.0 593.0 361.89542 593.0 363.0Z" fill-rule="nonzero"/><path stroke="#000000" stroke-width="2.0" stroke-linecap="butt" stroke-opacity="0.0" clip-path="url(#id_0)" d="M148.0 397.0L124.0 397.0L124.0 369.0C124.0 367.89542 124.89543 367.0 126.0 367.0L146.0 367.0C147.10457 367.0 148.0 367.89542 148.0 369.0Z" fill-rule="nonzero"/><path fill="#ea4335" clip-path="url(#id_0)" d="M148.0 397.0L124.0 397.0L124.0 369.0C124.0 367.89542 124.89543 367.0 126.0 367.0L146.0 367.0C147.10457 367.0 148.0 367.89542 148.0 369.0Z" fill-rule="nonzero"/><path stroke="#000000" stroke-width="2.0" stroke-linecap="butt" stroke-opacity="0.0" clip-path="url(#id_0)" d="M266.0 397.0L242.0 397.0L242.0 258.0C242.0 256.89542 242.89543 256.0 244.0 256.0L264.0 256.0C265.10458 256.0 266.0 256.89542 266.0 258.0Z" fill-rule="nonzero"/><path fill="#ea4335" clip-path="url(#id_0)" d="M266.0 397.0L242.0 397.0L242.0 258.0C242.0 256.89542 242.89543 256.0 244.0 256.0L264.0 256.0C265.10458 256.0 266.0 256.89542 266.0 258.0Z" fill-rule="nonzero"/><path stroke="#000000" stroke-width="2.0" stroke-linecap="butt" stroke-opacity="0.0" clip-path="url(#id_0)" d="M384.0 397.0L360.0 397.0L360.0 355.0C360.0 353.89542 360.89542 353.0 362.0 353.0L382.0 353.0C383.10458 353.0 384.0 353.89542 384.0 355.0Z" fill-rule="nonzero"/><path fill="#ea4335" clip-path="url(#id_0)" d="M384.0 397.0L360.0 397.0L360.0 355.0C360.0 353.89542 360.89542 353.0 362.0 353.0L382.0 353.0C383.10458 353.0 384.0 353.89542 384.0 355.0Z" fill-rule="nonzero"/><path stroke="#000000" stroke-width="2.0" stroke-linecap="butt" stroke-opacity="0.0" clip-path="url(#id_0)" d="M501.0 397.0L477.0 397.0L477.0 321.0C477.0 319.89542 477.89542 319.0 479.0 319.0L499.0 319.0C500.10458 319.0 501.0 319.89542 501.0 321.0Z" fill-rule="nonzero"/><path fill="#ea4335" clip-path="url(#id_0)" d="M501.0 397.0L477.0 397.0L477.0 321.0C477.0 319.89542 477.89542 319.0 479.0 319.0L499.0 319.0C500.10458 319.0 501.0 319.89542 501.0 321.0Z" fill-rule="nonzero"/><path stroke="#000000" stroke-width="2.0" stroke-linecap="butt" stroke-opacity="0.0" clip-path="url(#id_0)" d="M619.0 397.0L595.0 397.0L595.0 297.0C595.0 295.89542 595.89545 295.0 597.0 295.0L617.0 295.0C618.10455 295.0 619.0 295.89542 619.0 297.0Z" fill-rule="nonzero"/><path fill="#ea4335" clip-path="url(#id_0)" d="M619.0 397.0L595.0 397.0L595.0 297.0C595.0 295.89542 595.89545 295.0 597.0 295.0L617.0 295.0C618.10455 295.0 619.0 295.89542 619.0 297.0Z" fill-rule="nonzero"/><path stroke="#000000" stroke-width="2.0" stroke-linecap="butt" stroke-opacity="0.0" clip-path="url(#id_0)" d="M174.0 397.0L150.0 397.0L150.0 387.0C150.0 385.89542 150.89543 385.0 152.0 385.0L172.0 385.0C173.10457 385.0 174.0 385.89542 174.0 387.0Z" fill-rule="nonzero"/><path fill="#fbbc04" clip-path="url(#id_0)" d="M174.0 397.0L150.0 397.0L150.0 387.0C150.0 385.89542 150.89543 385.0 152.0 385.0L172.0 385.0C173.10457 385.0 174.0 385.89542 174.0 387.0Z" fill-rule="nonzero"/><path stroke="#000000" stroke-width="2.0" stroke-linecap="butt" stroke-opacity="0.0" clip-path="url(#id_0)" d="M292.0 397.0L268.0 397.0L268.0 362.0C268.0 360.89542 268.89542 360.0 270.0 360.0L290.0 360.0C291.10458 360.0 292.0 360.89542 292.0 362.0Z" fill-rule="nonzero"/><path fill="#fbbc04" clip-path="url(#id_0)" d="M292.0 397.0L268.0 397.0L268.0 362.0C268.0 360.89542 268.89542 360.0 270.0 360.0L290.0 360.0C291.10458 360.0 292.0 360.89542 292.0 362.0Z" fill-rule="nonzero"/><path stroke="#000000" stroke-width="2.0" stroke-linecap="butt" stroke-opacity="0.0" clip-path="url(#id_0)" d="M410.0 397.0L386.0 397.0L386.0 239.0C386.0 237.89543 386.89542 237.0 388.0 237.0L408.0 237.0C409.10458 237.0 410.0 237.89543 410.0 239.0Z" fill-rule="nonzero"/><path fill="#fbbc04" clip-path="url(#id_0)" d="M410.0 397.0L386.0 397.0L386.0 239.0C386.0 237.89543 386.89542 237.0 388.0 237.0L408.0 237.0C409.10458 237.0 410.0 237.89543 410.0 239.0Z" fill-rule="nonzero"/><path stroke="#000000" stroke-width="2.0" stroke-linecap="butt" stroke-opacity="0.0" clip-path="url(#id_0)" d="M527.0 397.0L503.0 397.0L503.0 245.0C503.0 243.89543 503.89542 243.0 505.0 243.0L525.0 243.0C526.10455 243.0 527.0 243.89543 527.0 245.0Z" fill-rule="nonzero"/><path fill="#fbbc04" clip-path="url(#id_0)" d="M527.0 397.0L503.0 397.0L503.0 245.0C503.0 243.89543 503.89542 243.0 505.0 243.0L525.0 243.0C526.10455 243.0 527.0 243.89543 527.0 245.0Z" fill-rule="nonzero"/><path stroke="#000000" stroke-width="2.0" stroke-linecap="butt" stroke-opacity="0.0" clip-path="url(#id_0)" d="M645.0 397.0L621.0 397.0L621.0 135.0C621.0 133.89543 621.89545 133.0 623.0 133.0L643.0 133.0C644.10455 133.0 645.0 133.89543 645.0 135.0Z" fill-rule="nonzero"/><path fill="#fbbc04" clip-path="url(#id_0)" d="M645.0 397.0L621.0 397.0L621.0 135.0C621.0 133.89543 621.89545 133.0 623.0 133.0L643.0 133.0C644.10455 133.0 645.0 133.89543 645.0 135.0Z" fill-rule="nonzero"/><path fill="#000000" d="M43.45 396.8156Q43.45 395.28436 43.7625 394.3625Q44.075 393.425 44.684376 392.925Q45.309376 392.425 46.246876 392.425Q46.934376 392.425 47.45 392.70624Q47.98125 392.9875 48.325 393.51874Q48.66875 394.03436 48.85625 394.78436Q49.04375 395.53436 49.04375 396.8156Q49.04375 398.33124 48.73125 399.2531Q48.434376 400.175 47.809376 400.6906Q47.2 401.1906 46.246876 401.1906Q45.0125 401.1906 44.29375 400.3Q43.45 399.2375 43.45 396.8156ZM44.528126 396.8156Q44.528126 398.925 45.028126 399.6281Q45.528126 400.33124 46.246876 400.33124Q46.98125 400.33124 47.465626 399.6281Q47.965626 398.925 47.965626 396.8156Q47.965626 394.6906 47.465626 394.0031Q46.98125 393.3 46.23125 393.3Q45.5125 393.3 45.075 393.90936Q44.528126 394.6906 44.528126 396.8156Z" fill-rule="nonzero"/><path fill="#000000" d="M26.41875 325.84167L25.371876 325.84167L25.371876 319.12292Q24.98125 319.4823 24.35625 319.8573Q23.746876 320.21667 23.2625 320.38855L23.2625 319.37292Q24.1375 318.95105 24.79375 318.37292Q25.465626 317.77917 25.746876 317.21667L26.41875 317.21667L26.41875 325.84167ZM29.45 321.6073Q29.45 320.07605 29.7625 319.15417Q30.075 318.21667 30.684376 317.71667Q31.309376 317.21667 32.246876 317.21667Q32.934376 317.21667 33.45 317.49792Q33.98125 317.77917 34.325 318.31042Q34.66875 318.82605 34.85625 319.57605Q35.04375 320.32605 35.04375 321.6073Q35.04375 323.12292 34.73125 324.0448Q34.434376 324.96667 33.809376 325.4823Q33.2 325.9823 32.246876 325.9823Q31.0125 325.9823 30.29375 325.09167Q29.45 324.02917 29.45 321.6073ZM30.528126 321.6073Q30.528126 323.71667 31.028126 324.4198Q31.528126 325.12292 32.246876 325.12292Q32.98125 325.12292 33.465626 324.4198Q33.965626 323.71667 33.965626 321.6073Q33.965626 319.4823 33.465626 318.7948Q32.98125 318.09167 32.23125 318.09167Q31.5125 318.09167 31.075 318.70105Q30.528126 319.4823 30.528126 321.6073ZM36.45 321.6073Q36.45 320.07605 36.7625 319.15417Q37.075 318.21667 37.684376 317.71667Q38.309376 317.21667 39.246876 317.21667Q39.934376 317.21667 40.45 317.49792Q40.98125 317.77917 41.325 318.31042Q41.66875 318.82605 41.85625 319.57605Q42.04375 320.32605 42.04375 321.6073Q42.04375 323.12292 41.73125 324.0448Q41.434376 324.96667 40.809376 325.4823Q40.2 325.9823 39.246876 325.9823Q38.0125 325.9823 37.29375 325.09167Q36.45 324.02917 36.45 321.6073ZM37.528126 321.6073Q37.528126 323.71667 38.028126 324.4198Q38.528126 325.12292 39.246876 325.12292Q39.98125 325.12292 40.465626 324.4198Q40.965626 323.71667 40.965626 321.6073Q40.965626 319.4823 40.465626 318.7948Q39.98125 318.09167 39.23125 318.09167Q38.5125 318.09167 38.075 318.70105Q37.528126 319.4823 37.528126 321.6073ZM43.45 321.6073Q43.45 320.07605 43.7625 319.15417Q44.075 318.21667 44.684376 317.71667Q45.309376 317.21667 46.246876 317.21667Q46.934376 317.21667 47.45 317.49792Q47.98125 317.77917 48.325 318.31042Q48.66875 318.82605 48.85625 319.57605Q49.04375 320.32605 49.04375 321.6073Q49.04375 323.12292 48.73125 324.0448Q48.434376 324.96667 47.809376 325.4823Q47.2 325.9823 46.246876 325.9823Q45.0125 325.9823 44.29375 325.09167Q43.45 324.02917 43.45 321.6073ZM44.528126 321.6073Q44.528126 323.71667 45.028126 324.4198Q45.528126 325.12292 46.246876 325.12292Q46.98125 325.12292 47.465626 324.4198Q47.965626 323.71667 47.965626 321.6073Q47.965626 319.4823 47.465626 318.7948Q46.98125 318.09167 46.23125 318.09167Q45.5125 318.09167 45.075 318.70105Q44.528126 319.4823 44.528126 321.6073Z" fill-rule="nonzero"/><path fill="#000000" d="M27.996876 249.6177L27.996876 250.63333L22.309376 250.63333Q22.309376 250.25833 22.434376 249.89896Q22.653126 249.32083 23.121876 248.75833Q23.60625 248.19583 24.5125 247.46146Q25.91875 246.3052 26.403126 245.63333Q26.903126 244.96146 26.903126 244.3677Q26.903126 243.7427 26.45 243.32083Q25.996876 242.88333 25.278126 242.88333Q24.5125 242.88333 24.059376 243.33646Q23.60625 243.78958 23.590626 244.60208L22.5125 244.4927Q22.621876 243.27396 23.340626 242.64896Q24.075 242.00833 25.309376 242.00833Q26.54375 242.00833 27.2625 242.69583Q27.98125 243.38333 27.98125 244.39896Q27.98125 244.91458 27.7625 245.41458Q27.559376 245.89896 27.059376 246.46146Q26.575 247.00833 25.45 247.96146Q24.496876 248.75833 24.215626 249.0552Q23.95 249.33646 23.778126 249.6177L27.996876 249.6177ZM29.45 246.39896Q29.45 244.8677 29.7625 243.94583Q30.075 243.00833 30.684376 242.50833Q31.309376 242.00833 32.246876 242.00833Q32.934376 242.00833 33.45 242.28958Q33.98125 242.57083 34.325 243.10208Q34.66875 243.6177 34.85625 244.3677Q35.04375 245.1177 35.04375 246.39896Q35.04375 247.91458 34.73125 248.83646Q34.434376 249.75833 33.809376 250.27396Q33.2 250.77396 32.246876 250.77396Q31.0125 250.77396 30.29375 249.88333Q29.45 248.82083 29.45 246.39896ZM30.528126 246.39896Q30.528126 248.50833 31.028126 249.21146Q31.528126 249.91458 32.246876 249.91458Q32.98125 249.91458 33.465626 249.21146Q33.965626 248.50833 33.965626 246.39896Q33.965626 244.27396 33.465626 243.58646Q32.98125 242.88333 32.23125 242.88333Q31.5125 242.88333 31.075 243.4927Q30.528126 244.27396 30.528126 246.39896ZM36.45 246.39896Q36.45 244.8677 36.7625 243.94583Q37.075 243.00833 37.684376 242.50833Q38.309376 242.00833 39.246876 242.00833Q39.934376 242.00833 40.45 242.28958Q40.98125 242.57083 41.325 243.10208Q41.66875 243.6177 41.85625 244.3677Q42.04375 245.1177 42.04375 246.39896Q42.04375 247.91458 41.73125 248.83646Q41.434376 249.75833 40.809376 250.27396Q40.2 250.77396 39.246876 250.77396Q38.0125 250.77396 37.29375 249.88333Q36.45 248.82083 36.45 246.39896ZM37.528126 246.39896Q37.528126 248.50833 38.028126 249.21146Q38.528126 249.91458 39.246876 249.91458Q39.98125 249.91458 40.465626 249.21146Q40.965626 248.50833 40.965626 246.39896Q40.965626 244.27396 40.465626 243.58646Q39.98125 242.88333 39.23125 242.88333Q38.5125 242.88333 38.075 243.4927Q37.528126 244.27396 37.528126 246.39896ZM43.45 246.39896Q43.45 244.8677 43.7625 243.94583Q44.075 243.00833 44.684376 242.50833Q45.309376 242.00833 46.246876 242.00833Q46.934376 242.00833 47.45 242.28958Q47.98125 242.57083 48.325 243.10208Q48.66875 243.6177 48.85625 244.3677Q49.04375 245.1177 49.04375 246.39896Q49.04375 247.91458 48.73125 248.83646Q48.434376 249.75833 47.809376 250.27396Q47.2 250.77396 46.246876 250.77396Q45.0125 250.77396 44.29375 249.88333Q43.45 248.82083 43.45 246.39896ZM44.528126 246.39896Q44.528126 248.50833 45.028126 249.21146Q45.528126 249.91458 46.246876 249.91458Q46.98125 249.91458 47.465626 249.21146Q47.965626 248.50833 47.965626 246.39896Q47.965626 244.27396 47.465626 243.58646Q46.98125 242.88333 46.23125 242.88333Q45.5125 242.88333 45.075 243.4927Q44.528126 244.27396 44.528126 246.39896Z" fill-rule="nonzero"/><path fill="#000000" d="M22.45 173.15938L23.5125 173.01875Q23.684376 173.90938 24.121876 174.31563Q24.559376 174.70625 25.184376 174.70625Q25.934376 174.70625 26.45 174.19063Q26.965626 173.675 26.965626 172.90938Q26.965626 172.19063 26.48125 171.72188Q26.0125 171.2375 25.278126 171.2375Q24.98125 171.2375 24.528126 171.3625L24.653126 170.425Q24.7625 170.44063 24.825 170.44063Q25.496876 170.44063 26.028126 170.09688Q26.575 169.7375 26.575 169.00313Q26.575 168.425 26.184376 168.05Q25.79375 167.65938 25.16875 167.65938Q24.559376 167.65938 24.1375 168.05Q23.73125 168.44063 23.621876 169.20625L22.559376 169.01875Q22.746876 167.97188 23.434376 167.39375Q24.121876 166.8 25.1375 166.8Q25.840626 166.8 26.434376 167.1125Q27.028126 167.40938 27.340626 167.925Q27.653126 168.44063 27.653126 169.03438Q27.653126 169.58125 27.35625 170.05Q27.059376 170.50313 26.48125 170.76875Q27.23125 170.94063 27.653126 171.50313Q28.075 172.05 28.075 172.89375Q28.075 174.01875 27.246876 174.8Q26.434376 175.58125 25.184376 175.58125Q24.059376 175.58125 23.309376 174.90938Q22.559376 174.22188 22.45 173.15938ZM29.45 171.19063Q29.45 169.65938 29.7625 168.7375Q30.075 167.8 30.684376 167.3Q31.309376 166.8 32.246876 166.8Q32.934376 166.8 33.45 167.08125Q33.98125 167.3625 34.325 167.89375Q34.66875 168.40938 34.85625 169.15938Q35.04375 169.90938 35.04375 171.19063Q35.04375 172.70625 34.73125 173.62813Q34.434376 174.55 33.809376 175.06563Q33.2 175.56563 32.246876 175.56563Q31.0125 175.56563 30.29375 174.675Q29.45 173.6125 29.45 171.19063ZM30.528126 171.19063Q30.528126 173.3 31.028126 174.00313Q31.528126 174.70625 32.246876 174.70625Q32.98125 174.70625 33.465626 174.00313Q33.965626 173.3 33.965626 171.19063Q33.965626 169.06563 33.465626 168.37813Q32.98125 167.675 32.23125 167.675Q31.5125 167.675 31.075 168.28438Q30.528126 169.06563 30.528126 171.19063ZM36.45 171.19063Q36.45 169.65938 36.7625 168.7375Q37.075 167.8 37.684376 167.3Q38.309376 166.8 39.246876 166.8Q39.934376 166.8 40.45 167.08125Q40.98125 167.3625 41.325 167.89375Q41.66875 168.40938 41.85625 169.15938Q42.04375 169.90938 42.04375 171.19063Q42.04375 172.70625 41.73125 173.62813Q41.434376 174.55 40.809376 175.06563Q40.2 175.56563 39.246876 175.56563Q38.0125 175.56563 37.29375 174.675Q36.45 173.6125 36.45 171.19063ZM37.528126 171.19063Q37.528126 173.3 38.028126 174.00313Q38.528126 174.70625 39.246876 174.70625Q39.98125 174.70625 40.465626 174.00313Q40.965626 173.3 40.965626 171.19063Q40.965626 169.06563 40.465626 168.37813Q39.98125 167.675 39.23125 167.675Q38.5125 167.675 38.075 168.28438Q37.528126 169.06563 37.528126 171.19063ZM43.45 171.19063Q43.45 169.65938 43.7625 168.7375Q44.075 167.8 44.684376 167.3Q45.309376 166.8 46.246876 166.8Q46.934376 166.8 47.45 167.08125Q47.98125 167.3625 48.325 167.89375Q48.66875 168.40938 48.85625 169.15938Q49.04375 169.90938 49.04375 171.19063Q49.04375 172.70625 48.73125 173.62813Q48.434376 174.55 47.809376 175.06563Q47.2 175.56563 46.246876 175.56563Q45.0125 175.56563 44.29375 174.675Q43.45 173.6125 43.45 171.19063ZM44.528126 171.19063Q44.528126 173.3 45.028126 174.00313Q45.528126 174.70625 46.246876 174.70625Q46.98125 174.70625 47.465626 174.00313Q47.965626 173.3 47.965626 171.19063Q47.965626 169.06563 47.465626 168.37813Q46.98125 167.675 46.23125 167.675Q45.5125 167.675 45.075 168.28438Q44.528126 169.06563 44.528126 171.19063Z" fill-rule="nonzero"/><path fill="#000000" d="M25.825 100.21667L25.825 98.15417L22.10625 98.15417L22.10625 97.18542L26.028126 91.62292L26.8875 91.62292L26.8875 97.18542L28.04375 97.18542L28.04375 98.15417L26.8875 98.15417L26.8875 100.21667L25.825 100.21667ZM25.825 97.18542L25.825 93.32604L23.1375 97.18542L25.825 97.18542ZM29.45 95.98229Q29.45 94.45104 29.7625 93.52917Q30.075 92.59167 30.684376 92.09167Q31.309376 91.59167 32.246876 91.59167Q32.934376 91.59167 33.45 91.87292Q33.98125 92.15417 34.325 92.68542Q34.66875 93.20104 34.85625 93.95104Q35.04375 94.70104 35.04375 95.98229Q35.04375 97.49792 34.73125 98.41979Q34.434376 99.34167 33.809376 99.85729Q33.2 100.35729 32.246876 100.35729Q31.0125 100.35729 30.29375 99.46667Q29.45 98.40417 29.45 95.98229ZM30.528126 95.98229Q30.528126 98.09167 31.028126 98.79479Q31.528126 99.49792 32.246876 99.49792Q32.98125 99.49792 33.465626 98.79479Q33.965626 98.09167 33.965626 95.98229Q33.965626 93.85729 33.465626 93.16979Q32.98125 92.46667 32.23125 92.46667Q31.5125 92.46667 31.075 93.07604Q30.528126 93.85729 30.528126 95.98229ZM36.45 95.98229Q36.45 94.45104 36.7625 93.52917Q37.075 92.59167 37.684376 92.09167Q38.309376 91.59167 39.246876 91.59167Q39.934376 91.59167 40.45 91.87292Q40.98125 92.15417 41.325 92.68542Q41.66875 93.20104 41.85625 93.95104Q42.04375 94.70104 42.04375 95.98229Q42.04375 97.49792 41.73125 98.41979Q41.434376 99.34167 40.809376 99.85729Q40.2 100.35729 39.246876 100.35729Q38.0125 100.35729 37.29375 99.46667Q36.45 98.40417 36.45 95.98229ZM37.528126 95.98229Q37.528126 98.09167 38.028126 98.79479Q38.528126 99.49792 39.246876 99.49792Q39.98125 99.49792 40.465626 98.79479Q40.965626 98.09167 40.965626 95.98229Q40.965626 93.85729 40.465626 93.16979Q39.98125 92.46667 39.23125 92.46667Q38.5125 92.46667 38.075 93.07604Q37.528126 93.85729 37.528126 95.98229ZM43.45 95.98229Q43.45 94.45104 43.7625 93.52917Q44.075 92.59167 44.684376 92.09167Q45.309376 91.59167 46.246876 91.59167Q46.934376 91.59167 47.45 91.87292Q47.98125 92.15417 48.325 92.68542Q48.66875 93.20104 48.85625 93.95104Q49.04375 94.70104 49.04375 95.98229Q49.04375 97.49792 48.73125 98.41979Q48.434376 99.34167 47.809376 99.85729Q47.2 100.35729 46.246876 100.35729Q45.0125 100.35729 44.29375 99.46667Q43.45 98.40417 43.45 95.98229ZM44.528126 95.98229Q44.528126 98.09167 45.028126 98.79479Q45.528126 99.49792 46.246876 99.49792Q46.98125 99.49792 47.465626 98.79479Q47.965626 98.09167 47.965626 95.98229Q47.965626 93.85729 47.465626 93.16979Q46.98125 92.46667 46.23125 92.46667Q45.5125 92.46667 45.075 93.07604Q44.528126 93.85729 44.528126 95.98229Z" fill-rule="nonzero"/><path fill="#000000" d="M121.68414 414.05L121.68414 406.47186L118.85602 406.47186L118.85602 405.45624L125.66852 405.45624L125.66852 406.47186L122.82477 406.47186L122.82477 414.05L121.68414 414.05ZM130.62164 412.05L131.7154 412.175Q131.4654 413.1281 130.76227 413.65936Q130.05914 414.1906 128.98102 414.1906Q127.62164 414.1906 126.80914 413.34686Q126.01227 412.5031 126.01227 410.9875Q126.01227 409.425 126.82477 408.5656Q127.63727 407.6906 128.91852 407.6906Q130.16852 407.6906 130.94977 408.53436Q131.74664 409.3781 131.74664 410.925Q131.74664 411.01874 131.74664 411.20624L127.10602 411.20624Q127.16852 412.2375 127.68414 412.78436Q128.19977 413.3156 128.98102 413.3156Q129.55914 413.3156 129.9654 413.01874Q130.38727 412.70624 130.62164 412.05ZM127.16852 410.34686L130.63727 410.34686Q130.57477 409.55 130.24664 409.15936Q129.73102 408.55 128.93414 408.55Q128.19977 408.55 127.69977 409.03436Q127.21539 409.51874 127.16852 410.34686ZM132.94977 412.1906L133.98102 412.03436Q134.07477 412.65936 134.4654 412.9875Q134.87164 413.3156 135.60602 413.3156Q136.32477 413.3156 136.66852 413.03436Q137.0279 412.7375 137.0279 412.33124Q137.0279 411.97186 136.7154 411.76874Q136.49664 411.6281 135.63727 411.40936Q134.48102 411.1125 134.0279 410.90936Q133.5904 410.6906 133.35602 410.3156Q133.12164 409.9406 133.12164 409.47186Q133.12164 409.0656 133.30914 408.70624Q133.49664 408.34686 133.82477 408.1125Q134.07477 407.9406 134.49664 407.8156Q134.91852 407.6906 135.41852 407.6906Q136.13727 407.6906 136.68414 407.90936Q137.24664 408.1125 137.51227 408.47186Q137.7779 408.83124 137.87164 409.425L136.8404 409.5656Q136.7779 409.09686 136.43414 408.83124Q136.10602 408.55 135.48102 408.55Q134.76227 408.55 134.44977 408.8Q134.13727 409.03436 134.13727 409.3625Q134.13727 409.5656 134.26227 409.72186Q134.4029 409.89374 134.66852 410.0031Q134.82477 410.0656 135.60602 410.26874Q136.73102 410.58124 137.16852 410.76874Q137.60602 410.95624 137.85602 411.3156Q138.10602 411.675 138.10602 412.22186Q138.10602 412.7531 137.79352 413.22186Q137.49664 413.675 136.91852 413.9406Q136.3404 414.1906 135.60602 414.1906Q134.38727 414.1906 133.74664 413.6906Q133.12164 413.175 132.94977 412.1906ZM142.66852 413.1125L142.82477 414.03436Q142.37164 414.1281 142.0279 414.1281Q141.44977 414.1281 141.13727 413.95624Q140.82477 413.76874 140.68414 413.47186Q140.55914 413.175 140.55914 412.22186L140.55914 408.64374L139.79352 408.64374L139.79352 407.83124L140.55914 407.83124L140.55914 406.28436L141.60602 405.65936L141.60602 407.83124L142.66852 407.83124L142.66852 408.64374L141.60602 408.64374L141.60602 412.28436Q141.60602 412.7375 141.6529 412.8625Q141.7154 412.9875 141.8404 413.0656Q141.9654 413.14374 142.19977 413.14374Q142.38727 413.14374 142.66852 413.1125ZM145.55914 414.05L148.85602 405.45624L150.07477 405.45624L153.5904 414.05L152.30914 414.05L151.29352 411.4406L147.7154 411.4406L146.76227 414.05L145.55914 414.05ZM148.04352 410.51874L150.94977 410.51874L150.05914 408.14374Q149.63727 407.0656 149.44977 406.3625Q149.2779 407.1906 148.98102 408.0031L148.04352 410.51874Z" fill-rule="nonzero"/><path fill="#000000" d="M239.14676 414.05L239.14676 406.47186L236.31863 406.47186L236.31863 405.45624L243.13113 405.45624L243.13113 406.47186L240.28738 406.47186L240.28738 414.05L239.14676 414.05ZM248.08426 412.05L249.17801 412.175Q248.92801 413.1281 248.22488 413.65936Q247.52176 414.1906 246.44363 414.1906Q245.08426 414.1906 244.27176 413.34686Q243.47488 412.5031 243.47488 410.9875Q243.47488 409.425 244.28738 408.5656Q245.09988 407.6906 246.38113 407.6906Q247.63113 407.6906 248.41238 408.53436Q249.20926 409.3781 249.20926 410.925Q249.20926 411.01874 249.20926 411.20624L244.56863 411.20624Q244.63113 412.2375 245.14676 412.78436Q245.66238 413.3156 246.44363 413.3156Q247.02176 413.3156 247.42801 413.01874Q247.84988 412.70624 248.08426 412.05ZM244.63113 410.34686L248.09988 410.34686Q248.03738 409.55 247.70926 409.15936Q247.19363 408.55 246.39676 408.55Q245.66238 408.55 245.16238 409.03436Q244.67801 409.51874 244.63113 410.34686ZM250.41238 412.1906L251.44363 412.03436Q251.53738 412.65936 251.92801 412.9875Q252.33426 413.3156 253.06863 413.3156Q253.78738 413.3156 254.13113 413.03436Q254.49051 412.7375 254.49051 412.33124Q254.49051 411.97186 254.17801 411.76874Q253.95926 411.6281 253.09988 411.40936Q251.94363 411.1125 251.49051 410.90936Q251.05301 410.6906 250.81863 410.3156Q250.58426 409.9406 250.58426 409.47186Q250.58426 409.0656 250.77176 408.70624Q250.95926 408.34686 251.28738 408.1125Q251.53738 407.9406 251.95926 407.8156Q252.38113 407.6906 252.88113 407.6906Q253.59988 407.6906 254.14676 407.90936Q254.70926 408.1125 254.97488 408.47186Q255.24051 408.83124 255.33426 409.425L254.30301 409.5656Q254.24051 409.09686 253.89676 408.83124Q253.56863 408.55 252.94363 408.55Q252.22488 408.55 251.91238 408.8Q251.59988 409.03436 251.59988 409.3625Q251.59988 409.5656 251.72488 409.72186Q251.86551 409.89374 252.13113 410.0031Q252.28738 410.0656 253.06863 410.26874Q254.19363 410.58124 254.63113 410.76874Q255.06863 410.95624 255.31863 411.3156Q255.56863 411.675 255.56863 412.22186Q255.56863 412.7531 255.25613 413.22186Q254.95926 413.675 254.38113 413.9406Q253.80301 414.1906 253.06863 414.1906Q251.84988 414.1906 251.20926 413.6906Q250.58426 413.175 250.41238 412.1906ZM260.13113 413.1125L260.28738 414.03436Q259.83426 414.1281 259.4905 414.1281Q258.91238 414.1281 258.59988 413.95624Q258.28738 413.76874 258.14676 413.47186Q258.02176 413.175 258.02176 412.22186L258.02176 408.64374L257.25613 408.64374L257.25613 407.83124L258.02176 407.83124L258.02176 406.28436L259.06863 405.65936L259.06863 407.83124L260.13113 407.83124L260.13113 408.64374L259.06863 408.64374L259.06863 412.28436Q259.06863 412.7375 259.1155 412.8625Q259.178 412.9875 259.303 413.0656Q259.428 413.14374 259.66238 413.14374Q259.84988 413.14374 260.13113 413.1125ZM263.91238 414.05L263.91238 405.45624L267.14676 405.45624Q268.13113 405.45624 268.72488 405.72186Q269.31863 405.9875 269.64676 406.53436Q269.9905 407.0656 269.9905 407.65936Q269.9905 408.20624 269.69363 408.6906Q269.39676 409.175 268.78738 409.47186Q269.56863 409.70624 269.97488 410.26874Q270.39676 410.8156 270.39676 411.5656Q270.39676 412.15936 270.14676 412.6906Q269.89676 413.20624 269.52176 413.4875Q269.14676 413.76874 268.56863 413.90936Q268.00613 414.05 267.19363 414.05L263.91238 414.05ZM265.053 409.0656L266.91238 409.0656Q267.66238 409.0656 267.9905 408.97186Q268.428 408.84686 268.64676 408.55Q268.8655 408.2375 268.8655 407.78436Q268.8655 407.3625 268.66238 407.03436Q268.45926 406.70624 268.06863 406.59686Q267.69363 406.47186 266.77176 406.47186L265.053 406.47186L265.053 409.0656ZM265.053 413.03436L267.19363 413.03436Q267.7405 413.03436 267.95926 412.9875Q268.3655 412.925 268.6155 412.76874Q268.88113 412.59686 269.053 412.28436Q269.22488 411.97186 269.22488 411.5656Q269.22488 411.08124 268.97488 410.72186Q268.7405 410.3625 268.303 410.22186Q267.8655 410.08124 267.03738 410.08124L265.053 410.08124L265.053 413.03436Z" fill-rule="nonzero"/><path fill="#000000" d="M356.60938 414.05L356.60938 406.47186L353.78125 406.47186L353.78125 405.45624L360.59375 405.45624L360.59375 406.47186L357.75 406.47186L357.75 414.05L356.60938 414.05ZM365.54688 412.05L366.64062 412.175Q366.39062 413.1281 365.6875 413.65936Q364.98438 414.1906 363.90625 414.1906Q362.54688 414.1906 361.73438 413.34686Q360.9375 412.5031 360.9375 410.9875Q360.9375 409.425 361.75 408.5656Q362.5625 407.6906 363.84375 407.6906Q365.09375 407.6906 365.875 408.53436Q366.67188 409.3781 366.67188 410.925Q366.67188 411.01874 366.67188 411.20624L362.03125 411.20624Q362.09375 412.2375 362.60938 412.78436Q363.125 413.3156 363.90625 413.3156Q364.48438 413.3156 364.89062 413.01874Q365.3125 412.70624 365.54688 412.05ZM362.09375 410.34686L365.5625 410.34686Q365.5 409.55 365.17188 409.15936Q364.65625 408.55 363.85938 408.55Q363.125 408.55 362.625 409.03436Q362.14062 409.51874 362.09375 410.34686ZM367.875 412.1906L368.90625 412.03436Q369.0 412.65936 369.39062 412.9875Q369.79688 413.3156 370.53125 413.3156Q371.25 413.3156 371.59375 413.03436Q371.95312 412.7375 371.95312 412.33124Q371.95312 411.97186 371.64062 411.76874Q371.42188 411.6281 370.5625 411.40936Q369.40625 411.1125 368.95312 410.90936Q368.51562 410.6906 368.28125 410.3156Q368.04688 409.9406 368.04688 409.47186Q368.04688 409.0656 368.23438 408.70624Q368.42188 408.34686 368.75 408.1125Q369.0 407.9406 369.42188 407.8156Q369.84375 407.6906 370.34375 407.6906Q371.0625 407.6906 371.60938 407.90936Q372.17188 408.1125 372.4375 408.47186Q372.70312 408.83124 372.79688 409.425L371.76562 409.5656Q371.70312 409.09686 371.35938 408.83124Q371.03125 408.55 370.40625 408.55Q369.6875 408.55 369.375 408.8Q369.0625 409.03436 369.0625 409.3625Q369.0625 409.5656 369.1875 409.72186Q369.32812 409.89374 369.59375 410.0031Q369.75 410.0656 370.53125 410.26874Q371.65625 410.58124 372.09375 410.76874Q372.53125 410.95624 372.78125 411.3156Q373.03125 411.675 373.03125 412.22186Q373.03125 412.7531 372.71875 413.22186Q372.42188 413.675 371.84375 413.9406Q371.26562 414.1906 370.53125 414.1906Q369.3125 414.1906 368.67188 413.6906Q368.04688 413.175 367.875 412.1906ZM377.59375 413.1125L377.75 414.03436Q377.29688 414.1281 376.95312 414.1281Q376.375 414.1281 376.0625 413.95624Q375.75 413.76874 375.60938 413.47186Q375.48438 413.175 375.48438 412.22186L375.48438 408.64374L374.71875 408.64374L374.71875 407.83124L375.48438 407.83124L375.48438 406.28436L376.53125 405.65936L376.53125 407.83124L377.59375 407.83124L377.59375 408.64374L376.53125 408.64374L376.53125 412.28436Q376.53125 412.7375 376.57812 412.8625Q376.64062 412.9875 376.76562 413.0656Q376.89062 413.14374 377.125 413.14374Q377.3125 413.14374 377.59375 413.1125ZM387.5625 411.03436L388.6875 411.33124Q388.32812 412.72186 387.40625 413.45624Q386.48438 414.1906 385.14062 414.1906Q383.75 414.1906 382.875 413.6281Q382.0 413.0656 381.54688 412.0031Q381.09375 410.925 381.09375 409.6906Q381.09375 408.34686 381.60938 407.34686Q382.125 406.34686 383.0625 405.83124Q384.01562 405.3156 385.15625 405.3156Q386.4375 405.3156 387.3125 405.97186Q388.20312 406.6281 388.54688 407.8156L387.42188 408.08124Q387.125 407.14374 386.54688 406.72186Q385.98438 406.28436 385.125 406.28436Q384.14062 406.28436 383.46875 406.76874Q382.8125 407.2375 382.53125 408.03436Q382.26562 408.83124 382.26562 409.6906Q382.26562 410.78436 382.57812 411.59686Q382.90625 412.40936 383.57812 412.8156Q384.25 413.22186 385.04688 413.22186Q386.0 413.22186 386.65625 412.675Q387.32812 412.1281 387.5625 411.03436Z" fill-rule="nonzero"/><path fill="#000000" d="M474.572 414.05L474.572 406.47186L471.74387 406.47186L471.74387 405.45624L478.55637 405.45624L478.55637 406.47186L475.71262 406.47186L475.71262 414.05L474.572 414.05ZM483.5095 412.05L484.60324 412.175Q484.35324 413.1281 483.65012 413.65936Q482.947 414.1906 481.86887 414.1906Q480.5095 414.1906 479.697 413.34686Q478.90012 412.5031 478.90012 410.9875Q478.90012 409.425 479.71262 408.5656Q480.52512 407.6906 481.80637 407.6906Q483.05637 407.6906 483.83762 408.53436Q484.6345 409.3781 484.6345 410.925Q484.6345 411.01874 484.6345 411.20624L479.99387 411.20624Q480.05637 412.2375 480.572 412.78436Q481.08762 413.3156 481.86887 413.3156Q482.447 413.3156 482.85324 413.01874Q483.27512 412.70624 483.5095 412.05ZM480.05637 410.34686L483.52512 410.34686Q483.46262 409.55 483.1345 409.15936Q482.61887 408.55 481.822 408.55Q481.08762 408.55 480.58762 409.03436Q480.10324 409.51874 480.05637 410.34686ZM485.83762 412.1906L486.86887 412.03436Q486.96262 412.65936 487.35324 412.9875Q487.7595 413.3156 488.49387 413.3156Q489.21262 413.3156 489.55637 413.03436Q489.91574 412.7375 489.91574 412.33124Q489.91574 411.97186 489.60324 411.76874Q489.3845 411.6281 488.52512 411.40936Q487.36887 411.1125 486.91574 410.90936Q486.47824 410.6906 486.24387 410.3156Q486.0095 409.9406 486.0095 409.47186Q486.0095 409.0656 486.197 408.70624Q486.3845 408.34686 486.71262 408.1125Q486.96262 407.9406 487.3845 407.8156Q487.80637 407.6906 488.30637 407.6906Q489.02512 407.6906 489.572 407.90936Q490.1345 408.1125 490.40012 408.47186Q490.66574 408.83124 490.7595 409.425L489.72824 409.5656Q489.66574 409.09686 489.322 408.83124Q488.99387 408.55 488.36887 408.55Q487.65012 408.55 487.33762 408.8Q487.02512 409.03436 487.02512 409.3625Q487.02512 409.5656 487.15012 409.72186Q487.29074 409.89374 487.55637 410.0031Q487.71262 410.0656 488.49387 410.26874Q489.61887 410.58124 490.05637 410.76874Q490.49387 410.95624 490.74387 411.3156Q490.99387 411.675 490.99387 412.22186Q490.99387 412.7531 490.68137 413.22186Q490.3845 413.675 489.80637 413.9406Q489.22824 414.1906 488.49387 414.1906Q487.27512 414.1906 486.6345 413.6906Q486.0095 413.175 485.83762 412.1906ZM495.55637 413.1125L495.71262 414.03436Q495.2595 414.1281 494.91574 414.1281Q494.33762 414.1281 494.02512 413.95624Q493.71262 413.76874 493.572 413.47186Q493.447 413.175 493.447 412.22186L493.447 408.64374L492.68137 408.64374L492.68137 407.83124L493.447 407.83124L493.447 406.28436L494.49387 405.65936L494.49387 407.83124L495.55637 407.83124L495.55637 408.64374L494.49387 408.64374L494.49387 412.28436Q494.49387 412.7375 494.54074 412.8625Q494.60324 412.9875 494.72824 413.0656Q494.85324 413.14374 495.08762 413.14374Q495.27512 413.14374 495.55637 413.1125ZM499.3845 414.05L499.3845 405.45624L502.35324 405.45624Q503.35324 405.45624 503.8845 405.58124Q504.61887 405.7531 505.1345 406.1906Q505.822 406.76874 506.15012 407.675Q506.49387 408.5656 506.49387 409.70624Q506.49387 410.6906 506.2595 411.4406Q506.04074 412.1906 505.68137 412.6906Q505.322 413.1906 504.8845 413.47186Q504.46262 413.7531 503.86887 413.90936Q503.27512 414.05 502.49387 414.05L499.3845 414.05ZM500.52512 413.03436L502.35324 413.03436Q503.21262 413.03436 503.697 412.8781Q504.18137 412.72186 504.46262 412.425Q504.86887 412.03436 505.08762 411.34686Q505.322 410.65936 505.322 409.6906Q505.322 408.34686 504.86887 407.6281Q504.43137 406.89374 503.80637 406.64374Q503.33762 406.47186 502.33762 406.47186L500.52512 406.47186L500.52512 413.03436Z" fill-rule="nonzero"/><path fill="#000000" d="M593.0346 414.05L593.0346 406.47186L590.2065 406.47186L590.2065 405.45624L597.019 405.45624L597.019 406.47186L594.17523 406.47186L594.17523 414.05L593.0346 414.05ZM601.9721 412.05L603.06586 412.175Q602.81586 413.1281 602.11273 413.65936Q601.4096 414.1906 600.3315 414.1906Q598.9721 414.1906 598.1596 413.34686Q597.36273 412.5031 597.36273 410.9875Q597.36273 409.425 598.17523 408.5656Q598.98773 407.6906 600.269 407.6906Q601.519 407.6906 602.30023 408.53436Q603.0971 409.3781 603.0971 410.925Q603.0971 411.01874 603.0971 411.20624L598.4565 411.20624Q598.519 412.2375 599.0346 412.78436Q599.55023 413.3156 600.3315 413.3156Q600.9096 413.3156 601.31586 413.01874Q601.73773 412.70624 601.9721 412.05ZM598.519 410.34686L601.98773 410.34686Q601.92523 409.55 601.5971 409.15936Q601.0815 408.55 600.2846 408.55Q599.55023 408.55 599.05023 409.03436Q598.56586 409.51874 598.519 410.34686ZM604.30023 412.1906L605.3315 412.03436Q605.42523 412.65936 605.81586 412.9875Q606.2221 413.3156 606.9565 413.3156Q607.67523 413.3156 608.019 413.03436Q608.37836 412.7375 608.37836 412.33124Q608.37836 411.97186 608.06586 411.76874Q607.8471 411.6281 606.98773 411.40936Q605.8315 411.1125 605.37836 410.90936Q604.94086 410.6906 604.7065 410.3156Q604.4721 409.9406 604.4721 409.47186Q604.4721 409.0656 604.6596 408.70624Q604.8471 408.34686 605.17523 408.1125Q605.42523 407.9406 605.8471 407.8156Q606.269 407.6906 606.769 407.6906Q607.48773 407.6906 608.0346 407.90936Q608.5971 408.1125 608.86273 408.47186Q609.12836 408.83124 609.2221 409.425L608.19086 409.5656Q608.12836 409.09686 607.7846 408.83124Q607.4565 408.55 606.8315 408.55Q606.11273 408.55 605.80023 408.8Q605.48773 409.03436 605.48773 409.3625Q605.48773 409.5656 605.61273 409.72186Q605.75336 409.89374 606.019 410.0031Q606.17523 410.0656 606.9565 410.26874Q608.0815 410.58124 608.519 410.76874Q608.9565 410.95624 609.2065 411.3156Q609.4565 411.675 609.4565 412.22186Q609.4565 412.7531 609.144 413.22186Q608.8471 413.675 608.269 413.9406Q607.69086 414.1906 606.9565 414.1906Q605.73773 414.1906 605.0971 413.6906Q604.4721 413.175 604.30023 412.1906ZM614.019 413.1125L614.17523 414.03436Q613.7221 414.1281 613.37836 414.1281Q612.80023 414.1281 612.48773 413.95624Q612.17523 413.76874 612.0346 413.47186Q611.9096 413.175 611.9096 412.22186L611.9096 408.64374L611.144 408.64374L611.144 407.83124L611.9096 407.83124L611.9096 406.28436L612.9565 405.65936L612.9565 407.83124L614.019 407.83124L614.019 408.64374L612.9565 408.64374L612.9565 412.28436Q612.9565 412.7375 613.00336 412.8625Q613.06586 412.9875 613.19086 413.0656Q613.31586 413.14374 613.55023 413.14374Q613.73773 413.14374 614.019 413.1125ZM617.87836 414.05L617.87836 405.45624L624.0815 405.45624L624.0815 406.47186L619.019 406.47186L619.019 409.09686L623.769 409.09686L623.769 410.1125L619.019 410.1125L619.019 413.03436L624.2846 413.03436L624.2846 414.05L617.87836 414.05Z" fill-rule="nonzero"/><path fill="#4285f4" d="M117.5 62.583332C117.5 62.031048 117.947716 61.583332 118.5 61.583332L128.5 61.583332C129.05229 61.583332 129.5 62.031048 129.5 62.583332L129.5 72.583336C129.5 73.13562 129.05229 73.583336 128.5 73.583336L118.5 73.583336C117.947716 73.583336 117.5 73.13562 117.5 72.583336Z" fill-rule="nonzero"/><path fill="#1a1a1a" d="M137.48438 71.583336L140.78125 62.989586L142.0 62.989586L145.51562 71.583336L144.23438 71.583336L143.21875 68.97396L139.64062 68.97396L138.6875 71.583336L137.48438 71.583336ZM139.96875 68.052086L142.875 68.052086L141.98438 65.677086Q141.5625 64.59896 141.375 63.895836Q141.20312 64.72396 140.90625 65.53646L139.96875 68.052086ZM147.01562 71.583336L144.65625 65.364586L145.76562 65.364586L147.10938 69.083336Q147.3125 69.69271 147.5 70.333336Q147.64062 69.84896 147.89062 69.16146L149.28125 65.364586L150.35938 65.364586L148.0 71.583336L147.01562 71.583336ZM150.09375 72.09896L151.125 72.25521Q151.1875 72.72396 151.48438 72.94271Q151.875 73.239586 152.54688 73.239586Q153.28125 73.239586 153.67188 72.94271Q154.07812 72.645836 154.21875 72.13021Q154.3125 71.802086 154.29688 70.770836Q153.60938 71.583336 152.57812 71.583336Q151.29688 71.583336 150.59375 70.66146Q149.89062 69.72396 149.89062 68.44271Q149.89062 67.552086 150.20312 66.802086Q150.53125 66.03646 151.14062 65.63021Q151.75 65.22396 152.57812 65.22396Q153.6875 65.22396 154.40625 66.114586L154.40625 65.364586L155.375 65.364586L155.375 70.739586Q155.375 72.19271 155.07812 72.802086Q154.78125 73.41146 154.14062 73.75521Q153.5 74.114586 152.5625 74.114586Q151.45312 74.114586 150.76562 73.614586Q150.07812 73.114586 150.09375 72.09896ZM150.96875 68.364586Q150.96875 69.583336 151.45312 70.145836Q151.9375 70.708336 152.67188 70.708336Q153.40625 70.708336 153.89062 70.145836Q154.39062 69.583336 154.39062 68.395836Q154.39062 67.25521 153.875 66.677086Q153.375 66.09896 152.65625 66.09896Q151.95312 66.09896 151.45312 66.677086Q150.96875 67.239586 150.96875 68.364586ZM157.59375 71.583336L157.59375 70.38021L158.79688 70.38021L158.79688 71.583336L157.59375 71.583336ZM163.28125 71.583336L163.28125 65.364586L164.23438 65.364586L164.23438 66.302086Q164.59375 65.645836 164.89062 65.44271Q165.20312 65.22396 165.57812 65.22396Q166.10938 65.22396 166.65625 65.552086L166.29688 66.53646Q165.90625 66.302086 165.53125 66.302086Q165.17188 66.302086 164.89062 66.520836Q164.625 66.72396 164.51562 67.09896Q164.32812 67.66146 164.32812 68.31771L164.32812 71.583336L163.28125 71.583336ZM171.54688 69.583336L172.64062 69.708336Q172.39062 70.66146 171.6875 71.19271Q170.98438 71.72396 169.90625 71.72396Q168.54688 71.72396 167.73438 70.88021Q166.9375 70.03646 166.9375 68.520836Q166.9375 66.958336 167.75 66.09896Q168.5625 65.22396 169.84375 65.22396Q171.09375 65.22396 171.875 66.06771Q172.67188 66.91146 172.67188 68.458336Q172.67188 68.552086 172.67188 68.739586L168.03125 68.739586Q168.09375 69.770836 168.60938 70.31771Q169.125 70.84896 169.90625 70.84896Q170.48438 70.84896 170.89062 70.552086Q171.3125 70.239586 171.54688 69.583336ZM168.09375 67.88021L171.5625 67.88021Q171.5 67.083336 171.17188 66.69271Q170.65625 66.083336 169.85938 66.083336Q169.125 66.083336 168.625 66.56771Q168.14062 67.052086 168.09375 67.88021ZM173.875 69.72396L174.90625 69.56771Q175.0 70.19271 175.39062 70.520836Q175.79688 70.84896 176.53125 70.84896Q177.25 70.84896 177.59375 70.56771Q177.95312 70.270836 177.95312 69.864586Q177.95312 69.50521 177.64062 69.302086Q177.42188 69.16146 176.5625 68.94271Q175.40625 68.645836 174.95312 68.44271Q174.51562 68.22396 174.28125 67.84896Q174.04688 67.47396 174.04688 67.00521Q174.04688 66.59896 174.23438 66.239586Q174.42188 65.88021 174.75 65.645836Q175.0 65.47396 175.42188 65.34896Q175.84375 65.22396 176.34375 65.22396Q177.0625 65.22396 177.60938 65.44271Q178.17188 65.645836 178.4375 66.00521Q178.70312 66.364586 178.79688 66.958336L177.76562 67.09896Q177.70312 66.63021 177.35938 66.364586Q177.03125 66.083336 176.40625 66.083336Q175.6875 66.083336 175.375 66.333336Q175.0625 66.56771 175.0625 66.895836Q175.0625 67.09896 175.1875 67.25521Q175.32812 67.427086 175.59375 67.53646Q175.75 67.59896 176.53125 67.802086Q177.65625 68.114586 178.09375 68.302086Q178.53125 68.489586 178.78125 68.84896Q179.03125 69.208336 179.03125 69.75521Q179.03125 70.28646 178.71875 70.75521Q178.42188 71.208336 177.84375 71.47396Q177.26562 71.72396 176.53125 71.72396Q175.3125 71.72396 174.67188 71.22396Q174.04688 70.708336 173.875 69.72396ZM181.29688 73.97396L181.29688 65.364586L182.25 65.364586L182.25 66.16146Q182.59375 65.69271 183.01562 65.458336Q183.45312 65.22396 184.0625 65.22396Q184.85938 65.22396 185.46875 65.63021Q186.07812 66.03646 186.375 66.78646Q186.6875 67.53646 186.6875 68.427086Q186.6875 69.38021 186.34375 70.145836Q186.01562 70.91146 185.35938 71.31771Q184.70312 71.72396 183.98438 71.72396Q183.45312 71.72396 183.03125 71.50521Q182.60938 71.270836 182.34375 70.94271L182.34375 73.97396L181.29688 73.97396ZM182.25 68.50521Q182.25 69.708336 182.73438 70.28646Q183.21875 70.84896 183.90625 70.84896Q184.60938 70.84896 185.10938 70.25521Q185.60938 69.66146 185.60938 68.41146Q185.60938 67.22396 185.125 66.645836Q184.64062 66.052086 183.95312 66.052086Q183.28125 66.052086 182.76562 66.677086Q182.25 67.302086 182.25 68.50521ZM187.90625 68.47396Q187.90625 66.739586 188.85938 65.91146Q189.65625 65.22396 190.8125 65.22396Q192.09375 65.22396 192.90625 66.06771Q193.73438 66.895836 193.73438 68.38021Q193.73438 69.583336 193.375 70.270836Q193.01562 70.958336 192.3125 71.34896Q191.625 71.72396 190.8125 71.72396Q189.51562 71.72396 188.70312 70.895836Q187.90625 70.052086 187.90625 68.47396ZM188.98438 68.47396Q188.98438 69.66146 189.5 70.25521Q190.03125 70.84896 190.8125 70.84896Q191.60938 70.84896 192.125 70.25521Q192.64062 69.66146 192.64062 68.44271Q192.64062 67.28646 192.10938 66.69271Q191.59375 66.09896 190.8125 66.09896Q190.03125 66.09896 189.5 66.69271Q188.98438 67.270836 188.98438 68.47396ZM195.29688 71.583336L195.29688 65.364586L196.23438 65.364586L196.23438 66.239586Q196.92188 65.22396 198.21875 65.22396Q198.78125 65.22396 199.25 65.427086Q199.73438 65.63021 199.96875 65.958336Q200.20312 66.28646 200.29688 66.72396Q200.34375 67.020836 200.34375 67.75521L200.34375 71.583336L199.29688 71.583336L199.29688 67.802086Q199.29688 67.145836 199.17188 66.833336Q199.04688 66.520836 198.73438 66.333336Q198.42188 66.13021 198.0 66.13021Q197.32812 66.13021 196.82812 66.56771Q196.34375 66.989586 196.34375 68.177086L196.34375 71.583336L195.29688 71.583336ZM201.875 69.72396L202.90625 69.56771Q203.0 70.19271 203.39062 70.520836Q203.79688 70.84896 204.53125 70.84896Q205.25 70.84896 205.59375 70.56771Q205.95312 70.270836 205.95312 69.864586Q205.95312 69.50521 205.64062 69.302086Q205.42188 69.16146 204.5625 68.94271Q203.40625 68.645836 202.95312 68.44271Q202.51562 68.22396 202.28125 67.84896Q202.04688 67.47396 202.04688 67.00521Q202.04688 66.59896 202.23438 66.239586Q202.42188 65.88021 202.75 65.645836Q203.0 65.47396 203.42188 65.34896Q203.84375 65.22396 204.34375 65.22396Q205.0625 65.22396 205.60938 65.44271Q206.17188 65.645836 206.4375 66.00521Q206.70312 66.364586 206.79688 66.958336L205.76562 67.09896Q205.70312 66.63021 205.35938 66.364586Q205.03125 66.083336 204.40625 66.083336Q203.6875 66.083336 203.375 66.333336Q203.0625 66.56771 203.0625 66.895836Q203.0625 67.09896 203.1875 67.25521Q203.32812 67.427086 203.59375 67.53646Q203.75 67.59896 204.53125 67.802086Q205.65625 68.114586 206.09375 68.302086Q206.53125 68.489586 206.78125 68.84896Q207.03125 69.208336 207.03125 69.75521Q207.03125 70.28646 206.71875 70.75521Q206.42188 71.208336 205.84375 71.47396Q205.26562 71.72396 204.53125 71.72396Q203.3125 71.72396 202.67188 71.22396Q202.04688 70.708336 201.875 69.72396ZM213.54688 69.583336L214.64062 69.708336Q214.39062 70.66146 213.6875 71.19271Q212.98438 71.72396 211.90625 71.72396Q210.54688 71.72396 209.73438 70.88021Q208.9375 70.03646 208.9375 68.520836Q208.9375 66.958336 209.75 66.09896Q210.5625 65.22396 211.84375 65.22396Q213.09375 65.22396 213.875 66.06771Q214.67188 66.91146 214.67188 68.458336Q214.67188 68.552086 214.67188 68.739586L210.03125 68.739586Q210.09375 69.770836 210.60938 70.31771Q211.125 70.84896 211.90625 70.84896Q212.48438 70.84896 212.89062 70.552086Q213.3125 70.239586 213.54688 69.583336ZM210.09375 67.88021L213.5625 67.88021Q213.5 67.083336 213.17188 66.69271Q212.65625 66.083336 211.85938 66.083336Q211.125 66.083336 210.625 66.56771Q210.14062 67.052086 210.09375 67.88021ZM221.59375 70.645836L221.75 71.56771Q221.29688 71.66146 220.95312 71.66146Q220.375 71.66146 220.0625 71.489586Q219.75 71.302086 219.60938 71.00521Q219.48438 70.708336 219.48438 69.75521L219.48438 66.177086L218.71875 66.177086L218.71875 65.364586L219.48438 65.364586L219.48438 63.81771L220.53125 63.19271L220.53125 65.364586L221.59375 65.364586L221.59375 66.177086L220.53125 66.177086L220.53125 69.81771Q220.53125 70.270836 220.57812 70.395836Q220.64062 70.520836 220.76562 70.59896Q220.89062 70.677086 221.125 70.677086Q221.3125 70.677086 221.59375 70.645836ZM222.29688 64.208336L222.29688 62.989586L223.35938 62.989586L223.35938 64.208336L222.29688 64.208336ZM222.29688 71.583336L222.29688 65.364586L223.35938 65.364586L223.35938 71.583336L222.29688 71.583336ZM225.29688 71.583336L225.29688 65.364586L226.23438 65.364586L226.23438 66.239586Q226.53125 65.770836 227.01562 65.50521Q227.5 65.22396 228.125 65.22396Q228.8125 65.22396 229.25 65.50521Q229.70312 65.78646 229.875 66.302086Q230.625 65.22396 231.79688 65.22396Q232.73438 65.22396 233.21875 65.739586Q233.71875 66.239586 233.71875 67.31771L233.71875 71.583336L232.67188 71.583336L232.67188 67.66146Q232.67188 67.03646 232.5625 66.75521Q232.46875 66.47396 232.20312 66.302086Q231.9375 66.13021 231.5625 66.13021Q230.90625 66.13021 230.46875 66.56771Q230.04688 67.00521 230.04688 67.97396L230.04688 71.583336L228.98438 71.583336L228.98438 67.53646Q228.98438 66.833336 228.71875 66.489586Q228.46875 66.13021 227.89062 66.13021Q227.4375 66.13021 227.0625 66.364586Q226.6875 66.59896 226.51562 67.052086Q226.34375 67.50521 226.34375 68.34896L226.34375 71.583336L225.29688 71.583336ZM240.54688 69.583336L241.64062 69.708336Q241.39062 70.66146 240.6875 71.19271Q239.98438 71.72396 238.90625 71.72396Q237.54688 71.72396 236.73438 70.88021Q235.9375 70.03646 235.9375 68.520836Q235.9375 66.958336 236.75 66.09896Q237.5625 65.22396 238.84375 65.22396Q240.09375 65.22396 240.875 66.06771Q241.67188 66.91146 241.67188 68.458336Q241.67188 68.552086 241.67188 68.739586L237.03125 68.739586Q237.09375 69.770836 237.60938 70.31771Q238.125 70.84896 238.90625 70.84896Q239.48438 70.84896 239.89062 70.552086Q240.3125 70.239586 240.54688 69.583336ZM237.09375 67.88021L240.5625 67.88021Q240.5 67.083336 240.17188 66.69271Q239.65625 66.083336 238.85938 66.083336Q238.125 66.083336 237.625 66.56771Q237.14062 67.052086 237.09375 67.88021ZM248.3125 74.114586Q247.4375 73.00521 246.82812 71.53646Q246.23438 70.052086 246.23438 68.47396Q246.23438 67.083336 246.67188 65.802086Q247.20312 64.31771 248.3125 62.84896L249.0625 62.84896Q248.35938 64.06771 248.125 64.583336Q247.76562 65.395836 247.5625 66.270836Q247.3125 67.364586 247.3125 68.47396Q247.3125 71.302086 249.0625 74.114586L248.3125 74.114586ZM250.29688 71.583336L250.29688 65.364586L251.23438 65.364586L251.23438 66.239586Q251.53125 65.770836 252.01562 65.50521Q252.5 65.22396 253.125 65.22396Q253.8125 65.22396 254.25 65.50521Q254.70312 65.78646 254.875 66.302086Q255.625 65.22396 256.79688 65.22396Q257.73438 65.22396 258.21875 65.739586Q258.71875 66.239586 258.71875 67.31771L258.71875 71.583336L257.67188 71.583336L257.67188 67.66146Q257.67188 67.03646 257.5625 66.75521Q257.46875 66.47396 257.20312 66.302086Q256.9375 66.13021 256.5625 66.13021Q255.90625 66.13021 255.46875 66.56771Q255.04688 67.00521 255.04688 67.97396L255.04688 71.583336L253.98438 71.583336L253.98438 67.53646Q253.98438 66.833336 253.71875 66.489586Q253.46875 66.13021 252.89062 66.13021Q252.4375 66.13021 252.0625 66.364586Q251.6875 66.59896 251.51562 67.052086Q251.34375 67.50521 251.34375 68.34896L251.34375 71.583336L250.29688 71.583336ZM260.875 69.72396L261.90625 69.56771Q262.0 70.19271 262.39062 70.520836Q262.79688 70.84896 263.53125 70.84896Q264.25 70.84896 264.59375 70.56771Q264.95312 70.270836 264.95312 69.864586Q264.95312 69.50521 264.64062 69.302086Q264.42188 69.16146 263.5625 68.94271Q262.40625 68.645836 261.95312 68.44271Q261.51562 68.22396 261.28125 67.84896Q261.04688 67.47396 261.04688 67.00521Q261.04688 66.59896 261.23438 66.239586Q261.42188 65.88021 261.75 65.645836Q262.0 65.47396 262.42188 65.34896Q262.84375 65.22396 263.34375 65.22396Q264.0625 65.22396 264.60938 65.44271Q265.17188 65.645836 265.4375 66.00521Q265.70312 66.364586 265.79688 66.958336L264.76562 67.09896Q264.70312 66.63021 264.35938 66.364586Q264.03125 66.083336 263.40625 66.083336Q262.6875 66.083336 262.375 66.333336Q262.0625 66.56771 262.0625 66.895836Q262.0625 67.09896 262.1875 67.25521Q262.32812 67.427086 262.59375 67.53646Q262.75 67.59896 263.53125 67.802086Q264.65625 68.114586 265.09375 68.302086Q265.53125 68.489586 265.78125 68.84896Q266.03125 69.208336 266.03125 69.75521Q266.03125 70.28646 265.71875 70.75521Q265.42188 71.208336 264.84375 71.47396Q264.26562 71.72396 263.53125 71.72396Q262.3125 71.72396 261.67188 71.22396Q261.04688 70.708336 260.875 69.72396ZM268.98438 74.114586L268.23438 74.114586Q269.98438 71.302086 269.98438 68.47396Q269.98438 67.38021 269.73438 66.28646Q269.53125 65.41146 269.17188 64.59896Q268.9375 64.083336 268.23438 62.84896L268.98438 62.84896Q270.07812 64.31771 270.60938 65.802086Q271.0625 67.083336 271.0625 68.47396Q271.0625 70.052086 270.45312 71.53646Q269.84375 73.00521 268.98438 74.114586Z" fill-rule="nonzero"/><path fill="#ea4335" d="M287.5 62.583332C287.5 62.031048 287.94772 61.583332 288.5 61.583332L298.5 61.583332C299.05228 61.583332 299.5 62.031048 299.5 62.583332L299.5 72.583336C299.5 73.13562 299.05228 73.583336 298.5 73.583336L288.5 73.583336C287.94772 73.583336 287.5 73.13562 287.5 72.583336Z" fill-rule="nonzero"/><path fill="#1a1a1a" d="M308.29688 73.97396L308.29688 65.364586L309.25 65.364586L309.25 66.16146Q309.59375 65.69271 310.01562 65.458336Q310.45312 65.22396 311.0625 65.22396Q311.85938 65.22396 312.46875 65.63021Q313.07812 66.03646 313.375 66.78646Q313.6875 67.53646 313.6875 68.427086Q313.6875 69.38021 313.34375 70.145836Q313.01562 70.91146 312.35938 71.31771Q311.70312 71.72396 310.98438 71.72396Q310.45312 71.72396 310.03125 71.50521Q309.60938 71.270836 309.34375 70.94271L309.34375 73.97396L308.29688 73.97396ZM309.25 68.50521Q309.25 69.708336 309.73438 70.28646Q310.21875 70.84896 310.90625 70.84896Q311.60938 70.84896 312.10938 70.25521Q312.60938 69.66146 312.60938 68.41146Q312.60938 67.22396 312.125 66.645836Q311.64062 66.052086 310.95312 66.052086Q310.28125 66.052086 309.76562 66.677086Q309.25 67.302086 309.25 68.50521ZM315.15625 69.59896L316.17188 69.50521Q316.29688 70.22396 316.65625 70.552086Q317.03125 70.864586 317.59375 70.864586Q318.07812 70.864586 318.4375 70.645836Q318.8125 70.41146 319.04688 70.052086Q319.28125 69.677086 319.4375 69.052086Q319.59375 68.41146 319.59375 67.75521Q319.59375 67.677086 319.59375 67.53646Q319.28125 68.03646 318.73438 68.364586Q318.1875 68.677086 317.54688 68.677086Q316.46875 68.677086 315.73438 67.91146Q315.0 67.13021 315.0 65.864586Q315.0 64.552086 315.76562 63.75521Q316.54688 62.958336 317.70312 62.958336Q318.53125 62.958336 319.21875 63.41146Q319.92188 63.864586 320.28125 64.708336Q320.64062 65.53646 320.64062 67.114586Q320.64062 68.75521 320.28125 69.739586Q319.9375 70.708336 319.21875 71.22396Q318.51562 71.72396 317.57812 71.72396Q316.5625 71.72396 315.92188 71.177086Q315.28125 70.614586 315.15625 69.59896ZM319.46875 65.802086Q319.46875 64.895836 318.98438 64.364586Q318.51562 63.833336 317.82812 63.833336Q317.125 63.833336 316.59375 64.41146Q316.07812 64.97396 316.07812 65.895836Q316.07812 66.708336 316.57812 67.22396Q317.07812 67.739586 317.79688 67.739586Q318.53125 67.739586 319.0 67.22396Q319.46875 66.708336 319.46875 65.802086ZM322.0 69.333336L323.10938 69.239586Q323.23438 70.052086 323.67188 70.458336Q324.125 70.864586 324.76562 70.864586Q325.51562 70.864586 326.04688 70.28646Q326.57812 69.708336 326.57812 68.770836Q326.57812 67.864586 326.0625 67.34896Q325.5625 66.81771 324.73438 66.81771Q324.23438 66.81771 323.8125 67.052086Q323.40625 67.28646 323.17188 67.645836L322.1875 67.520836L323.01562 63.114586L327.29688 63.114586L327.29688 64.114586L323.85938 64.114586L323.40625 66.427086Q324.17188 65.88021 325.01562 65.88021Q326.14062 65.88021 326.90625 66.66146Q327.6875 67.44271 327.6875 68.677086Q327.6875 69.833336 327.01562 70.69271Q326.1875 71.72396 324.76562 71.72396Q323.59375 71.72396 322.84375 71.06771Q322.10938 70.41146 322.0 69.333336ZM332.28125 71.583336L332.28125 65.364586L333.23438 65.364586L333.23438 66.302086Q333.59375 65.645836 333.89062 65.44271Q334.20312 65.22396 334.57812 65.22396Q335.10938 65.22396 335.65625 65.552086L335.29688 66.53646Q334.90625 66.302086 334.53125 66.302086Q334.17188 66.302086 333.89062 66.520836Q333.625 66.72396 333.51562 67.09896Q333.32812 67.66146 333.32812 68.31771L333.32812 71.583336L332.28125 71.583336ZM340.54688 69.583336L341.64062 69.708336Q341.39062 70.66146 340.6875 71.19271Q339.98438 71.72396 338.90625 71.72396Q337.54688 71.72396 336.73438 70.88021Q335.9375 70.03646 335.9375 68.520836Q335.9375 66.958336 336.75 66.09896Q337.5625 65.22396 338.84375 65.22396Q340.09375 65.22396 340.875 66.06771Q341.67188 66.91146 341.67188 68.458336Q341.67188 68.552086 341.67188 68.739586L337.03125 68.739586Q337.09375 69.770836 337.60938 70.31771Q338.125 70.84896 338.90625 70.84896Q339.48438 70.84896 339.89062 70.552086Q340.3125 70.239586 340.54688 69.583336ZM337.09375 67.88021L340.5625 67.88021Q340.5 67.083336 340.17188 66.69271Q339.65625 66.083336 338.85938 66.083336Q338.125 66.083336 337.625 66.56771Q337.14062 67.052086 337.09375 67.88021ZM342.875 69.72396L343.90625 69.56771Q344.0 70.19271 344.39062 70.520836Q344.79688 70.84896 345.53125 70.84896Q346.25 70.84896 346.59375 70.56771Q346.95312 70.270836 346.95312 69.864586Q346.95312 69.50521 346.64062 69.302086Q346.42188 69.16146 345.5625 68.94271Q344.40625 68.645836 343.95312 68.44271Q343.51562 68.22396 343.28125 67.84896Q343.04688 67.47396 343.04688 67.00521Q343.04688 66.59896 343.23438 66.239586Q343.42188 65.88021 343.75 65.645836Q344.0 65.47396 344.42188 65.34896Q344.84375 65.22396 345.34375 65.22396Q346.0625 65.22396 346.60938 65.44271Q347.17188 65.645836 347.4375 66.00521Q347.70312 66.364586 347.79688 66.958336L346.76562 67.09896Q346.70312 66.63021 346.35938 66.364586Q346.03125 66.083336 345.40625 66.083336Q344.6875 66.083336 344.375 66.333336Q344.0625 66.56771 344.0625 66.895836Q344.0625 67.09896 344.1875 67.25521Q344.32812 67.427086 344.59375 67.53646Q344.75 67.59896 345.53125 67.802086Q346.65625 68.114586 347.09375 68.302086Q347.53125 68.489586 347.78125 68.84896Q348.03125 69.208336 348.03125 69.75521Q348.03125 70.28646 347.71875 70.75521Q347.42188 71.208336 346.84375 71.47396Q346.26562 71.72396 345.53125 71.72396Q344.3125 71.72396 343.67188 71.22396Q343.04688 70.708336 342.875 69.72396ZM350.29688 73.97396L350.29688 65.364586L351.25 65.364586L351.25 66.16146Q351.59375 65.69271 352.01562 65.458336Q352.45312 65.22396 353.0625 65.22396Q353.85938 65.22396 354.46875 65.63021Q355.07812 66.03646 355.375 66.78646Q355.6875 67.53646 355.6875 68.427086Q355.6875 69.38021 355.34375 70.145836Q355.01562 70.91146 354.35938 71.31771Q353.70312 71.72396 352.98438 71.72396Q352.45312 71.72396 352.03125 71.50521Q351.60938 71.270836 351.34375 70.94271L351.34375 73.97396L350.29688 73.97396ZM351.25 68.50521Q351.25 69.708336 351.73438 70.28646Q352.21875 70.84896 352.90625 70.84896Q353.60938 70.84896 354.10938 70.25521Q354.60938 69.66146 354.60938 68.41146Q354.60938 67.22396 354.125 66.645836Q353.64062 66.052086 352.95312 66.052086Q352.28125 66.052086 351.76562 66.677086Q351.25 67.302086 351.25 68.50521ZM356.90625 68.47396Q356.90625 66.739586 357.85938 65.91146Q358.65625 65.22396 359.8125 65.22396Q361.09375 65.22396 361.90625 66.06771Q362.73438 66.895836 362.73438 68.38021Q362.73438 69.583336 362.375 70.270836Q362.01562 70.958336 361.3125 71.34896Q360.625 71.72396 359.8125 71.72396Q358.51562 71.72396 357.70312 70.895836Q356.90625 70.052086 356.90625 68.47396ZM357.98438 68.47396Q357.98438 69.66146 358.5 70.25521Q359.03125 70.84896 359.8125 70.84896Q360.60938 70.84896 361.125 70.25521Q361.64062 69.66146 361.64062 68.44271Q361.64062 67.28646 361.10938 66.69271Q360.59375 66.09896 359.8125 66.09896Q359.03125 66.09896 358.5 66.69271Q357.98438 67.270836 357.98438 68.47396ZM364.29688 71.583336L364.29688 65.364586L365.23438 65.364586L365.23438 66.239586Q365.92188 65.22396 367.21875 65.22396Q367.78125 65.22396 368.25 65.427086Q368.73438 65.63021 368.96875 65.958336Q369.20312 66.28646 369.29688 66.72396Q369.34375 67.020836 369.34375 67.75521L369.34375 71.583336L368.29688 71.583336L368.29688 67.802086Q368.29688 67.145836 368.17188 66.833336Q368.04688 66.520836 367.73438 66.333336Q367.42188 66.13021 367.0 66.13021Q366.32812 66.13021 365.82812 66.56771Q365.34375 66.989586 365.34375 68.177086L365.34375 71.583336L364.29688 71.583336ZM370.875 69.72396L371.90625 69.56771Q372.0 70.19271 372.39062 70.520836Q372.79688 70.84896 373.53125 70.84896Q374.25 70.84896 374.59375 70.56771Q374.95312 70.270836 374.95312 69.864586Q374.95312 69.50521 374.64062 69.302086Q374.42188 69.16146 373.5625 68.94271Q372.40625 68.645836 371.95312 68.44271Q371.51562 68.22396 371.28125 67.84896Q371.04688 67.47396 371.04688 67.00521Q371.04688 66.59896 371.23438 66.239586Q371.42188 65.88021 371.75 65.645836Q372.0 65.47396 372.42188 65.34896Q372.84375 65.22396 373.34375 65.22396Q374.0625 65.22396 374.60938 65.44271Q375.17188 65.645836 375.4375 66.00521Q375.70312 66.364586 375.79688 66.958336L374.76562 67.09896Q374.70312 66.63021 374.35938 66.364586Q374.03125 66.083336 373.40625 66.083336Q372.6875 66.083336 372.375 66.333336Q372.0625 66.56771 372.0625 66.895836Q372.0625 67.09896 372.1875 67.25521Q372.32812 67.427086 372.59375 67.53646Q372.75 67.59896 373.53125 67.802086Q374.65625 68.114586 375.09375 68.302086Q375.53125 68.489586 375.78125 68.84896Q376.03125 69.208336 376.03125 69.75521Q376.03125 70.28646 375.71875 70.75521Q375.42188 71.208336 374.84375 71.47396Q374.26562 71.72396 373.53125 71.72396Q372.3125 71.72396 371.67188 71.22396Q371.04688 70.708336 370.875 69.72396ZM382.54688 69.583336L383.64062 69.708336Q383.39062 70.66146 382.6875 71.19271Q381.98438 71.72396 380.90625 71.72396Q379.54688 71.72396 378.73438 70.88021Q377.9375 70.03646 377.9375 68.520836Q377.9375 66.958336 378.75 66.09896Q379.5625 65.22396 380.84375 65.22396Q382.09375 65.22396 382.875 66.06771Q383.67188 66.91146 383.67188 68.458336Q383.67188 68.552086 383.67188 68.739586L379.03125 68.739586Q379.09375 69.770836 379.60938 70.31771Q380.125 70.84896 380.90625 70.84896Q381.48438 70.84896 381.89062 70.552086Q382.3125 70.239586 382.54688 69.583336ZM379.09375 67.88021L382.5625 67.88021Q382.5 67.083336 382.17188 66.69271Q381.65625 66.083336 380.85938 66.083336Q380.125 66.083336 379.625 66.56771Q379.14062 67.052086 379.09375 67.88021ZM390.59375 70.645836L390.75 71.56771Q390.29688 71.66146 389.95312 71.66146Q389.375 71.66146 389.0625 71.489586Q388.75 71.302086 388.60938 71.00521Q388.48438 70.708336 388.48438 69.75521L388.48438 66.177086L387.71875 66.177086L387.71875 65.364586L388.48438 65.364586L388.48438 63.81771L389.53125 63.19271L389.53125 65.364586L390.59375 65.364586L390.59375 66.177086L389.53125 66.177086L389.53125 69.81771Q389.53125 70.270836 389.57812 70.395836Q389.64062 70.520836 389.76562 70.59896Q389.89062 70.677086 390.125 70.677086Q390.3125 70.677086 390.59375 70.645836ZM391.29688 64.208336L391.29688 62.989586L392.35938 62.989586L392.35938 64.208336L391.29688 64.208336ZM391.29688 71.583336L391.29688 65.364586L392.35938 65.364586L392.35938 71.583336L391.29688 71.583336ZM394.29688 71.583336L394.29688 65.364586L395.23438 65.364586L395.23438 66.239586Q395.53125 65.770836 396.01562 65.50521Q396.5 65.22396 397.125 65.22396Q397.8125 65.22396 398.25 65.50521Q398.70312 65.78646 398.875 66.302086Q399.625 65.22396 400.79688 65.22396Q401.73438 65.22396 402.21875 65.739586Q402.71875 66.239586 402.71875 67.31771L402.71875 71.583336L401.67188 71.583336L401.67188 67.66146Q401.67188 67.03646 401.5625 66.75521Q401.46875 66.47396 401.20312 66.302086Q400.9375 66.13021 400.5625 66.13021Q399.90625 66.13021 399.46875 66.56771Q399.04688 67.00521 399.04688 67.97396L399.04688 71.583336L397.98438 71.583336L397.98438 67.53646Q397.98438 66.833336 397.71875 66.489586Q397.46875 66.13021 396.89062 66.13021Q396.4375 66.13021 396.0625 66.364586Q395.6875 66.59896 395.51562 67.052086Q395.34375 67.50521 395.34375 68.34896L395.34375 71.583336L394.29688 71.583336ZM409.54688 69.583336L410.64062 69.708336Q410.39062 70.66146 409.6875 71.19271Q408.98438 71.72396 407.90625 71.72396Q406.54688 71.72396 405.73438 70.88021Q404.9375 70.03646 404.9375 68.520836Q404.9375 66.958336 405.75 66.09896Q406.5625 65.22396 407.84375 65.22396Q409.09375 65.22396 409.875 66.06771Q410.67188 66.91146 410.67188 68.458336Q410.67188 68.552086 410.67188 68.739586L406.03125 68.739586Q406.09375 69.770836 406.60938 70.31771Q407.125 70.84896 407.90625 70.84896Q408.48438 70.84896 408.89062 70.552086Q409.3125 70.239586 409.54688 69.583336ZM406.09375 67.88021L409.5625 67.88021Q409.5 67.083336 409.17188 66.69271Q408.65625 66.083336 407.85938 66.083336Q407.125 66.083336 406.625 66.56771Q406.14062 67.052086 406.09375 67.88021ZM417.3125 74.114586Q416.4375 73.00521 415.82812 71.53646Q415.23438 70.052086 415.23438 68.47396Q415.23438 67.083336 415.67188 65.802086Q416.20312 64.31771 417.3125 62.84896L418.0625 62.84896Q417.35938 64.06771 417.125 64.583336Q416.76562 65.395836 416.5625 66.270836Q416.3125 67.364586 416.3125 68.47396Q416.3125 71.302086 418.0625 74.114586L417.3125 74.114586ZM419.29688 71.583336L419.29688 65.364586L420.23438 65.364586L420.23438 66.239586Q420.53125 65.770836 421.01562 65.50521Q421.5 65.22396 422.125 65.22396Q422.8125 65.22396 423.25 65.50521Q423.70312 65.78646 423.875 66.302086Q424.625 65.22396 425.79688 65.22396Q426.73438 65.22396 427.21875 65.739586Q427.71875 66.239586 427.71875 67.31771L427.71875 71.583336L426.67188 71.583336L426.67188 67.66146Q426.67188 67.03646 426.5625 66.75521Q426.46875 66.47396 426.20312 66.302086Q425.9375 66.13021 425.5625 66.13021Q424.90625 66.13021 424.46875 66.56771Q424.04688 67.00521 424.04688 67.97396L424.04688 71.583336L422.98438 71.583336L422.98438 67.53646Q422.98438 66.833336 422.71875 66.489586Q422.46875 66.13021 421.89062 66.13021Q421.4375 66.13021 421.0625 66.364586Q420.6875 66.59896 420.51562 67.052086Q420.34375 67.50521 420.34375 68.34896L420.34375 71.583336L419.29688 71.583336ZM429.875 69.72396L430.90625 69.56771Q431.0 70.19271 431.39062 70.520836Q431.79688 70.84896 432.53125 70.84896Q433.25 70.84896 433.59375 70.56771Q433.95312 70.270836 433.95312 69.864586Q433.95312 69.50521 433.64062 69.302086Q433.42188 69.16146 432.5625 68.94271Q431.40625 68.645836 430.95312 68.44271Q430.51562 68.22396 430.28125 67.84896Q430.04688 67.47396 430.04688 67.00521Q430.04688 66.59896 430.23438 66.239586Q430.42188 65.88021 430.75 65.645836Q431.0 65.47396 431.42188 65.34896Q431.84375 65.22396 432.34375 65.22396Q433.0625 65.22396 433.60938 65.44271Q434.17188 65.645836 434.4375 66.00521Q434.70312 66.364586 434.79688 66.958336L433.76562 67.09896Q433.70312 66.63021 433.35938 66.364586Q433.03125 66.083336 432.40625 66.083336Q431.6875 66.083336 431.375 66.333336Q431.0625 66.56771 431.0625 66.895836Q431.0625 67.09896 431.1875 67.25521Q431.32812 67.427086 431.59375 67.53646Q431.75 67.59896 432.53125 67.802086Q433.65625 68.114586 434.09375 68.302086Q434.53125 68.489586 434.78125 68.84896Q435.03125 69.208336 435.03125 69.75521Q435.03125 70.28646 434.71875 70.75521Q434.42188 71.208336 433.84375 71.47396Q433.26562 71.72396 432.53125 71.72396Q431.3125 71.72396 430.67188 71.22396Q430.04688 70.708336 429.875 69.72396ZM437.98438 74.114586L437.23438 74.114586Q438.98438 71.302086 438.98438 68.47396Q438.98438 67.38021 438.73438 66.28646Q438.53125 65.41146 438.17188 64.59896Q437.9375 64.083336 437.23438 62.84896L437.98438 62.84896Q439.07812 64.31771 439.60938 65.802086Q440.0625 67.083336 440.0625 68.47396Q440.0625 70.052086 439.45312 71.53646Q438.84375 73.00521 437.98438 74.114586Z" fill-rule="nonzero"/><path fill="#fbbc04" d="M456.5 62.583332C456.5 62.031048 456.94772 61.583332 457.5 61.583332L467.5 61.583332C468.05228 61.583332 468.5 62.031048 468.5 62.583332L468.5 72.583336C468.5 73.13562 468.05228 73.583336 467.5 73.583336L457.5 73.583336C456.94772 73.583336 456.5 73.13562 456.5 72.583336Z" fill-rule="nonzero"/><path fill="#1a1a1a" d="M479.60938 71.583336L479.60938 64.00521L476.78125 64.00521L476.78125 62.989586L483.59375 62.989586L483.59375 64.00521L480.75 64.00521L480.75 71.583336L479.60938 71.583336ZM484.29688 71.583336L484.29688 62.989586L485.34375 62.989586L485.34375 66.06771Q486.07812 65.22396 487.20312 65.22396Q487.90625 65.22396 488.40625 65.50521Q488.92188 65.770836 489.14062 66.25521Q489.35938 66.72396 489.35938 67.645836L489.35938 71.583336L488.3125 71.583336L488.3125 67.645836Q488.3125 66.84896 487.96875 66.489586Q487.625 66.13021 487.0 66.13021Q486.53125 66.13021 486.10938 66.38021Q485.70312 66.614586 485.51562 67.03646Q485.34375 67.44271 485.34375 68.177086L485.34375 71.583336L484.29688 71.583336ZM491.28125 71.583336L491.28125 65.364586L492.23438 65.364586L492.23438 66.302086Q492.59375 65.645836 492.89062 65.44271Q493.20312 65.22396 493.57812 65.22396Q494.10938 65.22396 494.65625 65.552086L494.29688 66.53646Q493.90625 66.302086 493.53125 66.302086Q493.17188 66.302086 492.89062 66.520836Q492.625 66.72396 492.51562 67.09896Q492.32812 67.66146 492.32812 68.31771L492.32812 71.583336L491.28125 71.583336ZM494.90625 68.47396Q494.90625 66.739586 495.85938 65.91146Q496.65625 65.22396 497.8125 65.22396Q499.09375 65.22396 499.90625 66.06771Q500.73438 66.895836 500.73438 68.38021Q500.73438 69.583336 500.375 70.270836Q500.01562 70.958336 499.3125 71.34896Q498.625 71.72396 497.8125 71.72396Q496.51562 71.72396 495.70312 70.895836Q494.90625 70.052086 494.90625 68.47396ZM495.98438 68.47396Q495.98438 69.66146 496.5 70.25521Q497.03125 70.84896 497.8125 70.84896Q498.60938 70.84896 499.125 70.25521Q499.64062 69.66146 499.64062 68.44271Q499.64062 67.28646 499.10938 66.69271Q498.59375 66.09896 497.8125 66.09896Q497.03125 66.09896 496.5 66.69271Q495.98438 67.270836 495.98438 68.47396ZM506.375 71.583336L506.375 70.66146Q505.64062 71.72396 504.39062 71.72396Q503.84375 71.72396 503.35938 71.520836Q502.89062 71.302086 502.65625 70.989586Q502.42188 70.66146 502.32812 70.19271Q502.26562 69.895836 502.26562 69.208336L502.26562 65.364586L503.32812 65.364586L503.32812 68.81771Q503.32812 69.63021 503.39062 69.927086Q503.48438 70.333336 503.79688 70.583336Q504.125 70.81771 504.60938 70.81771Q505.07812 70.81771 505.48438 70.583336Q505.90625 70.333336 506.07812 69.91146Q506.26562 69.489586 506.26562 68.69271L506.26562 65.364586L507.3125 65.364586L507.3125 71.583336L506.375 71.583336ZM509.09375 72.09896L510.125 72.25521Q510.1875 72.72396 510.48438 72.94271Q510.875 73.239586 511.54688 73.239586Q512.28125 73.239586 512.6719 72.94271Q513.0781 72.645836 513.21875 72.13021Q513.3125 71.802086 513.2969 70.770836Q512.6094 71.583336 511.57812 71.583336Q510.29688 71.583336 509.59375 70.66146Q508.89062 69.72396 508.89062 68.44271Q508.89062 67.552086 509.20312 66.802086Q509.53125 66.03646 510.14062 65.63021Q510.75 65.22396 511.57812 65.22396Q512.6875 65.22396 513.40625 66.114586L513.40625 65.364586L514.375 65.364586L514.375 70.739586Q514.375 72.19271 514.0781 72.802086Q513.78125 73.41146 513.1406 73.75521Q512.5 74.114586 511.5625 74.114586Q510.45312 74.114586 509.76562 73.614586Q509.07812 73.114586 509.09375 72.09896ZM509.96875 68.364586Q509.96875 69.583336 510.45312 70.145836Q510.9375 70.708336 511.67188 70.708336Q512.40625 70.708336 512.8906 70.145836Q513.3906 69.583336 513.3906 68.395836Q513.3906 67.25521 512.875 66.677086Q512.375 66.09896 511.65625 66.09896Q510.95312 66.09896 510.45312 66.677086Q509.96875 67.239586 509.96875 68.364586ZM516.2969 71.583336L516.2969 62.989586L517.34375 62.989586L517.34375 66.06771Q518.0781 65.22396 519.2031 65.22396Q519.90625 65.22396 520.40625 65.50521Q520.9219 65.770836 521.1406 66.25521Q521.3594 66.72396 521.3594 67.645836L521.3594 71.583336L520.3125 71.583336L520.3125 67.645836Q520.3125 66.84896 519.96875 66.489586Q519.625 66.13021 519.0 66.13021Q518.53125 66.13021 518.1094 66.38021Q517.7031 66.614586 517.5156 67.03646Q517.34375 67.44271 517.34375 68.177086L517.34375 71.583336L516.2969 71.583336ZM523.2969 73.97396L523.2969 65.364586L524.25 65.364586L524.25 66.16146Q524.59375 65.69271 525.0156 65.458336Q525.4531 65.22396 526.0625 65.22396Q526.8594 65.22396 527.46875 65.63021Q528.0781 66.03646 528.375 66.78646Q528.6875 67.53646 528.6875 68.427086Q528.6875 69.38021 528.34375 70.145836Q528.0156 70.91146 527.3594 71.31771Q526.7031 71.72396 525.9844 71.72396Q525.4531 71.72396 525.03125 71.50521Q524.6094 71.270836 524.34375 70.94271L524.34375 73.97396L523.2969 73.97396ZM524.25 68.50521Q524.25 69.708336 524.7344 70.28646Q525.21875 70.84896 525.90625 70.84896Q526.6094 70.84896 527.1094 70.25521Q527.6094 69.66146 527.6094 68.41146Q527.6094 67.22396 527.125 66.645836Q526.6406 66.052086 525.9531 66.052086Q525.28125 66.052086 524.7656 66.677086Q524.25 67.302086 524.25 68.50521ZM534.375 71.583336L534.375 70.66146Q533.6406 71.72396 532.3906 71.72396Q531.84375 71.72396 531.3594 71.520836Q530.8906 71.302086 530.65625 70.989586Q530.4219 70.66146 530.3281 70.19271Q530.2656 69.895836 530.2656 69.208336L530.2656 65.364586L531.3281 65.364586L531.3281 68.81771Q531.3281 69.63021 531.3906 69.927086Q531.4844 70.333336 531.7969 70.583336Q532.125 70.81771 532.6094 70.81771Q533.0781 70.81771 533.4844 70.583336Q533.90625 70.333336 534.0781 69.91146Q534.2656 69.489586 534.2656 68.69271L534.2656 65.364586L535.3125 65.364586L535.3125 71.583336L534.375 71.583336ZM539.59375 70.645836L539.75 71.56771Q539.2969 71.66146 538.9531 71.66146Q538.375 71.66146 538.0625 71.489586Q537.75 71.302086 537.6094 71.00521Q537.4844 70.708336 537.4844 69.75521L537.4844 66.177086L536.71875 66.177086L536.71875 65.364586L537.4844 65.364586L537.4844 63.81771L538.53125 63.19271L538.53125 65.364586L539.59375 65.364586L539.59375 66.177086L538.53125 66.177086L538.53125 69.81771Q538.53125 70.270836 538.5781 70.395836Q538.6406 70.520836 538.7656 70.59896Q538.8906 70.677086 539.125 70.677086Q539.3125 70.677086 539.59375 70.645836ZM545.3125 74.114586Q544.4375 73.00521 543.8281 71.53646Q543.2344 70.052086 543.2344 68.47396Q543.2344 67.083336 543.6719 65.802086Q544.2031 64.31771 545.3125 62.84896L546.0625 62.84896Q545.3594 64.06771 545.125 64.583336Q544.7656 65.395836 544.5625 66.270836Q544.3125 67.364586 544.3125 68.47396Q544.3125 71.302086 546.0625 74.114586L545.3125 74.114586ZM547.28125 71.583336L547.28125 65.364586L548.2344 65.364586L548.2344 66.302086Q548.59375 65.645836 548.8906 65.44271Q549.2031 65.22396 549.5781 65.22396Q550.1094 65.22396 550.65625 65.552086L550.2969 66.53646Q549.90625 66.302086 549.53125 66.302086Q549.1719 66.302086 548.8906 66.520836Q548.625 66.72396 548.5156 67.09896Q548.3281 67.66146 548.3281 68.31771L548.3281 71.583336L547.28125 71.583336ZM555.5469 69.583336L556.6406 69.708336Q556.3906 70.66146 555.6875 71.19271Q554.9844 71.72396 553.90625 71.72396Q552.5469 71.72396 551.7344 70.88021Q550.9375 70.03646 550.9375 68.520836Q550.9375 66.958336 551.75 66.09896Q552.5625 65.22396 553.84375 65.22396Q555.09375 65.22396 555.875 66.06771Q556.6719 66.91146 556.6719 68.458336Q556.6719 68.552086 556.6719 68.739586L552.03125 68.739586Q552.09375 69.770836 552.6094 70.31771Q553.125 70.84896 553.90625 70.84896Q554.4844 70.84896 554.8906 70.552086Q555.3125 70.239586 555.5469 69.583336ZM552.09375 67.88021L555.5625 67.88021Q555.5 67.083336 555.1719 66.69271Q554.65625 66.083336 553.8594 66.083336Q553.125 66.083336 552.625 66.56771Q552.1406 67.052086 552.09375 67.88021ZM562.2656 73.97396L562.2656 70.927086Q562.0156 71.270836 561.5625 71.50521Q561.125 71.72396 560.625 71.72396Q559.5156 71.72396 558.71875 70.84896Q557.9219 69.958336 557.9219 68.41146Q557.9219 67.47396 558.25 66.739586Q558.5781 65.989586 559.1875 65.614586Q559.8125 65.22396 560.5469 65.22396Q561.7031 65.22396 562.3594 66.19271L562.3594 65.364586L563.3125 65.364586L563.3125 73.97396L562.2656 73.97396ZM559.0 68.458336Q559.0 69.66146 559.5 70.25521Q560.0156 70.84896 560.71875 70.84896Q561.3906 70.84896 561.875 70.28646Q562.3594 69.708336 562.3594 68.552086Q562.3594 67.302086 561.84375 66.677086Q561.34375 66.052086 560.6406 66.052086Q559.96875 66.052086 559.4844 66.645836Q559.0 67.22396 559.0 68.458336ZM564.5 71.72396L566.9844 62.84896L567.8281 62.84896L565.34375 71.72396L564.5 71.72396ZM567.875 69.72396L568.90625 69.56771Q569.0 70.19271 569.3906 70.520836Q569.7969 70.84896 570.53125 70.84896Q571.25 70.84896 571.59375 70.56771Q571.9531 70.270836 571.9531 69.864586Q571.9531 69.50521 571.6406 69.302086Q571.4219 69.16146 570.5625 68.94271Q569.40625 68.645836 568.9531 68.44271Q568.5156 68.22396 568.28125 67.84896Q568.0469 67.47396 568.0469 67.00521Q568.0469 66.59896 568.2344 66.239586Q568.4219 65.88021 568.75 65.645836Q569.0 65.47396 569.4219 65.34896Q569.84375 65.22396 570.34375 65.22396Q571.0625 65.22396 571.6094 65.44271Q572.1719 65.645836 572.4375 66.00521Q572.7031 66.364586 572.7969 66.958336L571.7656 67.09896Q571.7031 66.63021 571.3594 66.364586Q571.03125 66.083336 570.40625 66.083336Q569.6875 66.083336 569.375 66.333336Q569.0625 66.56771 569.0625 66.895836Q569.0625 67.09896 569.1875 67.25521Q569.3281 67.427086 569.59375 67.53646Q569.75 67.59896 570.53125 67.802086Q571.65625 68.114586 572.09375 68.302086Q572.53125 68.489586 572.78125 68.84896Q573.03125 69.208336 573.03125 69.75521Q573.03125 70.28646 572.71875 70.75521Q572.4219 71.208336 571.84375 71.47396Q571.2656 71.72396 570.53125 71.72396Q569.3125 71.72396 568.6719 71.22396Q568.0469 70.708336 567.875 69.72396ZM579.5469 69.583336L580.6406 69.708336Q580.3906 70.66146 579.6875 71.19271Q578.9844 71.72396 577.90625 71.72396Q576.5469 71.72396 575.7344 70.88021Q574.9375 70.03646 574.9375 68.520836Q574.9375 66.958336 575.75 66.09896Q576.5625 65.22396 577.84375 65.22396Q579.09375 65.22396 579.875 66.06771Q580.6719 66.91146 580.6719 68.458336Q580.6719 68.552086 580.6719 68.739586L576.03125 68.739586Q576.09375 69.770836 576.6094 70.31771Q577.125 70.84896 577.90625 70.84896Q578.4844 70.84896 578.8906 70.552086Q579.3125 70.239586 579.5469 69.583336ZM576.09375 67.88021L579.5625 67.88021Q579.5 67.083336 579.1719 66.69271Q578.65625 66.083336 577.8594 66.083336Q577.125 66.083336 576.625 66.56771Q576.1406 67.052086 576.09375 67.88021ZM586.3594 69.302086L587.3906 69.44271Q587.21875 70.50521 586.5156 71.114586Q585.8125 71.72396 584.7969 71.72396Q583.5156 71.72396 582.7344 70.895836Q581.96875 70.052086 581.96875 68.489586Q581.96875 67.489586 582.2969 66.739586Q582.6406 65.97396 583.3125 65.59896Q584.0 65.22396 584.8125 65.22396Q585.8125 65.22396 586.4531 65.739586Q587.1094 66.239586 587.2969 67.19271L586.2656 67.34896Q586.125 66.72396 585.75 66.41146Q585.375 66.083336 584.84375 66.083336Q584.0469 66.083336 583.5469 66.66146Q583.0469 67.22396 583.0469 68.458336Q583.0469 69.72396 583.53125 70.28646Q584.0156 70.84896 584.78125 70.84896Q585.40625 70.84896 585.8125 70.47396Q586.2344 70.09896 586.3594 69.302086ZM588.9844 74.114586L588.2344 74.114586Q589.9844 71.302086 589.9844 68.47396Q589.9844 67.38021 589.7344 66.28646Q589.53125 65.41146 589.1719 64.59896Q588.9375 64.083336 588.2344 62.84896L588.9844 62.84896Q590.0781 64.31771 590.6094 65.802086Q591.0625 67.083336 591.0625 68.47396Q591.0625 70.052086 590.4531 71.53646Q589.84375 73.00521 588.9844 74.114586Z" fill-rule="nonzero"/><path fill="#757575" d="M23.41875 40.95L23.41875 26.6375L28.79375 26.6375Q30.434376 26.6375 31.41875 27.075Q32.403126 27.496876 32.965626 28.403126Q33.528126 29.309376 33.528126 30.29375Q33.528126 31.215626 33.028126 32.028126Q32.54375 32.840626 31.528126 33.325Q32.825 33.715626 33.528126 34.6375Q34.23125 35.54375 34.23125 36.79375Q34.23125 37.809376 33.79375 38.66875Q33.371876 39.528126 32.746876 39.996876Q32.121876 40.465626 31.184376 40.715626Q30.246876 40.95 28.871876 40.95L23.41875 40.95ZM25.309376 32.653126L28.403126 32.653126Q29.66875 32.653126 30.215626 32.48125Q30.934376 32.2625 31.29375 31.778126Q31.66875 31.278126 31.66875 30.5125Q31.66875 29.809376 31.325 29.2625Q30.98125 28.715626 30.340626 28.528126Q29.715626 28.325 28.16875 28.325L25.309376 28.325L25.309376 32.653126ZM25.309376 39.2625L28.871876 39.2625Q29.79375 39.2625 30.16875 39.184376Q30.825 39.075 31.2625 38.809376Q31.7 38.528126 31.98125 38.0125Q32.2625 37.48125 32.2625 36.79375Q32.2625 35.996876 31.85625 35.403126Q31.45 34.809376 30.715626 34.575Q29.98125 34.340626 28.621876 34.340626L25.309376 34.340626L25.309376 39.2625ZM43.371876 37.60625L45.184376 37.840626Q44.7625 39.41875 43.590626 40.309376Q42.434376 41.184376 40.621876 41.184376Q38.35625 41.184376 37.0125 39.79375Q35.684376 38.3875 35.684376 35.85625Q35.684376 33.23125 37.028126 31.79375Q38.371876 30.340626 40.528126 30.340626Q42.60625 30.340626 43.91875 31.7625Q45.246876 33.16875 45.246876 35.746876Q45.246876 35.903126 45.23125 36.215626L37.496876 36.215626Q37.590626 37.91875 38.465626 38.825Q39.340626 39.73125 40.6375 39.73125Q41.60625 39.73125 42.278126 39.23125Q42.965626 38.715626 43.371876 37.60625ZM37.590626 34.7625L43.3875 34.7625Q43.278126 33.465626 42.73125 32.809376Q41.8875 31.79375 40.54375 31.79375Q39.340626 31.79375 38.5125 32.60625Q37.684376 33.403126 37.590626 34.7625ZM47.2625 40.95L47.2625 30.575L48.85625 30.575L48.85625 32.059376Q49.996876 30.340626 52.153126 30.340626Q53.090626 30.340626 53.871876 30.684376Q54.66875 31.0125 55.059376 31.559376Q55.45 32.10625 55.60625 32.85625Q55.7 33.35625 55.7 34.575L55.7 40.95L53.934376 40.95L53.934376 34.6375Q53.934376 33.559376 53.73125 33.028126Q53.528126 32.496876 52.996876 32.184376Q52.48125 31.871876 51.778126 31.871876Q50.653126 31.871876 49.840626 32.590626Q49.028126 33.29375 49.028126 35.278126L49.028126 40.95L47.2625 40.95ZM64.04375 37.153126L65.7625 37.371876Q65.48125 39.16875 64.30937 40.184376Q63.153126 41.184376 61.45 41.184376Q59.325 41.184376 58.028126 39.79375Q56.73125 38.403126 56.73125 35.809376Q56.73125 34.121876 57.278126 32.871876Q57.840626 31.60625 58.98125 30.98125Q60.121876 30.340626 61.465626 30.340626Q63.153126 30.340626 64.21562 31.2Q65.29375 32.059376 65.60625 33.621876L63.8875 33.8875Q63.653126 32.840626 63.028126 32.325Q62.403126 31.79375 61.528126 31.79375Q60.2 31.79375 59.371876 32.746876Q58.54375 33.7 58.54375 35.746876Q58.54375 37.840626 59.340626 38.79375Q60.1375 39.73125 61.434376 39.73125Q62.465626 39.73125 63.153126 39.10625Q63.85625 38.465626 64.04375 37.153126ZM67.2625 40.95L67.2625 26.6375L69.02812 26.6375L69.02812 31.7625Q70.2625 30.340626 72.1375 30.340626Q73.27812 30.340626 74.12187 30.79375Q74.98125 31.246876 75.34062 32.059376Q75.71562 32.85625 75.71562 34.371876L75.71562 40.95L73.96562 40.95L73.96562 34.371876Q73.96562 33.059376 73.3875 32.465626Q72.80937 31.85625 71.77812 31.85625Q70.99687 31.85625 70.29375 32.2625Q69.60625 32.66875 69.30937 33.371876Q69.02812 34.059376 69.02812 35.278126L69.02812 40.95L67.2625 40.95ZM77.2625 40.95L77.2625 30.575L78.84062 30.575L78.84062 32.028126Q79.325 31.278126 80.1375 30.809376Q80.95 30.340626 81.98125 30.340626Q83.1375 30.340626 83.87187 30.825Q84.60625 31.29375 84.91875 32.153126Q86.15312 30.340626 88.12187 30.340626Q89.66875 30.340626 90.49687 31.2Q91.325 32.059376 91.325 33.825L91.325 40.95L89.575 40.95L89.575 34.41875Q89.575 33.35625 89.40312 32.903126Q89.23125 32.434376 88.77812 32.153126Q88.34062 31.871876 87.73125 31.871876Q86.6375 31.871876 85.90312 32.60625Q85.18437 33.325 85.18437 34.91875L85.18437 40.95L83.43437 40.95L83.43437 34.215626Q83.43437 33.04375 82.99687 32.465626Q82.575 31.871876 81.59062 31.871876Q80.85625 31.871876 80.21562 32.2625Q79.59062 32.653126 79.30937 33.403126Q79.02812 34.153126 79.02812 35.575L79.02812 40.95L77.2625 40.95ZM100.04375 39.66875Q99.05937 40.496876 98.15312 40.840626Q97.24687 41.184376 96.21562 41.184376Q94.5125 41.184376 93.59062 40.35625Q92.66875 39.5125 92.66875 38.215626Q92.66875 37.45 93.0125 36.825Q93.37187 36.2 93.93437 35.825Q94.49687 35.434376 95.2 35.23125Q95.71562 35.10625 96.7625 34.965626Q98.8875 34.715626 99.8875 34.371876Q99.90312 34.0125 99.90312 33.903126Q99.90312 32.840626 99.40312 32.3875Q98.73125 31.79375 97.40312 31.79375Q96.15312 31.79375 95.55937 32.23125Q94.98125 32.66875 94.7 33.778126L92.98125 33.54375Q93.21562 32.434376 93.74687 31.7625Q94.27812 31.075 95.29375 30.715626Q96.30937 30.340626 97.65312 30.340626Q98.98125 30.340626 99.80937 30.653126Q100.6375 30.965626 101.02812 31.45Q101.41875 31.91875 101.575 32.6375Q101.66875 33.090626 101.66875 34.2625L101.66875 36.60625Q101.66875 39.059376 101.77812 39.715626Q101.8875 40.35625 102.23125 40.95L100.3875 40.95Q100.12187 40.403126 100.04375 39.66875ZM99.8875 35.746876Q98.93437 36.1375 97.0125 36.403126Q95.93437 36.559376 95.48125 36.7625Q95.04375 36.95 94.79375 37.325Q94.54375 37.7 94.54375 38.16875Q94.54375 38.871876 95.075 39.340626Q95.60625 39.809376 96.6375 39.809376Q97.65312 39.809376 98.43437 39.371876Q99.23125 38.91875 99.60625 38.153126Q99.8875 37.54375 99.8875 36.3875L99.8875 35.746876ZM104.24687 40.95L104.24687 30.575L105.825 30.575L105.825 32.153126Q106.43437 31.04375 106.95 30.7Q107.46562 30.340626 108.075 30.340626Q108.96562 30.340626 109.8875 30.903126L109.27812 32.54375Q108.6375 32.153126 107.99687 32.153126Q107.41875 32.153126 106.95 32.5125Q106.49687 32.85625 106.29375 33.465626Q106.0125 34.403126 106.0125 35.5125L106.0125 40.95L104.24687 40.95ZM111.27812 40.95L111.27812 26.6375L113.04375 26.6375L113.04375 34.79375L117.2 30.575L119.46562 30.575L115.5125 34.41875L119.87187 40.95L117.7 40.95L114.27812 35.653126L113.04375 36.840626L113.04375 40.95L111.27812 40.95ZM126.55937 37.85625L128.30937 37.575Q128.45 38.621876 129.12187 39.184376Q129.79375 39.73125 130.99687 39.73125Q132.2 39.73125 132.77812 39.246876Q133.37187 38.746876 133.37187 38.090626Q133.37187 37.496876 132.85625 37.153126Q132.49687 36.91875 131.05937 36.559376Q129.12187 36.059376 128.37187 35.715626Q127.6375 35.35625 127.24687 34.73125Q126.85625 34.090626 126.85625 33.325Q126.85625 32.6375 127.16875 32.04375Q127.49687 31.45 128.04375 31.059376Q128.45 30.7625 129.15312 30.559376Q129.87187 30.340626 130.68437 30.340626Q131.90312 30.340626 132.825 30.7Q133.74687 31.04375 134.18437 31.653126Q134.62187 32.246876 134.79375 33.246876L133.075 33.48125Q132.95 32.684376 132.3875 32.246876Q131.825 31.79375 130.80937 31.79375Q129.59062 31.79375 129.075 32.2Q128.55937 32.590626 128.55937 33.121876Q128.55937 33.465626 128.77812 33.746876Q128.98125 34.028126 129.45 34.215626Q129.71562 34.309376 130.99687 34.653126Q132.87187 35.153126 133.60625 35.48125Q134.34062 35.79375 134.7625 36.403126Q135.18437 36.996876 135.18437 37.903126Q135.18437 38.778126 134.66875 39.559376Q134.15312 40.340626 133.18437 40.7625Q132.21562 41.184376 130.99687 41.184376Q128.98125 41.184376 127.91875 40.340626Q126.85625 39.496876 126.55937 37.85625ZM144.05937 40.95L144.05937 39.41875Q142.85625 41.184376 140.77812 41.184376Q139.85625 41.184376 139.05937 40.840626Q138.2625 40.48125 137.87187 39.95Q137.49687 39.41875 137.34062 38.6375Q137.23125 38.121876 137.23125 36.996876L137.23125 30.575L138.98125 30.575L138.98125 36.325Q138.98125 37.7 139.09062 38.184376Q139.2625 38.871876 139.79375 39.278126Q140.34062 39.66875 141.12187 39.66875Q141.91875 39.66875 142.60625 39.2625Q143.30937 38.85625 143.59062 38.16875Q143.8875 37.465626 143.8875 36.1375L143.8875 30.575L145.6375 30.575L145.6375 40.95L144.05937 40.95ZM147.2625 40.95L147.2625 30.575L148.84062 30.575L148.84062 32.028126Q149.325 31.278126 150.1375 30.809376Q150.95 30.340626 151.98125 30.340626Q153.1375 30.340626 153.87187 30.825Q154.60625 31.29375 154.91875 32.153126Q156.15312 30.340626 158.12187 30.340626Q159.66875 30.340626 160.49687 31.2Q161.325 32.059376 161.325 33.825L161.325 40.95L159.575 40.95L159.575 34.41875Q159.575 33.35625 159.40312 32.903126Q159.23125 32.434376 158.77812 32.153126Q158.34062 31.871876 157.73125 31.871876Q156.6375 31.871876 155.90312 32.60625Q155.18437 33.325 155.18437 34.91875L155.18437 40.95L153.43437 40.95L153.43437 34.215626Q153.43437 33.04375 152.99687 32.465626Q152.575 31.871876 151.59062 31.871876Q150.85625 31.871876 150.21562 32.2625Q149.59062 32.653126 149.30937 33.403126Q149.02812 34.153126 149.02812 35.575L149.02812 40.95L147.2625 40.95ZM163.2625 40.95L163.2625 30.575L164.84062 30.575L164.84062 32.028126Q165.325 31.278126 166.1375 30.809376Q166.95 30.340626 167.98125 30.340626Q169.1375 30.340626 169.87187 30.825Q170.60625 31.29375 170.91875 32.153126Q172.15312 30.340626 174.12187 30.340626Q175.66875 30.340626 176.49687 31.2Q177.325 32.059376 177.325 33.825L177.325 40.95L175.575 40.95L175.575 34.41875Q175.575 33.35625 175.40312 32.903126Q175.23125 32.434376 174.77812 32.153126Q174.34062 31.871876 173.73125 31.871876Q172.6375 31.871876 171.90312 32.60625Q171.18437 33.325 171.18437 34.91875L171.18437 40.95L169.43437 40.95L169.43437 34.215626Q169.43437 33.04375 168.99687 32.465626Q168.575 31.871876 167.59062 31.871876Q166.85625 31.871876 166.21562 32.2625Q165.59062 32.653126 165.30937 33.403126Q165.02812 34.153126 165.02812 35.575L165.02812 40.95L163.2625 40.95ZM186.04375 39.66875Q185.05937 40.496876 184.15312 40.840626Q183.24687 41.184376 182.21562 41.184376Q180.5125 41.184376 179.59062 40.35625Q178.66875 39.5125 178.66875 38.215626Q178.66875 37.45 179.0125 36.825Q179.37187 36.2 179.93437 35.825Q180.49687 35.434376 181.2 35.23125Q181.71562 35.10625 182.7625 34.965626Q184.8875 34.715626 185.8875 34.371876Q185.90312 34.0125 185.90312 33.903126Q185.90312 32.840626 185.40312 32.3875Q184.73125 31.79375 183.40312 31.79375Q182.15312 31.79375 181.55937 32.23125Q180.98125 32.66875 180.7 33.778126L178.98125 33.54375Q179.21562 32.434376 179.74687 31.7625Q180.27812 31.075 181.29375 30.715626Q182.30937 30.340626 183.65312 30.340626Q184.98125 30.340626 185.80937 30.653126Q186.6375 30.965626 187.02812 31.45Q187.41875 31.91875 187.575 32.6375Q187.66875 33.090626 187.66875 34.2625L187.66875 36.60625Q187.66875 39.059376 187.77812 39.715626Q187.8875 40.35625 188.23125 40.95L186.3875 40.95Q186.12187 40.403126 186.04375 39.66875ZM185.8875 35.746876Q184.93437 36.1375 183.0125 36.403126Q181.93437 36.559376 181.48125 36.7625Q181.04375 36.95 180.79375 37.325Q180.54375 37.7 180.54375 38.16875Q180.54375 38.871876 181.075 39.340626Q181.60625 39.809376 182.6375 39.809376Q183.65312 39.809376 184.43437 39.371876Q185.23125 38.91875 185.60625 38.153126Q185.8875 37.54375 185.8875 36.3875L185.8875 35.746876ZM190.24687 40.95L190.24687 30.575L191.825 30.575L191.825 32.153126Q192.43437 31.04375 192.95 30.7Q193.46562 30.340626 194.075 30.340626Q194.96562 30.340626 195.8875 30.903126L195.27812 32.54375Q194.6375 32.153126 193.99687 32.153126Q193.41875 32.153126 192.95 32.5125Q192.49687 32.85625 192.29375 33.465626Q192.0125 34.403126 192.0125 35.5125L192.0125 40.95L190.24687 40.95ZM197.18437 44.95L196.99687 43.29375Q197.575 43.45 197.99687 43.45Q198.59062 43.45 198.93437 43.246876Q199.29375 43.059376 199.5125 42.715626Q199.68437 42.45 200.05937 41.403126Q200.10625 41.246876 200.21562 40.965626L196.27812 30.575L198.16875 30.575L200.325 36.590626Q200.74687 37.73125 201.075 38.98125Q201.3875 37.778126 201.79375 36.621876L204.0125 30.575L205.77812 30.575L201.825 41.121876Q201.2 42.840626 200.84062 43.48125Q200.37187 44.35625 199.7625 44.746876Q199.16875 45.153126 198.325 45.153126Q197.80937 45.153126 197.18437 44.95Z" fill-rule="nonzero"/></svg>