<svg width="230" height="194" viewBox="0 0 230 194" fill="none" xmlns="http://www.w3.org/2000/svg">
<rect x="81.144" y="24.5757" width="66.3065" height="53.7871" fill="white"/>
<path fill-rule="evenodd" clip-rule="evenodd" d="M126.699 169.674H134.393V134.848H126.699V169.674ZM211.617 134.809H203.572C203.572 141.684 203.588 148.216 203.564 154.748C203.541 159.089 200.454 162.144 196.206 162.105C191.919 162.074 189.931 159.9 189.9 155.067C189.861 149.354 189.9 143.633 189.876 137.919C189.868 136.883 189.697 135.846 189.604 134.856H182.09C181.957 135.168 181.824 135.332 181.824 135.495C181.801 143.656 181.669 151.833 181.824 159.993C181.902 163.968 183.773 167.078 187.694 168.746C191.708 166.073 196.151 166.307 200.602 166.852C204.235 167.305 207.789 167.055 211.695 166.268C211.664 155.746 211.78 145.301 211.617 134.809ZM174.28 143.025C174.186 139.642 172.019 137.156 168.909 135.722C165.698 134.241 162.275 133.601 158.845 134.412C156.008 135.082 153.303 136.306 150.458 137.32C149.227 136.251 147.816 135.036 146.273 133.687C144.347 135.418 142.679 136.907 141.019 138.395C144.573 142.853 144.573 142.853 144.573 148.66C144.573 154.646 144.573 160.64 144.581 166.626C144.581 167.593 144.666 168.567 144.721 169.658H152.657V150.149C152.657 145.909 154.871 143.064 159.002 141.996C163.835 140.749 166.36 142.659 166.375 147.632C166.399 153.976 166.375 160.329 166.391 166.681C166.391 167.648 166.485 168.614 166.539 169.596H174.35C174.35 160.601 174.506 151.809 174.28 143.025ZM70.2014 141.591C74.0518 141.856 75.5406 143.415 75.2758 147.32C71.3785 151.24 66.5376 149.58 61.9774 149.845C62.3052 145.005 66.1013 141.31 70.2014 141.591ZM81.411 159.261C79.4388 160.118 77.7162 160.913 75.9545 161.607C73.1951 162.706 70.3345 163.025 67.4036 162.433C64.4887 161.848 63.0851 160.453 62.5316 157.374C64.192 157.374 65.7982 157.367 67.3957 157.374C71.1686 157.413 74.8324 156.883 78.1995 155.091C85.0827 151.419 85.9321 141.918 79.7043 137.366C73.1018 132.533 63.2487 132.946 57.5432 139.736C53.2718 144.825 52.4376 150.78 53.4585 157.156C54.3006 162.363 56.9898 166.299 61.6743 168.645C68.3311 171.981 79.517 170.211 85.3323 164.958C84.0301 163.072 82.7126 161.163 81.411 159.261ZM228.889 155.052C226.668 149.923 220.495 146.501 214.836 147.296C214.329 147.366 213.861 147.686 213.284 147.936V155.87C214.352 155.699 215.233 155.488 216.121 155.434C218.351 155.294 220.534 156.502 221.329 158.24C222.225 160.188 221.711 162.971 219.996 164.476C219.13 165.232 218.101 165.995 217.018 166.283C214.415 166.977 211.749 167.725 209.075 167.834C204.187 168.045 199.277 167.725 194.382 167.874C190.422 167.999 186.696 170.025 184.638 173.408C181.068 179.284 182.744 187.437 188.138 191.397C193.376 195.24 201.186 194.554 205.825 189.783C209.169 186.346 210.61 182.059 211.367 177.134H203.19C202.909 178.022 202.66 179.074 202.254 180.064C201.81 181.147 201.351 182.254 200.696 183.213C199.074 185.583 196.159 186.362 193.734 185.216C191.817 184.312 190.554 181.685 190.975 179.48C191.489 176.775 192.877 175.816 196.4 175.808C201.389 175.793 206.378 175.964 211.359 175.8C216.348 175.629 221.009 174.195 224.992 171.046C229.692 167.336 231.299 160.617 228.889 155.052ZM111.327 159.284C109.246 162.02 106.314 162.721 103.127 162.706C101.591 162.698 100.055 162.456 98.0673 162.285C98.0673 156.836 97.8647 151.583 98.1534 146.353C98.2938 143.757 100.554 142.316 102.9 141.645C105.636 140.858 108.326 141.084 110.469 143.313C114.117 147.124 114.53 155.067 111.327 159.284ZM121.36 147.514C120.058 138.504 113.238 133.087 104.203 133.617C102.246 133.734 100.321 134.365 98.0531 134.833V120.094H89.814V168.411C93.5089 169.697 100.999 170.632 104.749 170.328C113.713 169.604 119.388 165.075 121.142 156.68C121.765 153.726 121.796 150.507 121.36 147.514ZM44.3844 134.84C42.1164 141.24 39.8323 147.655 37.5482 154.077H36.8233C34.5472 147.639 32.2632 141.209 29.9871 134.786H22.8861C20.5788 141.279 18.2948 147.709 16.0108 154.147H15.348C13.0336 147.647 10.7185 141.147 8.48074 134.872H0C4.1239 146.68 8.14575 158.193 12.1683 169.705H19.1681L26.0976 150.226H26.7994C29.1145 156.758 31.4217 163.298 33.6898 169.689H40.7055C44.7433 158.13 48.7652 146.61 52.8731 134.84H44.3844Z" fill="#FA5A28"/>
<path fill-rule="evenodd" clip-rule="evenodd" d="M155.931 81.1235L120.424 101.463C117.063 103.387 112.924 103.387 109.563 101.463L74.0553 81.1235C70.6949 79.1985 68.625 75.6418 68.625 71.7923V31.1141C68.625 27.2645 70.6949 23.7074 74.0553 21.7829L109.563 1.4438C112.924 -0.481267 117.063 -0.481267 120.424 1.4438L155.931 21.7829C159.291 23.7074 161.361 27.2645 161.361 31.1141V71.7923C161.361 75.6418 159.291 79.1985 155.931 81.1235ZM136.455 34.2952C133.792 41.7496 131.11 49.2229 128.429 56.7043H127.578C124.905 49.2047 122.224 41.7133 119.551 34.2319H111.214C108.505 41.7954 105.823 49.2862 103.142 56.7865H102.364C99.6458 49.2135 96.9278 41.6411 94.3008 34.3316H84.3436C89.1853 48.0875 93.9076 61.4985 98.6298 74.9095H106.848L114.985 52.2187H115.808C118.526 59.8281 121.236 67.4462 123.898 74.8912H132.135C136.876 61.4257 141.598 48.006 146.422 34.2952H136.455Z" fill="#FA5A28"/>
</svg>
