<svg width="32" height="32" viewBox="0 0 32 32" fill="none" xmlns="http://www.w3.org/2000/svg">
<path fill-rule="evenodd" clip-rule="evenodd" d="M21.6892 19.943C23.4073 19.943 24.8 18.57 24.8 16.8841C24.8 15.629 24.0332 14.5504 22.9329 14.0789C22.9045 12.2448 21.3834 10.7665 19.5111 10.7665C18.8524 10.7665 18.2372 10.9495 17.7151 11.2666C16.921 10.2204 15.6521 9.54297 14.2222 9.54297C11.8167 9.54297 9.86667 11.4602 9.86667 13.8253C9.86667 13.9098 9.86916 13.9938 9.87407 14.0771C8.77134 14.5482 8 15.6295 8 16.8841C8 18.5735 9.38911 19.943 11.1108 19.943H21.6892Z" fill="#FA5723"/>
<path d="M1.28093 1.33831L15.9377 3.65253L16 3.66238L16.0624 3.65253L30.7192 1.33831L28.4049 15.995L28.3951 16.0574L28.4049 16.1198L30.7192 30.7765L16.0624 28.4623L16 28.4525L15.9377 28.4623L1.28093 30.7765L3.59515 16.1198L3.605 16.0574L3.59515 15.995L1.28093 1.33831Z" stroke="#FECBBB" stroke-width="0.8"/>
<path d="M17.2 28.0004C17.2 28.6631 16.6628 29.2004 16 29.2004C15.3373 29.2004 14.8 28.6631 14.8 28.0004C14.8 27.3376 15.3373 26.8004 16 26.8004C16.6628 26.8004 17.2 27.3376 17.2 28.0004Z" fill="#FCAC93" stroke="#FA5A28" stroke-width="0.8"/>
<path d="M2.8 30.3998C2.8 31.0625 2.26274 31.5998 1.6 31.5998C0.937258 31.5998 0.4 31.0625 0.4 30.3998C0.4 29.7371 0.937258 29.1998 1.6 29.1998C2.26274 29.1998 2.8 29.7371 2.8 30.3998Z" fill="#FCAC93" stroke="#FA5A28" stroke-width="0.8"/>
<path d="M4.39998 16.0004C4.39998 16.6631 3.86272 17.2004 3.19998 17.2004C2.53723 17.2004 1.99998 16.6631 1.99998 16.0004C1.99998 15.3376 2.53723 14.8004 3.19998 14.8004C3.86272 14.8004 4.39998 15.3376 4.39998 16.0004Z" fill="#FCAC93" stroke="#FA5A28" stroke-width="0.8"/>
<path d="M30 16.0004C30 16.6631 29.4627 17.2004 28.8 17.2004C28.1372 17.2004 27.6 16.6631 27.6 16.0004C27.6 15.3376 28.1372 14.8004 28.8 14.8004C29.4627 14.8004 30 15.3376 30 16.0004Z" fill="#FCAC93" stroke="#FA5A28" stroke-width="0.8"/>
<path d="M31.6 30.3998C31.6 31.0625 31.0628 31.5998 30.4 31.5998C29.7373 31.5998 29.2 31.0625 29.2 30.3998C29.2 29.7371 29.7373 29.1998 30.4 29.1998C31.0628 29.1998 31.6 29.7371 31.6 30.3998Z" fill="#FCAC93" stroke="#FA5A28" stroke-width="0.8"/>
<path d="M17.2 3.99961C17.2 3.33687 16.6628 2.79961 16 2.79961C15.3373 2.79961 14.8 3.33687 14.8 3.99961C14.8 4.66235 15.3373 5.19961 16 5.19961C16.6628 5.19961 17.2 4.66235 17.2 3.99961Z" fill="#FCAC93" stroke="#FA5A28" stroke-width="0.8"/>
<path d="M2.8 1.6002C2.8 0.937454 2.26274 0.400195 1.6 0.400195C0.937258 0.400195 0.4 0.937454 0.4 1.6002C0.4 2.26294 0.937258 2.8002 1.6 2.8002C2.26274 2.8002 2.8 2.26294 2.8 1.6002Z" fill="#FCAC93" stroke="#FA5A28" stroke-width="0.8"/>
<path d="M31.6 1.6002C31.6 0.937454 31.0628 0.400195 30.4 0.400195C29.7373 0.400195 29.2 0.937454 29.2 1.6002C29.2 2.26294 29.7373 2.8002 30.4 2.8002C31.0628 2.8002 31.6 2.26294 31.6 1.6002Z" fill="#FCAC93" stroke="#FA5A28" stroke-width="0.8"/>
<circle cx="16" cy="19.9432" r="3.2" fill="white"/>
</svg>
