<svg width="33" height="32" viewBox="0 0 33 32" fill="none" xmlns="http://www.w3.org/2000/svg">
<path d="M12.2109 30.1104H20.1351" stroke="#FA5A28"/>
<path d="M12.2109 27.4688H20.1351" stroke="#FA5A28"/>
<path d="M6.37305 11.2734C6.37305 4.15564 12.8022 1.88965 16.1038 1.88965C19.2492 1.88965 25.6267 4.15564 25.6267 11.2734C25.6267 12.7099 24.9535 15.9321 23.0549 18.0852C21.097 20.3055 20.6916 23.221 20.6916 24.6886H11.9335C11.9335 23.5085 11.9335 20.6141 9.64036 18.9505C6.80439 16.893 6.37295 12.9184 6.37305 11.2734Z" stroke="#FA5A28"/>
<path fill-rule="evenodd" clip-rule="evenodd" d="M16.6979 17.3332C16.2662 17.5847 15.7343 17.5847 15.3025 17.3332L10.7404 14.6743C10.3087 14.4227 10.0427 13.9577 10.0427 13.4545V8.13676C10.0427 7.63353 10.3087 7.16851 10.7404 6.91693L15.3025 4.25808C15.7343 4.00642 16.2662 4.00642 16.6979 4.25808L21.26 6.91693C21.6917 7.16851 21.9577 7.63353 21.9577 8.13676V13.4545C21.9577 13.9577 21.6917 14.4227 21.26 14.6743L16.6979 17.3332ZM17.7262 11.4821H17.6169C17.2735 10.5017 16.929 9.52235 16.5857 8.54433H15.5145C15.1664 9.53309 14.8219 10.5123 14.4774 11.4928H14.3774C14.0282 10.5028 13.679 9.51291 13.3414 8.55737H12.0621C12.6842 10.3556 13.2909 12.1088 13.8976 13.862H14.9536L15.9989 10.8957H16.1048C16.454 11.8904 16.8021 12.8863 17.1442 13.8596H18.2025C18.8116 12.0993 19.4183 10.345 20.038 8.55262H18.7575C18.4153 9.5271 18.0707 10.5041 17.7262 11.4821Z" fill="#FA5A28"/>
<path d="M14.644 18.5557V24.8276" stroke="#FA5A28"/>
<path d="M17.7021 18.5557V24.8276" stroke="#FA5A28"/>
</svg>
