<svg width="24" height="24" viewBox="0 0 24 24" fill="none" xmlns="http://www.w3.org/2000/svg">
<g clip-path="url(#clip0_1371_43871)">
<path d="M15.2399 21.7194V17.3994H8.75994V21.7194H15.2399Z" fill="#FDAC93"/>
<path d="M15.2399 21.7194V17.3994H8.75994V21.7194M15.2399 21.7194H8.75994M15.2399 21.7194H17.8862M8.75994 21.7194H6.04102" stroke="#FA5A28" stroke-linecap="round" stroke-linejoin="round"/>
<path d="M1.19995 5.73579C1.19995 4.52607 1.19995 3.92122 1.43538 3.45917C1.64246 3.05274 1.9729 2.7223 2.37933 2.51521C2.84138 2.27979 3.44624 2.27979 4.65595 2.27979H19.3439C20.5537 2.27979 21.1585 2.27979 21.6206 2.51521C22.027 2.7223 22.3574 3.05274 22.5645 3.45917C22.7999 3.92122 22.7999 4.52607 22.7999 5.73579V13.9438C22.7999 15.1535 22.7999 15.7584 22.5645 16.2204C22.3574 16.6268 22.027 16.9573 21.6206 17.1644C21.1585 17.3998 20.5537 17.3998 19.3439 17.3998H4.65595C3.44624 17.3998 2.84138 17.3998 2.37933 17.1644C1.9729 16.9573 1.64246 16.6268 1.43538 16.2204C1.19995 15.7584 1.19995 15.1535 1.19995 13.9438V5.73579Z" fill="#FFF2EE" stroke="#FA5A28" stroke-linecap="round" stroke-linejoin="round"/>
</g>
<defs>
<clipPath id="clip0_1371_43871">
<rect width="24" height="24" fill="white"/>
</clipPath>
</defs>
</svg>
