<svg width="24" height="24" viewBox="0 0 24 24" fill="none" xmlns="http://www.w3.org/2000/svg">
  <g clip-path="url(#clip0_api)">
    <!-- left curly brace -->
    <path d="M10 4C8.5 4 8 4.8 8 6V10.5C8 11.3 7.2 12 6 12C7.2 12 8 12.7 8 13.5V18C8 19.2 8.5 20 10 20" stroke="#FA5A28" stroke-width="1.5" stroke-linecap="round" stroke-linejoin="round"/>
    <!-- right curly brace -->
    <path d="M14 4C15.5 4 16 4.8 16 6V10.5C16 11.3 16.8 12 18 12C16.8 12 16 12.7 16 13.5V18C16 19.2 15.5 20 14 20" stroke="#FA5A28" stroke-width="1.5" stroke-linecap="round" stroke-linejoin="round"/>
    <!-- center dot -->
    <circle cx="12" cy="12" r="1.2" fill="#FDAC93" stroke="#FA5A28" stroke-width="0.8"/>
  </g>
  <defs>
    <clipPath id="clip0_api">
      <rect width="24" height="24" fill="white"/>
    </clipPath>
  </defs>
</svg>
