<svg width="24" height="24" viewBox="0 0 24 24" fill="none" xmlns="http://www.w3.org/2000/svg">
  <g clip-path="url(#clip0_build_ai)">
    <path d="M7.2 2.27979H16.8C17.9201 2.27979 18.4802 2.27979 18.908 2.4618C19.2843 2.65355 19.5903 2.95951 19.782 3.33583C20 3.76366 20 4.32371 20 5.44379V10.5598C20 11.6799 20 12.2399 19.782 12.6677C19.5903 13.0441 19.2843 13.35 18.908 13.5418C18.4802 13.7598 17.9201 13.7598 16.8 13.7598H7.2C6.0799 13.7598 5.51985 13.7598 5.09202 13.5418C4.7157 13.35 4.40974 13.0441 4.21799 12.6677C4 12.2399 4 11.6799 4 10.5598V5.44379C4 4.32371 4 3.76366 4.21799 3.33583C4.40974 2.95951 4.7157 2.65355 5.09202 2.4618C5.51985 2.27979 6.0799 2.27979 7.2 2.27979Z" fill="#FFF2EE" stroke="#FA5A28" stroke-linecap="round" stroke-linejoin="round"/>
    <circle cx="8.5" cy="6.27979" r="1.2" fill="#FA5A28"/>
    <circle cx="15.5" cy="6.27979" r="1.2" fill="#FA5A28"/>
    <path d="M9.5 9.77979C9.5 9.77979 10.5 11.2798 12 11.2798C13.5 11.2798 14.5 9.77979 14.5 9.77979" stroke="#FA5A28" stroke-linecap="round" stroke-linejoin="round"/>
    <rect x="6" y="13.7598" width="3" height="3.24" fill="#FDAC93"/>
    <rect x="15" y="13.7598" width="3" height="3.24" fill="#FDAC93"/>
    <path d="M7.5 16.9998V18.7198C7.5 19.5438 7.5 19.9558 7.66349 20.2718C7.80732 20.5498 8.03018 20.7727 8.30821 20.9165C8.62415 21.0798 9.03614 21.0798 9.86011 21.0798H14.1399C14.9639 21.0798 15.3758 21.0798 15.6918 20.9165C15.9698 20.7727 16.1927 20.5498 16.3365 20.2718C16.5 19.9558 16.5 19.5438 16.5 18.7198V16.9998" stroke="#FA5A28" stroke-linecap="round" stroke-linejoin="round"/>
    <path d="M12 2.27979V1.27979M12 14.7598V1.27979M12 1.27979L9.5 3.27979M12 1.27979L14.5 3.27979" stroke="#FDAC93" stroke-linecap="round" stroke-linejoin="round"/>
  </g>
  <defs>
    <clipPath id="clip0_build_ai">
      <rect width="24" height="24" fill="white"/>
    </clipPath>
  </defs>
</svg>
