<svg width="24" height="24" viewBox="0 0 24 24" fill="none" xmlns="http://www.w3.org/2000/svg">
<g clip-path="url(#clip0_1367_27717)">
<rect x="1" y="1" width="12.8966" height="16.8235" rx="0.875" fill="#FA5A28" fill-opacity="0.2"/>
<rect x="3.27588" y="5.52979" width="8.34483" height="1.29412" rx="0.4375" fill="#FFEFEA"/>
<rect x="3.27588" y="8.11865" width="8.34483" height="1.29412" rx="0.4375" fill="#FFEFEA"/>
<rect x="3.27588" y="10.7056" width="8.34483" height="1.29412" rx="0.4375" fill="#FFEFEA"/>
<rect x="3.27588" y="13.2944" width="8.34483" height="1.29412" rx="0.4375" fill="#FFEFEA"/>
<rect x="5.55176" y="3.58887" width="12.8966" height="16.8235" rx="0.875" fill="#FA5A28" fill-opacity="0.5"/>
<rect x="8.58643" y="8.11865" width="8.34483" height="1.29412" rx="0.4375" fill="#FED1C3"/>
<rect x="8.58643" y="10.7056" width="8.34483" height="1.29412" rx="0.4375" fill="#FED1C3"/>
<rect x="8.58643" y="13.2944" width="8.34483" height="1.29412" rx="0.4375" fill="#FED1C3"/>
<rect x="8.58643" y="15.8813" width="8.34483" height="1.29412" rx="0.4375" fill="#FED1C3"/>
<rect x="10.1038" y="6.17578" width="12.8966" height="16.8235" rx="0.875" fill="#FA5A28"/>
<rect x="12.3796" y="10.0586" width="8.34483" height="1.29412" rx="0.4375" fill="#FED1C3"/>
<rect x="12.3796" y="12.6475" width="8.34483" height="1.29412" rx="0.4375" fill="#FED1C3"/>
<rect x="12.3796" y="15.2354" width="8.34483" height="1.29412" rx="0.4375" fill="#FED1C3"/>
<rect x="12.3796" y="17.8242" width="8.34483" height="1.29412" rx="0.4375" fill="#FED1C3"/>
</g>
<defs>
<clipPath id="clip0_1367_27717">
<rect width="24" height="24" fill="white"/>
</clipPath>
</defs>
</svg>
