<svg width="24" height="24" viewBox="0 0 24 24" fill="none" xmlns="http://www.w3.org/2000/svg">
<g clip-path="url(#clip0_1371_43905)">
<path fill-rule="evenodd" clip-rule="evenodd" d="M22.1475 7.76468C23.1701 7.76468 23.9991 6.88462 23.9991 5.80394C23.9991 4.99938 23.5427 4.308 22.8877 4.00575C22.8708 2.83002 21.9654 1.88244 20.851 1.88244C20.4589 1.88244 20.0927 1.99973 19.7819 2.20299C19.3093 1.53236 18.554 1.09814 17.7029 1.09814C16.2711 1.09814 15.1104 2.32714 15.1104 3.84319C15.1104 3.89737 15.1118 3.95118 15.1148 4.00457C14.4584 4.30656 13.9993 4.99969 13.9993 5.80394C13.9993 6.88683 14.8261 7.76468 15.8509 7.76468H22.1475Z" fill="#FEDED4"/>
<path fill-rule="evenodd" clip-rule="evenodd" d="M8.1482 14.4312C9.17082 14.4312 9.99981 13.5511 9.99981 12.4704C9.99981 11.6659 9.54339 10.9745 8.88848 10.6723C8.87156 9.49653 7.96615 8.54895 6.85172 8.54895C6.45964 8.54895 6.09343 8.66624 5.78268 8.86949C5.31 8.19887 4.55471 7.76465 3.70363 7.76465C2.27181 7.76465 1.11109 8.99365 1.11109 10.5097C1.11109 10.5639 1.11257 10.6177 1.1155 10.6711C0.459124 10.9731 0 11.6662 0 12.4704C0 13.5533 0.826834 14.4312 1.85161 14.4312H8.1482Z" fill="#FCAC93"/>
<path d="M11.4123 13.5654V17.8308L9.09009 20.153" stroke="#FCAC93"/>
<path d="M16.4837 13.5654V17.8308L18.8059 20.153" stroke="#FCAC93"/>
<path d="M13.8301 11.7642V22.0009" stroke="#FCAC93"/>
<mask id="path-6-inside-1_1371_43905" fill="white">
<ellipse cx="8.94809" cy="20.4371" rx="0.947849" ry="0.947849"/>
</mask>
<ellipse cx="8.94809" cy="20.4371" rx="0.947849" ry="0.947849" fill="#FCAC93"/>
<path d="M8.89594 20.4371C8.89594 20.4083 8.91929 20.385 8.94809 20.385V22.385C10.0239 22.385 10.8959 21.5129 10.8959 20.4371H8.89594ZM8.94809 20.385C8.97689 20.385 9.00024 20.4083 9.00024 20.4371H7.00024C7.00024 21.5129 7.87233 22.385 8.94809 22.385V20.385ZM9.00024 20.4371C9.00024 20.4659 8.97689 20.4893 8.94809 20.4893V18.4893C7.87233 18.4893 7.00024 19.3613 7.00024 20.4371H9.00024ZM8.94809 20.4893C8.91929 20.4893 8.89594 20.4659 8.89594 20.4371H10.8959C10.8959 19.3613 10.0239 18.4893 8.94809 18.4893V20.4893Z" fill="#FA5A28" mask="url(#path-6-inside-1_1371_43905)"/>
<mask id="path-8-inside-2_1371_43905" fill="white">
<ellipse cx="18.8062" cy="20.4371" rx="0.94785" ry="0.947849"/>
</mask>
<ellipse cx="18.8062" cy="20.4371" rx="0.94785" ry="0.947849" fill="#FCAC93"/>
<path d="M18.7541 20.4371C18.7541 20.4083 18.7774 20.385 18.8062 20.385V22.385C19.882 22.385 20.7541 21.5129 20.7541 20.4371H18.7541ZM18.8062 20.385C18.835 20.385 18.8584 20.4083 18.8584 20.4371H16.8584C16.8584 21.5129 17.7305 22.385 18.8062 22.385V20.385ZM18.8584 20.4371C18.8584 20.4659 18.835 20.4893 18.8062 20.4893V18.4893C17.7305 18.4893 16.8584 19.3613 16.8584 20.4371H18.8584ZM18.8062 20.4893C18.7774 20.4893 18.7541 20.4659 18.7541 20.4371H20.7541C20.7541 19.3613 19.882 18.4893 18.8062 18.4893V20.4893Z" fill="#FA5A28" mask="url(#path-8-inside-2_1371_43905)"/>
<mask id="path-10-inside-3_1371_43905" fill="white">
<ellipse cx="13.7821" cy="21.9537" rx="0.947849" ry="0.947849"/>
</mask>
<ellipse cx="13.7821" cy="21.9537" rx="0.947849" ry="0.947849" fill="#FCAC93"/>
<path d="M13.7299 21.9537C13.7299 21.9249 13.7533 21.9016 13.7821 21.9016V23.9016C14.8578 23.9016 15.7299 23.0295 15.7299 21.9537H13.7299ZM13.7821 21.9016C13.8109 21.9016 13.8342 21.9249 13.8342 21.9537H11.8342C11.8342 23.0295 12.7063 23.9016 13.7821 23.9016V21.9016ZM13.8342 21.9537C13.8342 21.9825 13.8109 22.0059 13.7821 22.0059V20.0059C12.7063 20.0059 11.8342 20.8779 11.8342 21.9537H13.8342ZM13.7821 22.0059C13.7533 22.0059 13.7299 21.9825 13.7299 21.9537H15.7299C15.7299 20.8779 14.8578 20.0059 13.7821 20.0059V22.0059Z" fill="#FA5A28" mask="url(#path-10-inside-3_1371_43905)"/>
<path fill-rule="evenodd" clip-rule="evenodd" d="M20.4202 15.7646C22.3972 15.7646 24 14.0925 24 12.0392C24 10.5105 23.1175 9.19688 21.8514 8.62259C21.8187 6.38872 20.0682 4.58831 17.9137 4.58831C17.1556 4.58831 16.4476 4.81116 15.8468 5.19734C14.933 3.92316 13.4728 3.09814 11.8274 3.09814C9.05916 3.09814 6.8151 5.43324 6.8151 8.31373C6.8151 8.41667 6.81797 8.5189 6.82362 8.62036C5.55463 9.19413 4.66699 10.5111 4.66699 12.0392C4.66699 14.0966 6.26554 15.7646 8.24677 15.7646H20.4202Z" fill="#FA5723"/>
</g>
<defs>
<clipPath id="clip0_1371_43905">
<rect width="24" height="24" fill="white"/>
</clipPath>
</defs>
</svg>
