<svg width="24" height="24" viewBox="0 0 24 24" fill="none" xmlns="http://www.w3.org/2000/svg">
<g>
<rect x="1.22831" y="1.22831" width="18.5023" height="14.8564" rx="0.68493" stroke="#FCA489" stroke-width="0.45662" stroke-dasharray="1.83 1.83"/>
<rect x="5.0105" y="5.37549" width="18.959" height="15.313" rx="0.91324" fill="#FED1C3"/>
<mask id="mask0_1367_27695" style="mask-type:alpha" maskUnits="userSpaceOnUse" x="5" y="5" width="19" height="16">
<rect x="5.0105" y="5.37549" width="18.959" height="15.313" rx="0.91324" fill="white"/>
</mask>
<g mask="url(#mask0_1367_27695)">
<path d="M6.20312 23.4226L18.5224 12.3545L44.6047 23.4226H6.20312Z" fill="#FCA489"/>
<mask id="mask1_1367_27695" style="mask-type:alpha" maskUnits="userSpaceOnUse" x="6" y="12" width="39" height="12">
<path d="M6.20312 23.4226L18.5224 12.3545L44.6047 23.4226H6.20312Z" fill="#FF9979"/>
</mask>
<g mask="url(#mask1_1367_27695)">
<path d="M23.348 23.0212L15.9764 13.1924L11.9146 16.8531L23.348 23.0212Z" fill="#FA5A28"/>
</g>
<path d="M9.95663 11.2959L-0.822754 21.4978H22.1797L9.95663 11.2959Z" fill="#FCA489"/>
<ellipse cx="15.7312" cy="9.65965" rx="1.7324" ry="1.7324" fill="#FA5A28"/>
</g>
<path d="M9.67362 14.2306L3.15553 18.6118L6.23253 19.2067L4.28406 22.5356C4.15685 22.7529 4.22959 23.0322 4.44665 23.1598L4.77435 23.3525C4.99457 23.4821 5.27821 23.4057 5.40363 23.1831L7.30606 19.8071L9.28107 22.1264L9.67362 14.2306Z" fill="#FA5A28"/>
</g>
<defs>
</defs>
</svg>
