<svg width="24" height="24" viewBox="0 0 24 24" fill="none" xmlns="http://www.w3.org/2000/svg">
  <g clip-path="url(#clip0_reference)">
    <path d="M7.2 2.27979H16.8C17.9201 2.27979 18.4802 2.27979 18.908 2.4618C19.2843 2.65355 19.5903 2.95951 19.782 3.33583C20 3.76366 20 4.32371 20 5.44379V18.5558C20 19.6759 20 20.2359 19.782 20.6637C19.5903 21.0401 19.2843 21.346 18.908 21.5378C18.4802 21.7598 17.9201 21.7598 16.8 21.7598H7.2C6.0799 21.7598 5.51985 21.7598 5.09202 21.5378C4.7157 21.346 4.40974 21.0401 4.21799 20.6637C4 20.2359 4 19.6759 4 18.5558V5.44379C4 4.32371 4 3.76366 4.21799 3.33583C4.40974 2.95951 4.7157 2.65355 5.09202 2.4618C5.51985 2.27979 6.0799 2.27979 7.2 2.27979Z" fill="#FFF2EE" stroke="#FA5A28" stroke-linecap="round" stroke-linejoin="round"/>
    <path d="M4 6.27979H20" stroke="#FA5A28" stroke-linecap="round" stroke-linejoin="round"/>
    <rect x="7" y="9.27979" width="10" height="1.5" rx="0.75" fill="#FDAC93"/>
    <rect x="7" y="12.2798" width="7" height="1.5" rx="0.75" fill="#FDAC93"/>
    <rect x="7" y="15.2798" width="10" height="1.5" rx="0.75" fill="#FDAC93"/>
    <rect x="7" y="18.2798" width="5" height="1.5" rx="0.75" fill="#FDAC93"/>
    <circle cx="7.5" cy="3.77979" r="0.6" fill="#FA5A28"/>
    <circle cx="9.3" cy="3.77979" r="0.6" fill="#FA5A28"/>
    <circle cx="11.1" cy="3.77979" r="0.6" fill="#FA5A28"/>
  </g>
  <defs>
    <clipPath id="clip0_reference">
      <rect width="24" height="24" fill="white"/>
    </clipPath>
  </defs>
</svg>
