<svg width="24" height="24" viewBox="0 0 24 24" fill="none" xmlns="http://www.w3.org/2000/svg">
<g clip-path="url(#clip0_1371_44007)">
<path d="M16.5819 5.29627C19.1125 7.82681 19.1125 11.9296 16.5819 14.4602M7.418 14.4602C4.88746 11.9296 4.88746 7.82681 7.418 5.29627M4.36313 17.5149C0.145559 13.2973 0.145559 6.45927 4.36313 2.2417M19.6368 2.2417C23.8543 6.45927 23.8543 13.2973 19.6368 17.5149" stroke="#FA5A28" stroke-linecap="round" stroke-linejoin="round"/>
<path d="M12 12.0387C13.1929 12.0387 14.16 11.0716 14.16 9.8787C14.16 8.68579 13.1929 7.71875 12 7.71875C10.8071 7.71875 9.84009 8.68579 9.84009 9.8787C9.84009 11.0716 10.8071 12.0387 12 12.0387Z" fill="#FFF2EE"/>
<path d="M12 12.0387C13.1929 12.0387 14.16 11.0716 14.16 9.8787C14.16 8.68579 13.1929 7.71875 12 7.71875C10.8071 7.71875 9.84009 8.68579 9.84009 9.8787C9.84009 11.0716 10.8071 12.0387 12 12.0387ZM12 12.0387V21.7584" stroke="#FA5A28" stroke-linecap="round" stroke-linejoin="round"/>
</g>
<defs>
<clipPath id="clip0_1371_44007">
<rect width="24" height="24" fill="white"/>
</clipPath>
</defs>
</svg>
