<svg width="24" height="24" viewBox="0 0 24 24" fill="none" xmlns="http://www.w3.org/2000/svg">
<g clip-path="url(#clip0_tenant_manager)">
<rect x="9" y="2" width="6" height="6" rx="1" fill="#FDAC93" stroke="#FA5A28" stroke-width="1.2" stroke-linecap="round" stroke-linejoin="round"/>
<path d="M10.2 3.2H13.8M10.2 3.2V6.8M13.8 3.2V6.8" stroke="#FA5A28" stroke-width="1" stroke-linecap="round" stroke-linejoin="round"/>
<rect x="2" y="16" width="6" height="6" rx="1" fill="#FFF2EE" stroke="#FA5A28" stroke-width="1.2" stroke-linecap="round" stroke-linejoin="round"/>
<path d="M3.2 17.2H6.8M3.2 17.2V20.8M6.8 17.2V20.8" stroke="#FDAC93" stroke-width="1" stroke-linecap="round" stroke-linejoin="round"/>
<rect x="16" y="16" width="6" height="6" rx="1" fill="#FFF2EE" stroke="#FA5A28" stroke-width="1.2" stroke-linecap="round" stroke-linejoin="round"/>
<path d="M17.2 17.2H20.8M17.2 17.2V20.8M20.8 17.2V20.8" stroke="#FDAC93" stroke-width="1" stroke-linecap="round" stroke-linejoin="round"/>
<path d="M5 16V13C5 12.4477 5.44772 12 6 12H18C18.5523 12 19 12.4477 19 13V16" stroke="#FA5A28" stroke-width="1.2" stroke-linecap="round" stroke-linejoin="round"/>
<path d="M12 12V8" stroke="#FA5A28" stroke-width="1.2" stroke-linecap="round" stroke-linejoin="round"/>
</g>
<defs>
<clipPath id="clip0_tenant_manager">
<rect width="24" height="24" fill="white"/>
</clipPath>
</defs>
</svg>