<svg width="24" height="24" viewBox="0 0 24 24" fill="none" xmlns="http://www.w3.org/2000/svg">
<g clip-path="url(#clip0_1371_43956)">
<path opacity="0.2" d="M7.53806 11.9998C7.53806 13.011 6.72282 13.8267 5.72216 13.8267C4.72149 13.8267 3.90625 13.011 3.90625 11.9998C3.90625 10.9886 4.72149 10.1729 5.72216 10.1729C6.72282 10.1729 7.53806 10.9886 7.53806 11.9998Z" stroke="#FA5A28"/>
<g opacity="0.2">
<path d="M5.71586 3.62842C5.0182 3.62842 4.45264 4.21377 4.45264 4.93584V9.46942C4.82424 9.24694 5.25568 9.1196 5.71586 9.1196C6.17603 9.1196 6.60747 9.24694 6.97908 9.46942V4.93584C6.97908 4.21377 6.41352 3.62842 5.71586 3.62842Z" fill="#FA5A28"/>
<path d="M4.45264 14.5225C4.82424 14.7449 5.25568 14.8723 5.71586 14.8723C6.17603 14.8723 6.60747 14.7449 6.97908 14.5225V21.1479C6.97908 21.87 6.41352 22.4553 5.71586 22.4553C5.0182 22.4553 4.45264 21.87 4.45264 21.1479V14.5225Z" fill="#FA5A28"/>
</g>
<path d="M13.8161 8.33327C13.8161 9.34449 13.0009 10.1602 12.0002 10.1602C10.9996 10.1602 10.1843 9.34449 10.1843 8.33327C10.1843 7.32205 10.9996 6.50635 12.0002 6.50635C13.0009 6.50635 13.8161 7.32205 13.8161 8.33327Z" stroke="#FA5A28"/>
<path d="M11.9937 1C11.296 1 10.7305 1.58663 10.7305 2.31028V5.86947C11.1021 5.6465 11.5335 5.51888 11.9937 5.51888C12.4539 5.51888 12.8853 5.6465 13.2569 5.86947V2.31028C13.2569 1.58663 12.6913 1 11.9937 1Z" fill="#FA5A28"/>
<path d="M10.7305 10.8313C11.1021 11.0543 11.5335 11.1819 11.9937 11.1819C12.4539 11.1819 12.8853 11.0543 13.2569 10.8313V21.6897C13.2569 22.4134 12.6913 23 11.9937 23C11.296 23 10.7305 22.4134 10.7305 21.6897V10.8313Z" fill="#FA5A28"/>
<path opacity="0.5" d="M20.0937 14.1023C20.0937 15.1135 19.2785 15.9292 18.2778 15.9292C17.2772 15.9292 16.4619 15.1135 16.4619 14.1023C16.4619 13.0911 17.2772 12.2754 18.2778 12.2754C19.2785 12.2754 20.0937 13.0911 20.0937 14.1023Z" stroke="#FA5A28"/>
<g opacity="0.5">
<path d="M18.271 3.62842C17.5734 3.62842 17.0078 4.21377 17.0078 4.93584V11.6123C17.3794 11.3898 17.8109 11.2625 18.271 11.2625C18.7312 11.2625 19.1626 11.3898 19.5343 11.6123V4.93584C19.5343 4.21377 18.9687 3.62842 18.271 3.62842Z" fill="#FA5A28"/>
<path d="M17.0078 16.5633C17.3794 16.7858 17.8109 16.9131 18.271 16.9131C18.7312 16.9131 19.1626 16.7858 19.5343 16.5633V21.1479C19.5343 21.87 18.9687 22.4553 18.271 22.4553C17.5734 22.4553 17.0078 21.87 17.0078 21.1479V16.5633Z" fill="#FA5A28"/>
</g>
</g>
<defs>
<clipPath id="clip0_1371_43956">
<rect width="24" height="24" fill="white"/>
</clipPath>
</defs>
</svg>
