<svg width="24" height="24" viewBox="0 0 24 24" fill="none" xmlns="http://www.w3.org/2000/svg">
<g clip-path="url(#clip0_1371_43990)">
<rect opacity="0.2" x="4.96387" y="2" width="15" height="18.3333" rx="2.27718" fill="#FA5A28"/>
<rect x="2.46387" y="3.66699" width="15" height="18.3333" rx="2.27718" fill="#FC8C69"/>
<rect x="5.09229" y="7.33838" width="9.98314" height="1.53846" rx="0.769231" fill="#FFEFEA"/>
<rect x="5.09229" y="10.4155" width="9.98314" height="1.53846" rx="0.769231" fill="#FFEFEA"/>
<rect x="5.09229" y="13.4917" width="9.98314" height="1.53846" rx="0.769231" fill="#FFEFEA"/>
<rect x="4.96387" y="16.167" width="7.5" height="1.66667" rx="0.833333" fill="#FFEFEA"/>
<path d="M8.58241 20.3329L8.58238 20.868L9.11955 20.8301L10.4734 20.7344C10.8681 20.7066 11.2394 20.5381 11.5191 20.2601L21.0837 10.7556C21.7256 10.1177 21.7256 9.08352 21.0837 8.44562L20.9201 8.28299C20.2781 7.6451 19.2374 7.6451 18.5954 8.28299L9.06394 17.7546C8.7557 18.0609 8.58253 18.4763 8.5825 18.9095L8.58241 20.3329Z" fill="#FA5A28" stroke="#FFEFEA"/>
</g>
<defs>
<clipPath id="clip0_1371_43990">
<rect width="24" height="24" fill="white"/>
</clipPath>
</defs>
</svg>
