<svg width="33" height="32" viewBox="0 0 33 32" fill="none" xmlns="http://www.w3.org/2000/svg">
<path d="M21.467 11.2V7.2C21.467 6.0799 21.467 5.51984 21.249 5.09202C21.0573 4.71569 20.7513 4.40973 20.375 4.21799C19.9471 4 19.3871 4 18.267 4H7.86699C6.74689 4 6.18683 4 5.75901 4.21799C5.38269 4.40973 5.07673 4.71569 4.88498 5.09202C4.66699 5.51984 4.66699 6.0799 4.66699 7.2V17.6C4.66699 18.7201 4.66699 19.2802 4.88498 19.708C5.07673 20.0843 5.38269 20.3903 5.75901 20.582C6.18683 20.8 6.74689 20.8 7.86699 20.8H11.867" stroke="#FCAC93" stroke-width="2" stroke-linecap="round" stroke-linejoin="round"/>
<path d="M16.6669 19.6002L19.0669 22.0002L24.4669 16.6002M15.7069 28.0002H24.8269C26.1711 28.0002 26.8431 28.0002 27.3565 27.7386C27.8081 27.5085 28.1753 27.1414 28.4054 26.6898C28.6669 26.1764 28.6669 25.5043 28.6669 24.1602V15.0402C28.6669 13.6961 28.6669 13.024 28.4054 12.5106C28.1753 12.059 27.8081 11.6919 27.3565 11.4618C26.8431 11.2002 26.1711 11.2002 24.8269 11.2002H15.7069C14.3628 11.2002 13.6908 11.2002 13.1774 11.4618C12.7258 11.6919 12.3586 12.059 12.1285 12.5106C11.8669 13.024 11.8669 13.6961 11.8669 15.0402V24.1602C11.8669 25.5043 11.8669 26.1764 12.1285 26.6898C12.3586 27.1414 12.7258 27.5085 13.1774 27.7386C13.6908 28.0002 14.3628 28.0002 15.7069 28.0002Z" stroke="#FA5A28" stroke-width="2" stroke-linecap="round" stroke-linejoin="round"/>
</svg>
