<svg width="32" height="32" viewBox="0 0 32 32" fill="none" xmlns="http://www.w3.org/2000/svg">
<path d="M5.43945 4.03418H8.88035H25.5228L27.6295 4.52573L29.1041 6.63237L29.5254 8.52834H2.5603V6.63237L3.54344 5.22794L5.43945 4.03418Z" fill="#FBCEC0"/>
<path d="M10.3198 24.1791H6.47485C4.26571 24.1791 2.47485 22.3882 2.47485 20.1791V8C2.47485 5.79086 4.26571 4 6.47485 4H25.3803C27.5894 4 29.3803 5.79086 29.3803 8V20.1791C29.3803 22.3882 27.5894 24.1791 25.3803 24.1791H22.0217" stroke="#FA5A28"/>
<path d="M13.1009 21.377V23.991L9.84668 27.2452" stroke="#FA5723"/>
<path d="M19.0866 21.377V23.991L22.3408 27.2452" stroke="#FA5723"/>
<path d="M15.9275 20.2559L15.9275 29.7849" stroke="#FA5723"/>
<line x1="2.47485" y1="8.54492" x2="29.3803" y2="8.54492" stroke="#FA5A28"/>
<path d="M17.0366 17.172V16.0908L19.1908 14.7414V14.7089L17.0366 13.3595V12.2783L20.1744 14.3106V15.1397L17.0366 17.172Z" fill="#FA5723"/>
<path d="M13.3223 18.7246L15.9967 11.6523H16.9966L14.3221 18.7246H13.3223Z" fill="#FA5723"/>
<path d="M13.2821 17.172L10.1443 15.1397V14.3106L13.2821 12.2783V13.3595L11.1279 14.7089V14.7414L13.2821 16.0908V17.172Z" fill="#FA5723"/>
<circle cx="9.43487" cy="27.9774" r="1.30645" fill="#FCAC93" stroke="#FA5723"/>
<circle cx="22.9146" cy="28.1219" r="1.30645" fill="#FCAC93" stroke="#FA5723"/>
<circle cx="15.9275" cy="30.1932" r="1.30645" fill="#FCAC93" stroke="#FA5723"/>
<ellipse cx="5.56969" cy="6.45714" rx="0.996202" ry="0.996202" fill="#FA5723"/>
<ellipse cx="8.62462" cy="6.45714" rx="0.996202" ry="0.996202" fill="#FA5723"/>
<ellipse cx="11.6798" cy="6.45714" rx="0.996202" ry="0.996202" fill="#FA5723"/>
</svg>
