<svg width="33" height="32" viewBox="0 0 33 32" fill="none" xmlns="http://www.w3.org/2000/svg">
<path fill-rule="evenodd" clip-rule="evenodd" d="M18.1474 7.50326C17.4175 7.51536 16.6902 7.54127 15.9632 7.56039C15.6614 7.57011 15.5631 7.67046 15.5349 7.97683C15.5038 8.5089 15.4384 9.04238 15.3969 9.57727C15.4017 9.7381 15.2867 9.87767 15.1278 9.90377C14.8829 9.96091 14.6471 10.0519 14.4273 10.1742C13.9809 10.4322 13.5499 10.7184 13.1189 11.0047C13.0373 11.077 12.9202 11.0931 12.8221 11.0455C12.5489 10.9166 12.2681 10.8009 11.9907 10.6855C11.7132 10.57 11.3618 10.4331 11.0472 10.3086C10.7395 10.2427 10.6032 10.5256 10.392 10.859C10.0731 11.3947 9.74774 11.9233 9.44229 12.4633C9.30852 12.7019 9.35172 12.8413 9.57135 13.0081C10.0305 13.3521 10.4931 13.6963 10.9592 14.0407C11.0408 14.0842 11.0776 14.1815 11.0451 14.2682C10.8107 15.1732 10.7858 16.1198 10.9723 17.036C10.9766 17.1141 10.9458 17.1901 10.8883 17.2433C10.4066 17.6361 9.91526 18.018 9.42711 18.4036C9.18334 18.5912 9.16151 18.7303 9.32699 19.0035C9.70554 19.6143 10.0873 20.2286 10.4586 20.8458C10.6241 21.119 10.7813 21.183 11.0732 21.0495C11.5869 20.8126 12.0972 20.5755 12.6045 20.3313C12.6897 20.2832 12.7969 20.3009 12.8622 20.3738C13.1558 20.6315 13.4682 20.8671 13.7967 21.0786C14.1898 21.2984 14.5956 21.4947 15.0119 21.6664C15.1117 21.6967 15.1827 21.7851 15.1906 21.8891C15.2655 22.4821 15.3474 23.0721 15.4293 23.6621C15.4799 24.0278 15.5479 24.0934 15.9282 24.0883C16.6475 24.0824 17.3674 24.0663 18.0867 24.0605C18.3984 24.0581 18.5136 23.9622 18.5454 23.6526C18.5987 23.0911 18.6623 22.5301 18.7089 21.9681C18.7068 21.8552 18.791 21.7593 18.9033 21.7468C19.7846 21.4758 20.5965 21.0164 21.2826 20.4006C21.3542 20.3572 21.4415 20.3484 21.5202 20.3768C22.0965 20.5919 22.6688 20.817 23.2413 21.0387C23.341 21.0944 23.4603 21.1031 23.567 21.0624C23.6738 21.0218 23.7571 20.9359 23.7945 20.8281C24.1449 20.1641 24.4986 19.5003 24.8353 18.8355C24.8805 18.7312 24.8708 18.6114 24.8095 18.5157C24.6621 18.3346 24.4935 18.172 24.3072 18.0312C23.9796 17.7793 23.6026 17.5519 23.2587 17.2854C23.1971 17.2377 23.1631 17.1627 23.1677 17.085C23.3386 16.248 23.3367 15.3849 23.1619 14.5487C23.1499 14.4694 23.1748 14.3889 23.2294 14.3302C23.6931 13.9535 24.163 13.5874 24.6363 13.2215C24.9517 12.9798 25.0006 12.8458 24.794 12.5154C24.4174 11.8911 24.0336 11.272 23.6427 10.6582C23.599 10.5603 23.5148 10.4862 23.4121 10.4552C23.3094 10.4242 23.1983 10.4394 23.1078 10.4969C22.5698 10.7392 22.0517 10.993 21.5001 11.2345C21.4356 11.2599 21.3632 11.2557 21.3022 11.223C20.6614 10.6363 19.905 10.1899 19.0816 9.91245C18.9747 9.8826 18.8998 9.78662 18.8968 9.67578C18.8181 9.08938 18.7392 8.50639 18.6569 7.9232C18.606 7.5643 18.5283 7.48789 18.1474 7.50326Z" fill="#FA5723"/>
<path fill-rule="evenodd" clip-rule="evenodd" d="M20.6252 15.7975C20.6252 17.7393 19.0511 19.3135 17.1092 19.3135C15.1674 19.3135 13.5933 17.7393 13.5933 15.7975C13.5933 13.8557 15.1674 12.2815 17.1092 12.2815C19.0511 12.2815 20.6252 13.8557 20.6252 15.7975Z" fill="#FBEBE6"/>
<path d="M5.10693 25.5609L9.6658 25.5609L12.7541 22.4727" stroke="#FCAC93" stroke-linecap="round"/>
<path d="M29.814 25.5609L25.2551 25.5609L22.1668 22.4727" stroke="#FCAC93" stroke-linecap="round"/>
<path d="M17.1667 26.0889L17.1667 30.0278" stroke="#FCAC93" stroke-linecap="round"/>
<path d="M5.66694 25C5.66694 25.8284 4.99538 26.4999 4.16697 26.4999C3.33855 26.4999 2.66699 25.8284 2.66699 25C2.66699 24.1716 3.33855 23.5 4.16697 23.5C4.99538 23.5 5.66694 24.1716 5.66694 25Z" fill="#FCAC93" stroke="#FA5A28"/>
<path d="M18.6669 29C18.6669 29.8284 17.9954 30.4999 17.167 30.4999C16.3386 30.4999 15.667 29.8284 15.667 29C15.667 28.1716 16.3386 27.5 17.167 27.5C17.9954 27.5 18.6669 28.1716 18.6669 29Z" fill="#FCAC93" stroke="#FA5A28"/>
<path d="M30.6665 25C30.6665 25.8284 29.9949 26.4999 29.1665 26.4999C28.3381 26.4999 27.6665 25.8284 27.6665 25C27.6665 24.1716 28.3381 23.5 29.1665 23.5C29.9949 23.5 30.6665 24.1716 30.6665 25Z" fill="#FCAC93" stroke="#FA5A28"/>
<path d="M5.10693 6.43913L9.6658 6.43913L12.7541 9.52734" stroke="#FCAC93" stroke-linecap="round"/>
<path d="M29.814 6.43913L25.2551 6.43913L22.1668 9.52734" stroke="#FCAC93" stroke-linecap="round"/>
<path d="M17.1667 5.91113L17.1667 1.97222" stroke="#FCAC93" stroke-linecap="round"/>
<path d="M5.66694 7.00003C5.66694 6.17162 4.99538 5.50005 4.16697 5.50005C3.33855 5.50005 2.66699 6.17162 2.66699 7.00003C2.66699 7.82844 3.33855 8.5 4.16697 8.5C4.99538 8.5 5.66694 7.82844 5.66694 7.00003Z" fill="#FCAC93" stroke="#FA5A28"/>
<path d="M18.6669 3.00003C18.6669 2.17162 17.9954 1.50005 17.167 1.50005C16.3386 1.50005 15.667 2.17162 15.667 3.00003C15.667 3.82844 16.3386 4.5 17.167 4.5C17.9954 4.5 18.6669 3.82844 18.6669 3.00003Z" fill="#FCAC93" stroke="#FA5A28"/>
<path d="M30.6665 7.00003C30.6665 6.17162 29.9949 5.50005 29.1665 5.50005C28.3381 5.50005 27.6665 6.17162 27.6665 7.00003C27.6665 7.82844 28.3381 8.5 29.1665 8.5C29.9949 8.5 30.6665 7.82844 30.6665 7.00003Z" fill="#FCAC93" stroke="#FA5A28"/>
</svg>
