<svg width="33" height="32" viewBox="0 0 33 32" fill="none" xmlns="http://www.w3.org/2000/svg">
<path d="M14.6774 26.2241V20.2305H18.9018V26.2241H20.5855L16.6977 30.9996L12.7488 26.2241H14.6774Z" fill="#FCAC93" stroke="#FA5723"/>
<path d="M14.6774 5.7757V11.3848H18.9018V5.7757H20.5855L16.6977 1.0002L12.7488 5.7757H14.6774Z" fill="#FCAC93" stroke="#FA5723"/>
<path d="M26.8915 17.9894L19.9363 17.9894L19.9363 13.7649L26.8915 13.7649L26.8915 12.0813L31.667 15.969L26.8915 19.918L26.8915 17.9894Z" fill="#FCAC93" stroke="#FA5723"/>
<path d="M6.44244 17.9894L13.0405 17.9894L13.0405 13.7649L6.44244 13.7649L6.44244 12.0813L1.66694 15.969L6.44244 19.918L6.44244 17.9894Z" fill="#FCAC93" stroke="#FA5723"/>
<path d="M19.3921 9.72917C19.7067 9.90714 20.0166 10.0934 20.3273 10.2801C20.4522 10.3552 20.5774 10.4304 20.703 10.5051L19.3921 9.72917ZM19.3921 9.72917C19.1972 9.61987 19.0833 9.65517 18.9469 9.83462L19.3921 9.72917ZM14.1856 22.3063C13.733 22.0771 13.281 21.8381 12.8289 21.5992C12.7385 21.5514 12.648 21.5036 12.5575 21.4559M14.1856 22.3063L10.2497 17.167C10.4217 17.1833 10.5937 17.2009 10.7657 17.2184C11.0524 17.2476 11.339 17.2768 11.626 17.3006C11.7183 17.2989 11.7966 17.3677 11.8069 17.4594C12.0283 18.1795 12.4036 18.8429 12.9068 19.4035M14.1856 22.3063C14.2708 22.3432 14.3687 22.3353 14.4469 22.2852M14.1856 22.3063L14.4469 22.2852M12.5575 21.4559C12.4694 21.4253 12.3993 21.3573 12.366 21.27C12.3328 21.1828 12.3399 21.0853 12.3854 21.0038M12.5575 21.4559L12.2075 22.1192C12.2194 22.1254 12.2312 22.1317 12.243 22.1379M12.5575 21.4559L12.3119 22.1645C12.2886 22.1564 12.2656 22.1475 12.243 22.1379M12.3854 21.0038C12.4273 20.8956 12.4694 20.7874 12.5115 20.6792C12.6512 20.3196 12.7912 19.9596 12.9262 19.5976M12.3854 21.0038L11.7306 20.6382C11.7195 20.658 11.7092 20.6781 11.6994 20.6984M12.3854 21.0038L11.6861 20.733C11.6905 20.7215 11.695 20.7099 11.6994 20.6984M12.9262 19.5976C12.9494 19.5333 12.9423 19.4619 12.9068 19.4035M12.9262 19.5976L12.7597 19.5355L12.9068 19.4035M12.9262 19.5976L12.7581 19.537L12.3487 19.9045C12.2675 19.814 12.1892 19.7212 12.1139 19.6262M12.9068 19.4035L12.7161 19.5192L12.2236 19.3354C12.1873 19.4325 12.1508 19.5294 12.1139 19.6262M12.1139 19.6262C11.7286 19.1402 11.4217 18.5968 11.2044 18.0158C11.0281 17.999 10.8512 17.981 10.6773 17.9633C10.507 17.9459 10.3396 17.9289 10.1787 17.9136L10.1731 17.9131L10.1731 17.913C9.99278 17.8945 9.66871 17.8374 9.4253 17.5602C9.18811 17.29 9.16777 16.968 9.16648 16.7984C9.16411 16.5076 9.15966 16.2163 9.15517 15.9219L9.15515 15.9206C9.15069 15.6281 9.14618 15.3325 9.14376 15.0366C9.1426 14.9472 9.14412 14.8269 9.16667 14.7042C9.19104 14.5715 9.24713 14.3943 9.3876 14.2323C9.528 14.0705 9.69496 13.9904 9.82078 13.9479C9.93753 13.9084 10.0546 13.8897 10.1388 13.8781C10.1388 13.8781 10.1388 13.8781 10.1389 13.8781C10.139 13.8781 10.1392 13.8781 10.1393 13.878L10.1415 13.8777C10.5236 13.8247 10.909 13.7712 11.2968 13.7204C11.4186 13.4482 11.5526 13.1815 11.6982 12.921L11.7096 12.9006L11.7223 12.8809C11.8492 12.6839 11.9855 12.4933 12.1308 12.3097C11.9835 11.9985 11.839 11.6869 11.6956 11.3759L11.6946 11.3737L11.6946 11.3737C11.6085 11.1855 11.5059 10.8742 11.6266 10.5262C11.7418 10.1939 11.9997 10.0118 12.1545 9.91808L12.1564 9.91692L12.1564 9.91692C12.6184 9.63896 13.0788 9.35356 13.5417 9.06662C13.5789 9.04358 13.616 9.02053 13.6532 8.99747L13.6597 8.99345L13.6598 8.99348C13.7982 8.90959 14.0847 8.75156 14.4417 8.81048C14.8075 8.87083 15.0249 9.11981 15.1297 9.2552C15.2096 9.35647 15.2887 9.45695 15.3672 9.55676C15.5336 9.76821 15.6976 9.97668 15.8631 10.1833C16.4802 10.0976 17.107 10.1122 17.7193 10.2267C17.9285 9.94463 18.1376 9.66403 18.3467 9.38496L18.3497 9.38096C18.4474 9.25238 18.6412 9.02768 18.9644 8.94631C19.3066 8.86016 19.5928 8.98183 19.7589 9.07499L19.7614 9.07637C20.0851 9.25952 20.4084 9.45377 20.7223 9.64242C20.8453 9.71636 20.9669 9.78944 21.0866 9.86065L21.0955 9.866L21.1044 9.8716C21.1158 9.87886 21.1307 9.88798 21.1483 9.89875C21.2482 9.95991 21.4347 10.0741 21.5667 10.1995C21.6613 10.2894 21.7742 10.423 21.8448 10.6096C21.9191 10.8059 21.9266 11.0079 21.886 11.1976L21.8729 11.2585L21.85 11.3165C21.829 11.3696 21.8072 11.4249 21.7849 11.4813C21.7025 11.6905 21.6141 11.9147 21.5371 12.0996C21.5303 12.116 21.5234 12.1325 21.5165 12.1492C21.4651 12.2727 21.4108 12.4033 21.353 12.536C21.5409 12.8204 21.7335 13.1184 21.9118 13.427L21.9179 13.4375L21.9178 13.4376C21.9955 13.5773 22.0617 13.7229 22.1158 13.8729C22.2104 13.8816 22.3008 13.8904 22.3892 13.899C22.6269 13.9221 22.8501 13.9438 23.1016 13.9585L23.1141 13.9593L23.1265 13.9604C23.2869 13.9752 23.6045 14.0187 23.8542 14.2731C24.1116 14.5355 24.1422 14.8614 24.1477 15.0331L24.1478 15.0375L24.1478 15.0375C24.1528 15.2273 24.1585 15.4195 24.1642 15.6131C24.1759 16.0124 24.1878 16.4177 24.1945 16.8203C24.2004 16.9639 24.2149 17.3345 23.9607 17.6352C23.7112 17.9304 23.3504 17.9807 23.2193 17.999C23.215 17.9996 23.2108 18.0002 23.207 18.0007L23.2065 18.0008C22.8281 18.0542 22.4502 18.1058 22.0718 18.1568M12.1139 19.6262C12.0155 19.885 11.9151 20.1434 11.8136 20.4044C11.7757 20.502 11.7376 20.5999 11.6994 20.6984M11.6994 20.6984C11.5743 20.9605 11.561 21.2635 11.6651 21.5369L11.6651 21.5369C11.7685 21.8084 11.9777 22.0248 12.243 22.1379M12.243 22.1379C12.3208 22.1789 12.3987 22.2201 12.4769 22.2615C12.9289 22.5004 13.3878 22.7429 13.8467 22.9754L13.867 22.9856L13.8878 22.9946C14.2019 23.1305 14.563 23.1014 14.8512 22.9169L14.8872 22.8938L14.9204 22.8669C15.1142 22.7091 15.2884 22.5287 15.4392 22.3295M15.4392 22.3295C15.5516 22.1831 15.6569 22.0289 15.7496 21.8929L15.7624 21.8743C15.7931 21.8292 15.8228 21.7859 15.8517 21.7441M15.4392 22.3295C15.4386 22.3303 15.438 22.3311 15.4374 22.3319L14.8428 21.8748M15.4392 22.3295C15.4398 22.3287 15.4405 22.3278 15.4411 22.327L14.8428 21.8748M15.8517 21.7441C16.3987 21.8182 16.9534 21.8149 17.4995 21.7341M15.8517 21.7441C15.7226 21.7265 15.5938 21.7047 15.4658 21.6785L15.5804 21.1175L15.5804 21.1174L15.6159 20.9437L15.6044 21.136L15.6044 21.1361L15.5712 21.6924C15.755 21.7033 15.9322 21.6229 16.0449 21.4775C15.9803 21.5609 15.9177 21.6487 15.8517 21.7441ZM17.4995 21.7341C17.7272 22.0194 17.9522 22.3086 18.1792 22.6024M17.4995 21.7341C17.4282 21.6447 17.3566 21.5557 17.2846 21.4671L17.7151 21.1173L17.8667 20.9942L17.7303 21.1407L17.8416 21.6731C17.7281 21.6969 17.614 21.7172 17.4995 21.7341ZM18.1792 22.6024L18.1797 22.6029C18.2713 22.7226 18.4887 23.0063 18.8548 23.0964C19.2574 23.1954 19.5858 23.0089 19.7418 22.9118M18.1792 22.6024L18.1773 22.5998L18.7726 22.1437L18.1792 22.6024ZM19.7418 22.9118C20.2444 22.6086 20.7428 22.2997 21.2371 21.9852C21.4841 21.8542 21.6696 21.6295 21.7509 21.3601L21.7509 21.36C21.8325 21.0896 21.8016 20.7987 21.6672 20.5525M19.7418 22.9118C19.7402 22.9128 19.7385 22.9137 19.7369 22.9147L19.3495 22.2725L19.7473 22.9084C19.7455 22.9095 19.7436 22.9106 19.7418 22.9118ZM21.6672 20.5525C21.5778 20.3549 21.4947 20.1772 21.4137 20.0038C21.3518 19.8716 21.2912 19.7418 21.2298 19.6077M21.6672 20.5525C21.6723 20.5638 21.6774 20.5752 21.6826 20.5867L20.9988 20.8948M21.6672 20.5525C21.6562 20.5324 21.6445 20.5125 21.6321 20.493L20.9988 20.8948M21.2298 19.6077C21.5787 19.1672 21.8623 18.6785 22.0718 18.1568M21.2298 19.6077C21.1434 19.7168 21.053 19.823 20.9587 19.9259L20.5262 19.5299M21.2298 19.6077C21.1816 19.5024 21.133 19.3944 21.0831 19.2803L20.5673 19.5062L20.4055 19.4195M22.0718 18.1568C22.1132 18.054 22.1516 17.9499 22.1871 17.8446L22.1933 17.8259L22.1986 17.8069C22.1951 17.8196 22.1911 17.8322 22.1867 17.8444C22.1205 18.0288 21.9603 18.1625 21.7692 18.1959C21.7433 18.2005 21.7168 18.2032 21.6899 18.2039L21.7299 18.2028L21.7694 18.1975C21.8703 18.184 21.9711 18.1704 22.0718 18.1568ZM20.5262 19.5299L21.6697 17.4542C21.5791 17.4566 21.5007 17.5178 21.4763 17.6051C21.2496 18.2779 20.8849 18.8959 20.4055 19.4195M20.5262 19.5299L20.3961 19.5812M20.5262 19.5299L20.5219 19.5261M20.4055 19.4195L20.5219 19.5261M20.4055 19.4195C20.3788 19.4694 20.3753 19.5285 20.3961 19.5812M20.5219 19.5261L20.867 21.3318C20.947 21.2961 21.0075 21.2274 21.0329 21.1435C21.0582 21.0595 21.0457 20.9688 20.9988 20.8948M20.5219 19.5261L20.3961 19.5812M20.3961 19.5812C20.5093 19.8398 20.6258 20.0894 20.742 20.3382C20.8283 20.523 20.9144 20.7074 20.9988 20.8948M14.8428 21.8748C14.7277 22.027 14.5948 22.1648 14.4469 22.2852M14.8428 21.8748C14.9426 21.7449 15.0378 21.6055 15.1342 21.4643C15.2364 21.3145 15.34 21.1627 15.4521 21.0181L14.4469 22.2852M12.2207 19.3432L12.7134 19.5209L12.2657 19.7926C12.1835 19.6572 12.167 19.492 12.2207 19.3432ZM21.0665 19.7738L20.5754 19.5105L21.0939 19.3063C21.1539 19.4586 21.1439 19.6295 21.0665 19.7738Z" fill="#FA5723" stroke="#FFE7E0" stroke-width="1.5"/>
<path fill-rule="evenodd" clip-rule="evenodd" d="M16.667 18.8667C15.0804 18.8667 13.7942 17.5805 13.7942 15.9939C13.7942 14.4073 15.0804 13.1211 16.667 13.1211C18.2536 13.1211 19.5398 14.4073 19.5398 15.9939C19.5398 17.5805 18.2536 18.8667 16.667 18.8667Z" fill="#FFE7E0"/>
</svg>
