<svg width="78" height="77" viewBox="0 0 78 77" fill="none" xmlns="http://www.w3.org/2000/svg">
<g filter="url(#filter0_d_1375_52699)">
<path fill-rule="evenodd" clip-rule="evenodd" d="M35.1074 31.9171C33.8015 32.4444 32.5098 32.9948 31.2142 33.5327C30.6774 33.7592 30.5699 34.008 30.7314 34.5792C31.0438 35.5588 31.2955 36.5647 31.5912 37.5566C31.7113 37.8428 31.6009 38.1738 31.3329 38.3308C30.9314 38.6033 30.5699 38.9305 30.2589 39.303C29.6337 40.0767 29.0559 40.8905 28.4781 41.7044C28.3812 41.8911 28.1815 42.0012 27.9719 41.9835C27.3907 41.9406 26.805 41.9268 26.2255 41.9111C25.7429 41.8979 25.1574 41.8936 24.5982 41.8889C24.377 41.887 24.1385 41.8767 23.9591 42.0062C23.6414 42.2357 23.5857 42.7383 23.4671 43.3307C23.2639 44.5163 23.0442 45.6933 22.8682 46.8772C22.7926 47.3994 22.9669 47.6205 23.4779 47.7688C24.4497 48.0438 25.4266 48.317 26.4088 48.5886C26.5973 48.6408 26.8234 48.6537 26.9375 48.8124C26.9791 48.8703 27.0037 48.941 27.0043 49.0169C27.198 50.7115 27.7546 52.3432 28.6351 53.8013C28.7363 53.9689 28.8591 54.1452 28.8283 54.3385C28.8204 54.388 28.8051 54.4365 28.7825 54.4825C28.1872 55.5234 27.567 56.5514 26.9551 57.5838C26.6461 58.0905 26.7031 58.356 27.1903 58.7333C28.2949 59.5709 29.4078 60.4127 30.5039 61.2669C30.991 61.6442 31.3183 61.6505 31.7516 61.2079C32.5124 60.4255 33.267 59.6452 34.0113 58.8542C34.1315 58.7087 34.3367 58.6662 34.5048 58.7522C35.212 59.0128 35.9376 59.2207 36.6756 59.3742C37.5357 59.4976 38.4023 59.57 39.2709 59.5909C39.4716 59.5763 39.6606 59.6864 39.7469 59.868C40.2924 60.884 40.8485 61.8896 41.4047 62.8953C41.7489 63.5188 41.9169 63.5897 42.5981 63.3171C43.8892 62.8083 45.1743 62.2808 46.4654 61.772C47.025 61.552 47.166 61.2995 47.0088 60.7201C46.7159 59.6719 46.442 58.6178 46.1366 57.5737C46.1041 57.4936 46.0978 57.409 46.1143 57.3297C46.1649 57.0854 46.4332 56.9644 46.6247 56.8045C47.7964 55.8254 48.7751 54.6362 49.5105 53.2982C49.63 53.0807 49.7517 52.8262 49.9941 52.7734C50.0275 52.7661 50.0618 52.762 50.0966 52.7613C51.2832 52.7494 52.4695 52.7584 53.6538 52.7611C53.872 52.7923 54.0928 52.7253 54.2569 52.5782C54.3443 52.4998 54.4108 52.4031 54.4528 52.2964C54.527 52.108 54.5161 51.8976 54.5401 51.6965C54.6998 50.3588 54.8626 49.02 54.9982 47.69C55.0073 47.471 54.9068 47.2619 54.7303 47.132C54.3395 46.9081 53.9231 46.732 53.4902 46.6075C52.7258 46.3809 51.8895 46.2325 51.0857 45.9908C51.0347 45.9755 50.9874 45.9516 50.9457 45.9207C50.7936 45.8079 50.7685 45.5991 50.7329 45.4131C50.4411 43.8894 49.8585 42.4351 49.0161 41.1302C48.9396 40.9957 48.9286 40.8335 48.9864 40.6899C49.5603 39.6905 50.1529 38.7058 50.7517 37.7192C51.1522 37.0656 51.1475 36.7904 50.5466 36.3387C49.514 35.5359 48.4735 34.7457 47.425 33.968C47.2668 33.8507 47.1247 33.7029 46.941 33.6319C46.8437 33.5943 46.7381 33.5781 46.6316 33.5861C46.5212 33.5943 46.4157 33.628 46.3225 33.6829C46.1593 33.7792 46.0453 33.9394 45.9127 34.0747C45.1847 34.8171 44.4855 35.5649 43.7284 36.3137C43.5353 36.4909 43.2414 36.3794 42.9944 36.2917C41.5414 35.7755 40.0013 35.5429 38.458 35.6081C38.245 35.6283 38.0436 35.5074 37.9615 35.3099C37.4137 34.3085 36.8678 33.3134 36.3157 32.3204C35.9755 31.7094 35.7826 31.6256 35.1074 31.9171Z" fill="#FBCEC0"/>
<path d="M35.2947 32.3809L35.2946 32.3807C34.4197 32.734 33.5535 33.0967 32.6848 33.4605C32.26 33.6384 31.8346 33.8165 31.4073 33.9939C31.2201 34.0731 31.1737 34.1241 31.1659 34.1346C31.1631 34.1448 31.1489 34.2155 31.2104 34.4356C31.3937 35.011 31.5619 35.6151 31.7273 36.2092C31.8395 36.6119 31.9504 37.0101 32.0638 37.3918C32.2595 37.8964 32.0655 38.4701 31.6024 38.7522C31.245 38.9964 30.9229 39.2885 30.6452 39.6204C30.0383 40.3717 29.4753 41.1635 28.9026 41.9703C28.7068 42.3136 28.3291 42.5142 27.933 42.482C27.4048 42.4431 26.8718 42.4287 26.3298 42.4141C26.2906 42.413 26.2513 42.412 26.2119 42.4109L26.2119 42.4109C25.7626 42.3986 25.2217 42.3941 24.6912 42.3897C24.6587 42.3894 24.6263 42.3891 24.594 42.3889C24.582 42.3888 24.5706 42.3887 24.5595 42.3886C24.4535 42.3876 24.3863 42.387 24.3235 42.3946L35.2947 32.3809ZM35.2947 32.3809L35.3056 32.3762M35.2947 32.3809L35.3056 32.3762M24.2518 42.4117C24.2515 42.4118 24.2514 42.4119 24.2514 42.4119C24.2514 42.4119 24.2516 42.4118 24.2518 42.4116L24.2518 42.4117ZM24.2518 42.4117C24.2265 42.4299 24.1747 42.4846 24.1174 42.6759C24.0743 42.8195 24.044 42.9786 24.0058 43.1793C23.9915 43.254 23.9762 43.3344 23.9587 43.4219C23.9 43.7644 23.8403 44.1043 23.7809 44.4426C23.6333 45.2824 23.4874 46.1127 23.3629 46.9496C23.3402 47.1073 23.3568 47.1635 23.362 47.1755C23.3661 47.1803 23.4108 47.2285 23.6157 47.2882C24.5859 47.5627 25.5614 47.8355 26.5421 48.1067C26.5698 48.1144 26.599 48.1209 26.6437 48.1308C26.65 48.1322 26.6566 48.1337 26.6636 48.1352C26.7132 48.1463 26.7812 48.1617 26.8507 48.1835C26.9875 48.2264 27.1941 48.3128 27.3435 48.5206C27.4376 48.6515 27.4956 48.8103 27.5034 48.9804C27.691 50.5963 28.2233 52.152 29.0632 53.5429C29.0689 53.5524 29.0758 53.5635 29.0834 53.5759C29.1252 53.6438 29.1909 53.7505 29.2384 53.8579C29.2992 53.9952 29.3583 54.1898 29.322 54.4173C29.3064 54.5155 29.276 54.6119 29.2312 54.7031L29.2243 54.7172L29.2165 54.7308C28.7678 55.5153 28.3042 56.2939 27.8433 57.0681C27.6901 57.3254 27.5372 57.5823 27.3852 57.8387L27.382 57.8441L27.382 57.8441C27.2731 58.0226 27.2644 58.0928 27.2641 58.1066C27.2683 58.1172 27.3012 58.1865 27.4945 58.3365C27.5767 58.3989 27.6591 58.4613 27.7414 58.5237C28.7636 59.2986 29.7943 60.0801 30.8108 60.8722M24.2518 42.4117L30.5039 61.2669M30.8108 60.8722C30.8109 60.8723 30.8111 60.8724 30.8112 60.8725L30.5039 61.2669M30.8108 60.8722C30.8105 60.872 30.8103 60.8718 30.81 60.8716L30.5039 61.2669M30.8108 60.8722C31.0272 61.0397 31.1131 61.0458 31.1312 61.0452L31.1313 61.0451C31.139 61.0449 31.2138 61.0424 31.394 60.8584M30.5039 61.2669C30.991 61.6442 31.3183 61.6505 31.7516 61.2079M31.394 60.8584C31.3937 60.8587 31.3934 60.859 31.3931 60.8593L31.7516 61.2079M31.394 60.8584C32.1511 60.0799 32.9001 59.3054 33.6383 58.5211M31.394 60.8584C31.3941 60.8583 31.3942 60.8582 31.3942 60.8582L31.7516 61.2079M31.7516 61.2079L42.047 62.9674M46.1366 57.5737C46.1041 57.4936 46.0978 57.409 46.1143 57.3297C46.1521 57.147 46.3119 57.0332 46.4701 56.9205C46.5233 56.8826 46.5764 56.8447 46.6247 56.8045C47.7964 55.8254 48.7751 54.6362 49.5105 53.2982C49.5192 53.2825 49.5278 53.2665 49.5366 53.2504C49.6483 53.0449 49.7693 52.8223 49.9941 52.7734C50.0275 52.7661 50.0618 52.762 50.0966 52.7613L54.2569 52.5782C54.3443 52.4998 54.4108 52.4031 54.4528 52.2964C54.5054 52.1628 54.5152 52.0181 54.5251 51.8735C54.5291 51.8142 54.5331 51.755 54.5401 51.6965C54.5567 51.5574 54.5733 51.4184 54.59 51.2793C54.7333 50.0805 54.8767 48.8818 54.9982 47.69M46.1366 57.5737L45.6567 57.7141C45.6586 57.7206 45.6605 57.7271 45.6624 57.7337M46.1366 57.5737L45.6733 57.7618C45.6695 57.7525 45.6659 57.7431 45.6624 57.7337M46.1366 57.5737C46.3274 58.2263 46.506 58.8827 46.6846 59.5392C46.7918 59.9331 46.899 60.327 47.0088 60.7201M45.6624 57.7337C45.6011 57.5674 45.5907 57.3923 45.6247 57.2283C45.6842 56.9407 45.8683 56.7578 45.9974 56.6507C46.0601 56.5986 46.1258 56.5518 46.175 56.5168L46.1812 56.5124C46.2369 56.4727 46.2736 56.4463 46.3041 56.4208C47.4281 55.4816 48.3669 54.3409 49.0723 53.0574C49.0787 53.0457 49.0858 53.0326 49.0935 53.0184C49.1432 52.9265 49.219 52.7863 49.3113 52.6673C49.4257 52.5201 49.6085 52.3456 49.8878 52.2848C49.9525 52.2708 50.0188 52.2628 50.086 52.2614L50.0916 52.2613L50.0916 52.2613C51.0075 52.2521 51.9242 52.2553 52.8359 52.2585C53.1094 52.2595 53.3825 52.2605 53.655 52.2611L53.69 52.2612L53.7246 52.2661C53.7965 52.2764 53.8691 52.2543 53.9231 52.2059C53.9518 52.1802 53.9737 52.1484 53.9875 52.1133C53.9992 52.0836 54.0095 52.0383 54.0175 51.9542C54.0188 51.9407 54.0208 51.9129 54.0233 51.8784C54.0286 51.8046 54.0362 51.6997 54.0436 51.6372C54.0602 51.4982 54.0769 51.3591 54.0935 51.2202C54.2361 50.0276 54.3781 48.84 54.4988 47.6594M45.6624 57.7337C45.8501 58.3763 46.0244 59.0169 46.2 59.6627C46.3073 60.0568 46.415 60.4529 46.5267 60.8526M54.4988 47.6594C54.4988 47.6627 54.4988 47.666 54.4987 47.6694L54.9982 47.69M54.4988 47.6594C54.4978 47.6167 54.4798 47.5763 54.4489 47.5472M54.4988 47.6594C54.4995 47.6527 54.5001 47.646 54.5008 47.6392L54.9982 47.69M54.9982 47.69L54.4489 47.5472M54.4489 47.5472C54.1025 47.3521 53.7343 47.1979 53.352 47.088L53.3481 47.0868C52.991 46.981 52.6152 46.8923 52.2177 46.7985L52.1879 46.7914C51.7845 46.6962 51.3604 46.5955 50.942 46.4697L54.4489 47.5472ZM46.5267 60.8526C46.5265 60.852 46.5264 60.8515 46.5262 60.851L47.0088 60.7201M46.5267 60.8526C46.5592 60.9728 46.5688 61.0502 46.5689 61.0986C46.5689 61.1215 46.5668 61.1348 46.5654 61.1412C46.5646 61.1444 46.564 61.1463 46.5637 61.1471L46.5631 61.1486L46.5619 61.1505C46.5616 61.151 46.5612 61.1515 46.5607 61.1521C46.5597 61.1533 46.5584 61.155 46.5565 61.157C46.5507 61.1633 46.5393 61.1742 46.5186 61.189C46.4747 61.2202 46.402 61.2597 46.2825 61.3067L46.2821 61.3068C45.635 61.5618 44.9897 61.8214 44.3462 62.0803L44.3452 62.0807C43.7009 62.3399 43.0585 62.5983 42.4148 62.8519L42.4123 62.8529C42.2495 62.9181 42.1479 62.9498 42.0804 62.9625C42.066 62.9652 42.055 62.9666 42.047 62.9674M46.5267 60.8526C46.5269 60.8533 46.527 60.8539 46.5272 60.8546L47.0088 60.7201M47.0088 60.7201C47.166 61.2995 47.025 61.552 46.4654 61.772C45.8199 62.0264 45.1758 62.2855 44.5318 62.5446L42.047 62.9674M42.047 62.9674C42.0415 62.9618 42.0342 62.9539 42.0252 62.9431C41.9819 62.8909 41.9254 62.8039 41.8424 62.6536L41.8422 62.6533C41.2875 61.6502 40.7345 60.6502 40.1922 59.6404M42.047 62.9674C42.0561 62.9767 42.0605 62.9797 42.0604 62.9795C42.0602 62.9793 42.0551 62.9757 42.0452 62.9721C42.0378 62.9694 42.0325 62.9685 42.0302 62.9682M42.047 62.9674C42.0378 62.9683 42.0324 62.9683 42.0302 62.9682M40.1922 59.6404C40.0188 59.2888 39.6539 59.0734 39.2631 59.0906M40.1922 59.6404C40.1906 59.6374 40.189 59.6345 40.1874 59.6315L39.7469 59.868L40.1985 59.6534C40.1964 59.6491 40.1943 59.6447 40.1922 59.6404ZM39.2631 59.0906C38.4261 59.0697 37.591 58.9998 36.7622 58.8815M39.2631 59.0906C39.2697 59.0908 39.2763 59.0909 39.2829 59.0911L39.2709 59.5909L39.2347 59.0922C39.2442 59.0916 39.2536 59.091 39.2631 59.0906ZM36.7622 58.8815C36.0614 58.735 35.3722 58.5377 34.7 58.2913M36.7622 58.8815C36.7673 58.8825 36.7723 58.8836 36.7774 58.8846L36.6756 59.3742L36.7467 58.8793C36.7519 58.88 36.757 58.8807 36.7622 58.8815ZM34.7 58.2913C34.3353 58.1226 33.9015 58.2157 33.6383 58.5211M34.7 58.2913C34.7109 58.2963 34.7217 58.3016 34.7325 58.307L34.5048 58.7522L34.6776 58.283C34.6851 58.2858 34.6926 58.2885 34.7 58.2913ZM33.6383 58.5211C33.6412 58.5179 33.6442 58.5147 33.6472 58.5116L34.0113 58.8542L33.6257 58.5359C33.6299 58.5309 33.634 58.526 33.6383 58.5211ZM42.0302 62.9682C42.0293 62.9681 42.0289 62.9681 42.029 62.9681L42.0302 62.9682ZM35.3056 32.3762C35.4639 32.3078 35.5645 32.2748 35.631 32.2616C35.6499 32.2578 35.6632 32.2562 35.6718 32.2556C35.678 32.2612 35.6869 32.2702 35.6987 32.284C35.7417 32.3342 35.7981 32.4185 35.8787 32.5633C36.4264 33.5485 36.9681 34.5359 37.5123 35.5306C37.6838 35.9089 38.0746 36.1401 38.4898 36.1072C39.9654 36.0463 41.4377 36.2693 42.8271 36.7628C42.8354 36.7658 42.8443 36.769 42.8537 36.7724C42.9634 36.8116 43.1396 36.8748 43.3173 36.8979C43.5232 36.9246 43.8187 36.9095 44.0665 36.6821L44.0734 36.6757M35.3056 32.3762L44.0734 36.6757M48.5884 41.3896L48.5815 41.3774C48.4295 41.1103 48.4078 40.7884 48.5225 40.5033L48.5355 40.4711L48.5528 40.4409C49.1299 39.436 49.725 38.4471 50.3242 37.4598L50.3254 37.4579C50.4198 37.3039 50.4749 37.1964 50.5046 37.1167C50.5187 37.0788 50.5247 37.0532 50.5272 37.0373C50.5285 37.0293 50.5288 37.0238 50.5288 37.0204C50.5288 37.0176 50.5286 37.0162 50.5286 37.0161L50.5283 37.0146C50.5281 37.0139 50.5275 37.012 50.526 37.0085C50.5228 37.0017 50.5149 36.9868 50.4962 36.9631C50.4559 36.9121 50.3814 36.84 50.2461 36.7383L50.2397 36.7335L50.2397 36.7334C49.2101 35.933 48.1726 35.145 47.1272 34.3696C47.0771 34.3325 47.0305 34.2945 46.9918 34.2629L46.9764 34.2503C46.9424 34.2224 46.9149 34.1999 46.8869 34.1782C46.8231 34.1289 46.7863 34.1082 46.7609 34.0984C46.7319 34.0872 46.7005 34.0823 46.6687 34.0847L48.5884 41.3896ZM48.5884 41.3896L48.596 41.4014M48.5884 41.3896L48.596 41.4014M48.596 41.4014C49.4036 42.6523 49.9621 44.0465 50.2418 45.5072C50.2438 45.5174 50.246 45.5296 50.2485 45.5434C50.2622 45.6188 50.2845 45.7418 50.3211 45.852C50.3683 45.9941 50.458 46.1815 50.648 46.3224C50.7355 46.3872 50.8347 46.4375 50.9418 46.4697L48.596 41.4014ZM44.0734 36.6757L44.08 36.6691M44.0734 36.6757L44.08 36.6691M44.08 36.6691C44.5571 36.1973 45.0171 35.7199 45.4707 35.2492C45.7385 34.9712 46.0041 34.6956 46.2697 34.4248C46.3114 34.3822 46.35 34.3394 46.3819 34.3038L46.3927 34.2919C46.4216 34.2595 46.445 34.2335 46.4688 34.2083C46.522 34.1524 46.5538 34.127 46.5766 34.1136C46.6044 34.0972 46.6358 34.0871 46.6686 34.0847L44.08 36.6691ZM27.2642 58.1092C27.2642 58.1092 27.2641 58.1087 27.2641 58.1078L27.2642 58.1092ZM23.3635 47.1781C23.3634 47.1781 23.3629 47.1774 23.3621 47.1756L23.3635 47.1781ZM31.1645 34.1366C31.1645 34.1366 31.1647 34.1362 31.1652 34.1354L31.1645 34.1366ZM35.685 32.2555C35.685 32.2555 35.6845 32.2555 35.6835 32.2553L35.685 32.2555ZM35.6626 32.248C35.6619 32.2476 35.6616 32.2473 35.6616 32.2473L35.6626 32.248Z" stroke="#FA5A28"/>
</g>
<path fill-rule="evenodd" clip-rule="evenodd" d="M42.8617 44.8195H42.3197C42.3197 42.3528 40.8755 40.932 38.8856 40.932C36.8957 40.932 35.4517 42.3528 35.4517 44.8195H34.9093C34.1109 44.8195 33.8459 45.1238 33.8459 45.9416V51.1247C33.8459 51.9426 34.1109 52.7129 34.9093 52.7129H42.8617C43.6603 52.7129 44.1542 51.9426 44.1542 51.1247V45.9416C44.1542 45.1238 43.6603 44.8195 42.8617 44.8195Z" fill="#FEEEE9"/>
<path d="M42.3197 44.8195H42.8617C43.6603 44.8195 44.1542 45.1238 44.1542 45.9416V51.1247C44.1542 51.9426 43.6603 52.7129 42.8617 52.7129H34.9093C34.1109 52.7129 33.8459 51.9426 33.8459 51.1247V45.9416C33.8459 45.1238 34.1109 44.8195 34.9093 44.8195H35.4517M42.3197 44.8195C42.3197 42.3528 40.8755 40.932 38.8856 40.932C36.8957 40.932 35.4517 42.3528 35.4517 44.8195M42.3197 44.8195H35.4517" stroke="#FA5A28"/>
<circle cx="38.9999" cy="47.8097" r="1.00017" stroke="#FA5A28"/>
<path d="M39.0513 49.1641V50.5217" stroke="#FA5A28"/>
<defs>
<filter id="filter0_d_1375_52699" x="0.686987" y="0.720551" width="76.4761" height="76.0416" filterUnits="userSpaceOnUse" color-interpolation-filters="sRGB">
<feFlood flood-opacity="0" result="BackgroundImageFix"/>
<feColorMatrix in="SourceAlpha" type="matrix" values="0 0 0 0 0 0 0 0 0 0 0 0 0 0 0 0 0 0 127 0" result="hardAlpha"/>
<feOffset dy="-8.87"/>
<feGaussianBlur stdDeviation="11.0822"/>
<feColorMatrix type="matrix" values="0 0 0 0 0.796891 0 0 0 0 0.354224 0 0 0 0 0.21589 0 0 0 0.1 0"/>
<feBlend mode="normal" in2="BackgroundImageFix" result="effect1_dropShadow_1375_52699"/>
<feBlend mode="normal" in="SourceGraphic" in2="effect1_dropShadow_1375_52699" result="shape"/>
</filter>
</defs>
</svg>
