<svg width="32" height="33" viewBox="0 0 32 33" fill="none" xmlns="http://www.w3.org/2000/svg">
<path fill-rule="evenodd" clip-rule="evenodd" d="M17.9891 0.597283C16.5809 0.620623 15.1778 0.670612 13.7754 0.707509C13.1931 0.726258 13.0034 0.919845 12.9491 1.5109C12.8891 2.53737 12.7629 3.56657 12.6827 4.59847C12.692 4.90875 12.4702 5.17802 12.1637 5.22837C11.6912 5.33861 11.2363 5.51423 10.8123 5.75017C9.95098 6.24783 9.11952 6.80003 8.28806 7.35226C8.13061 7.49168 7.90472 7.52276 7.71544 7.43102C7.18839 7.18231 6.64663 6.95919 6.11146 6.73644C5.66572 6.55089 5.12085 6.33668 4.60059 6.13151C4.39477 6.05035 4.17586 5.95512 3.96196 6.01162C3.58308 6.11169 3.35064 6.56079 3.02727 7.07111C2.41204 8.10474 1.78442 9.12446 1.19514 10.1662C0.937064 10.6265 1.02041 10.8955 1.44412 11.2173C2.25236 11.8228 3.06609 12.4285 3.8853 13.0347C4.04251 13.151 4.24887 13.2442 4.29842 13.4334C4.31647 13.5023 4.31399 13.5771 4.28737 13.6482C3.85972 15.2993 3.79352 17.0221 4.09185 18.6991C4.12614 18.8918 4.17741 19.1005 4.07924 19.2698C4.05411 19.3132 4.02244 19.353 3.98486 19.3878C3.05552 20.1455 2.10759 20.8824 1.16585 21.6263C0.69556 21.9883 0.653458 22.2566 0.972703 22.7836C1.703 23.9619 2.43949 25.1472 3.15585 26.3379C3.47509 26.8649 3.77831 26.9883 4.34156 26.7307C5.33258 26.2737 6.31701 25.8162 7.29564 25.3452C7.46005 25.2525 7.66684 25.2866 7.79281 25.4271C8.35936 25.9243 8.96196 26.3788 9.59568 26.787C10.3541 27.211 11.1369 27.5896 11.9401 27.921C12.1326 27.9794 12.2695 28.15 12.2849 28.3505C12.4294 29.4946 12.5874 30.6328 12.7454 31.7711C12.8429 32.4766 12.9742 32.6031 13.7079 32.5932C15.0955 32.5819 16.4844 32.5509 17.872 32.5395C18.4733 32.5351 18.6955 32.35 18.7568 31.7528C18.8598 30.6694 18.9825 29.5872 19.0723 28.503C19.0707 28.4166 19.0953 28.3354 19.1391 28.2673C19.274 28.0575 19.5679 28.0408 19.804 27.9603C21.2491 27.4671 22.5895 26.7086 23.7562 25.7238C23.9458 25.5637 24.1508 25.3698 24.396 25.4076C24.4298 25.4128 24.4633 25.4213 24.496 25.4331C25.6077 25.848 26.7118 26.2822 27.8162 26.7099C28.0086 26.8174 28.2387 26.8342 28.4447 26.7557C28.5544 26.714 28.6512 26.6475 28.7286 26.5631C28.8656 26.4138 28.931 26.2136 29.0256 26.0345C29.6548 24.8432 30.2874 23.6522 30.8915 22.4595C30.9785 22.2583 30.9599 22.0272 30.8417 21.8426C30.5573 21.4932 30.232 21.1794 29.8726 20.9078C29.2405 20.4219 28.5132 19.9832 27.8498 19.469C27.8076 19.4364 27.7721 19.3971 27.7443 19.3533C27.6428 19.1935 27.6944 18.9895 27.7279 18.8032C28.0025 17.2762 27.9809 15.7098 27.6631 14.1894C27.64 14.0364 27.6879 13.8811 27.7934 13.7679C28.6879 13.0411 29.5944 12.3348 30.5075 11.6289C31.116 11.1627 31.2104 10.9041 30.8117 10.2668C30.1362 9.14686 29.4487 8.03576 28.7493 6.93351C28.6438 6.76722 28.5642 6.57825 28.4182 6.44607C28.3408 6.37602 28.2481 6.32301 28.1459 6.29216C28.0399 6.26022 27.9293 6.25376 27.8226 6.27161C27.6358 6.30287 27.4718 6.41152 27.2995 6.49016C26.3535 6.92173 25.4324 7.36863 24.4571 7.79571C24.2132 7.89177 23.9789 7.68224 23.7799 7.51169C22.609 6.50824 21.2551 5.73832 19.7913 5.24511C19.5852 5.18752 19.4407 5.00237 19.4349 4.78853C19.2831 3.65724 19.1309 2.53253 18.9721 1.40743C18.8739 0.715053 18.724 0.567627 17.9891 0.597283Z" fill="#FBCEC0" stroke="#FA5A28" stroke-width="1"/>
<path fill-rule="evenodd" clip-rule="evenodd" d="M20.0158 13.8873H19.4737C19.4737 11.4206 18.0295 9.99989 16.0396 9.99989C14.0497 9.99989 12.6057 11.4206 12.6057 13.8873H12.0633C11.2649 13.8873 11 14.1917 11 15.0095V20.1926C11 21.0104 11.2649 21.7808 12.0633 21.7808H20.0158C20.8143 21.7808 21.3083 21.0104 21.3083 20.1926V15.0095C21.3083 14.1917 20.8143 13.8873 20.0158 13.8873Z" fill="#FEEEE9"/>
<path d="M19.4737 13.8873H20.0158C20.8143 13.8873 21.3083 14.1917 21.3083 15.0095V20.1926C21.3083 21.0104 20.8143 21.7808 20.0158 21.7808H12.0633C11.2649 21.7808 11 21.0104 11 20.1926V15.0095C11 14.1917 11.2649 13.8873 12.0633 13.8873H12.6057M19.4737 13.8873C19.4737 11.4206 18.0295 9.99989 16.0396 9.99989C14.0497 9.99989 12.6057 11.4206 12.6057 13.8873M19.4737 13.8873H12.6057" stroke="#FA5A28"/>
<circle cx="16.154" cy="16.8776" r="1.00017" stroke="#FA5A28"/>
<path d="M16.2051 18.2319V19.5896" stroke="#FA5A28"/>
</svg>
