<svg width="32" height="32" viewBox="0 0 32 32" fill="none" xmlns="http://www.w3.org/2000/svg">
<path d="M2.03345 8.66895L8.78809 4.58594L22.4482 12.2476L15.7945 16.1289L2.03345 8.66895Z" fill="#FEDED4"/>
<path d="M8.97949 4.7373L15.7341 0.654297L29.3943 8.31597L22.7406 12.1973L8.97949 4.7373Z" fill="#FCAC93"/>
<path d="M2.10107 23.6948V8.83203L15.7374 16.2634V31.1263L2.10107 23.6948Z" fill="#FCAC93"/>
<path d="M28.6334 8.95769L15.6971 16.1445M15.6971 16.1445L2.7609 8.95769M15.6971 16.1445L15.6972 30.6027M29.3944 16.1445V9.96778C29.3944 9.44631 29.3944 9.18557 29.3175 8.95303C29.2496 8.7473 29.1384 8.55846 28.9916 8.39913C28.8257 8.21903 28.5977 8.09241 28.1419 7.83916L16.8798 1.58242C16.4481 1.34263 16.2323 1.22274 16.0038 1.17573C15.8015 1.13413 15.5929 1.13413 15.3906 1.17573C15.1621 1.22274 14.9462 1.34264 14.5146 1.58242L3.25249 7.83916C2.79664 8.09241 2.56871 8.21904 2.40275 8.39913C2.25592 8.55846 2.14481 8.7473 2.07683 8.95303C2 9.18558 2 9.44631 2 9.96778V22.3213C2 22.8428 2 23.1035 2.07683 23.336C2.14481 23.5418 2.25592 23.7306 2.40275 23.8899C2.56871 24.07 2.79665 24.1967 3.25249 24.4499L14.5146 30.7066C14.9462 30.9464 15.162 31.0663 15.3906 31.1133C15.5929 31.1549 15.8015 31.1549 16.0038 31.1133C16.2323 31.0663 16.4481 30.9464 16.8798 30.7066L17.2191 30.5181M8.84859 4.73021L22.5458 12.3398" stroke="#FA5A28" stroke-linecap="round" stroke-linejoin="round"/>
<path d="M26.3506 29.8404C28.8722 29.8404 30.9164 27.7963 30.9164 25.2747C30.9164 22.7531 28.8722 20.709 26.3506 20.709C23.8291 20.709 21.7849 22.7531 21.7849 25.2747C21.7849 27.7963 23.8291 29.8404 26.3506 29.8404Z" fill="#FEDED4"/>
<path d="M30.9164 30.6014L29.3945 29.0795M30.9164 25.2747C30.9164 27.7963 28.8722 29.8404 26.3506 29.8404C23.8291 29.8404 21.7849 27.7963 21.7849 25.2747C21.7849 22.7531 23.8291 20.709 26.3506 20.709C28.8722 20.709 30.9164 22.7531 30.9164 25.2747Z" stroke="#FA5A28" stroke-linecap="round" stroke-linejoin="round"/>
</svg>
