<svg width="33" height="32" viewBox="0 0 33 32" fill="none" xmlns="http://www.w3.org/2000/svg">
<path d="M4.17932 5.31104L6.30554 4.37305H23.3153C24.2116 4.37305 26.1794 4.4356 26.8798 4.68581C27.7553 4.99857 27.7553 5.31104 27.9429 5.62385C28.093 5.8741 28.881 6.68701 29.2562 7.06218V12.1276H3.49146V7.06218L4.17932 5.31104Z" fill="#FEDED4"/>
<path d="M29.2222 12.0998H3.22217M3.22217 10.5398L3.22217 21.4598C3.22217 23.644 3.22217 24.7361 3.64724 25.5704C4.02115 26.3042 4.61777 26.9008 5.3516 27.2747C6.18586 27.6998 7.27796 27.6998 9.46216 27.6998H22.9822C25.1664 27.6998 26.2585 27.6998 27.0927 27.2747C27.8266 26.9008 28.4232 26.3042 28.7971 25.5704C29.2222 24.7361 29.2222 23.644 29.2222 21.4598V10.5398C29.2222 8.3556 29.2222 7.2635 28.7971 6.42924C28.4232 5.69541 27.8266 5.09879 27.0927 4.72488C26.2585 4.29981 25.1664 4.29981 22.9822 4.29981L9.46217 4.2998C7.27796 4.2998 6.18586 4.2998 5.35161 4.72488C4.61777 5.09878 4.02115 5.69541 3.64724 6.42924C3.22217 7.2635 3.22217 8.3556 3.22217 10.5398Z" stroke="#FA5A28" stroke-linecap="round" stroke-linejoin="round"/>
<path d="M18.8223 23.1494L22.0723 19.8994L18.8223 16.6494M13.6223 16.6494L10.3723 19.8994L13.6223 23.1494" stroke="#FA5A28" stroke-linecap="round" stroke-linejoin="round"/>
</svg>
