<svg width="33" height="32" viewBox="0 0 33 32" fill="none" xmlns="http://www.w3.org/2000/svg">
<path fill-rule="evenodd" clip-rule="evenodd" d="M28.9067 10.7062C30.185 10.7062 31.2212 9.60615 31.2212 8.25529C31.2212 7.24959 30.6507 6.38537 29.832 6.00755C29.8109 4.5379 28.6791 3.35342 27.2861 3.35342C26.796 3.35342 26.3382 3.50003 25.9498 3.7541C25.3589 2.91582 24.4148 2.37305 23.351 2.37305C21.5612 2.37305 20.1103 3.9093 20.1103 5.80435C20.1103 5.87207 20.1122 5.93934 20.1158 6.00608C19.2953 6.38356 18.7214 7.24998 18.7214 8.25529C18.7214 9.6089 19.755 10.7062 21.0359 10.7062H28.9067Z" fill="#FEDED4"/>
<path fill-rule="evenodd" clip-rule="evenodd" d="M11.4074 19.0392C12.6857 19.0392 13.7219 17.9392 13.7219 16.5883C13.7219 15.5826 13.1514 14.7184 12.3328 14.3406C12.3116 12.8709 11.1799 11.6864 9.78682 11.6864C9.29672 11.6864 8.83896 11.833 8.45052 12.0871C7.85967 11.2488 6.91555 10.7061 5.85171 10.7061C4.06193 10.7061 2.61103 12.2423 2.61103 14.1374C2.61103 14.2051 2.61288 14.2723 2.61654 14.3391C1.79607 14.7166 1.22217 15.583 1.22217 16.5883C1.22217 17.9419 2.25571 19.0392 3.53668 19.0392H11.4074Z" fill="#FCAC93"/>
<path d="M15.4875 17.958V23.2897L12.5847 26.1924" stroke="#FCAC93"/>
<path d="M21.8267 17.958V23.2897L24.7295 26.1924" stroke="#FCAC93"/>
<path d="M18.5095 15.7061V28.502" stroke="#FCAC93"/>
<path d="M13.092 26.5471C13.092 26.9253 12.7854 27.2319 12.4072 27.2319C12.029 27.2319 11.7224 26.9253 11.7224 26.5471C11.7224 26.1689 12.029 25.8623 12.4072 25.8623C12.7854 25.8623 13.092 26.1689 13.092 26.5471Z" fill="#FCAC93" stroke="#FA5A28"/>
<path d="M25.4145 26.5471C25.4145 26.9253 25.1079 27.2319 24.7297 27.2319C24.3515 27.2319 24.0449 26.9253 24.0449 26.5471C24.0449 26.1689 24.3515 25.8623 24.7297 25.8623C25.1079 25.8623 25.4145 26.1689 25.4145 26.5471Z" fill="#FCAC93" stroke="#FA5A28"/>
<path d="M19.1345 28.4426C19.1345 28.8208 18.8279 29.1274 18.4497 29.1274C18.0715 29.1274 17.7649 28.8208 17.7649 28.4426C17.7649 28.0644 18.0715 27.7578 18.4497 27.7578C18.8279 27.7578 19.1345 28.0644 19.1345 28.4426Z" fill="#FCAC93" stroke="#FA5A28"/>
<path fill-rule="evenodd" clip-rule="evenodd" d="M26.7474 20.7061C29.2187 20.7061 31.2221 18.6159 31.2221 16.0493C31.2221 14.1385 30.1191 12.4965 28.5364 11.7786C28.4955 8.98626 26.3074 6.73576 23.6142 6.73576C22.6667 6.73576 21.7817 7.01432 21.0307 7.49704C19.8884 5.90432 18.0631 4.87305 16.0064 4.87305C12.5461 4.87305 9.74104 7.79192 9.74104 11.3925C9.74104 11.5212 9.74462 11.649 9.75169 11.7758C8.16546 12.493 7.05591 14.1392 7.05591 16.0493C7.05591 18.6212 9.05409 20.7061 11.5306 20.7061H26.7474Z" fill="#FA5723"/>
</svg>
