<svg width="32" height="32" viewBox="0 0 32 32" fill="none" xmlns="http://www.w3.org/2000/svg">
<mask id="path-1-inside-1_1375_52193" fill="white">
<path fill-rule="evenodd" clip-rule="evenodd" d="M27.9346 24.6498L17.5832 30.5792C16.6036 31.1403 15.3967 31.1403 14.4171 30.5792L4.0655 24.6498C3.08586 24.0886 2.48242 23.0517 2.48242 21.9295L2.48242 10.0706C2.48242 8.94839 3.08586 7.91137 4.0655 7.35033L14.4171 1.42091C15.3967 0.859697 16.6036 0.859697 17.5832 1.42091L27.9346 7.35033C28.9143 7.91137 29.5177 8.94839 29.5177 10.0706V21.9295C29.5177 23.0517 28.9143 24.0886 27.9346 24.6498Z"/>
</mask>
<path fill-rule="evenodd" clip-rule="evenodd" d="M27.9346 24.6498L17.5832 30.5792C16.6036 31.1403 15.3967 31.1403 14.4171 30.5792L4.0655 24.6498C3.08586 24.0886 2.48242 23.0517 2.48242 21.9295L2.48242 10.0706C2.48242 8.94839 3.08586 7.91137 4.0655 7.35033L14.4171 1.42091C15.3967 0.859697 16.6036 0.859697 17.5832 1.42091L27.9346 7.35033C28.9143 7.91137 29.5177 8.94839 29.5177 10.0706V21.9295C29.5177 23.0517 28.9143 24.0886 27.9346 24.6498Z" fill="#FEDED4" stroke="#FA5A28" stroke-width="2" mask="url(#path-1-inside-1_1375_52193)"/>
<path fill-rule="evenodd" clip-rule="evenodd" d="M19.8617 13.8185H19.3197C19.3197 11.3518 17.8755 9.93104 15.8856 9.93104C13.8957 9.93104 12.4517 11.3518 12.4517 13.8185H11.9093C11.1109 13.8185 10.8459 14.1228 10.8459 14.9407V20.1237C10.8459 20.9416 11.1109 21.7119 11.9093 21.7119H19.8617C20.6603 21.7119 21.1542 20.9416 21.1542 20.1237V14.9407C21.1542 14.1228 20.6603 13.8185 19.8617 13.8185Z" fill="#FEEEE9"/>
<path d="M19.3197 13.8185H19.8617C20.6603 13.8185 21.1542 14.1228 21.1542 14.9407V20.1237C21.1542 20.9416 20.6603 21.7119 19.8617 21.7119H11.9093C11.1109 21.7119 10.8459 20.9416 10.8459 20.1237V14.9407C10.8459 14.1228 11.1109 13.8185 11.9093 13.8185H12.4517M19.3197 13.8185C19.3197 11.3518 17.8755 9.93104 15.8856 9.93104C13.8957 9.93104 12.4517 11.3518 12.4517 13.8185M19.3197 13.8185H12.4517" stroke="#FA5A28"/>
<circle cx="15.9999" cy="16.8088" r="1.00017" stroke="#FA5A28"/>
<path d="M16.0513 18.1631V19.5207" stroke="#FA5A28"/>
</svg>
