<svg width="32" height="32" viewBox="0 0 32 32" fill="none" xmlns="http://www.w3.org/2000/svg">
<path fill-rule="evenodd" clip-rule="evenodd" d="M25.1836 21.6114C28.1666 21.6114 30.5849 19.0885 30.5849 15.9904C30.5849 13.6839 29.2535 11.7019 27.3431 10.8354C27.2937 7.4649 24.6526 4.7484 21.4017 4.7484C20.258 4.7484 19.1897 5.08465 18.2832 5.66732C16.9044 3.74481 14.7012 2.5 12.2185 2.5C8.04181 2.5 4.65591 6.02326 4.65591 10.3694C4.65591 10.5247 4.66024 10.679 4.66877 10.8321C2.75409 11.6978 1.41479 13.6848 1.41479 15.9904C1.41479 19.0948 3.82672 21.6114 6.81606 21.6114H25.1836Z" fill="#FA5723"/>
<rect x="7" y="12.5" width="18" height="5" rx="1" fill="#FCAC93"/>
<rect x="7" y="18.5" width="18" height="5" rx="1" fill="#FEDED4"/>
<rect x="7" y="24.5" width="18" height="5" rx="1" fill="#FCAC93"/>
<circle cx="17.5" cy="15" r="1.5" fill="white"/>
<circle cx="17.5" cy="21" r="1.5" fill="white"/>
<circle cx="17.5" cy="27" r="1.5" fill="white"/>
<circle cx="22.5" cy="15" r="1.5" fill="white"/>
<circle cx="22.5" cy="21" r="1.5" fill="white"/>
<circle cx="22.5" cy="27" r="1.5" fill="white"/>
</svg>
